%FSTAX23Y23*%
%MOIN*%
%SFA1B1*%

%IPPOS*%
%ADD14C,0.010000*%
%ADD38C,0.006690*%
%ADD41C,0.023620*%
%ADD44C,0.011810*%
%LNnas-craftsman_nixie_base_v1_1-1*%
%LPD*%
G36*
X18343Y02689D02*
X18285D01*
Y02783*
X18343*
Y02689*
G37*
G36*
X18313Y02598D02*
X18312Y02598D01*
X18308Y02595*
X18307Y02595*
X18305Y02593*
X18304Y02592*
X18298Y02595*
X18298Y02596*
X18299Y02596*
X18299Y02597*
X18299Y02598*
X18299Y02598*
X18299Y02599*
X18299Y026*
X18299Y02601*
X18298Y02601*
X18298Y02602*
X18313Y02598*
G37*
G36*
X18318Y0257D02*
X18317Y02571D01*
X18317Y02572*
X18316Y02573*
X18315Y02574*
X18314Y02574*
X18313Y02575*
X18312Y02575*
X18311Y02575*
X1831Y02576*
X18309Y02576*
X18311Y02582*
X18312Y02582*
X18313Y02582*
X18314Y02583*
X18315Y02583*
X18316Y02583*
X18319Y02584*
X1832Y02585*
X18322Y02586*
X18318Y0257*
G37*
G36*
X18408Y02475D02*
X18407Y02474D01*
X18406Y02474*
X18406Y02473*
X18405Y02472*
X18405Y02471*
X18405Y0247*
X18405Y02469*
X18405Y02468*
X18405Y02467*
X18406Y02465*
X18391Y02473*
X18392Y02473*
X18396Y02475*
X18397Y02475*
X18399Y02476*
X184Y02477*
X184Y02478*
X18401Y02478*
X18408Y02475*
G37*
G36*
X1841Y02437D02*
X18409Y02436D01*
X18409Y02435*
X18408Y02434*
X18408Y02433*
X18407Y02432*
X18407Y02431*
X18407Y0243*
X18407Y02429*
X18406Y02428*
X18406Y02426*
X18395Y02438*
X18396Y02438*
X18397Y02438*
X18399Y02438*
X184Y02439*
X18401Y02439*
X18402Y02439*
X18403Y0244*
X18404Y0244*
X18404Y02441*
X18405Y02442*
X1841Y02437*
G37*
G36*
X18081Y02207D02*
X1808Y02206D01*
X18079Y02206*
X18079Y02205*
X18078Y02204*
X18078Y02203*
X18078Y02202*
X18077Y02202*
X18077Y02201*
X18077Y022*
X18077Y02199*
X18068Y02209*
X18069Y02209*
X18069Y02209*
X1807Y02209*
X18071Y02209*
X18072Y02209*
X18073Y02209*
X18073Y0221*
X18074Y0221*
X18075Y02211*
X18076Y02212*
X18081Y02207*
G37*
G36*
X19Y02186D02*
X18999Y02187D01*
X18998Y02188*
X18997Y02189*
X18996Y02189*
X18995Y0219*
X18994Y0219*
X18993Y02191*
X18992Y02191*
X18991Y02191*
X1899Y02191*
Y02198*
X18991Y02198*
X18992Y02198*
X18993Y02198*
X18994Y02198*
X18995Y02199*
X18996Y02199*
X18997Y022*
X18998Y02201*
X18999Y02202*
X19Y02203*
Y02186*
G37*
G36*
X18066Y02185D02*
X18064Y02185D01*
X18063Y02185*
X18062Y02185*
X18061Y02185*
X18059Y02184*
X18058Y02184*
X18057Y02184*
X18057Y02183*
X18056Y02182*
X18055Y02182*
X1805Y02186*
X18051Y02187*
X18052Y02188*
X18052Y02189*
X18053Y0219*
X18053Y02191*
X18053Y02192*
X18054Y02193*
X18054Y02194*
X18054Y02196*
X18054Y02197*
X18066Y02185*
G37*
G36*
X18186Y02195D02*
X18186Y02193D01*
X18186Y02192*
X18186Y02191*
X18187Y0219*
X18187Y02189*
X18188Y02188*
X18188Y02187*
X18189Y02186*
X18189Y02185*
X18185Y02181*
X18184Y02181*
X18183Y02182*
X18182Y02183*
X18181Y02183*
X1818Y02183*
X18179Y02184*
X18178Y02184*
X18177Y02184*
X18176Y02184*
X18174Y02184*
X18186Y02196*
X18186Y02195*
G37*
G36*
X1902Y02193D02*
X1902Y02192D01*
X1902Y0219*
X19021Y02189*
X19021Y02188*
X19021Y02187*
X19022Y02186*
X19022Y02185*
X19023Y02184*
X19024Y02184*
X19019Y02179*
X19018Y0218*
X19017Y0218*
X19016Y02181*
X19015Y02181*
X19014Y02182*
X19013Y02182*
X19012Y02182*
X19011Y02182*
X1901Y02183*
X19008Y02183*
X1902Y02194*
X1902Y02193*
G37*
G36*
X18906Y02183D02*
X18905Y02183D01*
X18903Y02182*
X18902Y02182*
X18901Y02182*
X189Y02182*
X18899Y02181*
X18898Y02181*
X18897Y0218*
X18896Y0218*
X18895Y02179*
X18891Y02184*
X18891Y02184*
X18892Y02185*
X18892Y02186*
X18893Y02187*
X18893Y02188*
X18894Y02189*
X18894Y0219*
X18894Y02192*
X18894Y02193*
X18894Y02194*
X18906Y02183*
G37*
G36*
X19Y02155D02*
X18999Y02156D01*
X18998Y02157*
X18997Y02158*
X18996Y02158*
X18995Y02159*
X18994Y02159*
X18993Y0216*
X18992Y0216*
X18991Y0216*
X1899Y0216*
Y02167*
X18991Y02167*
X18992Y02167*
X18993Y02167*
X18994Y02168*
X18995Y02168*
X18996Y02169*
X18997Y02169*
X18998Y0217*
X18999Y02171*
X19Y02172*
Y02155*
G37*
G36*
X18066Y02154D02*
X18064Y02154D01*
X18063Y02154*
X18062Y02154*
X18061Y02154*
X1806Y02154*
X18058Y02153*
X18058Y02153*
X18057Y02152*
X18056Y02152*
X18055Y02151*
X1805Y02156*
X18051Y02156*
X18052Y02157*
X18052Y02158*
X18053Y02159*
X18053Y0216*
X18053Y02161*
X18054Y02162*
X18054Y02163*
X18054Y02165*
X18054Y02166*
X18066Y02154*
G37*
G36*
X18186Y02164D02*
X18186Y02163D01*
X18186Y02161*
X18186Y0216*
X18187Y02159*
X18187Y02158*
X18188Y02157*
X18188Y02156*
X18189Y02155*
X18189Y02155*
X18185Y0215*
X18184Y02151*
X18183Y02151*
X18182Y02152*
X18181Y02152*
X1818Y02153*
X18179Y02153*
X18178Y02153*
X18177Y02153*
X18175Y02153*
X18174Y02153*
X18186Y02165*
X18186Y02164*
G37*
G36*
X18906Y02152D02*
X18905Y02152D01*
X18903Y02152*
X18902Y02151*
X18901Y02151*
X189Y02151*
X18899Y0215*
X18898Y0215*
X18897Y02149*
X18896Y02149*
X18895Y02148*
X18891Y02153*
X18891Y02154*
X18892Y02154*
X18893Y02155*
X18893Y02156*
X18893Y02157*
X18894Y02158*
X18894Y0216*
X18894Y02161*
X18894Y02162*
X18894Y02163*
X18906Y02152*
G37*
G36*
X1902Y02162D02*
X1902Y02161D01*
X1902Y0216*
X19021Y02158*
X19021Y02157*
X19021Y02156*
X19022Y02155*
X19022Y02154*
X19023Y02154*
X19024Y02153*
X19019Y02148*
X19018Y02149*
X19017Y02149*
X19016Y0215*
X19015Y0215*
X19014Y02151*
X19013Y02151*
X19012Y02151*
X19011Y02152*
X1901Y02152*
X19008Y02152*
X1902Y02163*
X1902Y02162*
G37*
G36*
X18081Y02146D02*
X1808Y02145D01*
X1808Y02144*
X18079Y02143*
X18079Y02142*
X18078Y02141*
X18078Y0214*
X18078Y02139*
X18078Y02138*
X18078Y02137*
X18078Y02135*
X18066Y02147*
X18067Y02147*
X18068Y02147*
X1807Y02147*
X18071Y02148*
X18072Y02148*
X18073Y02148*
X18074Y02149*
X18075Y02149*
X18076Y0215*
X18076Y02151*
X18081Y02146*
G37*
G36*
X18063Y02124D02*
X1806Y0212D01*
X18055Y02125*
X18056Y02126*
X18057Y02127*
X18057Y02127*
X18057Y02127*
X18057Y02127*
X18063Y02124*
G37*
G36*
X18186Y02133D02*
X18186Y02132D01*
X18186Y0213*
X18186Y02129*
X18187Y02128*
X18187Y02127*
X18188Y02126*
X18188Y02125*
X18189Y02124*
X18189Y02124*
X18185Y02119*
X18184Y0212*
X18183Y0212*
X18182Y02121*
X18181Y02121*
X1818Y02122*
X18179Y02122*
X18178Y02122*
X18177Y02122*
X18175Y02122*
X18174Y02122*
X18186Y02134*
X18186Y02133*
G37*
G36*
X18903Y02121D02*
X18903Y02121D01*
X18903Y02121*
X18903Y02121*
X18903Y02121*
X18902Y0212*
X18901Y02119*
X18899Y02118*
X18895Y02123*
X18895Y02123*
X18896Y02124*
X18896Y02124*
X18896Y02125*
X18897Y02125*
X18897Y02125*
X18897Y02125*
X18897Y02126*
X18903Y02121*
G37*
G36*
X1902Y02131D02*
X1902Y0213D01*
X1902Y02129*
X19021Y02127*
X19021Y02126*
X19021Y02125*
X19022Y02124*
X19022Y02123*
X19023Y02123*
X19024Y02122*
X19019Y02117*
X19018Y02118*
X19017Y02118*
X19016Y02119*
X19015Y02119*
X19014Y0212*
X19013Y0212*
X19012Y0212*
X19011Y02121*
X1901Y02121*
X19008Y02121*
X1902Y02132*
X1902Y02131*
G37*
G36*
X18528Y01779D02*
X18529Y01778D01*
X1853Y01778*
X1853Y01777*
X18531Y01777*
X18532Y01777*
X18533Y01777*
X18535Y01777*
X18536Y01777*
X18537Y01777*
X18528Y01763*
X18528Y01765*
X18527Y01767*
X18527Y01768*
X18526Y01771*
X18525Y01772*
X18525Y01772*
X18524Y01773*
X18523Y01774*
X18527Y0178*
X18528Y01779*
G37*
G36*
X18324Y01543D02*
X18324Y01542D01*
X18325Y01542*
X18326Y01541*
X18327Y01541*
X18328Y01541*
X1833Y0154*
X18331Y0154*
X18332Y0154*
X18333Y0154*
X18322Y01528*
X18322Y0153*
X18322Y01531*
X18321Y01532*
X18321Y01533*
X18321Y01535*
X1832Y01536*
X1832Y01536*
X18319Y01537*
X18319Y01538*
X18318Y01539*
X18323Y01544*
X18324Y01543*
G37*
G36*
X18491Y01691D02*
Y01394D01*
X18482Y01384*
X18478Y01381*
X18476Y01378*
X18475Y01378*
X18468*
X18466Y01379*
X18466Y01379*
X18465Y01379*
X18463Y01377*
X18455Y01385*
X18456Y01386*
X18457Y01388*
X18458Y01388*
X18439Y01406*
Y01413*
X18455Y01429*
Y01655*
X18438Y01673*
Y01686*
X1846Y01708*
X18473Y01708*
X18491Y01691*
G37*
G36*
X18515Y01753D02*
X18515Y01753D01*
X18516Y01752*
X1852Y01746*
X18526Y01742*
X18527Y01742*
X18534Y01734*
Y01346*
X18521Y01332*
X1851*
X18486Y01356*
X18486Y01366*
X18487Y01366*
X18487Y01366*
X18487Y01367*
X18488Y01368*
X18489Y01368*
X1849Y0137*
X18491Y01371*
X18492Y01372*
X18493Y01373*
X18503Y01382*
X18504Y01385*
X18506Y01387*
Y01387*
X18507Y01391*
X18507Y01394*
Y01394*
Y01691*
X18507Y01691*
X18507Y01691*
X18507Y01694*
X18506Y01697*
X18506Y01697*
X18506Y01697*
X18504Y017*
X18503Y01702*
X18502Y01702*
X18502Y01702*
X18486Y01719*
X18484Y01732*
X18484Y01732*
X18505Y01753*
X18515*
G37*
G36*
X18921Y00973D02*
X1892Y00972D01*
X1892Y00971*
X18919Y0097*
X18919Y0097*
X18918Y00969*
X18918Y00968*
X18918Y00967*
X18918Y00966*
Y00965*
X18918Y00965*
X18908Y00974*
X18909Y00974*
X1891*
X18911Y00974*
X18911Y00975*
X18912Y00975*
X18913Y00975*
X18914Y00976*
X18915Y00976*
X18915Y00977*
X18916Y00978*
X18921Y00973*
G37*
G36*
X18083Y00973D02*
X18082Y00972D01*
X18082Y00971*
X18081Y0097*
X18081Y00969*
X1808Y00968*
X1808Y00967*
X1808Y00966*
X18079Y00965*
X18079Y00964*
X18079Y00962*
X18068Y00974*
X18069Y00974*
X1807Y00974*
X18071Y00974*
X18073Y00975*
X18074Y00975*
X18075Y00975*
X18076Y00976*
X18077Y00976*
X18077Y00977*
X18078Y00978*
X18083Y00973*
G37*
G36*
X1816Y00977D02*
X18161Y00976D01*
X18161Y00976*
X18162Y00975*
X18163Y00975*
X18165Y00975*
X18166Y00974*
X18167Y00974*
X18168Y00974*
X1817Y00974*
X18158Y00962*
X18158Y00964*
X18158Y00965*
X18158Y00966*
X18157Y00967*
X18157Y00968*
X18157Y00969*
X18156Y0097*
X18156Y00971*
X18155Y00972*
X18154Y00973*
X18159Y00978*
X1816Y00977*
G37*
G36*
X18997Y00959D02*
X18997Y00959D01*
X18997Y0096*
X18996Y0096*
X18996Y00961*
X18995Y00961*
X18994Y00962*
X18994Y00962*
X18993Y00962*
X18992Y00962*
X18991Y00962*
X18991Y00969*
X18992Y00969*
X18995Y00969*
X18996Y00969*
X18997Y0097*
X18998Y0097*
X18998Y0097*
X18999Y00971*
X19Y00971*
X19Y00972*
X18997Y00959*
G37*
G36*
X18083Y00942D02*
X18082Y00941D01*
X18082Y0094*
X18081Y0094*
X18081Y00939*
X1808Y00938*
X1808Y00936*
X1808Y00935*
X18079Y00934*
X18079Y00933*
X18079Y00931*
X18068Y00943*
X18069Y00943*
X1807Y00943*
X18071Y00943*
X18073Y00944*
X18074Y00944*
X18075Y00944*
X18076Y00945*
X18077Y00945*
X18077Y00946*
X18078Y00947*
X18083Y00942*
G37*
G36*
X18158Y00931D02*
X18158Y00931D01*
X18158Y00931*
X18158Y00931*
X18157Y00931*
X18157Y00931*
X18156Y00931*
X18155Y00931*
Y00938*
X1816Y00938*
X18158Y00931*
G37*
G36*
X18998Y00926D02*
X18998Y00926D01*
X18997Y00927*
X18997Y00927*
X18996Y00928*
X18996Y00928*
X18995Y00928*
X18994Y00928*
X18993Y00928*
X18992Y00928*
X18991Y00928*
Y00935*
X18992Y00935*
X18993Y00935*
X18994Y00935*
X18995Y00936*
X18996Y00936*
X18996Y00936*
X18997Y00936*
X18997Y00937*
X18998Y00937*
X18998Y00938*
Y00926*
G37*
G36*
X18915Y00939D02*
X18916Y00938D01*
X18917Y00938*
X18918Y00937*
X18919Y00936*
X1892Y00936*
X18921Y00936*
X18922Y00935*
X18923Y00935*
X18925Y00935*
Y00928*
X18923Y00928*
X18922Y00928*
X18921Y00928*
X1892Y00928*
X18919Y00927*
X18918Y00927*
X18917Y00926*
X18916Y00925*
X18915Y00925*
X18915Y00924*
Y0094*
X18915Y00939*
G37*
G36*
X1816Y00915D02*
X18161Y00914D01*
X18161Y00914*
X18162Y00913*
X18163Y00913*
X18165Y00913*
X18166Y00913*
X18167Y00912*
X18168Y00912*
X1817Y00912*
X18158Y00901*
X18158Y00902*
X18158Y00903*
X18158Y00904*
X18157Y00906*
X18157Y00907*
X18157Y00908*
X18156Y00909*
X18156Y00909*
X18155Y0091*
X18154Y00911*
X18159Y00916*
X1816Y00915*
G37*
G36*
X18083Y00911D02*
X18082Y0091D01*
X18082Y00909*
X18081Y00909*
X18081Y00908*
X1808Y00907*
X1808Y00906*
X1808Y00904*
X18079Y00903*
X18079Y00902*
X18079Y00901*
X18068Y00912*
X18069Y00912*
X1807Y00912*
X18071Y00913*
X18073Y00913*
X18074Y00913*
X18075Y00913*
X18076Y00914*
X18077Y00914*
X18077Y00915*
X18078Y00916*
X18083Y00911*
G37*
G36*
X18917Y00906D02*
X18917Y00906D01*
X18918Y00905*
X18918Y00905*
X18919Y00905*
X18919Y00905*
X1892Y00904*
X18921Y00904*
X18922Y00904*
X18923Y00904*
Y00898*
X18922Y00897*
X18921Y00897*
X1892Y00897*
X18919Y00897*
X18919Y00897*
X18918Y00897*
X18918Y00896*
X18917Y00896*
X18917Y00895*
X18916Y00895*
Y00907*
X18917Y00906*
G37*
G36*
X19Y00893D02*
X18999Y00894D01*
X18998Y00894*
X18997Y00895*
X18996Y00896*
X18995Y00896*
X18994Y00897*
X18993Y00897*
X18992Y00897*
X18991Y00897*
X1899Y00898*
Y00904*
X18991Y00904*
X18992Y00904*
X18993Y00905*
X18994Y00905*
X18995Y00905*
X18996Y00906*
X18997Y00907*
X18998Y00907*
X18999Y00908*
X19Y00909*
Y00893*
G37*
G54D14*
X17704Y00331D02*
D01*
X17705Y00327*
X17705Y00324*
X17706Y0032*
X17706Y00317*
X17707Y00314*
X17709Y00311*
X1771Y00307*
X17712Y00304*
X17714Y00301*
X17716Y00299*
X17718Y00296*
X17721Y00294*
X17724Y00291*
X17726Y00289*
X17729Y00288*
X17733Y00286*
X17736Y00284*
X17739Y00283*
X17742Y00282*
X17746Y00282*
X17749Y00281*
X17753Y00281*
X17754Y00281*
X17753Y02855D02*
D01*
X17749Y02855*
X17746Y02855*
X17743Y02854*
X17739Y02853*
X17736Y02852*
X17733Y02851*
X1773Y02849*
X17726Y02848*
X17724Y02846*
X17721Y02843*
X17718Y02841*
X17716Y02839*
X17714Y02836*
X17712Y02833*
X1771Y0283*
X17708Y02827*
X17707Y02824*
X17705Y02821*
X17704Y02817*
X17704Y02814*
X17703Y0281*
X17703Y02807*
X17703Y02805*
X19376D02*
D01*
X19376Y02809*
X19376Y02812*
X19375Y02815*
X19374Y02819*
X19373Y02822*
X19372Y02825*
X1937Y02829*
X19369Y02832*
X19367Y02834*
X19365Y02837*
X19362Y0284*
X1936Y02842*
X19357Y02845*
X19354Y02847*
X19351Y02848*
X19348Y0285*
X19345Y02851*
X19342Y02853*
X19338Y02854*
X19335Y02854*
X19331Y02855*
X19328Y02855*
X19326Y02855*
X19328Y00281D02*
D01*
X19331Y00281*
X19335Y00281*
X19338Y00282*
X19342Y00283*
X19345Y00284*
X19348Y00285*
X19351Y00287*
X19354Y00288*
X19357Y0029*
X1936Y00293*
X19362Y00295*
X19365Y00297*
X19367Y003*
X19369Y00303*
X19371Y00306*
X19373Y00309*
X19374Y00312*
X19375Y00315*
X19376Y00319*
X19377Y00322*
X19377Y00326*
X19378Y00329*
X19378Y00331*
X17935Y00281D02*
X19132D01*
X1794Y02855D02*
X19134D01*
X17753D02*
X19326D01*
X17754Y00281D02*
X19328D01*
X17703Y00334D02*
Y02805D01*
X19376Y00328D02*
Y02809D01*
G54D38*
X1817Y00962D02*
D01*
X1815Y00982D02*
Y01127D01*
Y00982D02*
X1817Y00962D01*
X1815Y01127D02*
X1822Y01197D01*
X18167Y00934D02*
X1817Y00931D01*
X18155Y00934D02*
X18167D01*
X18137Y00953D02*
X18155Y00934D01*
X18137Y00953D02*
Y01133D01*
X18123Y00947D02*
X1817Y009D01*
X18123Y00947D02*
Y01138D01*
X18067Y00962D02*
X18083Y00978D01*
Y01135*
X1803Y01187D02*
X18083Y01135D01*
X18067Y00931D02*
X18068D01*
X18097Y0096*
Y0114*
X18067Y009D02*
X1811Y00943D01*
Y01146*
X18092Y02183D02*
Y02436D01*
X18077Y02451D02*
X18092Y02436D01*
X18077Y02451D02*
Y02555D01*
X18078Y0221D02*
Y0243D01*
X18064Y02444D02*
Y02561D01*
Y02444D02*
X18078Y0243D01*
X18107Y02176D02*
Y02435D01*
X18149Y02476D02*
D01*
X18107Y02435D02*
X18149Y02476D01*
X18171Y02498D01*
X18066Y02197D02*
X18078Y0221D01*
X18064Y02561D02*
X18095Y02593D01*
X18066Y02166D02*
X18069Y02169D01*
X18078*
X18092Y02183*
X18077Y02555D02*
X18101Y02579D01*
X18066Y02135D02*
X18107Y02176D01*
X18044Y01193D02*
X18097Y0114D01*
X18044Y01193D02*
Y02144D01*
X18066Y02166*
X1803Y01187D02*
Y02162D01*
X18066Y02197*
X18174Y02196D02*
X18174D01*
X1822Y0215*
Y01197D02*
Y0215D01*
X18174Y02165D02*
X18207Y02132D01*
Y01203D02*
Y02132D01*
X18174Y02134D02*
X18194Y02115D01*
Y01209D02*
Y02115D01*
X18066Y02197D02*
X18066D01*
Y02131D02*
Y02135D01*
X18058Y02123D02*
X18066Y02131D01*
X18058Y01198D02*
Y02123D01*
X18137Y01133D02*
X18207Y01203D01*
X18123Y01138D02*
X18194Y01209D01*
X18987Y01179D02*
X19049Y01241D01*
X18987Y00969D02*
X18991Y00966D01*
X19005*
X18987Y00969D02*
Y01179D01*
X18974Y01185D02*
X19035Y01246D01*
X18974Y00949D02*
Y01185D01*
X1896Y00917D02*
Y0119D01*
X19022Y01252*
X18974Y00949D02*
X18991Y00932D01*
X19005Y00966D02*
X19008Y00963D01*
X18991Y00932D02*
X19008D01*
X1896Y00917D02*
X18977Y00901D01*
X19008*
X18906Y00963D02*
X18919Y00975D01*
X1892*
Y01185*
X1887Y01235D02*
X1892Y01185D01*
X18934Y0094D02*
Y0119D01*
X18906Y00932D02*
X18925D01*
X18934Y0094*
X18923Y00901D02*
X18947Y00925D01*
X18906Y00901D02*
X18923D01*
X18972Y02194D02*
X19008D01*
X19049Y02154*
Y01241D02*
Y02154D01*
X19008Y02163D02*
X19035Y02136D01*
X19008Y02163D02*
Y02164D01*
X19035Y01246D02*
Y02136D01*
X19022Y01252D02*
Y02119D01*
X19008Y02133D02*
X19022Y02119D01*
X1893Y02176D02*
Y02389D01*
X18978Y02128D02*
X18996D01*
X1893Y02176D02*
X18978Y02128D01*
X18957Y02209D02*
X18972Y02194D01*
X18938Y02419D02*
Y0242D01*
Y02419D02*
X18957Y024D01*
Y02209D02*
Y024D01*
X18924Y02434D02*
X18938Y0242D01*
X18754Y02421D02*
X18918D01*
X18944Y02194D02*
Y02395D01*
X18918Y02421D02*
X18944Y02395D01*
X18974Y02164D02*
X19008D01*
X18944Y02194D02*
X18974Y02164D01*
X19005Y02129D02*
X19008Y02133D01*
X18997Y02129D02*
X19005D01*
X18996Y02128D02*
X18997Y02129D01*
X18912Y02407D02*
X1893Y02389D01*
X18897Y01246D02*
X18947Y01196D01*
X18906Y02129D02*
Y02133D01*
X18897Y0212D02*
X18906Y02129D01*
X18897Y01246D02*
Y0212D01*
X18884Y0124D02*
Y02141D01*
Y0124D02*
X18934Y0119D01*
X1887Y01235D02*
Y02159D01*
X18906Y02194D02*
X18906D01*
X1887Y02159D02*
X18906Y02194D01*
X18884Y02141D02*
X18906Y02164D01*
X18307Y02609D02*
X18308D01*
X18312Y02605*
X183Y02593D02*
X18312Y02605D01*
X18101Y02579D02*
X18319D01*
X18301Y02566D02*
X18316Y02551D01*
X18188Y02566D02*
X18301D01*
X18316Y02551D02*
X18318D01*
X18319Y02579D02*
X18323Y02575D01*
X18323Y02545D02*
X18328D01*
X18318Y02551D02*
X18323Y02545D01*
X18696Y02497D02*
X18759Y02434D01*
X18394Y02497D02*
X18696D01*
X18394Y02467D02*
X18412Y02484D01*
X18394Y02462D02*
Y02467D01*
X18412Y02484D02*
X18691D01*
X18754Y02421*
X18439Y02471D02*
X18685D01*
X18748Y02407*
X18395Y02426D02*
X18439Y02471D01*
X18095Y02593D02*
X183D01*
X18323Y02575D02*
D01*
X18171Y02498D02*
Y02549D01*
X18188Y02566*
X18748Y02407D02*
X18912D01*
X18759Y02434D02*
X18924D01*
X18947Y00925D02*
Y01196D01*
X18058Y01198D02*
X1811Y01146D01*
X18311Y01551D02*
X18333Y01528D01*
X18311Y01586D02*
X18501Y01777D01*
X18311Y01551D02*
Y01586D01*
X18501Y01777D02*
X18525D01*
X18536Y01766*
X1854*
G54D41*
X18174Y02134D03*
Y02196D03*
Y02165D03*
X18906Y02164D03*
Y02194D03*
X19008Y02164D03*
Y02194D03*
X18906Y02133D03*
X19008D03*
X18307Y02609D03*
X18328Y02576D03*
X18328Y02545D03*
X18394Y02462D03*
X18394Y02497D03*
X183Y0274D03*
Y02711D03*
X18395Y02426D03*
X18066Y02166D03*
Y02197D03*
Y02135D03*
X18906Y00932D03*
Y00963D03*
X19008Y00901D03*
Y00932D03*
Y00963D03*
X18906Y00901D03*
X18067Y009D03*
X1817Y00962D03*
Y00931D03*
Y009D03*
X18067Y00962D03*
Y00931D03*
X183Y02767D03*
X1854Y01766D03*
X18514Y01742D03*
X18333Y01528D03*
X18455Y01411D03*
X18515Y01345D03*
X18497Y01725D03*
X1847Y01695D03*
X18452Y01677D03*
X18472Y01393D03*
X18498Y01362D03*
G54D44*
X18473Y01301D02*
X18582D01*
X18615Y01333D02*
Y02157D01*
X18582Y01301D02*
X18615Y01333D01*
X18451Y01323D02*
X18473Y01301D01*
X18451Y01373D02*
X18472Y01393D01*
X18451Y01323D02*
Y01373D01*
X18561Y02211D02*
X18615Y02157D01*
X18463Y02211D02*
X18561D01*
X18416Y02257D02*
Y02357D01*
Y02257D02*
X18463Y02211D01*
X18366Y02407D02*
X18416Y02357D01*
X1832Y02707D02*
X18366Y0266D01*
Y02407D02*
Y0266D01*
M02*