M48
;Layer_Color=9474304
;FILE_FORMAT=4:4
METRIC,LZ
;TYPE=PLATED
T1F00S00C0.2500
T2F00S00C0.4000
T3F00S00C1.0300
;TYPE=NON_PLATED
T4F00S00C0.7600
%
T01
X04687869Y00177042
X0461521Y00228832
Y00236702
Y00244532
X0458926
Y00236702
Y00228832
X04604675Y0035505
X04614732Y0034546
X04592597Y0036926
X04656834Y0038832
X0467288Y00372962
X04678702Y0036714
X04687617Y00358521
X0469189Y00354041
X04698611Y00346021
X04702994Y00341865
X04716507Y00353209
X04802273Y00244643
Y00236813
Y00228943
X04828223
Y00236813
Y00244643
X04823728Y00400167
X0482524Y00411548
X04823728Y00422531
Y00433612
Y00445298
X04828213Y00541789
Y00549659
Y00557489
X04802263
Y00549659
Y00541789
X04692953Y00508997
X04677943Y00497807
X04670799Y00492238
X04658331Y00484068
X04698288Y00438251
X04702785Y00442526
X0470925Y00448699
X0469142Y00430714
X04686826Y00426094
X04678821Y00417041
X04672023Y00410388
X04616331Y00542234
Y00550104
Y00557934
X04588814Y00558172
Y00550342
Y00542472
X04672348Y00616389
X04672324Y00625355
X04672223Y00634454
X04655409Y00646642
X04655509Y00654434
X04650215Y00662785
X04648304Y00688842
Y00695971
Y00702874
X04688395Y0071254
X04708804Y00712774
X04729813Y00712776
X04716382Y00604807
X04709242Y00607854
X04701055Y00603847
T02
X04761439Y00698571
T03
X04758408Y00191357
Y00236357
Y00281357
X04659898
Y00236357
Y00191357
X04642398Y00156357
X04602398Y00146357
X04562398Y00156357
X04544898Y00191357
Y00236357
Y00281357
X04562398Y00316357
X04602398Y00326357
X04642398Y00316357
X04775908
X04815908Y00326357
X04855908Y00316357
X04873408Y00281357
Y00236357
Y00191357
X04855908Y00156357
X04815908Y00146357
X04775908Y00156357
X04776009Y00470707
X04816009Y00460707
X04856009Y00470707
X04873509Y00505707
Y00550707
Y00595707
X04856009Y00630707
X04816009Y00640707
X04776009Y00630707
X04758509Y00595707
Y00550707
Y00505707
X04659898
Y00550707
Y00595707
X04642398Y00630707
X04602398Y00640707
X04562398Y00630707
X04544898Y00595707
Y00550707
Y00505707
X04562398Y00470707
X04602398Y00460707
X04642398Y00470707
T04
X04738564Y0011558
X04678564
X04678566Y0067297
X04738566
M30
