%FSTAX23Y23*%
%MOIN*%
%SFA1B1*%

%IPPOS*%
%ADD10C,0.007870*%
%ADD11C,0.003940*%
%ADD12C,0.009840*%
%ADD13C,0.010000*%
%LNnas-craftsman_nixie_v1-1*%
%LPD*%
G36*
X17589Y02294D02*
Y02205D01*
X17319Y02338*
Y02424*
X17589Y02294*
G37*
G36*
X17589Y02098D02*
Y02009D01*
X17319Y02141*
Y02228*
X17589Y02098*
G37*
G36*
X17589Y01894D02*
Y01805D01*
X17319Y01938*
Y02024*
X17589Y01894*
G37*
G36*
X17429Y01763D02*
X17345Y01716D01*
X17319Y01729*
Y01815*
X17429Y01763*
G37*
G36*
X17593Y0141D02*
Y01321D01*
X17322Y01454*
Y0154*
X17593Y0141*
G37*
G36*
X16973Y00236D02*
X16923D01*
X16947Y00294*
X16973Y00236*
G37*
G36*
X17549Y01797D02*
X17549D01*
X1755Y01796*
X17551Y01796*
X17553Y01795*
X17553*
X17554Y01795*
X17556Y01794*
X17557Y01793*
X17558*
X17558Y01793*
X17559Y01792*
X17561Y01791*
X17563Y01789*
X17565Y01786*
X17568Y01783*
X1757Y0178*
X17572Y01776*
Y01776*
X17572Y01774*
X17572Y01773*
X17573Y01772*
Y0177*
X17573Y01769*
X17573Y01523*
X17573Y01521*
X17572Y01518*
X17572Y01514*
X1757Y01511*
X17568Y01507*
X17565Y01503*
X17565Y01503*
X17564Y01503*
X17562Y015*
X17562Y015*
X17561Y015*
X1756Y01499*
X17558Y01498*
X17557Y01497*
X17556Y01497*
X17554Y01496*
X17551Y01495*
X17548Y01494*
X17545Y01494*
X17541Y01493*
X17536Y01494*
X17536*
X17536Y01494*
X17535Y01495*
X17533Y01495*
X17532Y01495*
X17532*
X17531Y01496*
X17529Y01496*
X17528Y01497*
X17528*
X17527*
X17527Y01498*
X17318Y01618*
X17317Y01619*
X17316Y01619*
X17316Y0162*
X17314Y01621*
X17311Y01623*
X17307Y01627*
X17307Y01628*
X17307Y01628*
X17306Y0163*
X17306Y0163*
X17306Y01631*
X17305Y01632*
X17304Y01634*
X17303Y01637*
X17302Y01639*
X17302Y01642*
X17302Y01645*
Y01647*
X17302Y0165*
X17303Y01653*
X17304Y01656*
X17305Y01659*
X17307Y01663*
X1731Y01666*
X1731Y01666*
X17311Y01667*
X17312Y01668*
X17313Y01669*
X17314Y0167*
X17315Y0167*
X17316Y01671*
X17317Y01672*
X17526Y01793*
X17527Y01793*
X17528Y01794*
X1753Y01795*
X17533Y01796*
X17537Y01797*
X1754Y01797*
X17544*
X17549Y01797*
G37*
G36*
X17118Y02543D02*
X17119Y02543D01*
X17119Y02543*
X17119Y02543*
X1712Y02543*
X17121Y02543*
X17121Y02543*
X17121Y02542*
X17121Y02542*
X17122Y02542*
X17122Y02542*
X17122Y02541*
X17123Y02541*
X17124Y0254*
X17124Y0254*
X17124Y0254*
X17124Y0254*
X17124Y02539*
X17125Y02539*
X17125Y02538*
X17126Y02538*
X17126Y02537*
X17126Y02537*
X17126Y02537*
X17126Y02536*
X17126Y02536*
X17126Y02535*
X17127Y02534*
X17127Y02534*
X17127Y02533*
X17123*
Y02533*
X17123Y02533*
Y02533*
X17123Y02533*
X17123Y02534*
X17123Y02535*
X17122Y02535*
X17122Y02536*
X17122Y02536*
X17122Y02537*
X17122Y02537*
X17122Y02537*
X17121Y02537*
X17121Y02538*
X17121Y02538*
X1712Y02538*
X1712Y02538*
X1712Y02539*
X1712Y02539*
X1712Y02539*
X17119Y02539*
X17119Y02539*
X17118Y02539*
X17117Y0254*
X17117*
X17117Y0254*
X17117Y0254*
X17117Y0254*
X17117Y0254*
X17116Y0254*
X17116Y0254*
X17116Y02541*
X17116Y02541*
X17116Y02541*
X17116Y02541*
Y02542*
X17116Y02542*
X17116Y02542*
X17116Y02542*
X17116Y02543*
X17116Y02543*
X17116Y02543*
X17116Y02543*
X17116Y02543*
X17117Y02543*
X17117Y02543*
X17117Y02543*
X17117Y02543*
X17118Y02543*
X17118*
X17118*
X17118Y02543*
G37*
G36*
X17104Y02543D02*
X17105Y02543D01*
X17105Y02543*
X17105Y02543*
X17105Y02543*
X17106Y02543*
X17106Y02543*
X17106Y02543*
X17106Y02543*
X17106Y02542*
X17106Y02542*
X17106Y02542*
X17106Y02541*
Y02541*
X17106Y02541*
Y02541*
X17106Y02541*
X17106Y0254*
X17106Y0254*
X17106*
X17106Y0254*
X17106Y0254*
X17105Y0254*
X17105Y0254*
X17105Y0254*
X17104*
X17104Y0254*
X17104Y0254*
X17104Y02539*
X17103Y02539*
X17103Y02539*
X17102Y02539*
X17102Y02539*
X17102Y02539*
X17102*
X17102Y02539*
X17102Y02539*
X17101Y02539*
X17101Y02538*
X171Y02538*
X171Y02538*
X17099Y02537*
X17098Y02537*
X17098Y02536*
X17098Y02536*
X17098Y02536*
X17098Y02536*
X17097Y02536*
X17097Y02535*
X17097Y02535*
X17097Y02535*
X17096Y02535*
X17096Y02535*
X17096Y02534*
X17096Y02534*
X17096Y02534*
X17096Y02533*
X17096Y02533*
X17096Y02533*
X17092*
Y02533*
X17092Y02533*
X17092Y02533*
X17092Y02533*
X17092Y02534*
X17092Y02535*
X17092Y02535*
Y02535*
X17093Y02535*
X17093Y02535*
X17093Y02536*
X17093Y02536*
X17093Y02537*
X17093Y02537*
X17094Y02538*
Y02538*
X17094Y02538*
X17094Y02538*
X17094Y02538*
X17094Y02539*
X17094Y02539*
Y02539*
X17094Y02539*
X17094Y0254*
X17093Y0254*
X17093Y0254*
X17093Y0254*
X17093Y0254*
X17093Y0254*
X17092Y0254*
X17092Y02541*
X17092Y02541*
X17092Y02541*
X17092Y02542*
Y02542*
X17092Y02542*
X17092Y02542*
X17092Y02543*
X17092Y02543*
X17093Y02543*
X17093Y02543*
X17093Y02543*
X17093Y02543*
X17093Y02543*
X17093Y02543*
X17093Y02543*
X17094Y02543*
X17094Y02543*
X17104*
X17104*
X17104*
X17104Y02543*
G37*
G36*
X17127Y02531D02*
X17127Y02531D01*
X17127Y0253*
X17127Y0253*
X17127Y02529*
X17126Y02529*
X17126Y02528*
X17126Y02527*
X17126Y02526*
X17126Y02526*
X17125Y02525*
X17125Y02524*
X17125Y02523*
X17124Y02523*
X17124Y02523*
X17124Y02523*
X17124Y02523*
X17124Y02522*
X17124Y02522*
X17123Y02522*
X17123Y02521*
X17123Y02521*
X17122Y02521*
X17122Y0252*
X17121Y0252*
X17121Y0252*
X1712Y02519*
X17118Y02518*
X17118*
X17118Y02518*
X17118Y02518*
X17118Y02518*
X17117Y02518*
X17117Y02518*
X17117Y02518*
X17116Y02517*
X17115Y02517*
X17115Y02517*
X17114Y02517*
X17113Y02517*
X17112Y02517*
X17112Y02517*
X1711Y02517*
X1711*
X1711*
X17109*
X17109*
X17109Y02517*
X17108*
X17108Y02517*
X17107Y02517*
X17106Y02517*
X17105Y02517*
X17104Y02517*
X17103Y02518*
X17103*
X17103Y02518*
X17103Y02518*
X17102Y02518*
X17102Y02518*
X17102Y02518*
X17101Y02518*
X171Y02519*
X17099Y02519*
X17098Y0252*
X17097Y0252*
X17097Y02521*
X17097Y02521*
X17097Y02521*
X17097Y02521*
X17096Y02521*
X17096Y02522*
X17095Y02523*
X17095Y02523*
X17094Y02524*
X17093Y02525*
Y02525*
X17093Y02525*
X17093Y02526*
X17093Y02526*
X17093Y02526*
X17093Y02526*
X17093Y02527*
X17092Y02528*
X17092Y02529*
X17092Y02529*
X17092Y0253*
X17092Y02532*
X17096*
Y02532*
X17096Y02531*
X17096Y02531*
X17096Y02531*
X17096Y0253*
X17096Y0253*
X17097Y0253*
X17097Y02529*
X17097Y02529*
X17097Y02529*
X17097Y02529*
X17098Y02529*
X17098Y02529*
X17098Y02529*
X17099Y02529*
X171Y02529*
X17119*
X1712*
X1712*
X1712*
X17121Y02529*
X17121Y02529*
X17121Y02529*
X17121Y02529*
X17122Y02529*
X17122Y02529*
X17122Y02529*
X17122Y02529*
X17122Y0253*
X17122Y0253*
X17123Y0253*
X17123Y0253*
X17123Y0253*
Y0253*
X17123Y02531*
X17123Y02531*
X17123Y02531*
X17123Y02531*
X17123Y02532*
X17127*
Y02531*
G37*
G36*
X17095Y02516D02*
X17095Y02516D01*
X17095Y02515*
X17095Y02515*
X17096Y02515*
X17096Y02515*
X17096Y02515*
X17096Y02515*
X17096Y02514*
X17097Y02513*
Y02513*
X17097Y02513*
X17097Y02513*
X17097Y02513*
X17097Y02513*
X17097Y02513*
X17098Y02512*
X17098Y02512*
X17098Y02512*
X17098Y02512*
X17098Y02512*
X17099Y02512*
X17099Y02511*
X17099Y02511*
X171Y02511*
X171Y02511*
X17114Y02507*
X17109Y02505*
X17099Y02508*
X17099*
X17099Y02508*
X17099Y02508*
X17099Y02508*
X17098Y02508*
X17098*
X17098Y02508*
X17098*
X17098*
X17098Y02508*
X17097Y02508*
X17097*
X17097Y02508*
X17097Y02508*
X17097Y02507*
X17096Y02507*
X17096Y02506*
X17096Y02506*
X17096Y02506*
X17096Y02506*
X17096Y02505*
X17096Y02505*
X17095Y02505*
X17095Y02505*
X17094Y02505*
X17094*
X17094*
X17094Y02505*
X17094Y02505*
X17094Y02505*
X17094Y02505*
X17093Y02505*
X17093Y02505*
X17093Y02505*
X17093Y02506*
X17093Y02506*
X17093Y02506*
X17093Y02506*
X17093Y02507*
X17093Y02507*
Y02513*
X17093Y02514*
X17093Y02514*
X17093Y02515*
X17093Y02515*
X17093Y02515*
X17093Y02515*
X17093Y02515*
X17093Y02515*
X17094Y02515*
X17094Y02516*
X17094Y02516*
X17094Y02516*
X17094*
X17094*
X17095Y02516*
G37*
G36*
X17126Y02504D02*
Y02497D01*
X17097Y02488*
X17097*
X17097Y02488*
X17097Y02488*
X17097Y02488*
X17097Y02488*
X17097Y02488*
X17097*
X17097Y02488*
X17096Y02488*
X17096Y02488*
Y02488*
X17096Y02487*
X17096Y02487*
X17096Y02487*
X17096Y02487*
X17096Y02487*
X17096Y02486*
X17096Y02486*
X17095Y02486*
X17095Y02486*
X17095Y02486*
X17095*
X17094*
X17094Y02486*
X17094Y02486*
X17094Y02486*
X17094Y02487*
X17093Y02487*
X17093Y02487*
Y02487*
X17093Y02487*
X17093Y02487*
X17093Y02487*
X17093Y02488*
X17093Y02488*
X17093Y02488*
Y025*
X17093Y02501*
Y02501*
X17093Y02501*
Y02501*
X17093Y02501*
X17093Y02502*
X17093Y02502*
X17093Y02502*
X17093Y02502*
X17093Y02502*
X17094Y02502*
X17094Y02502*
X17094Y02503*
X17094Y02503*
X17094Y02503*
X17094*
X17095*
X17095Y02503*
X17095Y02503*
X17095Y02502*
X17096Y02502*
X17096Y02502*
X17096Y02501*
X17096Y02501*
X17096Y02501*
X17096Y02501*
X17097Y02501*
X17097*
X17097Y02501*
X17097Y02501*
X17097Y02501*
X17097*
X17097*
X17098*
X17098Y02501*
X17117Y02506*
X17126Y02504*
G37*
G36*
X16802Y02545D02*
X16802Y02545D01*
X16802Y02545*
X16803Y02545*
X16803Y02544*
X16803Y02544*
X16803Y02544*
X16803Y02544*
X16803Y02544*
X16803Y02544*
X16803Y02543*
X16803Y02543*
Y02543*
X16803Y02543*
X16803Y02543*
X16803Y02542*
X16803Y02542*
X16803Y02542*
X16803*
X16803Y02542*
X16803Y02542*
X16803Y02541*
X16802Y02541*
X16802Y02541*
X168Y02541*
X168*
X168*
X168Y02541*
X168Y02541*
X16799Y02541*
X16799Y02541*
X16798Y0254*
X16798Y0254*
X16797Y0254*
X16796Y0254*
X16796Y0254*
X16796Y02539*
X16796Y02539*
X16796Y02539*
X16796Y02539*
X16795Y02539*
X16795Y02538*
X16795Y02538*
X16791*
Y02545*
X16801*
X16801*
X16802*
X16802Y02545*
G37*
G36*
X16823Y0254D02*
X16823Y0254D01*
X16824Y0254*
X16824Y02539*
X16824Y02539*
X16824Y02539*
Y02539*
X16824Y02539*
X16824Y02539*
X16824Y02538*
X16825Y02538*
X16825Y02538*
X16825Y02537*
Y02525*
X16825Y02524*
Y02524*
X16824Y02524*
X16824Y02523*
X16824Y02523*
X16824Y02523*
X16824Y02523*
X16824Y02523*
X16824Y02523*
X16824Y02522*
X16823Y02522*
X16823Y02522*
X16823Y02522*
X16823*
X16823Y02522*
X16822Y02522*
X16822Y02522*
X16822Y02523*
X16822Y02523*
X16821Y02523*
X16821Y02524*
Y02524*
X16821Y02524*
X16821Y02524*
X16821Y02524*
X16821Y02525*
Y02525*
X16821Y02525*
X16821Y02525*
X16821Y02525*
X16821Y02525*
X1682Y02525*
X1682Y02525*
X1682Y02525*
X1682*
X16791*
Y02537*
X1682*
X1682*
X1682*
X1682*
X1682Y02537*
X1682Y02537*
X16821Y02537*
X16821Y02537*
X16821Y02537*
X16821Y02537*
X16821Y02537*
X16821Y02537*
Y02537*
X16821Y02537*
X16821Y02538*
X16821Y02538*
X16821Y02538*
Y02538*
X16821Y02538*
X16821Y02539*
X16821Y02539*
X16822Y02539*
X16822Y02539*
X16822Y0254*
X16823Y0254*
X16823*
X16823*
X16823*
X16823Y0254*
G37*
G36*
X16795Y02524D02*
X16795Y02524D01*
X16795Y02524*
X16795Y02524*
X16796Y02523*
X16796Y02523*
X16796Y02523*
X16797Y02522*
X16797Y02522*
X16797Y02522*
X16797Y02522*
X16798Y02522*
X16798Y02522*
X16799Y02521*
X16799Y02521*
X168Y02521*
X16802Y02521*
X16802*
X16802Y02521*
X16802Y02521*
X16802Y02521*
X16802Y02521*
X16803Y0252*
Y0252*
X16803Y0252*
X16803Y0252*
X16803Y0252*
X16803Y02519*
X16803Y02519*
X16803Y02519*
Y02519*
X16803Y02519*
X16803Y02518*
X16803Y02518*
X16803Y02518*
X16803Y02517*
X16803*
X16803Y02517*
X16803Y02517*
X16802Y02517*
X16802Y02517*
X16802Y02517*
X16802Y02517*
X16801Y02517*
X16791*
Y02524*
X16795*
X16795Y02524*
G37*
G36*
X16816Y02515D02*
X16817Y02515D01*
X16817Y02515*
X16818Y02514*
X16818Y02514*
X16819Y02514*
X16819Y02514*
X1682Y02514*
X1682Y02513*
X16821Y02513*
X16821Y02513*
X16822Y02512*
X16822Y02511*
X16822Y02511*
X16823Y02511*
X16823Y02511*
X16823Y0251*
X16823Y0251*
X16824Y02509*
X16824Y02509*
X16824Y02508*
Y02508*
X16824Y02508*
X16824Y02508*
X16824Y02507*
X16824Y02507*
X16824Y02506*
X16825Y02505*
X16825Y02504*
X16825Y02503*
Y025*
X16821*
Y025*
X16821Y025*
X16821Y025*
X16821Y02501*
X16821Y02501*
X16821Y02501*
Y02501*
X16821Y02501*
X16821Y02502*
X16821Y02502*
X1682Y02502*
X1682Y02502*
X1682Y02502*
X1682Y02502*
X1682Y02502*
X16819Y02503*
X16819Y02503*
X16819Y02503*
X16818Y02503*
X16813*
X16813*
X16812*
X16812*
X16812Y02503*
X16811Y02503*
X16811Y02503*
X16811Y02503*
X16811*
X16811Y02503*
X16811Y02502*
X1681Y02502*
X1681Y02502*
X1681Y02502*
X1681Y02502*
X1681Y02502*
X1681Y02502*
X16809Y02501*
X16809Y02501*
X16809Y02501*
X16809Y02501*
X16809Y02501*
X16809Y025*
X16809Y025*
X16809Y025*
X16806*
Y025*
X16806Y025*
Y025*
X16805Y02501*
X16805Y02501*
X16805Y02501*
Y02501*
X16805Y02501*
X16805Y02502*
X16805Y02502*
X16805Y02502*
X16805Y02502*
X16805Y02502*
X16805Y02502*
X16804Y02503*
X16804*
X16804Y02503*
X16804Y02503*
X16804Y02503*
X16803Y02503*
X16802*
X16798*
X16798*
X16798*
X16798*
X16798Y02503*
X16797Y02503*
X16797Y02503*
X16797*
X16797Y02503*
X16796Y02502*
X16796Y02502*
X16796Y02502*
X16796*
X16796Y02502*
X16795Y02502*
X16795Y02502*
X16795Y02501*
Y02501*
X16795Y02501*
X16795Y02501*
X16795Y02501*
X16795Y02501*
X16795Y025*
X16795Y025*
X16795Y025*
X16791*
Y02503*
X16791Y02504*
X16791Y02504*
X16791Y02505*
X16791Y02505*
X16791Y02506*
X16792Y02507*
X16792Y02508*
X16792Y02509*
X16792Y02509*
X16793Y0251*
X16793Y02511*
X16793Y02511*
X16794Y02511*
X16794Y02512*
X16794Y02512*
X16794Y02512*
X16795Y02513*
X16795Y02513*
X16796Y02513*
X16796Y02514*
X16796Y02514*
X16796Y02514*
X16797Y02514*
X16797Y02514*
X16798Y02514*
X16798Y02514*
X16799Y02514*
X168Y02514*
X168*
X168*
X168Y02514*
X16801Y02514*
X16801Y02514*
X16802Y02514*
X16802Y02514*
X16803Y02514*
X16803Y02513*
X16803Y02513*
X16803Y02513*
X16804Y02513*
X16804Y02513*
X16805Y02512*
X16805Y02512*
X16805Y02511*
X16806Y02511*
X16806Y02511*
X16806Y02511*
X16806Y02511*
X16806Y0251*
X16806Y0251*
X16807Y0251*
X16807Y02509*
Y02509*
X16807Y02509*
X16807Y02509*
X16807Y02508*
X16807Y02508*
X16807Y02507*
X16807Y02507*
X16807Y02506*
Y02507*
X16807Y02507*
X16807Y02508*
X16807Y02508*
X16808Y02509*
X16808Y02509*
Y02509*
X16808Y02509*
X16808Y02509*
X16808Y0251*
X16808Y0251*
X16808Y02511*
X16809Y02511*
X16809Y02511*
X16809Y02512*
X16809Y02512*
X1681Y02512*
X1681Y02513*
X1681Y02513*
X16811Y02513*
X16812Y02514*
X16812Y02514*
X16812Y02514*
X16812Y02514*
X16813Y02514*
X16813Y02514*
X16814Y02515*
X16815Y02515*
X16816Y02515*
X16816*
X16816*
X16816*
X16816Y02515*
G37*
G36*
X16825Y02487D02*
X16825Y02486D01*
Y02486*
X16824Y02486*
X16824Y02485*
X16824Y02485*
X16824Y02485*
X16824Y02485*
X16824Y02485*
X16823Y02485*
X16823Y02485*
X16823Y02485*
X16823*
X16823Y02485*
X16822Y02485*
X16822Y02485*
X16822Y02485*
X16822Y02485*
X16821Y02485*
X16821Y02486*
Y02486*
X16821Y02486*
X16821Y02486*
X16821Y02487*
Y02487*
X16821Y02487*
X16821Y02487*
X16821Y02487*
X16821Y02487*
X16821Y02487*
X1682Y02487*
X1682Y02487*
X16796*
X16796*
X16796*
X16796Y02487*
X16795Y02487*
X16795Y02487*
X16795Y02487*
X16795*
X16795Y02487*
X16795Y02487*
Y02487*
X16795Y02487*
X16795Y02486*
X16795Y02486*
X16795Y02486*
X16795Y02486*
X16795Y02486*
X16795Y02486*
X16794Y02485*
X16794Y02485*
X16794Y02485*
X16794Y02485*
X16793Y02485*
X16793Y02485*
X16793*
X16793*
X16793Y02485*
X16792Y02485*
X16792Y02485*
X16792Y02485*
X16792Y02485*
X16792Y02485*
X16792Y02485*
X16791Y02485*
X16791Y02485*
X16791Y02486*
X16791Y02486*
X16791Y02486*
X16791Y02486*
Y02499*
X16825*
Y02487*
G37*
G36*
X16691Y02545D02*
X16691Y02545D01*
X16692Y02545*
X16692Y02544*
X16692Y02544*
X16692Y02544*
X16692Y02544*
X16692Y02543*
X16692Y02543*
X16692Y02543*
X16693Y02543*
X16693Y02542*
X16693Y02542*
X16694Y02542*
X16694Y02542*
X16694*
X16694Y02542*
X16694Y02542*
X16695Y02541*
X16695Y02541*
X16696Y02541*
X16696Y02541*
X16697Y02541*
X16708*
X16703Y02538*
X16697*
X16697*
X16696*
X16696*
X16696Y02538*
X16696Y02538*
X16695Y02538*
X16695Y02537*
X16694Y02537*
X16694Y02537*
X16694Y02537*
X16694Y02537*
X16693Y02537*
X16693Y02537*
X16693Y02536*
X16693Y02536*
X16692Y02536*
X16692Y02535*
Y02535*
X16692Y02535*
X16692Y02535*
X16692Y02535*
X16691Y02534*
X16691Y02534*
X16691Y02534*
X16691Y02534*
X1669Y02534*
X1669*
X1669*
X1669Y02534*
X1669Y02534*
X1669Y02534*
X16689Y02534*
X16689Y02535*
X16689Y02535*
X16689Y02535*
X16689Y02535*
X16689Y02535*
X16689Y02535*
X16689Y02536*
X16689Y02536*
Y02543*
X16689Y02543*
X16689Y02543*
X16689Y02543*
X16689Y02544*
X16689Y02544*
X16689Y02544*
Y02544*
X16689Y02545*
X1669Y02545*
X1669Y02545*
X1669Y02545*
X16691*
X16691*
X16691*
X16691Y02545*
G37*
G36*
X16722Y02534D02*
X16694Y02518D01*
X16694*
X16694Y02517*
X16694Y02517*
X16694Y02517*
X16693Y02517*
X16693Y02517*
X16693Y02517*
X16693Y02517*
X16693Y02517*
X16693Y02516*
X16692Y02516*
X16692Y02515*
X16692Y02515*
X16692Y02515*
X16692Y02515*
X16692Y02514*
X16692*
X16692Y02514*
X16691Y02514*
X16691Y02514*
X16691Y02514*
X16691*
X16691*
X1669Y02514*
X1669Y02514*
X1669Y02514*
X1669*
X1669Y02514*
X16689Y02515*
X16689Y02515*
X16689Y02515*
Y02515*
X16689Y02515*
X16689Y02515*
X16689Y02516*
X16689Y02516*
X16689Y02516*
X16689Y02517*
Y02528*
X16711Y02541*
X16722*
Y02534*
G37*
G36*
X16721Y02525D02*
X16721Y02525D01*
X16721Y02525*
X16721Y02524*
X16722Y02524*
X16722Y02524*
Y02524*
X16722Y02524*
X16722Y02524*
X16722Y02524*
X16722Y02523*
X16722Y02523*
X16722Y02523*
Y02516*
X16722Y02516*
X16722Y02516*
X16722Y02515*
X16722Y02515*
X16721Y02514*
X16721Y02514*
X16721Y02514*
X16721Y02514*
X16721Y02514*
X1672*
X1672*
X1672Y02514*
X1672Y02514*
X1672Y02514*
X16719Y02514*
X16719Y02515*
X16719Y02515*
X16719Y02515*
X16719Y02515*
X16719Y02515*
Y02515*
X16719Y02516*
X16719Y02516*
X16718Y02516*
X16718Y02516*
X16717Y02517*
X16716Y02517*
X16716Y02517*
X16716Y02517*
X16715Y02517*
X16715Y02518*
X16697*
X16702Y02521*
X16715*
X16715*
X16715*
X16715Y02521*
X16715Y02521*
X16716Y02521*
X16716Y02521*
X16717Y02521*
X16717Y02522*
X16717Y02522*
X16717Y02522*
X16717Y02522*
X16718Y02522*
X16718Y02522*
X16718Y02522*
X16718Y02523*
X16719Y02523*
X16719Y02524*
X16719Y02524*
X16719Y02524*
X16719Y02524*
X16719Y02524*
X1672Y02524*
X1672Y02525*
X1672Y02525*
X16721Y02525*
X16721*
X16721*
X16721Y02525*
G37*
G36*
X16722Y025D02*
X16719D01*
Y025*
X16719Y025*
X16719Y02501*
X16719Y02501*
X16718Y02501*
X16718Y02502*
X16718Y02502*
X16718Y02503*
X16718Y02503*
X16718Y02503*
X16718Y02503*
X16718Y02503*
X16718Y02504*
X16717Y02504*
X16717Y02505*
X16717Y02505*
X16717Y02505*
X16717Y02505*
X16716Y02505*
X16716Y02506*
X16715Y02506*
X16715Y02506*
X16715Y02506*
X16715Y02506*
X16715Y02506*
X16714Y02507*
X16714Y02507*
X16714Y02507*
X16713Y02507*
X16713Y02507*
X16713*
X16713Y02507*
X16712Y02507*
X16712Y02507*
X16712Y02508*
X16712Y02508*
X16711Y02508*
X16711Y02508*
X16711Y02508*
X16711Y02509*
X16711Y02509*
Y02509*
X16711Y02509*
X16711Y0251*
X16711Y0251*
X16711Y0251*
X16712Y0251*
X16712*
X16712Y0251*
X16712Y02511*
X16712Y02511*
X16712Y02511*
X16713Y02511*
X16713Y02511*
X16713*
X16722*
Y025*
G37*
G36*
X16698Y0251D02*
X16698D01*
X16699Y0251*
X16699Y0251*
X16699Y0251*
X16699Y0251*
X16699Y0251*
X16699Y0251*
X16699Y0251*
X16699Y02509*
X16699Y02509*
X167Y02509*
Y02508*
X16699Y02508*
X16699Y02508*
X16699Y02508*
X16699Y02508*
X16699Y02507*
X16699Y02507*
X16698Y02507*
X16698Y02507*
X16698*
X16698Y02507*
X16698Y02507*
X16698Y02507*
X16697Y02507*
X16697Y02506*
X16696Y02506*
X16695Y02506*
X16695Y02505*
X16694Y02505*
X16694Y02504*
X16694Y02504*
X16694Y02504*
X16693Y02503*
X16693Y02503*
X16693Y02502*
X16693Y02501*
X16692Y025*
X16689*
Y0251*
X16698*
X16698*
X16698*
X16698Y0251*
G37*
G36*
X1671Y02506D02*
X16711Y02506D01*
X16711Y02506*
X16712Y02506*
X16712*
X16712Y02506*
X16712Y02506*
X16712Y02506*
X16712Y02506*
X16712Y02505*
X16712Y02505*
X16712Y02505*
Y02505*
X16712Y02504*
Y02504*
X16712Y02504*
X16712Y02504*
X16712Y02503*
X16712*
X16712Y02503*
X16712Y02503*
X16711Y02503*
X16711Y02503*
X16711Y02503*
X16711Y02503*
X1671Y02503*
X1671*
X1671Y02503*
X1671Y02503*
X1671Y02503*
X16709Y02502*
X16708Y02502*
X16708Y02502*
X16708Y02502*
X16708Y02502*
X16708Y02502*
X16708Y02501*
X16707Y02501*
X16707Y02501*
X16707Y025*
X16707Y025*
X16703*
X16703Y025*
X16703Y025*
X16703Y025*
X16703Y02501*
X16703Y02501*
X16702Y02502*
X16702Y02502*
X16702Y02502*
X16702Y02502*
X16702Y02502*
X16702Y02502*
X16701Y02502*
X16701Y02503*
X16701Y02503*
X167Y02503*
X167*
X167Y02503*
X167Y02503*
X167Y02503*
X16699Y02503*
X16699Y02503*
X16699Y02503*
X16699Y02503*
X16699Y02503*
X16698Y02504*
X16698Y02504*
X16698Y02504*
Y02505*
X16698Y02505*
X16698Y02505*
X16698Y02505*
X16698Y02506*
X16699Y02506*
X16699Y02506*
X16699Y02506*
X16699Y02506*
X16699Y02506*
X167Y02506*
X167Y02506*
X167Y02506*
X16701*
X1671*
X1671*
X1671*
X1671*
X1671Y02506*
G37*
G36*
X16722Y02487D02*
X16722Y02487D01*
Y02486*
X16722Y02486*
X16722Y02485*
X16722Y02485*
X16722Y02485*
X16722Y02485*
X16721Y02485*
X16721Y02485*
X16721Y02485*
X16721Y02485*
X1672*
X1672Y02485*
X1672Y02485*
X1672Y02485*
X1672Y02485*
X16719Y02485*
X16719Y02486*
X16719Y02486*
Y02486*
X16719Y02486*
X16719Y02486*
X16719Y02487*
Y02487*
X16719Y02487*
X16718Y02487*
X16718Y02487*
X16718Y02487*
X16718Y02487*
X16718Y02487*
X16717Y02487*
X16694*
X16694*
X16693*
X16693Y02487*
X16693Y02487*
X16693Y02487*
X16693Y02487*
X16693*
X16693Y02487*
X16693Y02487*
Y02487*
X16692Y02487*
X16692Y02487*
X16692Y02486*
X16692Y02486*
X16692Y02486*
X16692Y02486*
X16692Y02486*
X16692Y02486*
X16692Y02485*
X16692Y02485*
X16691Y02485*
X16691Y02485*
X1669Y02485*
X1669*
X1669*
X1669Y02485*
X1669Y02485*
X1669Y02485*
X1669Y02485*
X16689Y02485*
X16689Y02485*
X16689Y02485*
X16689Y02485*
X16689Y02486*
X16689Y02486*
X16689Y02486*
X16689Y02486*
X16689Y02487*
Y02499*
X16722*
Y02487*
G37*
G36*
X17194Y02546D02*
X17194Y02546D01*
X17194Y02546*
X17194Y02546*
X17194Y02546*
X17195Y02545*
X17195Y02545*
X17195Y02545*
X17195Y02545*
X17195Y02544*
X17195Y02544*
X17196Y02544*
X17196Y02543*
X17196Y02543*
X17197Y02543*
X17197*
X17197Y02543*
X17197Y02543*
X17197Y02543*
X17198Y02543*
X17198Y02543*
X17199Y02543*
X17199Y02543*
X17211*
X17206Y02539*
X17199*
X17199*
X17199*
X17199*
X17199Y02539*
X17198Y02539*
X17198Y02539*
X17197Y02539*
X17197Y02539*
X17196Y02538*
X17196Y02538*
X17196Y02538*
X17196Y02538*
X17196Y02538*
X17196Y02538*
X17195Y02537*
X17195Y02537*
X17195Y02537*
Y02537*
X17195Y02537*
X17195Y02536*
X17194Y02536*
X17194Y02536*
X17194Y02536*
X17194Y02536*
X17194Y02535*
X17193Y02535*
X17193*
X17193*
X17193Y02535*
X17193Y02536*
X17192Y02536*
X17192Y02536*
X17192Y02536*
X17192Y02536*
X17192Y02536*
X17192Y02536*
X17192Y02536*
X17192Y02537*
X17191Y02537*
X17191Y02537*
Y02544*
X17191Y02544*
X17191Y02544*
X17192Y02545*
X17192Y02545*
X17192Y02545*
X17192Y02546*
Y02546*
X17192Y02546*
X17192Y02546*
X17193Y02546*
X17193Y02546*
X17193*
X17193*
X17193*
X17194Y02546*
G37*
G36*
X17225Y02535D02*
X17197Y02519D01*
X17197*
X17197Y02519*
X17197Y02519*
X17196Y02519*
X17196Y02518*
X17196Y02518*
X17196Y02518*
X17196Y02518*
X17195Y02518*
X17195Y02518*
X17195Y02517*
X17195Y02516*
X17195Y02516*
X17195Y02516*
X17195Y02516*
X17194Y02516*
X17194*
X17194Y02516*
X17194Y02516*
X17194Y02515*
X17193Y02515*
X17193*
X17193*
X17193Y02515*
X17193Y02516*
X17192Y02516*
X17192*
X17192Y02516*
X17192Y02516*
X17192Y02516*
X17192Y02516*
Y02517*
X17192Y02517*
X17192Y02517*
X17192Y02517*
X17191Y02517*
X17191Y02518*
X17191Y02518*
Y0253*
X17214Y02543*
X17225*
Y02535*
G37*
G36*
X17224Y02526D02*
X17224Y02526D01*
X17224Y02526*
X17224Y02526*
X17224Y02526*
X17225Y02525*
Y02525*
X17225Y02525*
X17225Y02525*
X17225Y02525*
X17225Y02525*
X17225Y02524*
X17225Y02524*
Y02518*
X17225Y02518*
X17225Y02517*
X17225Y02517*
X17225Y02516*
X17224Y02516*
X17224Y02516*
X17224Y02515*
X17223Y02515*
X17223Y02515*
X17223*
X17223*
X17223Y02515*
X17223Y02515*
X17222Y02516*
X17222Y02516*
X17222Y02516*
X17222Y02516*
X17222Y02516*
X17222Y02517*
X17221Y02517*
Y02517*
X17221Y02517*
X17221Y02517*
X17221Y02517*
X1722Y02518*
X1722Y02518*
X17219Y02519*
X17219Y02519*
X17218Y02519*
X17218Y02519*
X17217Y02519*
X172*
X17204Y02522*
X17217*
X17217*
X17218*
X17218Y02522*
X17218Y02522*
X17219Y02523*
X17219Y02523*
X17219Y02523*
X1722Y02523*
X1722Y02523*
X1722Y02523*
X1722Y02523*
X1722Y02523*
X17221Y02524*
X17221Y02524*
X17221Y02524*
X17221Y02524*
X17222Y02525*
X17222Y02525*
X17222Y02525*
X17222Y02525*
X17222Y02526*
X17222Y02526*
X17223Y02526*
X17223Y02526*
X17223Y02526*
X17223*
X17223*
X17224Y02526*
G37*
G36*
X17202Y02511D02*
X17203Y02511D01*
X17203Y02511*
X17204Y02511*
X17204Y0251*
X17204Y0251*
X17204Y02509*
X17204Y02509*
Y02509*
X17204Y02509*
Y02509*
X17204Y02508*
X17204Y02508*
X17204Y02508*
X17204*
X17204Y02508*
X17204Y02508*
X17204Y02508*
X17203Y02507*
X17203Y02507*
X17203Y02507*
X17202Y02507*
X17202*
X17202Y02507*
X17202Y02507*
X17201Y02507*
X17201Y02507*
X17201Y02506*
X172Y02506*
X17199Y02506*
X17199Y02506*
X17199Y02506*
X17199Y02505*
X17198Y02505*
X17198Y02505*
X17197Y02505*
X17197Y02504*
X17197Y02504*
X17197Y02504*
X17196Y02504*
X17196Y02504*
X17196Y02503*
X17195Y02503*
X17195Y02502*
X17195Y02502*
X17195Y02502*
X17195Y02502*
X17195Y02502*
X17195Y02501*
X17195Y02501*
X17194Y025*
X17194Y02499*
X17194Y02499*
X17191*
Y02499*
X17191Y02499*
X17191Y02499*
X17191Y025*
X17191Y025*
X17191Y02501*
X17191Y02501*
X17191Y02503*
X17192Y02504*
X17192Y02505*
X17192Y02505*
X17192Y02506*
Y02506*
X17192Y02506*
X17192Y02506*
X17192Y02506*
X17193Y02507*
Y02507*
X17192Y02507*
X17192Y02507*
X17192Y02507*
X17192Y02507*
X17192Y02508*
X17192Y02508*
X17192Y02508*
X17192Y02508*
X17191Y02508*
X17191Y02508*
X17191Y02509*
X17191Y02509*
X17191Y02509*
Y02509*
X17191Y0251*
X17191Y0251*
X17191Y0251*
X17191Y0251*
X17191Y02511*
X17191*
X17191Y02511*
X17192Y02511*
X17192Y02511*
X17192Y02511*
X17192Y02511*
X17192Y02511*
X17193*
X17202*
X17202*
X17202*
X17202Y02511*
G37*
G36*
X1721Y02512D02*
X1721Y02512D01*
X1721Y02512*
X1721Y02512*
X17211Y02512*
X17211Y02511*
X17211Y02511*
X17211Y02511*
X17211Y02511*
X17211Y02511*
X17212Y02511*
X17212*
X17212*
X17212Y02511*
X17212*
X17212*
X17221*
X17221Y02511*
X17221Y0251*
X17221Y0251*
X17221Y0251*
X17222Y02509*
X17222Y02509*
X17222Y02508*
X17223Y02508*
X17223Y02508*
X17223Y02507*
X17223Y02507*
X17223Y02507*
X17224Y02506*
X17224Y02506*
X17224Y02505*
X17224Y02505*
X17224Y02505*
X17224Y02505*
X17225Y02504*
X17225Y02504*
X17225Y02503*
X17225Y02503*
X17225Y02502*
X17225Y02502*
Y02502*
X17225Y02501*
X17225Y02501*
X17225Y02501*
X17225Y025*
X17225Y025*
X17226Y02499*
Y02498*
X17222*
Y02498*
X17222Y02499*
X17222Y02499*
X17222Y02499*
X17222Y02499*
X17222Y02499*
X17222Y025*
X17222Y025*
X17221Y025*
X17221Y025*
X17221Y025*
X17221*
X17221Y025*
X17221Y025*
X17221Y025*
X1722Y025*
X1722Y025*
X1722Y025*
X17219*
X17213*
X17212*
X17212*
X17212*
X17212Y025*
X17212Y025*
X17212Y025*
X17211Y025*
X17211*
X17211Y025*
X17211Y025*
Y025*
X17211Y025*
Y025*
X17211Y025*
X17211Y02499*
X17211Y02499*
X17211Y02499*
Y02499*
X17211Y02499*
X17211Y02498*
X17211Y02498*
X1721Y02498*
X1721Y02498*
X1721Y02498*
X17209Y02497*
X17209*
X17209*
X17209Y02498*
X17209Y02498*
X17209Y02498*
X17208Y02498*
X17208Y02498*
X17208Y02498*
X17208Y02498*
X17208Y02498*
X17208Y02498*
X17208Y02499*
X17208Y02499*
X17208Y02499*
X17207Y025*
Y0251*
X17207Y0251*
Y0251*
X17208Y02511*
X17208Y02511*
X17208Y02511*
Y02511*
X17208Y02512*
X17208Y02512*
X17208Y02512*
X17208Y02512*
X17209Y02512*
X17209Y02512*
X17209Y02512*
X17209*
X17209*
X1721Y02512*
G37*
G36*
X17194Y02498D02*
X17194Y02498D01*
X17194Y02498*
X17195Y02497*
X17195Y02497*
X17195Y02496*
X17196Y02496*
X17196Y02496*
X17196Y02496*
X17197Y02496*
X17197Y02496*
X17219*
X17219*
X1722*
X1722*
X1722Y02496*
X17221Y02496*
X17221Y02496*
X17221Y02496*
X17221Y02496*
X17222Y02496*
X17222Y02496*
X17222Y02497*
X17222Y02497*
X17222Y02497*
X17226*
Y02497*
X17225Y02496*
X17225Y02496*
X17225Y02495*
Y02495*
X17225Y02495*
Y02495*
X17225Y02495*
X17225Y02495*
X17225Y02494*
X17225Y02494*
X17225Y02494*
Y02494*
X17225Y02493*
X17225Y02493*
X17225Y02493*
X17225Y02493*
X17225Y02493*
X17224Y02492*
X17224Y02491*
X17223Y02491*
X17223Y0249*
X17222Y02489*
X17222Y02489*
X17222Y02489*
X17222Y02489*
X17222Y02488*
X17221Y02488*
X1722Y02487*
X1722Y02487*
X17219Y02486*
X17218Y02486*
X17218Y02486*
X17218Y02486*
X17218Y02486*
X17217Y02485*
X17217Y02485*
X17217Y02485*
X17216Y02485*
X17215Y02485*
X17215Y02484*
X17214Y02484*
X17213Y02484*
X17212Y02484*
X17211Y02484*
X17211Y02484*
X1721Y02483*
X17209Y02483*
X17209*
X17208*
X17208*
X17208Y02483*
X17207*
X17207Y02483*
X17206Y02484*
X17205Y02484*
X17205Y02484*
X17204Y02484*
X17202Y02484*
X17201Y02485*
X172Y02485*
X17199Y02485*
X17199Y02485*
X17199Y02485*
X17199Y02485*
X17199Y02486*
X17198Y02486*
X17198Y02486*
X17197Y02486*
X17197Y02487*
X17197Y02487*
X17196Y02487*
X17195Y02488*
X17194Y02489*
X17193Y0249*
X17193Y02491*
Y02491*
X17193Y02491*
X17193Y02491*
X17193Y02491*
X17192Y02491*
X17192Y02492*
X17192Y02493*
X17192Y02493*
X17191Y02494*
X17191Y02495*
Y02495*
X17191Y02495*
X17191Y02495*
X17191Y02496*
X17191Y02496*
X17191Y02497*
X17191Y02497*
Y02498*
X17194*
Y02498*
G37*
G36*
X16891Y02545D02*
X16891Y02545D01*
X16891Y02545*
X16891Y02545*
X16892Y02545*
X16892Y02545*
X16892Y02544*
X16892Y02544*
X16892Y02544*
X16892Y02544*
X16892Y02544*
X16892Y02543*
X16892Y02543*
X16893Y02543*
X16893Y02543*
X16893Y02542*
X16894Y02542*
X16894Y02541*
X16894Y02541*
X16901Y02537*
X16897Y02535*
X16895Y02537*
X16895Y02537*
X16894Y02537*
X16894Y02537*
X16894Y02537*
X16894*
X16894Y02537*
X16893Y02537*
X16893Y02537*
X16893Y02537*
X16893Y02537*
X16893Y02536*
X16892Y02536*
X16892Y02535*
X16892Y02535*
X16892Y02535*
X16892Y02535*
X16891Y02535*
X16891*
X16891Y02535*
X16891Y02534*
X16891Y02534*
X1689Y02534*
X1689*
X1689*
X1689Y02534*
X1689Y02534*
X1689Y02535*
X16889Y02535*
X16889Y02535*
X16889Y02535*
X16889Y02535*
X16889Y02535*
X16889Y02535*
X16889Y02536*
X16889Y02536*
Y02543*
X16889Y02543*
Y02544*
X16889Y02544*
X16889Y02544*
X16889Y02545*
Y02545*
X16889Y02545*
X16889Y02545*
X1689Y02545*
X1689Y02545*
X1689Y02545*
X1689*
X1689*
X16891Y02545*
G37*
G36*
X16921Y02546D02*
X16921Y02546D01*
X16921Y02546*
X16921Y02546*
X16922Y02546*
X16922Y02546*
Y02546*
X16922Y02546*
X16922Y02545*
X16922Y02545*
X16922Y02545*
X16922Y02545*
X16922Y02544*
Y02532*
X16922Y02532*
X16922Y02531*
X16922Y02531*
X16922Y02531*
X16922Y02531*
X16922Y0253*
X16922Y0253*
X16922Y0253*
X16921Y0253*
X16921Y0253*
X16921Y0253*
X1692Y02529*
X1692*
X1692*
X1692Y0253*
X1692Y0253*
X1692Y0253*
X1692Y0253*
X16919Y0253*
X16919Y0253*
X16919Y0253*
Y0253*
X16919Y02531*
X16919Y02531*
X16918Y02531*
X16918Y02531*
X16918Y02531*
X16918*
X16918Y02531*
X16918Y02531*
X16917Y02531*
X16917Y02531*
X16894Y02519*
X16894*
X16894Y02519*
X16893Y02519*
X16893Y02519*
X16893Y02518*
X16893Y02518*
X16893Y02518*
X16892Y02518*
X16892Y02518*
Y02518*
X16892Y02518*
X16892Y02518*
X16892Y02517*
X16892Y02517*
X16892Y02517*
X16892Y02517*
X16891Y02517*
X16891Y02517*
X16891Y02517*
X16891Y02517*
X1689*
X1689*
X1689Y02517*
X1689Y02517*
X1689Y02517*
X16889Y02517*
X16889Y02517*
X16889Y02517*
Y02517*
X16889Y02517*
X16889Y02518*
X16889Y02518*
X16889Y02518*
X16889Y02518*
X16889Y02519*
Y02531*
X16889Y02531*
Y02531*
X16889Y02532*
X16889Y02532*
X16889Y02533*
Y02533*
X16889Y02533*
X16889Y02533*
X16889Y02533*
X1689Y02533*
X1689Y02533*
X1689Y02533*
X16891Y02533*
X16891*
X16891*
X16891Y02533*
X16891Y02533*
X16891Y02533*
X16892Y02533*
X16892Y02533*
X16892Y02532*
X16892Y02532*
X16892Y02532*
X16892Y02532*
X16892Y02532*
X16892*
X16893Y02532*
X16893*
X16893*
X16893Y02532*
X16893Y02532*
X16918Y02544*
X16918Y02544*
X16918Y02544*
X16918Y02545*
X16919Y02545*
Y02545*
X16919Y02545*
X16919Y02545*
X16919Y02545*
X16919Y02546*
X16919Y02546*
X16919Y02546*
X1692Y02546*
X1692Y02546*
X1692Y02546*
X1692*
X16921*
X16921Y02546*
G37*
G36*
X16921Y02528D02*
X16921Y02528D01*
X16921Y02528*
X16921Y02527*
X16922Y02527*
X16922Y02527*
X16922Y02527*
X16922Y02527*
X16922Y02527*
X16922Y02526*
Y02526*
X16922Y02526*
Y02519*
X16922Y02519*
Y02519*
X16922Y02518*
X16922Y02518*
X16922Y02517*
X16922Y02517*
X16922Y02517*
X16921Y02517*
X16921Y02517*
X16921Y02517*
X16921*
X1692*
X1692Y02517*
X1692Y02517*
X16919Y02517*
X16919Y02517*
X16919Y02518*
X16919Y02518*
X16919Y02518*
Y02518*
X16919Y02518*
X16919Y02519*
X16919Y02519*
X16918Y02519*
X16918Y0252*
X16918Y0252*
X16917Y02521*
X16917Y02521*
X1691Y02526*
X16913Y02528*
X16916Y02526*
X16916Y02526*
X16916Y02526*
X16916Y02526*
X16916Y02526*
X16917Y02525*
X16917Y02525*
X16917Y02525*
X16917*
X16918*
X16918Y02525*
X16918Y02525*
X16918Y02526*
X16918Y02526*
X16918Y02526*
X16919Y02526*
Y02526*
X16919Y02526*
X16919Y02527*
X16919Y02527*
X16919Y02527*
X16919Y02527*
X16919Y02527*
X16919Y02527*
X1692Y02528*
X1692Y02528*
X1692Y02528*
X1692*
X16921*
X16921Y02528*
G37*
G36*
X16918Y02516D02*
X16918Y02516D01*
X16918Y02516*
X16918Y02515*
X16919Y02515*
X16919Y02515*
X16919Y02515*
X16919Y02515*
X1692Y02515*
X1692Y02514*
X1692Y02514*
X16921Y02514*
X16921Y02514*
X16921Y02513*
X16921Y02513*
X16921Y02513*
X16922Y02513*
X16922Y02512*
X16922Y02512*
X16922Y02512*
X16922Y02511*
X16923Y02511*
Y02511*
X16923Y02511*
X16923Y0251*
X16923Y0251*
X16923Y0251*
X16923Y02509*
X16923Y02509*
Y02508*
X16923Y02507*
Y02507*
X16923Y02507*
X16923Y02506*
X16922Y02505*
X16922Y02504*
X16922Y02504*
X16921Y02503*
X16921Y02503*
X16921*
X16921Y02503*
X16921Y02503*
X16921Y02502*
X1692Y02502*
X1692Y02502*
X1692Y02502*
X1692Y02502*
X16919Y02501*
X16918Y02501*
X16917Y02501*
X16916Y02501*
X16916Y02501*
X16912*
X16912*
X16911*
X16911*
X16911*
X16911*
X1691*
X1691Y02501*
X1691*
X1691*
X1691Y02501*
X1691Y02501*
X1691Y02501*
X16909Y025*
X16909Y025*
X16909Y025*
X16909Y025*
X16908Y025*
X16908Y025*
X16908Y02499*
X16908Y02499*
X16908Y02499*
X16908Y02498*
X16904*
Y02498*
X16904Y02498*
X16904Y02499*
X16904Y02499*
X16904Y025*
X16904Y025*
X16904Y025*
X16904Y025*
X16904Y025*
X16903Y02501*
X16903Y02501*
X16903*
X16903Y02501*
X16903*
X16903Y02501*
X16903Y02501*
X16902*
X16902Y02501*
X16902*
X16895*
X16895*
X16895*
X16895Y02501*
X16895*
X16894Y02501*
X16894Y02501*
X16893Y025*
X16893Y025*
X16893Y025*
X16893Y025*
X16893Y025*
X16893Y025*
X16893Y02499*
X16892Y02499*
X16892Y02498*
X16889*
Y025*
X16889Y02501*
Y02501*
X16889Y02502*
X16889Y02503*
X16889Y02504*
Y02504*
X16889Y02504*
X16889Y02504*
X16889Y02505*
X16889Y02505*
X16889Y02506*
X1689Y02506*
X1689Y02507*
X1689Y02508*
X16891Y02509*
X16891Y02509*
X16891Y02509*
X16891Y02509*
X16891Y0251*
X16892Y0251*
X16892Y0251*
X16892Y0251*
X16893Y02511*
X16893Y02511*
X16894Y02511*
X16894Y02512*
X16895Y02512*
X16895Y02512*
X16896Y02512*
X16897Y02512*
X16898Y02512*
X16898*
X16898*
X16898*
X16898Y02512*
X16898Y02512*
X16899Y02512*
X16899Y02512*
X169Y02512*
X16901Y02512*
X16902Y02511*
X16902Y02511*
X16902Y02511*
X16903Y0251*
X16903Y0251*
X16903Y0251*
X16904Y0251*
X16904Y0251*
X16904Y02509*
X16904Y02509*
X16904Y02509*
X16905Y02508*
X16905Y02508*
X16905Y02508*
X16905Y02508*
X16905Y02507*
X16905Y02507*
X16905Y02507*
X16906Y02506*
X16906Y02505*
X16906Y02505*
Y02505*
X16906Y02505*
Y02506*
X16906Y02506*
X16906Y02507*
X16906Y02507*
X16906Y02508*
Y02508*
X16906Y02508*
X16906Y02508*
X16906Y02508*
X16907Y02509*
X16907Y02509*
X16907Y0251*
X16907Y0251*
X16907Y0251*
X16908Y0251*
X16908Y02511*
X16908Y02511*
X16908Y02511*
X16909Y02511*
X16909Y02512*
X16909Y02512*
X16909Y02512*
X1691Y02512*
X1691Y02512*
X1691Y02512*
X16911Y02512*
X16911Y02512*
X16912Y02512*
X16917*
X16917*
X16917*
X16917*
X16917Y02512*
Y02512*
X16917Y02512*
X16917Y02512*
X16916Y02513*
X16916Y02513*
X16916Y02513*
X16916Y02513*
X16916Y02513*
X16916Y02513*
X16915Y02514*
X16915Y02514*
Y02514*
X16915Y02514*
X16916Y02514*
X16916Y02515*
X16916Y02515*
X16916Y02515*
X16916Y02515*
X16916Y02515*
X16916Y02515*
X16916Y02515*
X16916Y02516*
X16917Y02516*
X16917Y02516*
X16917Y02516*
X16917*
X16917*
X16918Y02516*
G37*
G36*
X16921Y025D02*
X16921Y025D01*
X16921Y025*
X16921Y025*
X16922Y025*
X16922Y02499*
Y02499*
X16922Y02499*
X16922Y02499*
X16922Y02499*
X16922Y02499*
X16922Y02498*
X16922Y02498*
Y02485*
X16922Y02485*
Y02485*
X16922Y02484*
X16922Y02484*
X16922Y02484*
X16922Y02484*
X16922Y02484*
X16922Y02484*
X16921Y02483*
X16921Y02483*
X16921Y02483*
X1692*
X1692Y02483*
X1692Y02483*
X1692Y02483*
X1692Y02484*
X16919Y02484*
X16919Y02484*
X16919Y02485*
Y02485*
X16919Y02485*
X16919Y02485*
X16919Y02485*
Y02485*
X16919Y02485*
X16918Y02485*
X16918Y02485*
X16918Y02486*
X16918Y02486*
X16918Y02486*
X16917Y02486*
X16894*
X16894*
X16893*
X16893Y02486*
X16893Y02486*
X16893Y02486*
X16893Y02485*
X16893*
X16893Y02485*
X16893Y02485*
Y02485*
X16892Y02485*
X16892Y02485*
X16892Y02485*
X16892Y02485*
X16892Y02485*
X16892Y02484*
X16892Y02484*
X16892Y02484*
X16892Y02484*
X16892Y02484*
X16891Y02483*
X16891Y02483*
X1689Y02483*
X1689*
X1689*
X1689Y02483*
X1689Y02483*
X1689Y02483*
X1689Y02483*
X16889Y02484*
X16889Y02484*
X16889Y02484*
X16889Y02484*
X16889Y02484*
X16889Y02484*
X16889Y02485*
X16889Y02485*
X16889Y02485*
Y02497*
X16917*
X16917*
X16917*
X16917*
X16918Y02497*
X16918Y02497*
X16918Y02497*
X16918Y02497*
X16918Y02497*
X16918Y02498*
X16918Y02498*
X16918Y02498*
Y02498*
X16919Y02498*
X16919Y02498*
X16919Y02498*
X16919Y02498*
Y02499*
X16919Y02499*
X16919Y02499*
X16919Y02499*
X16919Y025*
X1692Y025*
X1692Y025*
X1692Y025*
X1692*
X16921*
X16921*
X16921Y025*
G37*
G36*
X16991Y02543D02*
X16991Y02543D01*
X16992Y02543*
X16992Y02543*
X16992Y02543*
X16992Y02543*
X16992Y02542*
X16993Y02542*
X16993Y02542*
X16993Y02542*
X16993Y02541*
X16993Y02541*
X16993Y02541*
X16993Y02541*
X16994Y02541*
X16994Y0254*
X16994Y0254*
X16995Y02539*
X16995Y02539*
X17001Y02535*
X16998Y02533*
X16995Y02535*
X16995Y02535*
X16995Y02535*
X16995Y02535*
X16994Y02535*
X16994*
X16994Y02535*
X16994Y02535*
X16994Y02535*
X16994Y02534*
X16993Y02534*
X16993Y02534*
X16993Y02534*
X16993Y02533*
X16993Y02533*
X16993Y02533*
X16992Y02533*
X16992Y02532*
X16992*
X16992Y02532*
X16992Y02532*
X16991Y02532*
X16991Y02532*
X16991*
X16991*
X16991Y02532*
X16991Y02532*
X1699Y02532*
X1699Y02533*
X1699Y02533*
X1699Y02533*
X1699Y02533*
X1699Y02533*
X1699Y02533*
X16989Y02534*
X16989Y02534*
Y02541*
X16989Y02541*
Y02542*
X1699Y02542*
X1699Y02542*
X1699Y02542*
Y02543*
X1699Y02543*
X1699Y02543*
X16991Y02543*
X16991Y02543*
X16991Y02543*
X16991*
X16991*
X16991Y02543*
G37*
G36*
X17021Y02544D02*
X17022Y02544D01*
X17022Y02544*
X17022Y02544*
X17022Y02544*
X17023Y02544*
Y02543*
X17023Y02543*
X17023Y02543*
X17023Y02543*
X17023Y02543*
X17023Y02542*
X17023Y02542*
Y0253*
X17023Y0253*
X17023Y02529*
X17023Y02529*
X17023Y02528*
X17023Y02528*
X17023Y02528*
X17023Y02528*
X17022Y02528*
X17022Y02528*
X17022Y02528*
X17022Y02527*
X17021Y02527*
X17021*
X17021*
X17021Y02527*
X17021Y02527*
X1702Y02528*
X1702Y02528*
X1702Y02528*
X1702Y02528*
X1702Y02528*
Y02528*
X17019Y02528*
X17019Y02529*
X17019Y02529*
X17019Y02529*
X17019Y02529*
X17019*
X17019Y02529*
X17018Y02529*
X17018Y02529*
X17018Y02528*
X16994Y02517*
X16994*
X16994Y02517*
X16994Y02517*
X16994Y02516*
X16994Y02516*
X16993Y02516*
X16993Y02516*
X16993Y02516*
X16993Y02516*
Y02516*
X16993Y02516*
X16993Y02515*
X16993Y02515*
X16993Y02515*
X16992Y02515*
X16992Y02515*
X16992Y02515*
X16992Y02515*
X16992Y02514*
X16991Y02514*
X16991*
X16991*
X16991Y02514*
X16991Y02515*
X1699Y02515*
X1699Y02515*
X1699Y02515*
X1699Y02515*
Y02515*
X1699Y02515*
X1699Y02515*
X1699Y02516*
X1699Y02516*
X16989Y02516*
X16989Y02517*
Y02529*
X16989Y02529*
Y02529*
X1699Y0253*
X1699Y0253*
X1699Y0253*
Y02531*
X1699Y02531*
X1699Y02531*
X1699Y02531*
X1699Y02531*
X16991Y02531*
X16991Y02531*
X16991Y02531*
X16991*
X16991*
X16992Y02531*
X16992Y02531*
X16992Y02531*
X16992Y02531*
X16993Y02531*
X16993Y0253*
X16993Y0253*
X16993Y0253*
X16993Y0253*
X16993Y0253*
X16993*
X16993Y0253*
X16993*
X16994*
X16994Y0253*
X16994Y0253*
X17018Y02542*
X17019Y02542*
X17019Y02542*
X17019Y02542*
X17019Y02543*
Y02543*
X17019Y02543*
X17019Y02543*
X1702Y02543*
X1702Y02544*
X1702Y02544*
X1702Y02544*
X1702Y02544*
X17021Y02544*
X17021Y02544*
X17021*
X17021*
X17021Y02544*
G37*
G36*
X17021Y02526D02*
X17022Y02526D01*
X17022Y02525*
X17022Y02525*
X17022Y02525*
X17023Y02525*
X17023Y02525*
X17023Y02525*
X17023Y02524*
X17023Y02524*
Y02524*
X17023Y02524*
Y02517*
X17023Y02517*
Y02516*
X17023Y02516*
X17023Y02515*
X17022Y02515*
X17022Y02515*
X17022Y02515*
X17022Y02515*
X17022Y02515*
X17021Y02515*
X17021*
X17021*
X17021Y02515*
X17021Y02515*
X1702Y02515*
X1702Y02515*
X1702Y02515*
X1702Y02516*
X1702Y02516*
Y02516*
X1702Y02516*
X17019Y02516*
X17019Y02517*
X17019Y02517*
X17019Y02518*
X17018Y02518*
X17018Y02518*
X17017Y02519*
X1701Y02524*
X17014Y02525*
X17016Y02524*
X17016Y02524*
X17016Y02524*
X17017Y02524*
X17017Y02524*
X17018Y02523*
X17018Y02523*
X17018Y02523*
X17018*
X17018*
X17018Y02523*
X17019Y02523*
X17019Y02523*
X17019Y02524*
X17019Y02524*
X17019Y02524*
Y02524*
X17019Y02524*
X17019Y02524*
X1702Y02525*
X1702Y02525*
X1702Y02525*
X1702Y02525*
X1702Y02525*
X1702Y02526*
X17021Y02526*
X17021Y02526*
X17021*
X17021*
X17021Y02526*
G37*
G36*
X17Y02513D02*
X17Y02513D01*
X17001Y02513*
X17001Y02513*
X17001Y02513*
X17001Y02513*
X17001Y02513*
X17001Y02513*
X17001Y02513*
X17002Y02512*
X17002Y02512*
X17002Y02511*
Y02511*
X17002Y02511*
X17002Y02511*
X17001Y02511*
X17001Y0251*
X17001Y0251*
X17001*
X17001Y0251*
X17001Y0251*
X17001Y0251*
X17Y0251*
X17Y0251*
X16998Y02509*
X16998*
X16998*
X16998Y02509*
X16998Y02509*
X16998Y02509*
X16997Y02509*
X16997Y02509*
X16996Y02509*
X16995Y02508*
X16995Y02508*
X16995Y02508*
X16995Y02508*
X16994Y02508*
X16994Y02508*
X16994Y02507*
X16994Y02507*
X16993Y02507*
X16993Y02506*
X16989*
Y02513*
X17*
X17*
X17*
X17Y02513*
G37*
G36*
X17022Y02508D02*
X17022Y02508D01*
X17022Y02508*
X17022Y02508*
X17022Y02508*
X17023Y02507*
Y02507*
X17023Y02507*
X17023Y02507*
X17023Y02507*
X17023Y02507*
X17023Y02506*
X17023Y02506*
Y02493*
X17023Y02493*
Y02493*
X17023Y02492*
X17023Y02492*
X17023Y02491*
X17022Y02491*
X17022Y02491*
X17022Y02491*
X17022Y02491*
X17022Y02491*
X17022Y02491*
X17022Y02491*
X17021Y02491*
X17021*
X17021Y02491*
X17021Y02491*
X1702Y02491*
X1702Y02491*
X1702Y02491*
X1702Y02492*
X17019Y02492*
Y02492*
X17019Y02492*
X17019Y02492*
X17019Y02493*
X17019Y02493*
Y02493*
X17019Y02493*
X17019Y02493*
X17019Y02493*
X17019Y02493*
X17019Y02493*
X17018Y02494*
X17018Y02494*
X17018*
X16989*
Y02505*
X17018*
X17018*
X17018*
X17018*
X17018Y02505*
X17019Y02505*
X17019Y02505*
X17019Y02505*
X17019Y02505*
X17019Y02505*
X17019Y02506*
X17019Y02506*
Y02506*
X17019Y02506*
X17019Y02506*
X17019Y02506*
X17019Y02506*
Y02506*
X17019Y02507*
X1702Y02507*
X1702Y02507*
X1702Y02508*
X1702Y02508*
X17021Y02508*
X17021Y02508*
X17021*
X17021*
X17021*
X17022Y02508*
G37*
G36*
X16993Y02493D02*
X16993Y02492D01*
X16993Y02492*
X16994Y02492*
X16994Y02492*
X16994Y02491*
X16995Y02491*
X16995Y02491*
X16995Y02491*
X16995Y02491*
X16995Y0249*
X16996Y0249*
X16996Y0249*
X16997Y0249*
X16998Y0249*
X16998Y0249*
X17Y02489*
X17*
X17Y02489*
X17Y02489*
X17Y02489*
X17001Y02489*
X17001Y02489*
Y02489*
X17001Y02489*
X17001Y02488*
X17001Y02488*
X17002Y02488*
X17002Y02488*
X17002Y02487*
Y02487*
X17002Y02487*
X17002Y02487*
X17001Y02486*
X17001Y02486*
X17001Y02486*
X17001*
X17001Y02486*
X17001Y02486*
X17001Y02486*
X17001Y02486*
X17Y02485*
X17Y02485*
X17Y02485*
X16989*
Y02493*
X16993*
X16993Y02493*
G37*
G36*
X17497Y01304D02*
X17498Y01304D01*
X17498Y01304*
X17498Y01303*
X17499Y01303*
X175Y01302*
X175Y01302*
X175Y01301*
X17501Y013*
X17502Y01299*
X17502Y01299*
X17502Y01299*
X17502Y01299*
X17503Y01298*
X17503Y01298*
X17503Y01297*
X17504Y01296*
X17506Y01295*
X17506Y01294*
X17507Y01293*
X17508Y01292*
X17508Y01291*
X17509Y0129*
X17509Y0129*
X1751Y01289*
X17511Y01287*
X17512Y01286*
X17514Y01284*
X17517Y0128*
X17517Y0128*
X17517Y01279*
X17518Y01278*
X17519Y01276*
X17521Y01275*
X17522Y01273*
X17526Y01269*
X17526Y01269*
X17526Y01268*
X17527Y01267*
Y01267*
X17528Y01266*
X17528Y01266*
X17528Y01265*
Y01264*
X17529Y01264*
X17529Y01263*
X17529Y01262*
Y01262*
X17529Y01261*
X17528Y0126*
X17528Y01259*
Y01259*
X17527Y01258*
X17526Y01257*
X17525Y01256*
X17524Y01256*
X17523Y01256*
X17522*
X17522*
X17521Y01256*
X17521*
X17518Y01257*
X17516Y01257*
X17516*
X17515Y01258*
X17514Y01258*
X17513Y01258*
X17511Y01259*
X17509Y0126*
X17509*
X17508Y0126*
X17508Y01261*
X17507Y01261*
X17505Y01262*
X17503Y01263*
X17503Y01263*
X17503Y01263*
X17502Y01264*
X17501Y01264*
X17499Y01265*
X17498Y01266*
X17496Y01267*
X17494Y01269*
X17494Y01269*
X17493Y01269*
X17492Y0127*
X17491Y01271*
X17491Y01272*
X1749Y01273*
X17489Y01274*
X17488Y01274*
X17488Y01275*
X17488Y01275*
X17488Y01274*
X17489Y01273*
X1749Y01272*
X17491Y01272*
X17492Y0127*
X17494Y01267*
X17494Y01267*
X17494Y01266*
X17495Y01265*
X17496Y01264*
X17497Y01263*
X17498Y01261*
X175Y01258*
X17501Y01257*
X17501Y01257*
X17502Y01256*
X17503Y01255*
X17504Y01253*
X17506Y01251*
X17508Y0125*
X1751Y01248*
X1751Y01248*
X17511Y01247*
X17512Y01246*
X17513Y01245*
X17516Y01243*
X17518Y01241*
X17521Y01239*
X17524Y01237*
X17524Y01237*
X17525Y01236*
X17526Y01235*
X17526Y01235*
X17527Y01235*
X17527Y01234*
X17528Y01233*
Y01233*
X17528Y01232*
X17528Y0123*
X17528Y01229*
X17527Y01228*
Y01228*
X17527Y01228*
X17526Y01227*
X17525Y01226*
X17524Y01226*
X17523Y01225*
X17523*
X17522*
X17522*
X17521Y01226*
X17519Y01226*
X17518Y01227*
X17516Y01227*
X17514Y01228*
X17514Y01229*
X17513Y01229*
X17512Y0123*
X1751Y01231*
X17508Y01232*
X17508Y01232*
X17508Y01231*
X17511Y01228*
X17513Y01225*
X17516Y01222*
Y01222*
X17516Y01222*
X17517Y0122*
X17518Y01219*
X1752Y01217*
X1752Y01217*
X17521Y01216*
X17522Y01214*
X17524Y01212*
X17524Y01212*
X17525Y01212*
X17525Y01211*
X17526Y0121*
X17526Y0121*
X17526Y0121*
X17527Y01209*
X17527Y01209*
X17527Y01208*
X17528Y01207*
X17528Y01206*
X17528Y01205*
X17528Y01204*
Y01204*
X17528Y01203*
X17528Y01202*
X17527Y01201*
X17526Y01199*
X17526*
X17525Y01199*
X17524Y01199*
X17523Y01198*
X17522*
X17521*
X17521*
X17521Y01198*
X1752Y01198*
X17518Y01199*
X17516Y012*
X17516*
X17516Y012*
X17515Y012*
X17514Y01201*
X17512Y01202*
X17511Y01202*
X17512Y01201*
X17512Y01201*
X17512Y01201*
X17513Y012*
X17514Y01199*
X17516Y01197*
X17518Y01194*
X17518Y01194*
X17519Y01193*
X17519Y01193*
X1752Y01192*
X17522Y01189*
X17524Y01187*
X17524Y01186*
X17525Y01186*
X17525Y01185*
X17526Y01184*
X17526Y01184*
X17526Y01183*
X17527Y01182*
X17528Y01181*
Y01181*
X17528Y0118*
X17528Y01179*
X17528Y01177*
Y01177*
X17528Y01176*
X17528Y01175*
X17527Y01174*
Y01174*
X17527Y01174*
X17526Y01173*
X17524Y01172*
X17523Y01172*
X17522Y01171*
X17522*
X17522*
X17521*
X17519Y01172*
X17517Y01172*
X17517*
X17517Y01172*
X17515Y01173*
X17514Y01173*
X17512Y01174*
X1751Y01175*
X17509Y01175*
X1751Y01175*
X17511Y01173*
X17512Y01172*
X17515Y01169*
X17515Y01168*
X17515Y01168*
X17516Y01167*
X17517Y01166*
X17519Y01163*
X17522Y01161*
X17522Y0116*
X17522Y0116*
X17523Y01159*
X17524Y01158*
X17524Y01158*
X17525Y01157*
X17526Y01156*
X17526Y01156*
X17527Y01155*
X17527Y01154*
X17528Y01153*
X17529Y01151*
Y01151*
X17529Y01151*
X1753Y0115*
Y01149*
X17529Y01148*
X17529Y01147*
X17528Y01145*
X17528Y01145*
X17528Y01145*
X17527Y01144*
X17526Y01144*
X17526*
X17526Y01144*
X17525Y01144*
X17524Y01143*
X17524*
X17524*
X17523*
X17522Y01143*
X17521*
X17519Y01143*
X17518*
X17518Y01143*
X17518*
X17517Y01144*
X17515Y01144*
X17513Y01145*
X17513*
X17513Y01145*
X17512Y01145*
X1751Y01146*
X17508Y01147*
X17508*
X17508Y01147*
X17507Y01147*
X17505Y01148*
X17503Y01149*
X17503Y01149*
X17503Y01149*
X17502Y0115*
X175Y01151*
X17499Y01151*
X17497Y01153*
X17494Y01155*
X17493Y01155*
X17493Y01156*
X17492Y01156*
X17492Y01157*
X17493Y01155*
X17494Y01153*
X17495Y01153*
X17495Y01152*
X17496Y01151*
X17497Y0115*
X17498Y01148*
X175Y01147*
X17503Y01143*
X17503Y01143*
X17503Y01142*
X17505Y01141*
X17505Y0114*
X17506Y01139*
X17507Y01139*
X17507Y01138*
X17507Y01138*
X17508Y01137*
X1751Y01135*
X17512Y01132*
X17512Y01132*
X17512Y01132*
X17513Y01131*
X17514Y0113*
X17515Y01128*
X17517Y01125*
Y01125*
X17517Y01124*
X17518Y01124*
X17518Y01123*
X17518Y01121*
X17518Y0112*
X17518Y01119*
X17518Y01119*
X17517Y01119*
X17516Y01118*
X17515*
X17514Y01118*
X17514*
X17513Y01119*
X17513Y01119*
X17512Y01119*
X1751Y0112*
X17508Y01121*
X17508*
X17507Y01121*
X17507Y01121*
X17506Y01122*
X17503Y01123*
X17501Y01125*
X175Y01125*
X175Y01125*
X17499Y01125*
X17498Y01126*
X17496Y01127*
X17493Y01129*
X17493Y01129*
X17492Y0113*
X17492Y0113*
X17491Y01131*
X1749Y01131*
X17491Y0113*
X17494Y01127*
X17497Y01123*
X17501Y0112*
X17504Y01116*
X17505Y01116*
X17505Y01115*
X17505Y01115*
X17506Y01114*
X17507Y01113*
X17508Y01112*
X17511Y0111*
X17515Y01106*
X17518Y01103*
X17523Y011*
X17527Y01096*
X17527Y01096*
X17528Y01096*
X17529Y01095*
X17529Y01094*
X17529Y01094*
X1753Y01093*
X1753Y01092*
Y01092*
X17531Y01092*
X17531Y01091*
X17531Y01089*
X1753Y01088*
X1753Y01087*
Y01087*
X1753Y01087*
X17529Y01086*
X17528Y01085*
X17527Y01085*
X17526Y01085*
X17526*
X17525*
X17524Y01085*
X17522Y01085*
X1752Y01085*
X17518Y01086*
X17517Y01087*
X17514Y01088*
X17514Y01088*
X17513Y01088*
X17512Y01088*
X17511Y01089*
X17509Y0109*
X17508Y01091*
X17504Y01093*
X17504*
X17504Y01094*
X17503Y01094*
X17502Y01094*
X175Y01096*
X17498Y01097*
X17498Y01098*
X17498Y01098*
X17497Y01099*
X17496Y01099*
X17494Y01101*
X17491Y01104*
X1749Y01104*
X1749Y01104*
X17489Y01105*
X17488Y01106*
X17487Y01107*
X17485Y01109*
X17482Y01111*
X17482Y01112*
X17481Y01112*
X1748Y01113*
X17479Y01114*
X17477Y01116*
X17475Y01119*
X17474Y01119*
X17474Y01119*
X17473Y0112*
X17473Y01121*
X1747Y01123*
X17468Y01126*
X17468Y01126*
X17467Y01126*
X17466Y01127*
X17465Y01127*
X17464Y01129*
X17463Y0113*
X17462Y01131*
Y01131*
X17462Y01131*
Y01133*
X17462Y01134*
X17463Y01134*
X17463*
X17464*
X17464Y01134*
X17466Y01134*
X17467Y01133*
X17467*
X17468Y01133*
X17469Y01132*
X1747Y01132*
X1747Y01132*
X17471Y01132*
X17471Y01131*
X17472Y01131*
X17472Y01131*
X17473Y01131*
X17473Y0113*
X17474Y01129*
X17476Y01129*
X17477Y01128*
X1748Y01126*
X1748Y01126*
X17481Y01125*
X17481Y01125*
X17482Y01124*
X17485Y01122*
X17488Y0112*
X17488Y0112*
X17489Y01119*
X1749Y01119*
X1749Y01118*
X17492Y01117*
X17493Y01116*
X17497Y01114*
X17497Y01113*
X17498Y01113*
X17498Y01112*
X17499Y01112*
X17497Y01114*
X17495Y01115*
X17494Y01117*
X17493Y01118*
X17493Y01118*
X17492Y01119*
X1749Y01121*
X17489Y01123*
X17487Y01124*
X17484Y01128*
X17483Y01129*
X17483Y01129*
X17482Y0113*
X17481Y01132*
X1748Y01133*
X17478Y01135*
X17475Y01139*
X17475Y01139*
X17475Y01139*
X17474Y01141*
X17473Y01142*
X17472Y01143*
X17471Y01145*
X17469Y01148*
Y01149*
X17469Y01149*
X17469Y01149*
X17469Y0115*
Y01152*
X17469Y01153*
X1747Y01155*
Y01155*
X1747Y01155*
X17471Y01156*
X17472Y01157*
X17474Y01158*
X17474*
X17474*
X17475Y01158*
X17477Y01158*
X17478Y01157*
X17479Y01157*
X17479Y01157*
X1748Y01156*
X17481Y01155*
X17482Y01154*
X17484Y01153*
X17486Y01151*
X1749Y01148*
X1749Y01147*
X17491Y01147*
X17492Y01146*
X17493Y01145*
X17494Y01144*
X17493Y01145*
X17491Y01147*
X17489Y01149*
X17487Y01152*
X17487Y01152*
X17486Y01153*
X17485Y01155*
X17483Y01157*
X17481Y01159*
X17479Y01162*
X17474Y01167*
Y01167*
X17474Y01168*
X17473Y01169*
X17472Y0117*
X1747Y01172*
X1747Y01172*
X1747Y01173*
X17469Y01173*
X17469Y01174*
X17468Y01176*
X17467Y01178*
Y01179*
X17466Y01179*
X17466Y0118*
Y01181*
X17466Y01182*
X17467Y01183*
X17467Y01184*
Y01185*
X17467Y01185*
X17468Y01186*
X17469Y01187*
X17471Y01187*
X17471*
X17472Y01188*
X17473*
X17474Y01187*
X17475Y01187*
X17476Y01186*
X17477Y01186*
X17477Y01186*
X17478Y01185*
X1748Y01184*
X1748Y01184*
X17481Y01183*
X17481Y01182*
X17482Y01182*
X17482*
X17482Y01181*
X17483Y01181*
X17484Y0118*
X17486Y01179*
X17487Y01178*
X17487Y01178*
X17488Y01177*
X1749Y01176*
X17491Y01174*
X17491Y01174*
X17492Y01174*
X17492Y01173*
X17494Y01172*
X17496Y0117*
X17499Y01168*
X17499Y01167*
X175Y01167*
X17501Y01167*
X17502Y01166*
X17503Y01165*
X17504Y01164*
X17507Y01162*
X17508Y01162*
X17508Y01161*
X17509Y01161*
X1751Y0116*
X17513Y01158*
X17513Y01158*
X17513Y01158*
X17512Y01159*
X17512Y0116*
X17512Y0116*
X17511Y0116*
X17511Y01161*
X1751Y01162*
X17509Y01163*
X17509Y01164*
X17507Y01167*
X17506Y01167*
X17506Y01168*
X17505Y01169*
X17505Y0117*
X17504Y01171*
X17504Y01171*
X17504Y01171*
X17503Y01172*
X17503Y01173*
X17502Y01174*
X17501Y01175*
X17499Y01178*
X17499Y01178*
X17499Y01179*
X17499Y01179*
X17498Y0118*
X17496Y01183*
X17495Y01185*
X17495Y01185*
X17495Y01186*
X17494Y01186*
X17493Y01187*
X1749Y0119*
X17488Y01192*
X17488Y01192*
X17487Y01193*
X17486Y01194*
X17485Y01195*
X17484Y01196*
X17484Y01197*
X17484Y01197*
X17483Y01197*
X17483Y01198*
X17482Y01198*
X1748Y01201*
X17478Y01203*
X17478Y01204*
X17477Y01204*
X17477Y01205*
X17476Y01206*
X17475Y01207*
X17474Y01209*
X17473Y01212*
X17472Y01212*
X17472Y01213*
X17472Y01214*
X17471Y01215*
X1747Y01217*
X1747Y01218*
X17468Y01222*
Y01222*
X17468Y01223*
X17468Y01224*
X17468Y01225*
X17467Y01227*
X17467Y01228*
X17467Y01232*
Y01233*
X17467Y01235*
X17468Y01237*
Y01237*
X17468Y01238*
X17468Y01239*
X17469Y01241*
X17471Y01242*
X17471Y01242*
X17472Y01243*
X17473Y01243*
X17473*
X17474*
X17474Y01242*
X17474Y01242*
X17474Y01242*
Y0124*
X17474Y0124*
Y01239*
X17474Y01238*
X17474Y01236*
X17474Y01233*
Y01233*
X17474Y01232*
X17475Y01232*
X17475Y01231*
X17476Y01228*
X17477Y01225*
Y01225*
X17477Y01225*
X17478Y01224*
X17478Y01223*
X17479Y01221*
X17481Y01219*
X17481Y01218*
X17482Y01218*
X17482Y01217*
X17483Y01216*
X17485Y01214*
X17487Y01211*
X17487Y01211*
X17487Y01211*
X17488Y0121*
X17488Y0121*
X1749Y01208*
X17493Y01205*
X17493Y01205*
X17493Y01205*
X17494Y01204*
X17495Y01203*
X17496Y01202*
X17497Y01201*
X175Y01198*
X175Y01198*
X17501Y01198*
X17502Y01197*
X17503Y01197*
X17504Y01196*
X17505Y01194*
X17509Y01192*
X17509Y01192*
X17509Y01192*
X1751Y01191*
X17511Y01191*
X17513Y01189*
X17516Y01187*
X17515Y01188*
X17515Y01188*
X17514Y01189*
X17513Y0119*
X17512Y01192*
X1751Y01193*
X17508Y01196*
X17506Y01198*
X17506Y01199*
X17505Y012*
X17504Y01201*
X17503Y01203*
X17501Y01205*
X175Y01207*
X17496Y01212*
X17496Y01213*
X17495Y01213*
X17495Y01214*
X17494Y01215*
X17492Y01217*
X1749Y0122*
X1749Y0122*
X1749Y0122*
X1749Y01221*
X17489Y01222*
X17487Y01224*
X17485Y01227*
X17485Y01227*
X17484Y01228*
X17484Y01228*
X17483Y01229*
X17483Y01229*
X17482Y0123*
X17481Y01231*
X17481Y01233*
X1748Y01233*
X1748Y01233*
X17479Y01235*
X17478Y01236*
X17478Y01236*
X17478Y01236*
X17477Y01237*
X17477Y01238*
Y01239*
X17477Y0124*
X17478Y01241*
X17478Y01241*
X17479Y01242*
X17479Y01242*
X17481Y01242*
X17482*
X17482*
X17482Y01242*
X17483Y01242*
X17484Y01241*
X17484Y01241*
X17485Y01241*
X17485Y0124*
X17486Y0124*
X17486*
X17486Y01239*
X17487Y01238*
X17487*
X17488Y01238*
X17488Y01238*
X17488Y01237*
X17488Y01237*
X17489Y01237*
X17489Y01237*
X1749Y01236*
X17492Y01234*
X17495Y01232*
X17495Y01231*
X17496Y01231*
X17497Y0123*
X17498Y0123*
X175Y01228*
X17503Y01225*
X17503Y01225*
X17503Y01225*
X17504Y01224*
X17504Y01224*
X17504Y01225*
X17503Y01226*
X17502Y01227*
X17501Y01229*
X17499Y01233*
X17499Y01233*
X17499Y01233*
X17498Y01234*
X17497Y01235*
X17497Y01237*
X17496Y01238*
X17494Y01242*
Y01242*
X17493Y01242*
X17493Y01243*
X17491Y01244*
X17489Y01247*
X17486Y01249*
X17486Y0125*
X17485Y0125*
X17483Y01252*
X17481Y01254*
X17479Y01256*
X17477Y01258*
X17472Y01263*
Y01264*
X17472Y01264*
X17471Y01265*
X1747Y01266*
X17469Y01267*
Y01268*
X17469Y01268*
X17468Y01269*
X17467Y0127*
X17467Y01272*
Y01272*
X17467Y01273*
X17468Y01273*
X17468Y01273*
X17469Y01273*
X17469Y01273*
X1747Y01273*
X17471Y01272*
X17472Y01272*
X17473Y01271*
X17473Y01271*
X17474Y0127*
X17475Y0127*
X17475Y01269*
X17476Y01269*
X17477Y01268*
X17478Y01268*
X17478Y01268*
X17478Y01267*
X17479Y01267*
X1748Y01266*
X17482Y01264*
X17485Y01263*
X17485*
X17485Y01262*
X17486Y01262*
X17486Y01261*
X17488Y0126*
X1749Y01259*
X1749*
X1749Y01259*
X17492Y01258*
X17494Y01256*
X17494Y01256*
X17494Y01256*
X17492Y01258*
X17492Y01259*
X17491Y01259*
X1749Y01261*
X17489Y01263*
X17487Y01264*
X17485Y01267*
X17481Y01271*
X17481Y01272*
X17481Y01273*
X1748Y01274*
X17478Y01275*
X17477Y01277*
X17475Y01279*
X17472Y01283*
X17472Y01284*
X17472Y01284*
X17471Y01286*
X1747Y01287*
X17469Y01289*
X17468Y0129*
X17467Y01292*
X17466Y01294*
Y01294*
X17466Y01295*
X17466Y01295*
X17465Y01296*
Y01298*
X17466Y01299*
X17466Y013*
Y01301*
X17466Y01301*
X17467Y01302*
X17469Y01303*
X1747Y01303*
X17471*
X17471*
X17472*
X17474Y01303*
X17474Y01303*
X17475Y01302*
X17476Y01302*
X17476Y01302*
X17477Y01301*
X17478Y01301*
X17479Y013*
X1748Y01299*
X17483Y01296*
X17484Y01295*
X17484Y01295*
X17485Y01294*
X17486Y01293*
X17487Y01292*
X17489Y0129*
X17492Y01288*
X17492Y01288*
X17492Y01287*
X17493Y01286*
X17494Y01286*
X17497Y01284*
X17499Y01281*
X175Y01281*
X175Y01281*
X17501Y0128*
X17502Y01279*
X17503Y01279*
X17505Y01278*
X17508Y01276*
X17508*
X17508Y01275*
X17509Y01274*
X17511Y01273*
X17513Y01272*
X17513*
X17513Y01273*
X17512Y01274*
X17512Y01274*
X17511Y01274*
X17511Y01275*
X1751Y01276*
X17509Y01278*
X17507Y01281*
Y01281*
X17507Y01281*
X17507Y01282*
X17506Y01283*
X17506Y01283*
X17505Y01284*
X17504Y01285*
X17503Y01287*
Y01287*
X17503Y01287*
X17502Y01288*
X17501Y0129*
X175Y01292*
Y01292*
X17499Y01292*
X17499Y01293*
X17498Y01295*
X17497Y01297*
Y01297*
X17497Y01297*
X17496Y01298*
X17495Y013*
X17495Y01301*
Y01302*
X17494Y01302*
X17494Y01303*
X17494Y01304*
X17495Y01304*
X17495Y01305*
X17495*
X17496*
X17497Y01304*
G37*
G36*
X17414Y01207D02*
X17414Y01207D01*
X17415Y01206*
X17415Y01205*
X17416Y01203*
X17417Y012*
Y012*
X17417Y01199*
X17417Y01198*
X17417Y01197*
X17418Y01195*
X17418Y01194*
X17418Y01192*
Y01192*
X17418Y01191*
Y0119*
X17419Y01189*
X17419Y01187*
X17419Y01186*
X1742Y01182*
Y01182*
X1742Y01182*
Y01181*
X1742Y0118*
X1742Y01179*
X17421Y01177*
X17421Y01176*
X17421Y01174*
X17422Y0117*
X17423Y01165*
X17424Y01161*
X17424Y01156*
Y01155*
X17425Y01154*
X17425Y01153*
X17425Y01152*
X17425Y01151*
X17425Y01149*
X17426Y01147*
X17426Y01143*
X17427Y01138*
X17428Y01133*
X17429Y01127*
Y01127*
X17429Y01126*
X17429Y01124*
X1743Y01123*
X1743Y0112*
X1743Y01118*
X17431Y01113*
Y01112*
X17431Y01111*
X17431Y0111*
X17432Y01108*
X17432Y01106*
X17432Y01104*
X17433Y011*
X17433Y01099*
X17434Y01099*
X17435Y01098*
X17437Y01097*
X17438Y01096*
X1744Y01094*
X17445Y01091*
X17445Y01091*
X17446Y01091*
X17446Y0109*
X17447Y01089*
X17448Y01088*
X17449Y01088*
X1745Y01087*
X1745Y01086*
X17451*
X17451Y01086*
X17451Y01086*
X17452Y01085*
X17454Y01084*
X17456Y01083*
X17459Y01081*
X17462Y01079*
X17469Y01074*
X17469Y01074*
X1747Y01073*
X17472Y01072*
X17474Y0107*
X17476Y01068*
X17479Y01066*
X17484Y01062*
X17484Y01062*
X17485Y01061*
X17486Y0106*
X17488Y01059*
X1749Y01057*
X17493Y01055*
X17495Y01053*
X17498Y01052*
X17499Y01051*
X175Y01051*
X17501Y0105*
X17503Y01048*
X17504Y01047*
X17507Y01045*
X17507Y01045*
X17506Y01047*
X17504Y01048*
X17503Y0105*
X17503Y01051*
X17502Y01052*
X17501Y01053*
X175Y01054*
X17499Y01056*
X17498Y01058*
X17496Y0106*
X17496Y0106*
X17495Y01062*
X17493Y01065*
X17488Y0107*
X17488Y0107*
X17487Y01071*
X17486Y01072*
X17485Y01074*
X17483Y01075*
X17481Y01077*
X17478Y01079*
X17476Y01081*
X17476*
X17476Y01081*
X17474Y01082*
X17473Y01083*
X17472Y01084*
X17471Y01084*
X1747Y01085*
X17469Y01086*
X17467Y01087*
X17467Y01087*
X17466Y01088*
X17465Y0109*
X17464Y01091*
Y01092*
X17464Y01092*
X17463Y01092*
X17463Y01093*
X17462Y01095*
X17462Y01097*
Y01098*
X17462Y01099*
X17463Y011*
X17464Y01101*
X17464Y01102*
Y01102*
X17465Y01102*
X17466Y01103*
X17467Y01104*
X17469Y01104*
X17469*
X1747*
X17471*
X17472Y01104*
X17473Y01104*
X17474Y01103*
X17474Y01103*
X17476Y01102*
X17477Y01101*
X17477Y01101*
X17477Y01101*
X17478Y011*
X17479Y01099*
X17479Y01098*
X1748Y01098*
X1748Y01097*
X17481Y01097*
X17482*
X17482Y01096*
X17483Y01096*
X17485Y01095*
X17487Y01094*
X17487*
X17487Y01094*
X17488Y01094*
X17489Y01093*
X17491Y01092*
X17493Y01092*
X17494*
X17494Y01092*
X17495Y01091*
X17495Y01091*
X17497Y01091*
X17499Y0109*
X17499*
X175Y0109*
X175*
X17501Y01089*
X17503Y01089*
X17505Y01088*
X17506*
X17507Y01088*
X17508Y01088*
X17509Y01087*
X17511Y01086*
X17513Y01085*
X17517Y01083*
X17517Y01083*
X17518Y01082*
X17519Y01081*
X1752Y0108*
X17521Y01079*
X17523Y01078*
X17524Y01076*
X17525Y01074*
X17525Y01073*
X17526Y01073*
X17526Y01071*
X17527Y0107*
X17527Y01068*
X17528Y01065*
X17528Y01063*
Y0106*
X17528Y01059*
X17528Y01058*
X17527Y01057*
X17526Y01055*
X17526Y01054*
X17526Y01054*
X17526Y01054*
X17525Y01053*
X17525Y01053*
X17525Y01052*
X17525Y01052*
X17524Y01051*
X17524Y01051*
X17523Y0105*
X17523Y0105*
X17522Y0105*
X17521Y01049*
X17521*
X1752Y0105*
X1752Y0105*
X1752Y01051*
Y01052*
X1752Y01053*
Y01053*
X1752Y01054*
X1752Y01054*
X17521Y01055*
Y01055*
X17521Y01056*
X17521Y01058*
X17521Y01059*
Y0106*
X17521Y01061*
X17521Y01062*
X1752Y01064*
X17519Y01066*
X17519Y01066*
X17518Y01067*
X17518Y01067*
X17517Y01068*
X17515Y0107*
X17513Y01072*
X17513Y01072*
X17512Y01072*
X17512Y01072*
X17511Y01073*
X17508Y01074*
X17506Y01075*
X17506*
X17505Y01075*
X17504*
X17503Y01075*
X17501Y01075*
X17498Y01076*
X17498*
X17497Y01076*
X17497*
X17496Y01076*
X17494Y01076*
X17492Y01077*
X17492Y01076*
X17493Y01076*
X17494Y01075*
X17495Y01074*
X17497Y01073*
X17498Y01071*
X175Y01069*
X175Y01069*
X175Y01068*
X17501Y01067*
X17502Y01066*
X17503Y01064*
X17505Y01062*
X17507Y01057*
X17508Y01057*
X17508Y01057*
X17508Y01056*
X17509Y01054*
X1751Y01053*
X17511Y01052*
X17513Y01049*
X17513Y01048*
X17514Y01048*
X17515Y01047*
X17515Y01046*
X17517Y01045*
X17518Y01043*
X1752Y0104*
X17521Y0104*
X17521Y01039*
X17522Y01039*
X17523Y01038*
X17523Y01037*
X17524Y01037*
X17525Y01035*
X17526Y01034*
X17526Y01034*
X17527Y01033*
X17527Y01032*
X17528Y01031*
X17528Y01031*
X17528Y0103*
Y01028*
X17528Y01026*
Y01026*
X17528Y01026*
X17527Y01025*
X17527Y01024*
X17525Y01023*
X17525*
X17525Y01022*
X17524Y01022*
X17522*
X17521Y01022*
X17521*
X1752*
X17519Y01023*
X17518Y01023*
X17517Y01024*
X17516*
X17516Y01024*
X17515Y01025*
X17514Y01025*
X17513Y01026*
X17513*
X17513Y01026*
X17512Y01026*
X17512Y01027*
X1751Y01028*
X17508Y01029*
X17508*
X17508Y01029*
X17507Y0103*
X17505Y01031*
X17503Y01032*
X17503*
X17503Y01033*
X17502Y01033*
X17502Y01033*
X175Y01035*
X17497Y01036*
X17495Y01038*
X17491Y0104*
X17485Y01045*
X17485*
X17485Y01045*
X17483Y01046*
X17482Y01047*
X17479Y01049*
X17477Y01051*
X17474Y01053*
X1747Y01055*
X17467Y01058*
X17467Y01058*
X17466Y01058*
X17466Y01058*
X17465Y01059*
X17463Y01061*
X1746Y01063*
X1746Y01063*
X17459Y01063*
X17459Y01064*
X17458Y01065*
X17455Y01067*
X17452Y01069*
X17452Y01069*
X17451Y0107*
X17451Y0107*
X17449Y01071*
X17448Y01072*
X17446Y01074*
X17444Y01075*
X17442Y01076*
X17442Y01077*
X17441Y01077*
X1744Y01078*
X17439Y01079*
X17437Y01081*
X17435Y01083*
X17434Y01084*
Y01083*
X17435Y01082*
Y01082*
X17435Y01081*
X17435Y01079*
X17435Y01078*
Y01077*
X17435Y01076*
Y01075*
X17436Y01074*
Y01072*
X17436Y01071*
X17436Y01071*
X17437Y01071*
X17438Y0107*
X1744Y01069*
X17442Y01067*
X17446Y01065*
X17446Y01064*
X17447Y01064*
X17448Y01063*
X1745Y01062*
X17452Y01061*
X17454Y01059*
X17457Y01057*
X1746Y01055*
X1746Y01055*
X1746Y01055*
X17461Y01054*
X17462Y01053*
X17464Y01052*
X17465Y01051*
X17469Y01048*
X17469Y01048*
X17469Y01048*
X17471Y01047*
X17472Y01046*
X17473Y01045*
X17475Y01044*
X17479Y01042*
X17479Y01041*
X1748Y01041*
X17481Y0104*
X17482Y0104*
X17484Y01039*
X17485Y01038*
X17489Y01035*
X17489Y01035*
X1749Y01034*
X17491Y01034*
X17493Y01032*
X17495Y01031*
X17497Y0103*
X17499Y01028*
X17502Y01026*
X17502Y01026*
X17503Y01025*
X17505Y01024*
X17506Y01023*
X17507Y01022*
X17507Y01022*
X17508Y01022*
X17509Y01022*
X1751Y01021*
X17511Y0102*
X17513Y01019*
X17514Y01018*
X17516Y01016*
X17517Y01016*
X17517Y01016*
X17518Y01015*
X1752Y01014*
X17521Y01013*
X17523Y01012*
X17527Y01009*
X17528Y01009*
X17528Y01009*
X1753Y01008*
X17531Y01007*
X17532Y01006*
X17534Y01004*
X17538Y01002*
X17538Y01002*
X17539Y01001*
X1754Y01001*
X17541Y01*
X17544Y00998*
X17547Y00996*
X17547Y00996*
X17548Y00996*
X17548Y00995*
X17549Y00995*
X17551Y00993*
X17553Y00992*
X17553Y00992*
X17554Y00991*
X17555Y00991*
X17557Y00989*
X17558Y00988*
X1756Y00987*
X17564Y00984*
X17565Y00984*
X17565Y00983*
X17566Y00982*
X17568Y00981*
X17569Y0098*
X17571Y00979*
X17575Y00976*
X17576Y00975*
X17576Y00975*
X17577Y00975*
X17577Y00974*
X17577Y00974*
X17578Y00973*
X17578Y00973*
X17579Y00973*
X17579Y00972*
X1758Y00971*
X1758Y00971*
X1758Y0097*
X17581Y00969*
Y00969*
X1758Y00968*
X1758Y00968*
X17579Y00968*
X17578*
X17577Y00968*
X17576Y00968*
X17576*
X17575Y00968*
X17575Y00969*
X17574Y00969*
X17571Y0097*
X17569Y00971*
X17569*
X17568Y00971*
X17567Y00972*
X17567Y00972*
X17564Y00973*
X17562Y00975*
X17562Y00975*
X17561Y00975*
X1756Y00975*
X17559Y00976*
X17558Y00977*
X17556Y00978*
X17554Y00979*
X17552Y0098*
X17552Y0098*
X17551Y00981*
X1755Y00982*
X17549Y00982*
X17547Y00984*
X17544Y00985*
X17542Y00986*
X17539Y00988*
X17539Y00988*
X17538Y00989*
X17536Y0099*
X17534Y00991*
X17532Y00992*
X1753Y00994*
X17524Y00997*
X17524Y00997*
X17523Y00998*
X17522Y00999*
X1752Y01*
X17518Y01001*
X17515Y01003*
X1751Y01006*
X1751Y01006*
X17509Y01007*
X17508Y01007*
X17506Y01009*
X17504Y0101*
X17505Y01008*
X17507Y01006*
X17508Y01004*
X17511Y01001*
X17513Y00998*
X17516Y00995*
Y00995*
X17516Y00995*
X17517Y00993*
X17518Y00992*
X1752Y0099*
X1752Y0099*
X17521Y00989*
X17522Y00987*
X17524Y00985*
X17524Y00985*
X17525Y00985*
X17525Y00984*
X17526Y00983*
X17526Y00983*
X17526Y00982*
X17527Y00982*
X17527Y00982*
X17527Y00981*
X17528Y0098*
X17528Y00979*
X17528Y00978*
X17528Y00977*
Y00977*
X17528Y00976*
X17528Y00975*
X17527Y00974*
X17526Y00972*
X17526*
X17525Y00972*
X17524Y00972*
X17523Y00971*
X17522*
X17521*
X17521*
X17521Y00971*
X1752Y00971*
X17518Y00972*
X17516Y00973*
X17516*
X17516Y00973*
X17515Y00973*
X17514Y00974*
X17512Y00975*
X17511Y00975*
X17512Y00974*
X17512Y00974*
X17512Y00974*
X17513Y00973*
X17514Y00972*
X17516Y0097*
X17518Y00967*
X17518Y00967*
X17519Y00966*
X17519Y00966*
X1752Y00965*
X17522Y00962*
X17524Y0096*
X17524Y00959*
X17525Y00959*
X17525Y00958*
X17526Y00957*
X17526Y00957*
X17526Y00956*
X17527Y00955*
X17528Y00954*
Y00954*
X17528Y00953*
X17528Y00952*
X17528Y0095*
Y0095*
X17528Y00949*
X17528Y00948*
X17527Y00947*
Y00947*
X17527Y00947*
X17526Y00946*
X17524Y00945*
X17523Y00945*
X17522Y00944*
X17522*
X17522*
X17521*
X17519Y00945*
X17517Y00945*
X17517*
X17517Y00945*
X17515Y00946*
X17514Y00946*
X17512Y00947*
X17511Y00948*
X17511Y00947*
X17512Y00945*
X17512Y00945*
X17513Y00945*
X17513Y00944*
X17514Y00943*
X17516Y00941*
X17519Y00938*
X17519Y00938*
X17519Y00938*
X1752Y00937*
X17521Y00936*
X17523Y00934*
X17525Y00931*
X17526Y00931*
X17526Y0093*
X17527Y0093*
X17528Y00929*
X17528Y00929*
X17528Y00928*
X17529Y00927*
X1753Y00926*
Y00926*
X1753Y00926*
X1753Y00925*
X1753Y00924*
X1753Y00922*
X1753Y00921*
X1753Y0092*
Y0092*
X1753Y00919*
X17529Y00918*
X17527Y00917*
X17526Y00916*
X17525Y00916*
X17525*
X17524*
X17524*
X17523*
X17521Y00917*
X17519Y00917*
X17519*
X17518Y00918*
X17517Y00918*
X17516Y00919*
X17514Y0092*
X17514Y00921*
X17513Y00921*
X17512Y00922*
X1751Y00923*
X17508Y00924*
X17507Y00925*
X17502Y00928*
X17502Y00928*
X17501Y00929*
X175Y0093*
X17499Y0093*
X17497Y00932*
X17495Y00933*
X1749Y00936*
X1749Y00936*
X1749Y00936*
X17489Y00936*
X17489*
X17488Y00936*
X17488*
X17488Y00935*
X17489Y00934*
X1749Y00933*
X17492Y00932*
X17494Y0093*
X17495Y00928*
X17497Y00926*
X17497Y00925*
X17498Y00925*
X17499Y00923*
X175Y00921*
X17502Y0092*
X17503Y00917*
X17507Y00913*
X17507Y00912*
X17507Y00912*
X17508Y00911*
X17509Y00909*
X1751Y00907*
X17511Y00906*
X17513Y00902*
Y00902*
X17513Y00901*
X17514Y009*
X17514Y00899*
X17514Y00898*
X17514Y00897*
Y00896*
X17514Y00895*
X17514*
X17513Y00896*
X17512Y00896*
X17512Y00897*
X17511Y00898*
X1751Y00899*
X1751Y00899*
X17509Y009*
X17509Y009*
X17508Y00901*
X17506Y00904*
X17504Y00906*
X17504Y00906*
X17503Y00907*
X17503Y00907*
X17502Y00908*
X17501Y00909*
X175Y00911*
X17497Y00914*
X17497Y00914*
X17497Y00915*
X17496Y00916*
X17495Y00917*
X17494Y00918*
X17492Y0092*
X1749Y00923*
X17489Y00923*
X17489Y00924*
X17488Y00924*
X17487Y00925*
X17485Y00928*
X17482Y0093*
X17482Y0093*
X17482Y0093*
X17481Y00931*
X1748Y00932*
X17479Y00933*
X17478Y00933*
X17477Y00933*
X17477*
X17477*
X17476*
X17476*
X17473*
X17471*
X17471*
X1747Y00934*
X1747*
X17469Y00934*
X17467Y00935*
X17465Y00935*
X17464Y00936*
X17464Y00937*
X17464Y00937*
X17464Y00937*
X17463Y00938*
X17462Y0094*
X17462Y00941*
X17462Y00943*
Y00943*
X17462Y00944*
X17462Y00945*
X17463Y00946*
X17463Y00947*
X17464Y00947*
X17465Y00948*
X17466*
X17466Y00948*
X17467Y00948*
X17468Y00949*
X1747Y00949*
X17471Y00949*
X17472Y00948*
X17472*
X17473Y00948*
X17473Y00948*
X17474Y00947*
X17476Y00947*
X17477Y00946*
X17478*
X17478Y00946*
X17479Y00945*
X17479*
X1748Y00945*
X1748*
X17481Y00945*
X17482Y00946*
X17484Y00946*
X17484Y00946*
X17485Y00947*
X17486Y00947*
X17488Y00948*
X17488*
X17488Y00948*
X17489Y00948*
X1749Y00949*
X17492Y00949*
X17494*
X17495Y00949*
X17495*
X17495Y00949*
X17496*
X17497Y00948*
X17499Y00947*
X17501Y00946*
X17501Y00946*
X17502Y00946*
X17502Y00945*
X17503Y00945*
X17505Y00943*
X17504Y00944*
X17503Y00945*
X17502Y00947*
X175Y0095*
Y0095*
X175Y00951*
X17499Y00951*
X17499Y00952*
X17498Y00954*
X17498Y00954*
X17497Y00955*
X17496Y00956*
X17495Y00958*
Y00958*
X17495Y00958*
X17495Y00959*
X17494Y00959*
X17493Y0096*
X1749Y00963*
X17488Y00965*
X17488Y00965*
X17487Y00966*
X17486Y00967*
X17485Y00968*
X17484Y00969*
X17484Y00969*
X17484Y0097*
X17483Y0097*
X17483Y00971*
X17482Y00971*
X1748Y00974*
X17478Y00976*
X17478Y00977*
X17477Y00977*
X17477Y00978*
X17476Y00979*
X17475Y0098*
X17474Y00982*
X17473Y00985*
X17472Y00985*
X17472Y00986*
X17472Y00987*
X17471Y00988*
X1747Y0099*
X1747Y00991*
X17468Y00995*
Y00995*
X17468Y00996*
X17468Y00997*
X17468Y00998*
X17467Y01*
X17467Y01001*
X17467Y01005*
Y01006*
X17467Y01008*
X17468Y0101*
Y0101*
X17468Y01011*
X17468Y01012*
X17469Y01014*
X17471Y01015*
X17471Y01015*
X17472Y01016*
X17473Y01016*
X17473*
X17474*
X17474Y01015*
X17474Y01015*
X17474Y01014*
Y01013*
X17474Y01013*
Y01012*
X17474Y01011*
X17474Y01009*
X17474Y01006*
Y01006*
X17474Y01005*
X17475Y01004*
X17475Y01004*
X17476Y01001*
X17477Y00998*
Y00998*
X17477Y00998*
X17478Y00997*
X17478Y00996*
X17479Y00994*
X17481Y00991*
X17481Y00991*
X17482Y00991*
X17482Y0099*
X17483Y00989*
X17485Y00987*
X17487Y00984*
X17487Y00984*
X17487Y00984*
X17488Y00983*
X17488Y00982*
X1749Y00981*
X17493Y00978*
X17493Y00978*
X17493Y00978*
X17494Y00977*
X17495Y00976*
X17496Y00975*
X17497Y00974*
X175Y00971*
X175Y00971*
X17501Y00971*
X17502Y0097*
X17503Y00969*
X17504Y00969*
X17505Y00967*
X17509Y00965*
X17509Y00965*
X17509Y00965*
X1751Y00964*
X17511Y00964*
X17513Y00962*
X17516Y0096*
X17515Y0096*
X17515Y00961*
X17514Y00962*
X17513Y00963*
X17512Y00965*
X1751Y00966*
X17508Y00969*
X17506Y00971*
X17506Y00972*
X17505Y00973*
X17504Y00974*
X17503Y00976*
X17501Y00978*
X175Y0098*
X17496Y00985*
X17496Y00986*
X17495Y00986*
X17495Y00987*
X17494Y00987*
X17492Y0099*
X1749Y00992*
X1749Y00993*
X1749Y00993*
X1749Y00994*
X17489Y00995*
X17487Y00997*
X17485Y01*
X17485Y01*
X17484Y01*
X17484Y01001*
X17483Y01002*
X17483Y01002*
X17482Y01003*
X17481Y01004*
X17481Y01005*
X1748Y01006*
X1748Y01006*
X17479Y01008*
X17478Y01009*
X17478Y01009*
X17478Y01009*
X17477Y0101*
X17477Y01011*
Y01012*
X17477Y01013*
X17478Y01014*
X17478Y01014*
X17479Y01014*
X17479Y01015*
X17481Y01015*
X17482*
X17482*
X17482Y01015*
X17483Y01015*
X17484Y01014*
X17484Y01014*
X17485Y01013*
X17485Y01013*
X17486Y01013*
X17486*
X17486Y01012*
X17487Y01011*
X17487*
X17488Y01011*
X17488Y01011*
X17488Y0101*
X17488Y0101*
X17489Y0101*
X17489Y01009*
X1749Y01009*
X17492Y01007*
X17495Y01004*
X17495Y01004*
X17496Y01004*
X17497Y01003*
X17498Y01003*
X175Y01001*
X17503Y00998*
X17503Y00998*
X17503Y00998*
X17504Y00997*
X17504Y00997*
X17504Y00998*
X17503Y00999*
X17502Y01*
X17501Y01002*
X17499Y01005*
X17499Y01006*
X17499Y01006*
X17498Y01007*
X17497Y01008*
X17497Y0101*
X17496Y01011*
X17494Y01015*
Y01015*
X17493Y01015*
X17493Y01016*
X17493Y01017*
X17491Y01018*
X1749Y01019*
X17489Y0102*
X17488Y0102*
X17488Y0102*
X17487Y0102*
X17486Y01021*
X17485Y01022*
X17483Y01023*
X17482Y01024*
X1748Y01025*
X17476Y01028*
X17471Y01031*
X17466Y01034*
X17461Y01037*
X17461Y01037*
X1746Y01037*
X1746Y01038*
X17459Y01039*
X17458Y01039*
X17456Y0104*
X17453Y01043*
X17449Y01045*
X17445Y01048*
X17441Y01052*
X17437Y01055*
Y01054*
X17437Y01054*
X17437Y01053*
Y01052*
X17438Y01051*
X17438Y01048*
X17439Y01044*
X17439Y0104*
X1744Y01035*
X1744Y0103*
Y01026*
X1744Y01025*
Y01025*
X17439Y01024*
X17439Y01024*
X17438Y01023*
X17438*
X17437*
X17437Y01023*
X17436Y01024*
X17436Y01024*
X17435Y01024*
X17435Y01025*
X17434Y01026*
Y01026*
X17434Y01026*
X17434Y01027*
X17433Y01027*
X17433Y01028*
X17433Y01028*
Y01029*
X17433Y0103*
X17433Y0103*
X17432Y01031*
X17432Y01033*
X17432Y01035*
X17431Y01038*
Y01038*
X1743Y01039*
X1743Y0104*
X1743Y01041*
X1743Y01043*
X17429Y01044*
X17429Y01048*
Y01049*
X17429Y01049*
X17428Y0105*
Y0105*
X17428Y01051*
X17428Y01052*
X17428Y01053*
Y01054*
X17427Y01055*
X17427Y01056*
X17427Y01057*
Y01058*
X17427Y01059*
X17427Y0106*
X17426Y01061*
X17426Y01061*
X17425Y01062*
X17424Y01063*
X17423Y01064*
X17421Y01065*
X1742Y01066*
X17415Y0107*
X17415Y0107*
X17414Y0107*
X17413Y01071*
X17411Y01072*
X17409Y01074*
X17407Y01075*
X17403Y01079*
X17403Y01079*
X17402Y0108*
X17401Y01081*
X17399Y01082*
X17398Y01084*
X17396Y01086*
X17392Y0109*
X17391Y0109*
X17391Y01091*
X1739Y01092*
X17388Y01094*
X17387Y01096*
X17385Y01098*
X17384Y011*
X17382Y01103*
Y01103*
X17382Y01103*
X17382Y01104*
X17381Y01106*
X17381Y01107*
Y0111*
X17382Y01111*
X17382Y01112*
X17382Y01113*
X17383Y01113*
X17385Y01114*
X17385Y01114*
X17386Y01114*
X17388Y01115*
X1739Y01114*
X1739*
X1739Y01114*
X17391Y01114*
X17391Y01113*
X17393Y01112*
X17395Y01111*
X17395*
X17395Y0111*
X17396Y0111*
X17397Y01109*
X17397Y01108*
X17398Y01107*
X17399Y01105*
X17401Y01103*
X174*
X174Y01103*
X17399Y01103*
X17398Y01103*
X17395Y01104*
X17394Y01104*
X17393Y01105*
X17393*
X17393Y01105*
X17395Y01103*
X17397Y01101*
X17399Y01099*
X17402Y01096*
X17405Y01093*
X17408Y01091*
X17409Y01091*
X1741Y0109*
X17411Y01088*
X17413Y01087*
X17416Y01085*
X17419Y01083*
X17424Y01078*
Y01078*
X17424Y01079*
Y0108*
X17424Y01081*
X17423Y01083*
X17423Y01085*
X17423Y01088*
X17423Y0109*
Y01091*
X17423Y01091*
X17422Y01091*
X17421Y01092*
X1742Y01093*
X17417Y01095*
X17417Y01095*
X17417Y01095*
X17416Y01096*
X17415Y01097*
X17415Y01097*
X17414Y01097*
X17414Y01098*
X17413Y01098*
X17411Y011*
X1741Y01101*
X17407Y01103*
X17405Y01105*
X17402Y01107*
X17399Y0111*
X17398*
X17398Y0111*
X17397Y01111*
X17396Y01112*
X17393Y01114*
X17391Y01116*
X17389Y01119*
X17386Y01121*
X17383Y01124*
X17383Y01124*
X17383Y01124*
X17382Y01125*
X17382Y01125*
X17382Y01126*
X17381Y01126*
X17381Y01127*
X17381Y01127*
X1738Y01128*
Y01129*
X17381Y0113*
X17381Y0113*
X17381Y0113*
X17382Y0113*
X17383*
X17383Y0113*
X17385Y0113*
X17385*
X17385Y0113*
X17386Y01129*
X17387Y01129*
X17388Y01128*
X1739Y01127*
X17393Y01126*
X17393Y01125*
X17394Y01125*
X17395Y01125*
X17396Y01124*
X17397Y01123*
X17399Y01122*
X17402Y0112*
X17402Y0112*
X17403Y01119*
X17404Y01119*
X17405Y01118*
X17406Y01117*
X17408Y01116*
X17411Y01114*
X17411Y01113*
X17412Y01113*
X17413Y01112*
X17414Y01111*
X17415Y0111*
X17417Y01109*
X17421Y01106*
Y01106*
X17421Y01107*
Y01107*
Y01108*
X17421Y01109*
X17421Y01111*
X1742Y01112*
X1742Y01114*
Y01114*
X1742Y01115*
Y01116*
X1742Y01118*
X1742Y01119*
X1742Y01121*
X17419Y01126*
Y01126*
X17419Y01127*
Y01128*
X17419Y0113*
X17418Y01131*
X17418Y01133*
X17418Y01135*
X17418Y01139*
X17417Y01144*
X17417Y01149*
X17416Y01154*
Y01155*
X17416Y01156*
Y01157*
X17416Y01158*
X17415Y01159*
Y01161*
X17415Y01163*
X17415Y01167*
X17414Y01172*
X17414Y01177*
X17413Y01182*
Y01183*
X17413Y01184*
Y01186*
X17413Y01187*
X17413Y01189*
X17413Y01192*
Y01193*
X17412Y01194*
Y01195*
X17412Y01197*
X17412Y012*
Y01201*
X17412Y01202*
X17412Y01204*
Y01205*
X17412Y01207*
X17413Y01207*
X17413Y01208*
X17413*
X17414*
X17414Y01207*
G37*
G36*
X17408Y0093D02*
X17408D01*
X17409Y0093*
X1741Y00929*
X17412Y00929*
X17413Y00929*
X17415Y00928*
X17417Y00927*
X17419Y00926*
X1742Y00926*
X1742Y00926*
X17421Y00925*
X17423Y00925*
X17424Y00924*
X17426Y00923*
X17429Y0092*
X17429*
X1743Y0092*
X1743Y0092*
X17431Y00919*
X17433Y00917*
X17436Y00915*
X17436Y00915*
X17436Y00915*
X17437Y00914*
X17437Y00913*
X17439Y00911*
X17442Y00909*
X17442Y00908*
X17442Y00908*
Y00908*
X17442Y00907*
X17443Y00907*
X17443Y00906*
X17444Y00906*
X17444Y00905*
X17444Y00904*
X17445Y00902*
Y00902*
X17445Y00901*
X17444Y00901*
X17444Y00901*
X17443Y009*
X17442Y009*
X17442Y009*
X17442*
X17442*
X17442Y00901*
X17442Y00901*
X17441Y00901*
X17441Y00902*
X17441Y00902*
X1744Y00902*
X17439Y00903*
X17437Y00904*
X17436Y00906*
X17435*
X17435Y00906*
X17434Y00907*
X17433Y00908*
X17431Y00909*
X17431*
X17431Y00909*
X1743Y0091*
X17428Y00911*
X17427Y00912*
X17427*
X17426Y00912*
X17425Y00913*
X17424Y00913*
X17423Y00914*
X17422*
X17422Y00915*
X17421Y00915*
X1742Y00915*
X17418Y00916*
X17415Y00918*
X17415*
X17415Y00918*
X17414Y00918*
X17413Y00919*
X1741Y00919*
X17407Y0092*
X17407*
X17407*
X17406*
X17405*
X17403Y00919*
X17401Y00918*
X17401*
X174Y00918*
X174Y00918*
X17399Y00917*
X17399Y00916*
X17398Y00915*
X17397Y00914*
X17397Y00912*
Y00912*
X17396Y00912*
Y00911*
X17396Y0091*
Y00907*
X17396Y00904*
Y00903*
X17397Y00903*
Y00902*
X17397Y00901*
X17397Y009*
X17397Y00898*
X17398Y00895*
Y00895*
X17398Y00894*
X17399Y00893*
X17399Y00892*
X174Y00891*
X174Y00889*
X17402Y00886*
Y00886*
X17402Y00886*
X17402Y00885*
X17403Y00884*
X17404Y00881*
X17405Y00878*
X17405Y00878*
X17406Y00877*
X17406Y00877*
X17407Y00875*
X17408Y00874*
X17409Y00872*
X1741Y0087*
X17411Y00868*
X17414Y00863*
X17418Y00858*
X17422Y00853*
X17427Y00847*
X17427Y00847*
X17428Y00847*
X17428Y00846*
X17429Y00845*
X1743Y00844*
X17432Y00842*
X17433Y00841*
X17435Y00839*
X17439Y00835*
X17444Y0083*
X17449Y00826*
X17454Y00821*
X17455Y00821*
X17455Y0082*
X17457Y00819*
X17459Y00818*
X17461Y00816*
X17464Y00814*
X17469Y00809*
X1747Y00809*
X17471Y00808*
X17472Y00807*
X17474Y00806*
X17476Y00804*
X17479Y00802*
X17482Y00801*
X17485Y00799*
X17485Y00798*
X17486Y00798*
X17488Y00797*
X1749Y00796*
X17493Y00794*
X17495Y00793*
X17498Y00791*
X17502Y0079*
X17502Y00789*
X17503Y00789*
X17505Y00788*
X17507Y00787*
X1751Y00786*
X17513Y00785*
X17516Y00784*
X17519Y00783*
X1752*
X1752Y00783*
X17521Y00783*
X17522Y00783*
X17523Y00782*
X17525Y00782*
X17528Y00782*
X17529*
X17529*
X1753*
X17531*
X17533Y00782*
X17534Y00782*
X17536Y00783*
X17538Y00783*
X17538Y00784*
X17538Y00784*
X17539Y00784*
X17539Y00785*
X17541Y00787*
X17542Y00788*
X17543Y0079*
Y0079*
X17543Y0079*
X17543Y00791*
X17543Y00792*
X17543Y00793*
X17544Y00795*
X17544Y00798*
Y008*
X17544Y00802*
Y00803*
X17543Y00805*
X17543Y00808*
Y00809*
X17543Y00809*
X17542Y0081*
X17542Y00811*
X17541Y00814*
X1754Y00817*
Y00817*
X1754Y00818*
X1754Y00819*
X17539Y0082*
X17539Y00821*
X17539Y00823*
X17538Y00824*
X17537Y00826*
X17535Y0083*
X17533Y00835*
X17531Y0084*
X17528Y00845*
Y00845*
X17528Y00845*
X17527Y00846*
X17527Y00847*
X17526Y00848*
X17525Y00849*
X17523Y00853*
X17521Y00856*
X17518Y00861*
X17515Y00865*
X17512Y0087*
X17512Y0087*
X17511Y0087*
X17511Y00871*
X1751Y00872*
X17509Y00873*
X17508Y00874*
X17506Y00877*
X17503Y00881*
X17499Y00885*
X17496Y00889*
X17492Y00893*
X17491Y00893*
X17491Y00894*
X1749Y00894*
X1749Y00895*
X17489Y00896*
X17488Y00897*
X17485Y009*
X17481Y00904*
X17477Y00908*
X17473Y00912*
X17469Y00917*
X17469*
X17468Y00917*
X17468Y00917*
X17468Y00917*
X17468Y00918*
X17467Y00918*
X17467Y00919*
X17467Y00919*
X17466Y0092*
X17466Y0092*
X17465Y00921*
Y00921*
X17466Y00922*
X17466Y00923*
X17466Y00923*
X17467*
X17468Y00923*
X17469Y00923*
X17471Y00922*
X17471Y00922*
X17472Y00921*
X17473Y0092*
X17475Y00919*
X17475Y00919*
X17476Y00919*
X17477Y00918*
X17478Y00917*
X1748Y00916*
X17482Y00914*
X17485Y00912*
X17487Y00911*
X17488Y0091*
X17488Y0091*
X1749Y00909*
X17491Y00907*
X17493Y00906*
X17495Y00904*
X17499Y00901*
X17499Y009*
X17499Y009*
X175Y00899*
X17501Y00898*
X17503Y00897*
X17504Y00896*
X17506Y00894*
X17508Y00892*
X17512Y00888*
X17516Y00883*
X1752Y00878*
X17525Y00873*
X17525Y00873*
X17525Y00872*
X17526Y00872*
X17527Y00871*
X17528Y00869*
X17529Y00868*
X1753Y00866*
X17531Y00864*
X17535Y00859*
X17538Y00854*
X17541Y00849*
X17545Y00843*
X17545Y00842*
X17545Y00842*
X17546Y0084*
X17547Y00838*
X17548Y00836*
X17549Y00833*
X17551Y0083*
X17552Y00827*
X17552Y00827*
X17553Y00826*
X17553Y00824*
X17554Y00822*
X17555Y00819*
X17556Y00816*
X17557Y00813*
X17558Y0081*
Y00809*
X17558Y00808*
X17558Y00806*
X17559Y00804*
X17559Y00801*
X17559Y00798*
Y00795*
X17559Y00791*
Y00791*
X17559Y0079*
X17558Y00788*
X17557Y00786*
X17556Y00783*
X17555Y0078*
X17553Y00778*
X1755Y00775*
X1755Y00775*
X1755Y00774*
X17549Y00773*
X17548Y00772*
X17547Y00771*
X17545Y0077*
X17544Y00769*
X17542Y00768*
X17542*
X17541Y00768*
X1754Y00768*
X17538Y00767*
X17536Y00767*
X17534Y00767*
X17532Y00766*
X1753Y00766*
X1753*
X17529*
X17527*
X17526Y00766*
X17524Y00767*
X17522Y00767*
X17517Y00767*
X17517*
X17516Y00768*
X17515Y00768*
X17513Y00768*
X17512Y00769*
X1751Y00769*
X17506Y00771*
X17506*
X17505Y00771*
X17504Y00771*
X17503Y00772*
X17501Y00773*
X17499Y00774*
X17497Y00775*
X17495Y00776*
X17489Y00778*
X17484Y00781*
X17477Y00784*
X17472Y00788*
X17471Y00789*
X17471Y00789*
X1747Y00789*
X17469Y0079*
X17468Y00791*
X17466Y00792*
X17464Y00794*
X17462Y00795*
X17457Y00799*
X17452Y00803*
X17447Y00807*
X17441Y00812*
X17441Y00812*
X17441Y00812*
X1744Y00813*
X17439Y00814*
X17438Y00815*
X17436Y00816*
X17434Y00818*
X17433Y0082*
X17429Y00824*
X17424Y00828*
X1742Y00833*
X17415Y00839*
X17415Y00839*
X17414Y0084*
X17414Y0084*
X17413Y00841*
X17411Y00843*
X1741Y00844*
X17409Y00846*
X17407Y00848*
X17406Y00851*
X17404Y00853*
X17401Y00859*
X17397Y00864*
X17393Y00871*
X17393Y00871*
X17393Y00872*
X17393Y00873*
X17392Y00874*
X17391Y00876*
X1739Y00877*
X1739Y0088*
X17389Y00882*
X17389Y00882*
X17388Y00883*
X17388Y00885*
X17387Y00886*
X17387Y00888*
X17386Y0089*
X17385Y00895*
Y00896*
X17385Y00897*
X17385Y00898*
X17384Y009*
X17384Y00902*
X17384Y00904*
Y0091*
X17384Y0091*
X17384Y00912*
X17385Y00913*
X17385Y00915*
X17386Y00917*
X17387Y0092*
X17388Y00922*
X17388Y00922*
X17389Y00923*
X17389Y00924*
X1739Y00925*
X17392Y00926*
X17393Y00927*
X17395Y00928*
X17397Y00929*
X17397*
X17398Y00929*
X17399Y00929*
X17401Y0093*
X17402Y0093*
X17404*
X17406*
X17408Y0093*
G37*
G36*
X17518Y00719D02*
X1752Y00719D01*
X1752*
X17521Y00718*
X17522Y00718*
X17523Y00717*
X17523Y00717*
X17524Y00717*
X17524Y00716*
X17525Y00715*
X17525Y00715*
X17526Y00714*
X17526Y00713*
X17527Y00713*
Y00712*
X17527Y00712*
X17527Y00711*
X17528Y0071*
Y00709*
X17528Y00708*
Y00706*
X17528Y00705*
X17527Y00703*
X17527Y00703*
X17527Y00703*
X17526Y00702*
X17525Y00701*
X17525*
X17524Y00701*
X17524*
X17523Y00701*
X17521Y00701*
X1752Y00701*
X17519Y00702*
X17518*
X17518Y00702*
X17517Y00703*
X17516Y00704*
X17514Y00706*
X17514Y00706*
X17514Y00707*
X17514Y00708*
X17513Y00709*
X17513Y00709*
X17513Y0071*
X17513Y00711*
Y00714*
X17513Y00715*
X17513Y00716*
X17514Y00717*
X17514Y00718*
X17515Y00718*
X17516Y00719*
X17517*
X17517Y00719*
X17518Y00719*
G37*
G36*
X17472Y00708D02*
X17473Y00708D01*
X17474Y00708*
X17474Y00707*
X17476Y00706*
X17477Y00705*
X17477Y00705*
X17477Y00705*
X17478Y00704*
X17479Y00703*
X17479Y00703*
X1748Y00702*
X1748Y00701*
X17481Y00701*
X17482*
X17482Y00701*
X17483Y007*
X17485Y00699*
X17487Y00698*
X17487*
X17487Y00698*
X17488Y00698*
X17489Y00697*
X17491Y00697*
X17493Y00696*
X17494*
X17494Y00696*
X17495Y00696*
X17495Y00695*
X17497Y00695*
X17499Y00694*
X17499*
X175Y00694*
X175*
X17501Y00694*
X17503Y00693*
X17505Y00692*
X17506*
X17507Y00692*
X17508Y00692*
X17509Y00691*
X17511Y0069*
X17513Y00689*
X17517Y00687*
X17517Y00687*
X17518Y00687*
X17519Y00686*
X1752Y00685*
X17521Y00683*
X17523Y00682*
X17524Y0068*
X17525Y00678*
X17525Y00678*
X17526Y00677*
X17526Y00675*
X17527Y00674*
X17527Y00672*
X17528Y0067*
X17528Y00667*
Y00664*
X17528Y00663*
X17528Y00663*
X17527Y00661*
X17526Y00659*
X17526Y00659*
X17526Y00658*
X17526Y00658*
X17525Y00658*
X17525Y00657*
X17525Y00656*
X17525Y00656*
X17524Y00656*
X17524Y00655*
X17523Y00654*
X17523Y00654*
X17522Y00654*
X17521Y00654*
X17521*
X1752Y00654*
X1752Y00654*
X1752Y00655*
Y00656*
X1752Y00657*
Y00657*
X1752Y00658*
X1752Y00659*
X17521Y00659*
Y00659*
X17521Y0066*
X17521Y00662*
X17521Y00664*
Y00664*
X17521Y00665*
X17521Y00666*
X1752Y00668*
X17519Y0067*
X17519Y0067*
X17518Y00671*
X17518Y00671*
X17517Y00672*
X17515Y00674*
X17513Y00676*
X17513Y00676*
X17512Y00676*
X17512Y00677*
X17511Y00677*
X17508Y00678*
X17506Y00679*
X17506*
X17505Y00679*
X17504*
X17503Y00679*
X17501Y00679*
X17498Y0068*
X17498*
X17497Y0068*
X17497*
X17496Y0068*
X17494Y00681*
X17492Y00681*
X17492Y00681*
X17493Y0068*
X17494Y0068*
X17495Y00679*
X17497Y00677*
X17498Y00676*
X175Y00674*
X175Y00673*
X175Y00673*
X17501Y00671*
X17502Y0067*
X17503Y00668*
X17505Y00666*
X17507Y00662*
X17508Y00661*
X17508Y00661*
X17508Y0066*
X17509Y00658*
X1751Y00657*
X17511Y00655*
X17511Y00655*
X17513Y00653*
X17516Y00649*
Y00649*
X17516Y00649*
X17517Y00648*
X17518Y00646*
X1752Y00644*
X1752Y00644*
X17521Y00643*
X17522Y00642*
X17524Y0064*
X17524Y00639*
X17525Y00639*
X17525Y00639*
X17526Y00638*
X17526Y00638*
X17526Y00637*
X17527Y00636*
X17527Y00636*
X17527Y00636*
X17528Y00635*
X17528Y00633*
X17528Y00632*
X17528Y00631*
Y00631*
X17528Y00631*
X17528Y0063*
X17527Y00628*
X17526Y00627*
X17526*
X17525Y00627*
X17524Y00626*
X17523Y00626*
X17522*
X17521*
X17521*
X17521Y00626*
X1752Y00626*
X17518Y00626*
X17516Y00627*
X17516*
X17516Y00627*
X17515Y00628*
X17514Y00628*
X17512Y00629*
X17511Y0063*
X17512Y00629*
X17512Y00629*
X17512Y00628*
X17513Y00627*
X17514Y00627*
X17516Y00624*
X17518Y00622*
X17518Y00621*
X17519Y00621*
X17519Y0062*
X1752Y00619*
X17522Y00617*
X17524Y00614*
X17524Y00614*
X17525Y00613*
X17525Y00613*
X17526Y00612*
X17526Y00611*
X17526Y00611*
X17527Y00609*
X17528Y00608*
Y00608*
X17528Y00607*
X17528Y00606*
X17528Y00605*
Y00604*
X17528Y00604*
X17528Y00603*
X17527Y00601*
Y00601*
X17527Y00601*
X17526Y006*
X17524Y00599*
X17523Y00599*
X17522Y00599*
X17522*
X17522*
X17521*
X17519Y00599*
X17517Y006*
X17517*
X17517Y006*
X17515Y006*
X17514Y00601*
X17512Y00601*
X1751Y00602*
X17508Y00603*
X17506Y00605*
X17506Y00605*
X17505Y00605*
X17504Y00606*
X17503Y00607*
X17501Y00608*
X17499Y00609*
X17495Y00612*
X17495Y00613*
X17495Y00613*
X17494Y00614*
X17493Y00615*
X1749Y00617*
X17488Y0062*
X17488Y0062*
X17487Y0062*
X17486Y00621*
X17485Y00623*
X17484Y00623*
X17484Y00624*
X17484Y00624*
X17483Y00625*
X17483Y00625*
X17482Y00626*
X1748Y00628*
X17478Y00631*
X17478Y00631*
X17477Y00632*
X17477Y00632*
X17476Y00634*
X17475Y00635*
X17474Y00636*
X17473Y0064*
X17472Y0064*
X17472Y0064*
X17472Y00641*
X17471Y00643*
X1747Y00644*
X1747Y00646*
X17468Y00649*
Y0065*
X17468Y0065*
X17468Y00651*
X17468Y00652*
X17467Y00654*
X17467Y00656*
X17467Y00659*
Y00661*
X17467Y00663*
X17468Y00665*
Y00665*
X17468Y00665*
X17468Y00667*
X17469Y00668*
X17471Y0067*
X17471Y0067*
X17472Y0067*
X17473Y0067*
X17473*
X17474*
X17474Y0067*
X17474Y0067*
X17474Y00669*
Y00668*
X17474Y00667*
Y00667*
X17474Y00666*
X17474Y00663*
X17474Y0066*
Y0066*
X17474Y0066*
X17475Y00659*
X17475Y00658*
X17476Y00656*
X17477Y00653*
Y00653*
X17477Y00652*
X17478Y00652*
X17478Y00651*
X17479Y00648*
X17481Y00646*
X17481Y00646*
X17482Y00645*
X17482Y00645*
X17483Y00644*
X17485Y00642*
X17487Y00639*
X17487Y00639*
X17487Y00638*
X17488Y00638*
X17488Y00637*
X1749Y00635*
X17493Y00633*
X17493Y00632*
X17493Y00632*
X17494Y00631*
X17495Y0063*
X17496Y0063*
X17497Y00628*
X175Y00626*
X175Y00626*
X17501Y00625*
X17502Y00625*
X17503Y00624*
X17504Y00623*
X17505Y00622*
X17509Y0062*
X17509Y0062*
X17509Y00619*
X1751Y00619*
X17511Y00618*
X17513Y00617*
X17516Y00615*
X17515Y00615*
X17515Y00616*
X17514Y00616*
X17513Y00617*
X17512Y00619*
X1751Y00621*
X17508Y00623*
X17506Y00626*
X17506Y00626*
X17505Y00627*
X17504Y00628*
X17503Y0063*
X17501Y00632*
X175Y00635*
X17496Y0064*
X17496Y0064*
X17495Y0064*
X17495Y00641*
X17494Y00642*
X17492Y00644*
X1749Y00647*
X1749Y00647*
X1749Y00648*
X1749Y00648*
X17489Y00649*
X17487Y00652*
X17485Y00654*
X17485Y00654*
X17484Y00655*
X17484Y00656*
X17483Y00657*
X17483Y00657*
X17482Y00658*
X17481Y00659*
X17481Y0066*
X1748Y0066*
X1748Y00661*
X17479Y00662*
X17478Y00663*
X17478Y00663*
X17478Y00664*
X17477Y00665*
X17477Y00665*
Y00666*
X17477Y00668*
X17478Y00668*
X17478Y00669*
X17479Y00669*
X17479Y00669*
X17481Y0067*
X17482*
X17482*
X17482Y0067*
X17483Y00669*
X17484Y00669*
X17484Y00668*
X17485Y00668*
X17485Y00668*
X17486Y00667*
X17486*
X17486Y00667*
X17487Y00666*
X17487*
X17488Y00665*
X17488Y00665*
X17488Y00665*
X17488Y00665*
X17489Y00665*
X17489Y00664*
X1749Y00663*
X17492Y00661*
X17495Y00659*
X17495Y00659*
X17496Y00658*
X17497Y00658*
X17498Y00657*
X175Y00655*
X17503Y00653*
X17503Y00653*
X17503Y00652*
X17504Y00652*
X17504Y00651*
X17504Y00652*
X17503Y00653*
X17502Y00655*
X17501Y00657*
X17499Y0066*
X17499Y0066*
X17499Y00661*
X17498Y00662*
X17497Y00663*
X17497Y00664*
X17496Y00665*
X17495Y00667*
X17493Y00669*
X17488Y00674*
X17488Y00674*
X17487Y00675*
X17486Y00676*
X17485Y00678*
X17483Y00679*
X17481Y00681*
X17478Y00683*
X17476Y00685*
X17476*
X17476Y00685*
X17474Y00686*
X17473Y00687*
X17472Y00688*
X17471Y00688*
X1747Y00689*
X17469Y0069*
X17467Y00691*
X17467Y00692*
X17466Y00692*
X17465Y00694*
X17464Y00696*
Y00696*
X17464Y00696*
X17463Y00696*
X17463Y00697*
X17462Y00699*
X17462Y00701*
Y00702*
X17462Y00703*
X17463Y00705*
X17464Y00705*
X17464Y00706*
Y00706*
X17465Y00707*
X17466Y00707*
X17467Y00708*
X17469Y00709*
X17469*
X1747*
X17471*
X17472Y00708*
G37*
G36*
X17364Y00721D02*
X17365Y00721D01*
X17365Y0072*
X17366Y0072*
X17366Y00719*
X17366Y00719*
X17366Y00719*
X17367Y00719*
X17367Y00718*
X17367Y00717*
X17368Y00715*
X1737Y00714*
X17371Y00712*
X17372Y0071*
X17374Y00709*
X17374Y00709*
X17375Y00708*
X17376Y00706*
X17378Y00705*
X1738Y00703*
X17382Y00701*
X17385Y00698*
X17387Y00695*
X17387Y00695*
X17388Y00694*
X17389Y00693*
X17391Y00691*
X17394Y00689*
X17396Y00686*
X17399Y00683*
X17402Y0068*
X17403Y0068*
X17404Y00679*
X17405Y00677*
X17407Y00675*
X1741Y00673*
X17412Y0067*
X17418Y00665*
X17418Y00665*
X17419Y00664*
X1742Y00662*
X17422Y00661*
X17424Y00658*
X17427Y00656*
X1743Y00653*
X17434Y00651*
X17434*
X17434Y0065*
X17435Y00649*
X17437Y00648*
X17439Y00646*
X17442Y00644*
X17445Y00641*
X17447Y00638*
X17451Y00635*
X17451Y00635*
X17452Y00634*
X17453Y00633*
X17455Y00631*
X17457Y00629*
X1746Y00627*
X17462Y00625*
X17464Y00623*
X17464*
X17465Y00623*
X17466Y00622*
X17468Y0062*
X1747Y00618*
X17473Y00616*
X17476Y00613*
X17479Y0061*
X17483Y00607*
X17483*
X17483Y00607*
X17484Y00606*
X17486Y00604*
X17489Y00602*
X17491Y006*
X17495Y00597*
X17498Y00594*
X17501Y00591*
X17502Y00591*
X17502Y0059*
X17503Y0059*
X17504Y00589*
X17505Y00588*
X17507Y00586*
X17508Y00585*
X1751Y00583*
X1751Y00583*
X17511Y00582*
X17512Y00581*
X17514Y0058*
X17515Y00579*
X17517Y00577*
X17521Y00574*
X17521Y00573*
X17522Y00573*
X17523Y00572*
X17524Y00571*
X17526Y00569*
X17527Y00567*
X17531Y00564*
X17531Y00563*
X17532Y00563*
X17533Y00562*
X17534Y0056*
X17535Y00559*
X17536Y00557*
X17538Y00556*
X17539Y00554*
X17539Y00553*
X17539Y00552*
X17539Y00551*
X17539Y0055*
Y0055*
X17539Y00549*
X17538Y00548*
X17537Y00547*
X17537Y00546*
X17537Y00546*
X17536Y00546*
X17535Y00545*
X17534Y00544*
X17532Y00544*
X1753Y00543*
X17528Y00543*
X17528*
X17527*
X17525*
X17524Y00543*
X17522*
X1752Y00543*
X17515Y00543*
X17515*
X17514Y00543*
X17513Y00543*
X17511Y00544*
X17509Y00544*
X17507Y00544*
X17502Y00545*
X17502*
X17501Y00545*
X175Y00545*
X17498Y00546*
X17495Y00547*
X17493Y00547*
X17492Y00547*
X17492*
X17491Y00547*
X1749Y00547*
X1749Y00548*
X17488Y00548*
X17487Y00548*
X17484Y00549*
X1748Y0055*
X17475Y00551*
X17471Y00553*
X17466Y00554*
X17466*
X17465Y00554*
X17465Y00555*
X17464Y00555*
X17463Y00555*
X17461Y00556*
X17458Y00557*
X17455Y00558*
X17451Y0056*
X17447Y00561*
X17448Y0056*
X17451Y00557*
X17454Y00554*
X17458Y00551*
X17461Y00548*
X17461*
X17462Y00547*
X17462Y00547*
X17463Y00546*
X17465Y00545*
X17467Y00543*
X1747Y0054*
X17474Y00537*
X17477Y00534*
X17481Y00531*
X17481Y0053*
X17482Y0053*
X17483Y00529*
X17485Y00528*
X17486Y00526*
X17489Y00524*
X17491Y00522*
X17494Y0052*
X17497Y00517*
X175Y00514*
X17507Y00508*
X17515Y00502*
X17523Y00495*
X17523Y00495*
X17524Y00495*
X17525Y00494*
X17526Y00493*
X17528Y00491*
X1753Y00489*
X17533Y00487*
X17536Y00485*
X17539Y00482*
X17542Y0048*
X17546Y00477*
X1755Y00474*
X17557Y00468*
X17566Y00463*
X17566Y00462*
X17566Y00462*
X17567Y00461*
X17568Y00461*
X17571Y00459*
X17574Y00456*
X17574Y00456*
X17574Y00456*
X17575Y00455*
X17576Y00455*
X17578Y00454*
X17579Y00452*
X17582Y0045*
X17582Y0045*
X17582Y0045*
X17583Y00449*
X17584Y00448*
X17584Y00448*
X17585Y00448*
X17586Y00447*
X17586Y00446*
Y00445*
X17586Y00444*
X17585Y00443*
X17585Y00443*
X17584*
X17584*
X17583*
X17582Y00444*
X17581Y00444*
X1758Y00444*
X1758Y00445*
X17579Y00445*
X17578Y00446*
X17577Y00446*
X17577Y00446*
X17576Y00446*
X17575Y00447*
X17575Y00447*
X17575*
X17574Y00447*
X17573Y00448*
X17572Y00449*
X17569Y0045*
X17567Y00452*
X17564Y00453*
X17561Y00455*
X17557Y00458*
X17557*
X17557Y00458*
X17556Y00459*
X17554Y0046*
X17552Y00461*
X17549Y00463*
X17547Y00464*
X17541Y00468*
X17541Y00468*
X1754Y00469*
X17539Y00469*
X17538Y0047*
X17536Y00471*
X17535Y00472*
X17533Y00474*
X1753Y00475*
X17528Y00477*
X17525Y00479*
X1752Y00483*
X17514Y00487*
X17508Y00492*
X17507Y00492*
X17507Y00493*
X17506Y00493*
X17505Y00494*
X17503Y00495*
X17501Y00497*
X17499Y00498*
X17497Y005*
X17492Y00504*
X17487Y00508*
X17481Y00513*
X17475Y00517*
X17475Y00518*
X17475Y00518*
X17474Y00518*
X17473Y00519*
X17472Y0052*
X17471Y00521*
X17468Y00523*
X17465Y00526*
X17461Y00529*
X17458Y00532*
X17454Y00535*
X17454Y00536*
X17454Y00536*
X17453Y00536*
X17452Y00537*
X17451Y00539*
X17448Y00541*
X17445Y00544*
X17442Y00547*
X17438Y00551*
X17434Y00554*
X17433Y00555*
X17433Y00555*
X17432Y00556*
X17431Y00557*
X17429Y00558*
X17428Y0056*
X17424Y00563*
X17424Y00563*
X17423Y00564*
X17422Y00565*
X17421Y00566*
X1742Y00567*
X17418Y00569*
X17414Y00573*
X17414Y00573*
X17413Y00574*
X17412Y00576*
X17411Y00578*
Y00578*
X17411Y00578*
X17411Y00579*
X17411Y00579*
X1741Y00581*
Y00582*
X17411Y00583*
X17411Y00584*
X17411Y00584*
X17411Y00585*
X17412Y00585*
X17413Y00586*
X17415Y00587*
X17416Y00587*
X17417Y00587*
X17417*
X17418*
X17419Y00587*
X17421Y00587*
X17421Y00587*
X17422Y00586*
X17423Y00586*
X17424Y00585*
X17424*
X17424Y00585*
X17425Y00585*
X17426Y00584*
X17427Y00584*
X17428Y00583*
X17431Y00582*
X17435Y0058*
X17439Y00578*
X17444Y00576*
X17449Y00574*
X17449*
X17449Y00574*
X1745Y00573*
X17451Y00573*
X17452Y00573*
X17453Y00572*
X17455Y00571*
X17457Y00571*
X1746Y00569*
X17465Y00568*
X1747Y00566*
X17475Y00564*
X17475*
X17476Y00564*
X17477Y00563*
X17479Y00563*
X17481Y00562*
X17483Y00561*
X17488Y0056*
X17488*
X17489Y00559*
X1749Y00559*
X17492Y00558*
X17494Y00558*
X17496Y00557*
X17501Y00556*
X17501*
X17502Y00556*
X17503Y00555*
X17505Y00555*
X17507Y00554*
X17509Y00554*
X17514Y00552*
X17514*
X17515Y00552*
X17516Y00552*
X17517Y00552*
X17519Y00551*
X17521Y00551*
X17525Y0055*
X17525Y00551*
X17524Y00551*
X17523Y00552*
X17522Y00553*
X17521Y00554*
X17519Y00556*
X17516Y00559*
X17516Y00559*
X17515Y0056*
X17514Y00561*
X17513Y00562*
X17512Y00564*
X1751Y00565*
X17507Y00569*
X17507Y00569*
X17506Y0057*
X17505Y00571*
X17504Y00572*
X17502Y00573*
X175Y00575*
X17498Y00576*
X17496Y00578*
X17491Y00582*
X17485Y00587*
X17479Y00592*
X17473Y00597*
X17473Y00598*
X17472Y00598*
X17471Y00599*
X1747Y006*
X17469Y00601*
X17467Y00602*
X17465Y00604*
X17463Y00606*
X17458Y0061*
X17453Y00614*
X17448Y00619*
X17442Y00624*
X17442Y00624*
X17441Y00625*
X1744Y00626*
X17439Y00627*
X17437Y00629*
X17435Y00631*
X17432Y00633*
X1743Y00636*
X17429Y00636*
X17429Y00637*
X17427Y00638*
X17425Y0064*
X17423Y00642*
X17421Y00645*
X17418Y00648*
X17415Y00651*
Y00651*
X17415Y00651*
X17414Y00652*
X17413Y00654*
X17411Y00656*
X17409Y00658*
X17407Y0066*
X17404Y00663*
X17402Y00665*
X17401Y00665*
X17401Y00666*
X17399Y00667*
X17398Y00669*
X17396Y0067*
X17394Y00672*
X1739Y00676*
X1739Y00677*
X1739Y00677*
X17389Y00678*
X17388Y00679*
X17386Y00681*
X17385Y00683*
X17381Y00687*
X17381Y00687*
X17381Y00688*
X1738Y00688*
X17379Y0069*
X17377Y00692*
X17376Y00693*
X17373Y00697*
X17373Y00697*
X17372Y00698*
X17371Y00699*
X17371Y007*
X17369Y00702*
X17368Y00703*
X17366Y00707*
X17366Y00708*
X17365Y00708*
X17365Y0071*
X17364Y00711*
X17363Y00713*
X17363Y00715*
X17362Y00717*
X17361Y00719*
Y0072*
X17361Y0072*
X17362Y00721*
X17362Y00721*
X17363Y00722*
X17363*
X17363*
X17364Y00721*
G37*
G36*
X1743Y00479D02*
X1743D01*
X17431Y00479*
X17433Y00479*
X17434Y00478*
X17436Y00478*
X17439Y00477*
X17441Y00477*
X17444Y00476*
X17444Y00476*
X17445Y00475*
X17446Y00475*
X17448Y00474*
X17451Y00473*
X17453Y00472*
X17459Y00469*
X17459Y00469*
X1746Y00469*
X17461Y00468*
X17463Y00467*
X17466Y00466*
X17468Y00464*
X17473Y00461*
X17473Y00461*
X17474Y00461*
X17475Y0046*
X17476Y00459*
X17477Y00458*
X17479Y00457*
X17481Y00456*
X17483Y00454*
X17487Y00451*
X17492Y00447*
X17497Y00443*
X17502Y00438*
X17502Y00438*
X17502Y00437*
X17503Y00437*
X17504Y00436*
X17505Y00435*
X17506Y00433*
X17508Y00431*
X17509Y00429*
X17511Y00427*
X17512Y00425*
X17516Y00419*
X1752Y00414*
X17524Y00407*
Y00407*
X17524Y00406*
X17524Y00406*
X17525Y00405*
X17526Y00403*
X17526Y004*
Y004*
X17527Y004*
Y00399*
X17527Y00398*
Y00395*
X17527Y00393*
Y00393*
X17526Y00392*
X17526Y00391*
X17526Y00391*
X17525Y00389*
X17524Y00388*
X17523Y00387*
X17523*
X17523Y00386*
X17522Y00386*
X17521Y00385*
X1752Y00385*
X17518Y00385*
X17517Y00384*
X17514*
X17514*
X17514*
X17513*
X17513Y00385*
X17512*
X17511Y00385*
X1751Y00385*
X17508Y00385*
X17508*
X17507Y00385*
X17506Y00386*
X17505Y00386*
X17504Y00386*
X17502Y00387*
X17499Y00388*
X17499*
X17498Y00388*
X17497Y00388*
X17495Y00389*
X17494Y00389*
X17492Y0039*
X17488Y00391*
X17488Y00392*
X17488Y00392*
X17488Y00391*
X1749Y00389*
X1749Y00389*
X17491Y00389*
X17492Y00387*
X17493Y00386*
X17495Y00384*
X17496Y00383*
X175Y00379*
X175Y00379*
X175Y00378*
X17501Y00378*
X17501Y00377*
X17502Y00375*
X17503Y00372*
Y00372*
X17504Y00371*
Y00368*
X17503Y00367*
X17503Y00366*
X17502Y00364*
Y00364*
X17502Y00364*
X17501Y00362*
X17499Y00362*
X17498Y00361*
X17496Y00361*
X17496*
X17496*
X17495*
X17494Y00361*
X17492Y00361*
X1749Y00362*
X17489Y00362*
X17488Y00362*
X17487Y00363*
X17485Y00364*
X17483Y00365*
X17481Y00366*
X17478Y00367*
X17476Y00369*
X17476Y00369*
X17475Y0037*
X17474Y00371*
X17472Y00373*
X1747Y00374*
X17468Y00376*
X17466Y00378*
X17464Y00381*
X17464Y00381*
X17463Y00382*
X17462Y00383*
X1746Y00385*
X17459Y00387*
X17457Y00389*
X17455Y00391*
X17454Y00394*
X17454Y00394*
X17453Y00395*
X17452Y00397*
X17451Y00398*
X1745Y00401*
X17449Y00403*
X17447Y00408*
X17446Y00408*
X17446Y00409*
X17446Y00411*
X17446Y00412*
Y00413*
X17445Y00413*
X17445Y00414*
X17445Y00416*
X17445Y00418*
Y00421*
X17445Y00423*
Y00424*
X17445Y00424*
X17446Y00425*
X17446Y00426*
X17447Y00428*
X17448Y00428*
X17448Y00429*
X17448Y00429*
X17449Y00429*
X1745*
X1745Y0043*
X1745Y0043*
X17451Y0043*
X17451*
X17452Y00429*
X17452Y00428*
Y00427*
X17452Y00427*
X17452Y00426*
X17451Y00424*
X17451Y00423*
Y00423*
X17451Y00422*
X17452Y00421*
X17452Y00419*
X17453Y00417*
X17454Y00415*
X17455Y00412*
X17456Y0041*
X17456Y0041*
X17457Y00409*
X17458Y00408*
X17459Y00406*
X1746Y00405*
X17461Y00403*
X17465Y00399*
X17465Y00399*
X17466Y00398*
X17467Y00397*
X17468Y00395*
X1747Y00394*
X17471Y00392*
X17475Y00388*
X17476Y00388*
X17476Y00387*
X17477Y00386*
X17479Y00384*
X17481Y00383*
X17483Y00381*
X17485Y0038*
X17487Y00378*
X17488*
X17488Y00377*
X17489Y00377*
X1749Y00376*
X17491Y00375*
X17492Y00375*
X17492Y00374*
X1749Y00376*
X17489Y00379*
X17489Y00379*
X17489Y00379*
X17488Y0038*
X17488Y00381*
X17486Y00383*
X17485Y00386*
X17484Y00386*
X17484Y00386*
X17484Y00387*
X17483Y00388*
X17481Y0039*
X1748Y00392*
X17479Y00392*
X17479Y00393*
X17479Y00393*
X17478Y00394*
X17476Y00396*
X17474Y00399*
X17473Y00399*
X17473Y004*
X17472Y00401*
X17472Y00401*
X17471Y00402*
X1747Y00403*
X17469Y00405*
Y00405*
X17468Y00405*
X17468Y00406*
X17466Y00408*
X17465Y0041*
X17464Y00411*
X17464Y00411*
X17464Y00411*
X17463Y00412*
X17462Y00414*
X1746Y00416*
Y00417*
X1746Y00417*
X1746Y00417*
X17459Y00418*
X17459Y0042*
X17458Y00422*
Y00422*
X17457Y00422*
X17457Y00423*
X17457Y00425*
X17457Y00426*
X17457Y00427*
X17458Y00427*
X17459Y00427*
X17459*
X1746Y00427*
X1746Y00427*
X17461Y00427*
X17462Y00426*
X17463Y00426*
X17463Y00425*
X17464Y00425*
X17464Y00424*
X17465Y00422*
X17467Y00421*
X17469Y00419*
X17471Y00417*
X17473Y00415*
X17473Y00415*
X17474Y00415*
X17475Y00414*
X17477Y00413*
X17479Y00411*
X17481Y0041*
X17486Y00407*
X17486Y00407*
X17487Y00406*
X17488Y00406*
X1749Y00405*
X17491Y00404*
X17494Y00403*
X17499Y00401*
X17499Y004*
X175Y004*
X17501Y004*
X17502Y00399*
X17504Y00398*
X17506Y00398*
X1751Y00397*
X1751*
X17511Y00396*
X17512Y00396*
X17513Y00396*
X17515Y00395*
X17517Y00395*
X17517Y00395*
X17518*
X17519Y00395*
X17519Y00394*
X1752Y00394*
Y00394*
X17519Y00395*
X17519Y00397*
X17518Y00399*
Y004*
X17517Y004*
X17517Y00401*
X17516Y00402*
X17515Y00404*
X17513Y00406*
X17513Y00406*
X17513Y00407*
X17512Y00407*
X17511Y00408*
X1751Y00411*
X17508Y00413*
X17508Y00413*
X17507Y00413*
X17506Y00415*
X17505Y00416*
X17503Y00418*
X17503Y00418*
X17503Y00418*
X17502Y00419*
X17502Y0042*
X175Y00421*
X17499Y00422*
X17496Y00425*
X17492Y00429*
X17488Y00433*
X17483Y00437*
X17478Y0044*
X17478Y00441*
X17478Y00441*
X17477Y00441*
X17476Y00442*
X17474Y00443*
X17473Y00444*
X17471Y00445*
X17469Y00446*
X17465Y00449*
X1746Y00452*
X17454Y00455*
X17448Y00458*
X17448*
X17448Y00458*
X17447Y00458*
X17446Y00458*
X17444Y00459*
X17441Y0046*
X17441*
X17441Y00461*
X1744Y00461*
X17439Y00461*
X17436Y00462*
X17433Y00463*
X17433*
X17433Y00463*
X17432Y00463*
X17431Y00464*
X17429Y00465*
X17426Y00465*
X17425*
X17425Y00465*
X17424*
X17423Y00466*
X17421Y00466*
X17418Y00466*
X17418*
X17418*
X17417Y00465*
X17416Y00465*
X17414Y00465*
X17412Y00464*
X17412*
X17411Y00463*
X1741Y00463*
X17409Y00461*
X17407Y00459*
Y00459*
X17407Y00459*
X17407Y00458*
X17406Y00457*
X17405Y00455*
X17405Y00453*
Y00452*
X17405Y00451*
Y00451*
X17404Y00449*
Y00445*
X17405Y00445*
Y00444*
X17405Y00442*
X17405Y0044*
X17406Y00436*
X17407Y00433*
X17408Y00428*
X1741Y00424*
Y00424*
X1741Y00424*
X1741Y00423*
X17411Y00422*
X17411Y00421*
X17412Y0042*
X17413Y00417*
X17415Y00414*
X17417Y0041*
X1742Y00406*
X17423Y00402*
Y00402*
X17423Y00402*
X17423Y00402*
X17424Y00401*
X17425Y00399*
X17428Y00396*
X1743Y00393*
X17433Y0039*
X17436Y00386*
X17439Y00383*
X1744Y00382*
X1744Y00382*
X17441Y00381*
X17443Y00379*
X17445Y00377*
X17447Y00375*
X1745Y00372*
X17453Y00369*
X17456Y00367*
X17456Y00366*
X17457Y00365*
X17459Y00364*
X1746Y00363*
X17463Y00361*
X17465Y00359*
X17468Y00357*
X17471Y00355*
X17471Y00354*
X17472Y00354*
X17474Y00353*
X17476Y00351*
X17478Y0035*
X17481Y00348*
X17484Y00346*
X17488Y00344*
X17488Y00344*
X17489Y00343*
X1749Y00343*
X17492Y00342*
X17494Y0034*
X17496Y00339*
X17499Y00338*
X17502Y00337*
X17503Y00337*
X17503Y00336*
X17505Y00336*
X17507Y00335*
X17509Y00335*
X17512Y00334*
X17515Y00333*
X17518Y00333*
X17518*
X17519*
X1752Y00333*
X17521*
X17523*
X17525*
X17528Y00333*
X17529*
X17529Y00333*
X1753Y00333*
X17531Y00334*
X17533Y00334*
X17534Y00335*
X17536Y00336*
X17538Y00337*
X17538Y00337*
X17538Y00337*
X17539Y00338*
X17541Y0034*
X17543Y00342*
Y00342*
X17543Y00343*
X17543Y00343*
X17543Y00344*
X17544Y00346*
X17545Y00349*
Y00349*
X17545Y0035*
Y0035*
X17545Y00352*
X17545Y00354*
X17546Y00357*
Y0036*
X17545Y00362*
X17545Y00365*
Y00365*
X17545Y00366*
Y00367*
X17544Y00369*
X17544Y00371*
X17543Y00374*
X17543Y00377*
X17542Y00381*
X1754Y00384*
Y00385*
X1754Y00385*
X1754Y00385*
X1754Y00386*
X17539Y00388*
X17538Y00391*
X17537Y00393*
X17536Y00397*
X17535Y004*
X17533Y00404*
Y00404*
X17533Y00404*
X17532Y00405*
X17532Y00407*
X17531Y00409*
X17529Y00412*
X17528Y00415*
X17526Y00419*
X17525Y00422*
Y00422*
X17525Y00422*
X17524Y00424*
X17523Y00425*
X17522Y00428*
X1752Y00431*
X17519Y00434*
X17517Y00437*
X17515Y0044*
X17515Y00441*
X17514Y00441*
X17514Y00443*
X17513Y00444*
X17512Y00446*
X17511Y00448*
X17508Y00452*
X17508Y00453*
X17508Y00453*
X17507Y00454*
X17507Y00454*
X17507Y00455*
X17506Y00456*
X17506Y00457*
X17506Y00457*
X17505Y00458*
X17505Y00459*
X17504Y00461*
X17504Y00461*
X17504Y00462*
Y00463*
X17504Y00463*
X17504Y00464*
X17504*
X17505Y00464*
X17506Y00464*
X17507Y00463*
X17507Y00463*
X17507Y00463*
X17508Y00462*
X17509Y00461*
X17509Y00461*
X1751Y0046*
X1751Y0046*
X1751Y00459*
X17516Y00452*
X17516Y00451*
X17517Y00451*
X17517Y0045*
X17518Y00449*
X1752Y00446*
X17522Y00443*
X17522Y00442*
X17522Y00442*
X17523Y00441*
X17524Y0044*
X17525Y00438*
X17527Y00435*
Y00435*
X17527Y00435*
X17527Y00434*
X17528Y00433*
X17529Y00431*
X1753Y00429*
X17532Y00426*
X17534Y00423*
X17537Y00416*
Y00416*
X17538Y00416*
X17538Y00415*
X17539Y00413*
X1754Y0041*
X17542Y00407*
X17543Y00404*
X17545Y00401*
X17546Y00397*
X17547Y00397*
X17547Y00396*
X17548Y00394*
X17549Y00392*
X1755Y00389*
X17551Y00386*
X17552Y00382*
X17553Y00379*
Y00378*
X17554Y00378*
X17554Y00378*
X17554Y00377*
X17554Y00375*
X17555Y00372*
X17556Y00369*
X17556Y00366*
X17556Y00362*
X17557Y00358*
Y00357*
X17556Y00355*
X17556Y00353*
X17556Y0035*
X17556Y00348*
X17555Y00345*
X17554Y00342*
X17554Y00342*
X17554Y00341*
X17553Y0034*
X17553Y00338*
X17552Y00336*
X17551Y00334*
X17549Y00332*
X17548Y0033*
X17547Y0033*
X17547Y00329*
X17546Y00328*
X17544Y00327*
X17543Y00326*
X17541Y00324*
X17539Y00323*
X17536Y00322*
X17536Y00322*
X17535Y00321*
X17533Y00321*
X17531Y0032*
X17529Y0032*
X17526Y0032*
X17523Y00319*
X1752*
X1752*
X1752*
X17519Y0032*
X17517Y0032*
X17515Y0032*
X17512Y00321*
X17509Y00321*
X17506Y00322*
X17503Y00323*
X17503*
X17503Y00323*
X17502Y00323*
X175Y00324*
X17498Y00325*
X17495Y00326*
X17493Y00327*
X1749Y00328*
X17486Y0033*
X17486*
X17486Y0033*
X17485Y0033*
X17484Y00331*
X17482Y00332*
X17481Y00332*
X17479Y00334*
X17477Y00335*
X17473Y00337*
X17468Y0034*
X17463Y00344*
X17457Y00348*
X17457Y00348*
X17457Y00349*
X17456Y00349*
X17455Y0035*
X17454Y00351*
X17452Y00352*
X17449Y00355*
X17445Y00358*
X17441Y00362*
X17436Y00367*
X17432Y00372*
X17431Y00372*
X17431Y00373*
X17429Y00374*
X17428Y00376*
X17426Y00378*
X17424Y0038*
X17422Y00383*
X1742Y00386*
X17419Y00386*
X17419Y00387*
X17417Y00389*
X17416Y00391*
X17414Y00393*
X17413Y00396*
X17411Y00398*
X17409Y00401*
X17409Y00402*
X17409Y00402*
X17408Y00403*
X17407Y00405*
X17406Y00407*
X17405Y00409*
X17404Y00411*
X17403Y00414*
X17402Y00414*
X17402Y00415*
X17402Y00417*
X17401Y00419*
X174Y00421*
X17399Y00423*
X17398Y00426*
X17397Y00429*
X17397Y00429*
X17397Y0043*
X17397Y00432*
X17396Y00434*
X17396Y00436*
X17395Y00439*
X17395Y00444*
Y00449*
X17395Y00452*
X17396Y00454*
X17396Y00457*
X17397Y0046*
Y0046*
X17398Y00461*
X17398Y00462*
X17399Y00463*
X174Y00465*
X17401Y00467*
X17403Y00469*
X17405Y00471*
X17405Y00471*
X17406Y00472*
X17407Y00472*
X17408Y00474*
X1741Y00475*
X17412Y00476*
X17414Y00477*
X17417Y00478*
X17417*
X17418Y00478*
X17419Y00478*
X17421Y00479*
X17423Y00479*
X17425Y00479*
X17428Y00479*
X1743Y00479*
G37*
%LNnas-craftsman_nixie_v1-2*%
%LPC*%
G36*
X17538Y01777D02*
X17538D01*
X17537*
X17537Y01777*
X17536*
X17536*
X17536*
X17534Y01777*
X17532Y01776*
X17529Y01775*
Y01775*
X1733Y0166*
X1733Y01659*
X1733Y01659*
X17329Y01658*
X17328Y01658*
X17327Y01656*
X17327Y01656*
X17326Y01656*
X17325Y01655*
X17324Y01653*
X17323Y0165*
X17323Y01648*
X17322Y01645*
X17322Y01644*
X17323Y01642*
X17323Y0164*
X17325Y01637*
Y01636*
X17325Y01636*
Y01636*
X17325Y01635*
X17326Y01635*
X17327Y01634*
X17329Y01632*
X17331Y01631*
X1753Y01516*
X1753Y01516*
X17531*
X17531Y01515*
X17533Y01515*
X17533*
X17534Y01515*
X17535Y01514*
X17535*
X17536Y01514*
X17537Y01514*
X17539*
X17541*
X17542Y01514*
X17544Y01515*
X17547Y01516*
X17547*
X17547Y01516*
X17549Y01518*
X17549Y01518*
X17551Y01519*
X17551Y01519*
X17551Y0152*
X17552Y01521*
X17553Y01522*
X17554Y01524*
X17554Y01526*
X17555Y01528*
X17555Y01531*
X17555Y01764*
X17554Y01764*
X17554Y01765*
Y01766*
X17554Y01766*
X17553Y01767*
X17552Y01769*
X17551Y0177*
X1755Y01772*
X17548Y01773*
X17546Y01775*
X17546*
X17546Y01775*
X17544Y01776*
X17541Y01777*
X17538Y01777*
G37*
G36*
X17391Y01107D02*
X1739D01*
X1739Y01107*
X1739Y01106*
Y01106*
X17391Y01106*
X17392Y01105*
X17393Y01105*
X17392Y01105*
X17392Y01106*
X17391Y01107*
X17391Y01107*
X17391Y01107*
G37*
G36*
X17508Y01044D02*
X17509Y01043D01*
X17509Y01042*
X17508Y01044*
X17508Y01044*
G37*
%LNnas-craftsman_nixie_v1-3*%
%LPD*%
G36*
X17515Y01642D02*
X17511Y01658D01*
X17543Y01631*
X17505Y01625*
X17515Y01637*
X17446Y01655*
X17475Y01597*
X17346Y01634*
X17345Y01661*
X17459Y01612*
X1742Y01688*
X17515Y01642*
G37*
G54D10*
X16818Y01048D02*
D01*
X16818Y01048*
X16817Y01048*
X16817Y01048*
X16817Y01049*
X16817Y01049*
X16817Y01049*
X16817Y01049*
X16817Y01049*
X16817Y01049*
X16817Y0105*
X16817Y0105*
X16817Y0105*
X16816Y0105*
X16816Y0105*
X16816Y0105*
X16816Y0105*
X16816Y0105*
X16816Y0105*
X16815Y01051*
X16815Y01051*
X16815Y01051*
X16815Y01051*
X16815*
X16815Y01051*
X16814Y01051*
X16814Y01051*
X16814Y0105*
X16814Y0105*
X16814Y0105*
X16813Y0105*
X16813Y0105*
X16813Y0105*
X16813Y0105*
X16813Y0105*
X16813Y0105*
X16813Y01049*
X16812Y01049*
X16812Y01049*
X16812Y01049*
X16812Y01049*
X16812Y01049*
X16812Y01048*
X16812Y01048*
X16812Y01048*
X16812Y01048*
X16812Y01048*
X16812Y01048*
X16812Y01047*
X16812Y01047*
X16812Y01047*
X16812Y01047*
X16812Y01047*
X16812Y01046*
X16813Y01046*
X16813Y01046*
X16813Y01046*
X16813Y01046*
X16813Y01046*
X16813Y01046*
X16813Y01046*
X16814Y01045*
X16814Y01045*
X16814Y01045*
X16814Y01045*
X16814Y01045*
X16815Y01045*
X16815Y01045*
X16815*
X16815Y01045*
X16815Y01045*
X16815Y01045*
X16816Y01045*
X16816Y01045*
X16816Y01045*
X16816Y01046*
X16816Y01046*
X16816Y01046*
X16817Y01046*
X16817Y01046*
X16817Y01046*
X16817Y01046*
X16817Y01046*
X16817Y01047*
X16817Y01047*
X16817Y01047*
X16817Y01047*
X16817Y01047*
X16817Y01048*
X16818Y01048*
X16818Y01048*
X16862Y02353D02*
D01*
X16862Y02353*
X16862Y02352*
X16862Y02352*
X16862Y02352*
X16862Y02352*
X16862Y02352*
X16862Y02352*
X16862Y02352*
X16862Y02352*
X16862Y02351*
X16862Y02351*
X16862Y02351*
X16862Y02351*
X16862Y02351*
X16862Y02351*
X16863Y02351*
X16863Y02351*
X16863Y02351*
X16863Y02351*
X16863Y02351*
X16863Y02351*
X16863Y02351*
X16864*
X16864Y02351*
X16864Y02351*
X16864Y02351*
X16864Y02351*
X16864Y02351*
X16864Y02351*
X16864Y02351*
X16865Y02351*
X16865Y02351*
X16865Y02351*
X16865Y02351*
X16865Y02351*
X16865Y02352*
X16865Y02352*
X16865Y02352*
X16865Y02352*
X16865Y02352*
X16865Y02352*
X16865Y02352*
X16865Y02352*
X16865Y02353*
X16865Y02353*
D01*
X16865Y02353*
X16865Y02353*
X16865Y02353*
X16865Y02353*
X16865Y02353*
X16865Y02354*
X16865Y02354*
X16865Y02354*
X16865Y02354*
X16865Y02354*
X16865Y02354*
X16865Y02354*
X16865Y02354*
X16865Y02354*
X16864Y02354*
X16864Y02354*
X16864Y02355*
X16864Y02355*
X16864Y02355*
X16864Y02355*
X16864Y02355*
X16864Y02355*
X16863*
X16863Y02355*
X16863Y02355*
X16863Y02355*
X16863Y02355*
X16863Y02355*
X16863Y02354*
X16862Y02354*
X16862Y02354*
X16862Y02354*
X16862Y02354*
X16862Y02354*
X16862Y02354*
X16862Y02354*
X16862Y02354*
X16862Y02354*
X16862Y02354*
X16862Y02353*
X16862Y02353*
X16862Y02353*
X16862Y02353*
X16862Y02353*
X16862Y02353*
D01*
X16862Y02353*
X16862Y02352*
X16862Y02352*
X16862Y02352*
X16862Y02352*
X16862Y02352*
X16862Y02352*
X16862Y02352*
X16862Y02352*
X16862Y02351*
X16862Y02351*
X16862Y02351*
X16862Y02351*
X16862Y02351*
X16862Y02351*
X16863Y02351*
X16863Y02351*
X16863Y02351*
X16863Y02351*
X16863Y02351*
X16863Y02351*
X16863Y02351*
X16864*
X16864Y02351*
X16864Y02351*
X16864Y02351*
X16864Y02351*
X16864Y02351*
X16864Y02351*
X16864Y02351*
X16865Y02351*
X16865Y02351*
X16865Y02351*
X16865Y02351*
X16865Y02351*
X16865Y02352*
X16865Y02352*
X16865Y02352*
X16865Y02352*
X16865Y02352*
X16865Y02352*
X16865Y02352*
X16865Y02352*
X16865Y02353*
X16865Y02353*
X16758Y00585D02*
D01*
X16758Y00585*
X16758Y00585*
X16758Y00585*
X16758Y00586*
X16758Y00586*
X16758Y00586*
X16757Y00586*
X16757Y00587*
X16757Y00587*
X16757Y00587*
X16757Y00587*
X16757Y00587*
X16756Y00588*
X16756Y00588*
X16756Y00588*
X16756Y00588*
X16755Y00588*
X16755Y00588*
X16755Y00588*
X16755Y00588*
X16754Y00588*
X16754Y00588*
X16754*
X16754Y00588*
X16753Y00588*
X16753Y00588*
X16753Y00588*
X16752Y00588*
X16752Y00588*
X16752Y00588*
X16752Y00588*
X16752Y00588*
X16751Y00587*
X16751Y00587*
X16751Y00587*
X16751Y00587*
X16751Y00587*
X1675Y00586*
X1675Y00586*
X1675Y00586*
X1675Y00586*
X1675Y00585*
X1675Y00585*
X1675Y00585*
X1675Y00585*
X1675Y00584*
X1675Y00584*
X1675Y00584*
X1675Y00583*
X1675Y00583*
X1675Y00583*
X1675Y00583*
X16751Y00582*
X16751Y00582*
X16751Y00582*
X16751Y00582*
X16751Y00582*
X16752Y00581*
X16752Y00581*
X16752Y00581*
X16752Y00581*
X16752Y00581*
X16753Y00581*
X16753Y00581*
X16753Y00581*
X16754Y00581*
X16754Y00581*
X16754*
X16754Y00581*
X16755Y00581*
X16755Y00581*
X16755Y00581*
X16755Y00581*
X16756Y00581*
X16756Y00581*
X16756Y00581*
X16756Y00581*
X16757Y00582*
X16757Y00582*
X16757Y00582*
X16757Y00582*
X16757Y00582*
X16757Y00583*
X16758Y00583*
X16758Y00583*
X16758Y00583*
X16758Y00584*
X16758Y00584*
X16758Y00584*
X16758Y00585*
X17198Y02351D02*
D01*
X17198Y02351*
X17198Y02351*
X17198Y02351*
X17198Y02351*
X17198Y02351*
X17198Y02351*
X17198Y0235*
X17198Y0235*
X17198Y0235*
X17198Y0235*
X17198Y0235*
X17198Y0235*
X17198Y0235*
X17198Y0235*
X17199Y0235*
X17199Y0235*
X17199Y0235*
X17199Y02349*
X17199Y02349*
X17199Y02349*
X17199Y02349*
X17199Y02349*
X172*
X172Y02349*
X172Y02349*
X172Y02349*
X172Y02349*
X172Y0235*
X172Y0235*
X172Y0235*
X17201Y0235*
X17201Y0235*
X17201Y0235*
X17201Y0235*
X17201Y0235*
X17201Y0235*
X17201Y0235*
X17201Y0235*
X17201Y02351*
X17201Y02351*
X17201Y02351*
X17201Y02351*
X17201Y02351*
X17201Y02351*
X17201Y02351*
D01*
X17201Y02351*
X17201Y02352*
X17201Y02352*
X17201Y02352*
X17201Y02352*
X17201Y02352*
X17201Y02352*
X17201Y02352*
X17201Y02352*
X17201Y02353*
X17201Y02353*
X17201Y02353*
X17201Y02353*
X17201Y02353*
X172Y02353*
X172Y02353*
X172Y02353*
X172Y02353*
X172Y02353*
X172Y02353*
X172Y02353*
X172Y02353*
X17199*
X17199Y02353*
X17199Y02353*
X17199Y02353*
X17199Y02353*
X17199Y02353*
X17199Y02353*
X17199Y02353*
X17198Y02353*
X17198Y02353*
X17198Y02353*
X17198Y02353*
X17198Y02353*
X17198Y02352*
X17198Y02352*
X17198Y02352*
X17198Y02352*
X17198Y02352*
X17198Y02352*
X17198Y02352*
X17198Y02352*
X17198Y02351*
X17198Y02351*
D01*
X17198Y02351*
X17198Y02351*
X17198Y02351*
X17198Y02351*
X17198Y02351*
X17198Y02351*
X17198Y0235*
X17198Y0235*
X17198Y0235*
X17198Y0235*
X17198Y0235*
X17198Y0235*
X17198Y0235*
X17198Y0235*
X17199Y0235*
X17199Y0235*
X17199Y0235*
X17199Y02349*
X17199Y02349*
X17199Y02349*
X17199Y02349*
X17199Y02349*
X172*
X172Y02349*
X172Y02349*
X172Y02349*
X172Y02349*
X172Y0235*
X172Y0235*
X172Y0235*
X17201Y0235*
X17201Y0235*
X17201Y0235*
X17201Y0235*
X17201Y0235*
X17201Y0235*
X17201Y0235*
X17201Y0235*
X17201Y02351*
X17201Y02351*
X17201Y02351*
X17201Y02351*
X17201Y02351*
X17201Y02351*
X17201Y02351*
X16523Y02351D02*
D01*
X16523Y02351*
X16523Y02351*
X16523Y02351*
X16523Y02351*
X16523Y02351*
X16523Y0235*
X16523Y0235*
X16523Y0235*
X16523Y0235*
X16523Y0235*
X16524Y0235*
X16524Y0235*
X16524Y0235*
X16524Y0235*
X16524Y0235*
X16524Y0235*
X16524Y02349*
X16524Y02349*
X16524Y02349*
X16525Y02349*
X16525Y02349*
X16525Y02349*
X16525*
X16525Y02349*
X16525Y02349*
X16525Y02349*
X16526Y02349*
X16526Y02349*
X16526Y0235*
X16526Y0235*
X16526Y0235*
X16526Y0235*
X16526Y0235*
X16526Y0235*
X16526Y0235*
X16527Y0235*
X16527Y0235*
X16527Y0235*
X16527Y0235*
X16527Y02351*
X16527Y02351*
X16527Y02351*
X16527Y02351*
X16527Y02351*
X16527Y02351*
D01*
X16527Y02351*
X16527Y02352*
X16527Y02352*
X16527Y02352*
X16527Y02352*
X16527Y02352*
X16527Y02352*
X16527Y02352*
X16527Y02352*
X16526Y02353*
X16526Y02353*
X16526Y02353*
X16526Y02353*
X16526Y02353*
X16526Y02353*
X16526Y02353*
X16526Y02353*
X16526Y02353*
X16525Y02353*
X16525Y02353*
X16525Y02353*
X16525Y02353*
X16525*
X16525Y02353*
X16525Y02353*
X16524Y02353*
X16524Y02353*
X16524Y02353*
X16524Y02353*
X16524Y02353*
X16524Y02353*
X16524Y02353*
X16524Y02353*
X16524Y02353*
X16523Y02353*
X16523Y02352*
X16523Y02352*
X16523Y02352*
X16523Y02352*
X16523Y02352*
X16523Y02352*
X16523Y02352*
X16523Y02352*
X16523Y02351*
X16523Y02351*
D01*
X16523Y02351*
X16523Y02351*
X16523Y02351*
X16523Y02351*
X16523Y02351*
X16523Y0235*
X16523Y0235*
X16523Y0235*
X16523Y0235*
X16523Y0235*
X16524Y0235*
X16524Y0235*
X16524Y0235*
X16524Y0235*
X16524Y0235*
X16524Y0235*
X16524Y02349*
X16524Y02349*
X16524Y02349*
X16525Y02349*
X16525Y02349*
X16525Y02349*
X16525*
X16525Y02349*
X16525Y02349*
X16525Y02349*
X16526Y02349*
X16526Y02349*
X16526Y0235*
X16526Y0235*
X16526Y0235*
X16526Y0235*
X16526Y0235*
X16526Y0235*
X16526Y0235*
X16527Y0235*
X16527Y0235*
X16527Y0235*
X16527Y0235*
X16527Y02351*
X16527Y02351*
X16527Y02351*
X16527Y02351*
X16527Y02351*
X16527Y02351*
X1678Y01175D02*
Y01416D01*
Y01175D02*
X17036D01*
Y01416*
X16558Y00484D02*
X16603D01*
X16617Y00367D02*
Y00483D01*
Y00367D02*
X16642D01*
Y00483*
X16617D02*
X16642D01*
X16802Y01032D02*
X16928D01*
Y00839D02*
Y01032D01*
X16802Y00839D02*
X16928D01*
X16802D02*
Y01032D01*
X16729Y01037D02*
X16788D01*
X16367Y00399D02*
X16512D01*
X16336Y00497D02*
X16512D01*
X17206Y00714D02*
X17245D01*
X17206Y00651D02*
X17245D01*
X1638Y00518D02*
Y00833D01*
Y00518D02*
X16695D01*
Y00833*
X1638D02*
X16695D01*
X16382Y01187D02*
X16693D01*
X16382Y01475D02*
X16693D01*
X16775Y00611D02*
X16803D01*
X16775Y00487D02*
Y00611D01*
Y00487D02*
X16803D01*
X17098Y00611D02*
X17127D01*
Y00487D02*
Y00611D01*
X17098Y00487D02*
X17127D01*
X16624Y02422D02*
Y02488D01*
X16551Y02422D02*
Y02488D01*
X17202Y00877D02*
X17245D01*
X17202Y00806D02*
X17245D01*
X17099Y01494D02*
X17294D01*
X17099Y01396D02*
X17305D01*
X17198Y01051D02*
Y01169D01*
X16362Y01138D02*
X16655D01*
X1646Y00878D02*
X16655D01*
X1689Y00727D02*
X16914D01*
X17199Y01206D02*
Y01324D01*
X17201Y00796D02*
X17244D01*
X17201Y00725D02*
X17244D01*
X17078Y00727D02*
X17101D01*
X17199Y00901D02*
Y01019D01*
G54D11*
X17038Y00668D02*
D01*
X17037Y00668*
X17037Y00668*
X17037Y00667*
X17037Y00667*
X17037Y00667*
X17037Y00667*
X17037Y00667*
X17036Y00667*
X17036Y00667*
X17036Y00667*
X17036Y00667*
X17036Y00667*
X17036Y00667*
X17036Y00667*
X17036Y00667*
X17036Y00666*
X17036Y00666*
X17036Y00666*
X17036Y00666*
X17036Y00666*
X17036Y00666*
X17036Y00666*
Y00666*
X17036Y00665*
X17036Y00665*
X17036Y00665*
X17036Y00665*
X17036Y00665*
X17036Y00665*
X17036Y00665*
X17036Y00664*
X17036Y00664*
X17036Y00664*
X17036Y00664*
X17036Y00664*
X17036Y00664*
X17036Y00664*
X17037Y00664*
X17037Y00664*
X17037Y00664*
X17037Y00664*
X17037Y00664*
X17037Y00664*
X17037Y00664*
X17038Y00664*
D01*
X17038Y00664*
X17038Y00664*
X17038Y00664*
X17038Y00664*
X17038Y00664*
X17038Y00664*
X17038Y00664*
X17039Y00664*
X17039Y00664*
X17039Y00664*
X17039Y00664*
X17039Y00664*
X17039Y00664*
X17039Y00664*
X17039Y00665*
X17039Y00665*
X17039Y00665*
X17039Y00665*
X17039Y00665*
X17039Y00665*
X17039Y00665*
X17039Y00666*
Y00666*
X17039Y00666*
X17039Y00666*
X17039Y00666*
X17039Y00666*
X17039Y00666*
X17039Y00666*
X17039Y00667*
X17039Y00667*
X17039Y00667*
X17039Y00667*
X17039Y00667*
X17039Y00667*
X17039Y00667*
X17039Y00667*
X17038Y00667*
X17038Y00667*
X17038Y00667*
X17038Y00667*
X17038Y00668*
X17038Y00668*
X17038Y00668*
X17038Y00668*
X16907Y02061D02*
X17005D01*
X16907D02*
X17005D01*
X16907Y02298D02*
X17005D01*
X16907D02*
X17005D01*
X16967Y00788D02*
X1702D01*
X16969Y00673D02*
X17018D01*
X17243Y0206D02*
X17341D01*
X17243D02*
X17341D01*
X17243Y02296D02*
X17341D01*
X17243D02*
X17341D01*
X16568Y0206D02*
X16667D01*
X16568D02*
X16667D01*
X16568Y02296D02*
X16667D01*
X16568D02*
X16667D01*
G54D12*
X16579Y02394D02*
D01*
X16579Y02394*
X16579Y02395*
X16579Y02395*
X16579Y02395*
X16579Y02396*
X16579Y02396*
X16578Y02396*
X16578Y02397*
X16578Y02397*
X16578Y02397*
X16578Y02397*
X16577Y02398*
X16577Y02398*
X16577Y02398*
X16576Y02398*
X16576Y02398*
X16576Y02399*
X16576Y02399*
X16575Y02399*
X16575Y02399*
X16575Y02399*
X16574Y02399*
X16574*
X16574Y02399*
X16573Y02399*
X16573Y02399*
X16573Y02399*
X16572Y02399*
X16572Y02398*
X16572Y02398*
X16571Y02398*
X16571Y02398*
X16571Y02398*
X1657Y02397*
X1657Y02397*
X1657Y02397*
X1657Y02397*
X1657Y02396*
X1657Y02396*
X16569Y02396*
X16569Y02395*
X16569Y02395*
X16569Y02395*
X16569Y02394*
X16569Y02394*
X16569Y02394*
X16569Y02393*
X16569Y02393*
X16569Y02393*
X16569Y02392*
X1657Y02392*
X1657Y02392*
X1657Y02391*
X1657Y02391*
X1657Y02391*
X1657Y02391*
X16571Y0239*
X16571Y0239*
X16571Y0239*
X16572Y0239*
X16572Y0239*
X16572Y02389*
X16573Y02389*
X16573Y02389*
X16573Y02389*
X16574Y02389*
X16574Y02389*
X16574*
X16575Y02389*
X16575Y02389*
X16575Y02389*
X16576Y02389*
X16576Y02389*
X16576Y0239*
X16576Y0239*
X16577Y0239*
X16577Y0239*
X16577Y0239*
X16578Y02391*
X16578Y02391*
X16578Y02391*
X16578Y02391*
X16578Y02392*
X16579Y02392*
X16579Y02392*
X16579Y02393*
X16579Y02393*
X16579Y02393*
X16579Y02394*
X16579Y02394*
G54D13*
X17543Y00065D02*
D01*
X17546Y00065*
X17549Y00065*
X17553Y00066*
X17556Y00066*
X1756Y00068*
X17563Y00069*
X17566Y0007*
X17569Y00072*
X17572Y00074*
X17575Y00076*
X17577Y00079*
X1758Y00081*
X17582Y00084*
X17584Y00087*
X17586Y0009*
X17587Y00093*
X17589Y00096*
X1759Y00099*
X17591Y00102*
X17592Y00106*
X17592Y00109*
X17592Y00113*
X17593Y00115*
X17593Y0259D02*
D01*
X17593Y02594*
X17592Y02597*
X17592Y02601*
X17591Y02604*
X1759Y02607*
X17588Y02611*
X17587Y02614*
X17585Y02617*
X17583Y0262*
X17581Y02622*
X17579Y02625*
X17576Y02627*
X17574Y0263*
X17571Y02632*
X17568Y02634*
X17565Y02635*
X17562Y02637*
X17558Y02638*
X17555Y02639*
X17552Y02639*
X17548Y0264*
X17545Y0264*
X17543Y0264*
X16352Y0264D02*
D01*
X16349Y0264*
X16345Y0264*
X16342Y02639*
X16338Y02638*
X16335Y02637*
X16332Y02636*
X16329Y02634*
X16326Y02632*
X16323Y02631*
X1632Y02628*
X16317Y02626*
X16315Y02624*
X16313Y02621*
X16311Y02618*
X16309Y02615*
X16307Y02612*
X16306Y02609*
X16305Y02606*
X16304Y02602*
X16303Y02599*
X16302Y02595*
X16302Y02592*
X16302Y0259*
X16302Y00114D02*
D01*
X16302Y00111*
X16302Y00107*
X16303Y00104*
X16304Y00101*
X16305Y00097*
X16306Y00094*
X16308Y00091*
X16309Y00088*
X16311Y00085*
X16313Y00082*
X16316Y0008*
X16318Y00077*
X16321Y00075*
X16324Y00073*
X16327Y00071*
X1633Y00069*
X16333Y00068*
X16336Y00067*
X1634Y00066*
X16343Y00065*
X16347Y00065*
X1635Y00064*
X16352Y00064*
X17593Y00115D02*
Y02591D01*
X16352Y02641D02*
X17546D01*
X16302Y00114D02*
Y0259D01*
X16345Y00065D02*
X17543D01*
M02*