%FSTAX23Y23*%
%MOIN*%
%SFA1B1*%

%IPPOS*%
%ADD13C,0.010000*%
%ADD14R,0.056970X0.091970*%
%ADD15R,0.225980X0.245280*%
%ADD16R,0.057090X0.111610*%
%ADD17R,0.047240X0.025590*%
%ADD18R,0.061020X0.027560*%
%ADD19R,0.046060X0.069690*%
%ADD20R,0.053150X0.072840*%
%ADD21R,0.039370X0.033470*%
%ADD22R,0.029530X0.025590*%
%ADD23R,0.029530X0.041340*%
%ADD24R,0.072840X0.297240*%
%ADD25R,0.122050X0.124020*%
%ADD26R,0.013780X0.036220*%
%ADD27R,0.015750X0.027560*%
%ADD28R,0.037400X0.066930*%
%ADD29R,0.090550X0.062990*%
%ADD30R,0.048420X0.140550*%
%ADD31R,0.031500X0.038980*%
%ADD32R,0.125980X0.072840*%
%ADD33R,0.041340X0.037400*%
%ADD34R,0.024020X0.022440*%
%ADD35R,0.022440X0.024020*%
%ADD36R,0.019680X0.019680*%
%ADD37R,0.019680X0.019680*%
%LNnas-craftsman_nixie_v1-1*%
%LPD*%
G54D13*
X17543Y00065D02*
D01*
X17546Y00065*
X17549Y00065*
X17553Y00066*
X17556Y00066*
X1756Y00068*
X17563Y00069*
X17566Y0007*
X17569Y00072*
X17572Y00074*
X17575Y00076*
X17577Y00079*
X1758Y00081*
X17582Y00084*
X17584Y00087*
X17586Y0009*
X17587Y00093*
X17589Y00096*
X1759Y00099*
X17591Y00102*
X17592Y00106*
X17592Y00109*
X17592Y00113*
X17593Y00115*
X17593Y0259D02*
D01*
X17593Y02594*
X17592Y02597*
X17592Y02601*
X17591Y02604*
X1759Y02607*
X17588Y02611*
X17587Y02614*
X17585Y02617*
X17583Y0262*
X17581Y02622*
X17579Y02625*
X17576Y02627*
X17574Y0263*
X17571Y02632*
X17568Y02634*
X17565Y02635*
X17562Y02637*
X17558Y02638*
X17555Y02639*
X17552Y02639*
X17548Y0264*
X17545Y0264*
X17543Y0264*
X16352Y0264D02*
D01*
X16349Y0264*
X16345Y0264*
X16342Y02639*
X16338Y02638*
X16335Y02637*
X16332Y02636*
X16329Y02634*
X16326Y02632*
X16323Y02631*
X1632Y02628*
X16317Y02626*
X16315Y02624*
X16313Y02621*
X16311Y02618*
X16309Y02615*
X16307Y02612*
X16306Y02609*
X16305Y02606*
X16304Y02602*
X16303Y02599*
X16302Y02595*
X16302Y02592*
X16302Y0259*
X16302Y00114D02*
D01*
X16302Y00111*
X16302Y00107*
X16303Y00104*
X16304Y00101*
X16305Y00097*
X16306Y00094*
X16308Y00091*
X16309Y00088*
X16311Y00085*
X16313Y00082*
X16316Y0008*
X16318Y00077*
X16321Y00075*
X16324Y00073*
X16327Y00071*
X1633Y00069*
X16333Y00068*
X16336Y00067*
X1634Y00066*
X16343Y00065*
X16347Y00065*
X1635Y00064*
X16352Y00064*
X17593Y00115D02*
Y02591D01*
X16352Y02641D02*
X17546D01*
X16302Y00114D02*
Y0259D01*
X16345Y00065D02*
X17543D01*
G54D14*
X16818Y01107D03*
X16998D03*
G54D15*
X16908Y0136D03*
G54D16*
X17045Y02085D03*
Y02274D03*
X16867Y02085D03*
Y02274D03*
X17381Y02083D03*
Y02273D03*
X17203Y02083D03*
Y02273D03*
X16706Y02083D03*
Y02273D03*
X16529Y02083D03*
Y02273D03*
G54D17*
X16679Y00462D03*
Y00387D03*
X1658D03*
Y00425D03*
Y00462D03*
G54D18*
X16758Y01011D03*
Y00961D03*
Y00911D03*
Y00861D03*
X16971D03*
Y00911D03*
Y00961D03*
Y01011D03*
G54D19*
X16521Y00448D03*
X16358D03*
G54D20*
X17164Y00682D03*
X17286D03*
G54D21*
X17168Y00552D03*
Y00603D03*
X17028Y00957D03*
Y01008D03*
G54D22*
X16955Y00693D03*
Y00768D03*
X17034D03*
G54D23*
X17034Y00701D03*
G54D24*
X16427Y00675D03*
X16648D03*
G54D25*
X16657Y01331D03*
X16417D03*
G54D26*
X16843Y00583D03*
X17059D03*
X16941D03*
X16961D03*
X16921D03*
X16902D03*
X1698D03*
X17D03*
X16843Y00515D03*
X17059D03*
X16941D03*
X16961D03*
X16921D03*
X16902D03*
X1698D03*
X17D03*
G54D27*
X16574Y02429D03*
Y02481D03*
X16602D03*
Y02429D03*
G54D28*
X17169Y00841D03*
X17279D03*
X17168Y00761D03*
X17278D03*
G54D29*
X17117Y01445D03*
X17275D03*
G54D30*
X17282Y0111D03*
X17115D03*
X17283Y01265D03*
X17116D03*
X17282Y0096D03*
X17115D03*
G54D31*
X16419Y0037D03*
X16364D03*
G54D32*
X16424Y01008D03*
X16625D03*
G54D33*
X16902Y00696D03*
Y00759D03*
X17089Y00696D03*
Y00759D03*
G54D34*
X16826Y00728D03*
X16856D03*
Y00691D03*
X16826D03*
X16495Y00341D03*
X16526D03*
G54D35*
X16729Y00471D03*
Y00441D03*
X16708Y0095D03*
Y00981D03*
X17032Y00863D03*
Y00893D03*
G54D36*
X16495Y00376D03*
X16526D03*
X16562Y00341D03*
X16593D03*
G54D37*
X16729Y00386D03*
Y00417D03*
X16708Y00895D03*
Y00864D03*
X1664Y02449D03*
Y0248D03*
X16532Y02451D03*
Y02482D03*
M02*