%FSTAX23Y23*%
%MOIN*%
%SFA1B1*%

%IPPOS*%
%ADD13C,0.010000*%
%ADD64C,0.006690*%
%ADD88C,0.011810*%
%ADD89C,0.006300*%
%ADD93C,0.035430*%
%ADD94C,0.023620*%
%ADD95C,0.039370*%
%ADD96C,0.009840*%
%LNnas-craftsman_nixie_v1-1*%
%LPD*%
G36*
X16722Y02504D02*
X16721Y02503D01*
X16721Y02502*
X1672Y02502*
X1672Y02501*
X16719Y025*
X16719Y02498*
X16719Y02497*
X16719Y02496*
X16719Y02495*
X16719Y02494*
X16707Y02505*
X16708Y02505*
X16709Y02505*
X1671Y02505*
X16712Y02505*
X16713Y02506*
X16714Y02506*
X16715Y02507*
X16716Y02507*
X16716Y02508*
X16717Y02509*
X16722Y02504*
G37*
G36*
X17065Y02458D02*
X17066Y02457D01*
X17067Y02456*
X17068Y02455*
X17069Y02455*
X1707Y02455*
X17071Y02454*
X17072Y02454*
X17073Y02454*
X17074Y02454*
Y02447*
X17073Y02447*
X17072Y02447*
X17071Y02447*
X1707Y02446*
X17069Y02446*
X17068Y02445*
X17067Y02445*
X17066Y02444*
X17065Y02443*
X17064Y02442*
Y02459*
X17065Y02458*
G37*
G36*
X16964Y02449D02*
X16964Y02448D01*
X16964Y02446*
X16965Y02445*
X16965Y02444*
X16965Y02443*
X16966Y02442*
X16966Y02441*
X16967Y0244*
X16968Y0244*
X16963Y02435*
X16962Y02436*
X16961Y02436*
X16961Y02437*
X1696Y02437*
X16959Y02438*
X16957Y02438*
X16956Y02438*
X16955Y02438*
X16954Y02439*
X16952Y02439*
X16964Y0245*
X16964Y02449*
G37*
G36*
X16872Y02448D02*
X16872Y02447D01*
X16872Y02446*
X16872Y02445*
X16873Y02444*
X16873Y02443*
X16874Y02442*
X16874Y02441*
X16875Y0244*
X16875Y02439*
X1687Y02435*
X1687Y02435*
X16869Y02436*
X16868Y02437*
X16867Y02437*
X16866Y02437*
X16865Y02438*
X16864Y02438*
X16863Y02438*
X16861Y02438*
X1686Y02439*
X16872Y0245*
X16872Y02448*
G37*
G36*
X17321Y02584D02*
Y02524D01*
X17321Y02421*
X17316Y02419*
X17288Y02447*
X17282Y02451*
X17274Y02453*
X17169*
X17167Y02458*
X17171Y02465*
X17173Y02473*
X17171Y02481*
X17167Y02488*
X1716Y02492*
X17152Y02494*
X17144Y02492*
X17137Y02488*
X17133Y02481*
X17132Y02476*
X17126Y02474*
X17115Y02486*
X17108Y0249*
X17101Y02492*
X17012*
X17011Y02493*
X17009Y02501*
X17005Y02508*
X16998Y02512*
X1699Y02514*
X16982Y02512*
X16975Y02508*
X1697Y02501*
X16969Y02493*
X16968Y02492*
X16934*
X16933Y02493*
X16931Y02501*
X16927Y02508*
X1692Y02512*
X16912Y02514*
X16904Y02512*
X16897Y02508*
X16893Y02502*
X16888Y02501*
X16859Y02529*
X16853Y02533*
X16846Y02535*
X16729*
X16721Y02533*
X16715Y02529*
X16707Y02521*
X16707Y02521*
X16706Y02521*
X16704Y0252*
X167Y0252*
X16693Y02517*
X16687Y02513*
X16683Y02507*
X1668Y025*
X16679Y02493*
X1668Y02486*
X16683Y02479*
X16687Y02473*
X16693Y02469*
X167Y02466*
X16702Y02466*
Y02208*
X16694Y02199*
X16691Y02201*
X16683Y02202*
X16675Y02201*
X16668Y02196*
X16664Y02189*
X16662Y02181*
X16664Y02173*
X16668Y02166*
X16675Y02162*
X16683Y0216*
X16684Y0216*
X16688Y02157*
Y0194*
X16683Y01936*
X16658*
X16657Y01936*
X16657Y01937*
X16651Y01941*
X16644Y01944*
X16637Y01945*
X1663Y01944*
X16623Y01941*
X16617Y01937*
X16613Y01931*
X1661Y01925*
X16609Y01917*
X1661Y0191*
X16613Y01904*
X16617Y01898*
X16623Y01893*
X1663Y01891*
X16637Y0189*
X16644Y01891*
X16651Y01893*
X16654Y01896*
X16655Y01896*
X16656Y01897*
X16656Y01897*
X16692*
X16696Y01898*
X16701Y01895*
Y0156*
X16663Y01521*
X16514*
X16488Y01547*
X16482Y01551*
X16474Y01553*
X16442*
X16434Y01551*
X16433Y0155*
X16429Y01553*
Y02011*
X16431Y02014*
X16432Y02014*
X16433Y02014*
X16439Y02015*
X16445Y02017*
X16451Y02022*
X16452Y02023*
X16453Y02022*
X16461Y0202*
X16469Y02022*
X16476Y02027*
X16481Y02033*
X16482Y02042*
X16481Y0205*
X16476Y02056*
X16469Y02061*
X16461Y02063*
X16453Y02061*
X16452Y0206*
X16451Y02061*
X16445Y02066*
X16439Y02068*
X16431Y02069*
X16424Y02068*
X16417Y02066*
X16412Y02061*
X16407Y02055*
X16405Y02049*
X16404Y02043*
X16403Y02042*
X16403Y02041*
X16395Y02033*
X16391Y02027*
X1639Y02019*
Y01407*
X16391Y014*
X16395Y01393*
X1641Y01378*
X16416Y01374*
X16424Y01373*
X16466*
X16473Y01374*
X16479Y01378*
X16488Y01387*
X16493Y01394*
X16494Y01401*
Y01423*
X16493Y0143*
X16488Y01437*
X16481Y01444*
X16481Y0145*
X16482Y01452*
X16657*
X1668Y01429*
Y01041*
X16625Y00986*
X16621Y0098*
X1662Y00973*
Y00864*
X16621Y00856*
X16625Y0085*
X16663Y00813*
Y00377*
X16663Y00376*
X16662Y00375*
X16658Y00371*
X16656Y00364*
X16655Y00357*
X16656Y00349*
X16658Y00343*
X16663Y00337*
X16669Y00333*
X16675Y0033*
X16682Y00329*
X1669Y0033*
X16696Y00333*
X16702Y00337*
X16707Y00343*
X16709Y00349*
X1671Y00357*
X16709Y00364*
X16707Y00371*
X16703Y00375*
X16702Y00376*
X16702Y00377*
Y00821*
X167Y00828*
X16696Y00834*
X16693Y00837*
X16694Y00842*
X16695Y00844*
X167Y00849*
X16703Y00856*
X16704Y00863*
X16703Y00871*
X167Y00877*
X16702Y00883*
X16739Y0092*
X16744Y00918*
Y00883*
X16745Y00875*
X1675Y00868*
X16795Y00823*
Y00763*
X16796Y00756*
X16799Y00751*
X16805Y00748*
X16811Y00747*
X16864*
X1687Y00748*
X16875Y00751*
X16879Y00756*
X1688Y00763*
Y0084*
X16879Y00846*
X16875Y00852*
X1687Y00855*
X16864Y00856*
X16824*
X16788Y00892*
Y02017*
X16835Y02064*
X1692Y02149*
X16925Y02156*
X16927Y02164*
Y02293*
X16925Y02301*
X1692Y02308*
X169Y02328*
X16903Y02332*
X16905Y02331*
X16913Y0233*
X16921Y02331*
X16928Y02336*
X16933Y02343*
X16934Y02351*
X16933Y02359*
X16928Y02366*
X16924Y02368*
X16926Y02373*
X16982*
X16983Y02368*
X1698Y02366*
X16975Y02359*
X16973Y02351*
X16975Y02343*
X1698Y02336*
X16986Y02331*
X16995Y0233*
X17003Y02331*
X17009Y02336*
X17014Y02343*
X17016Y02351*
X17014Y02359*
X17009Y02366*
X17006Y02368*
X17007Y02373*
X17063*
X17098Y02339*
Y02288*
X17096Y02286*
X17093Y02279*
X17092Y02272*
X17093Y02265*
X17096Y02258*
X171Y02252*
X17106Y02248*
X17113Y02245*
X1712Y02244*
X17127Y02245*
X17134Y02248*
X17139Y02252*
X17144Y02258*
X17147Y02265*
X17148Y02272*
X17147Y02279*
X17144Y02286*
X17142Y02288*
Y02348*
X1714Y02356*
X17135Y02363*
X1713Y02369*
X17132Y02374*
X17244*
X17253Y02364*
Y02296*
X1725Y02293*
X17242Y02292*
X17235Y02287*
X17231Y0228*
X17229Y02272*
X17231Y02264*
X17235Y02257*
X17242Y02253*
X1725Y02251*
X17253Y02249*
Y021*
X17171Y02018*
X17096*
X17096Y02018*
X17093Y02025*
X17089Y02031*
X17083Y02035*
X17076Y02038*
X17069Y02039*
X17062Y02038*
X1706Y02037*
X17056Y02041*
X17055Y02047*
X17051Y02054*
X1703Y02074*
X17024Y02078*
X17017Y02079*
X17016*
X17015Y02081*
X17014Y02085*
X17015Y02092*
X17014Y02098*
X17018Y02103*
X17073*
X17075Y021*
X1708Y02097*
X17086Y02096*
X17089*
X17095Y02097*
X171Y021*
X17103Y02105*
X17103Y02105*
X17105Y02107*
X17109Y02113*
X17111Y02121*
X17109Y02129*
X17105Y02135*
X17098Y02139*
X17091Y02141*
X17083Y02139*
X17082Y02139*
X1708Y02139*
X17078Y02139*
X17078Y02139*
X17077*
X17075Y02138*
X17073Y02137*
X17073Y02137*
X17073Y02136*
X17072Y02135*
X1707Y02133*
X16986*
X1698Y02132*
X16976Y02129*
X16929Y02082*
X16925Y02077*
X16924Y02071*
Y02058*
X16919Y02055*
X16913Y02056*
X16905Y02054*
X16899Y0205*
X16894Y02043*
X16892Y02035*
X16894Y02027*
X16899Y0202*
X16905Y02016*
X16913Y02014*
X16919Y02015*
X16924Y02012*
Y01874*
X16925Y01868*
X16929Y01863*
X16953Y01838*
Y00896*
Y00854*
X16952Y00849*
X16943Y00847*
X16935Y00842*
X1693Y00835*
X16928Y00826*
X1693Y00817*
X1693Y00815*
X16928Y00815*
X16921Y0081*
X16916Y00802*
X16914Y00793*
X16916Y00784*
X16921Y00776*
X16928Y00771*
X16936Y0077*
X16938Y00765*
X16938Y00765*
X16934Y0076*
X16931Y00755*
X1693Y00753*
X16928Y00751*
X16924Y00745*
X16922Y00737*
X16924Y0073*
X16928Y00723*
X16935Y00719*
X16942Y00717*
X1695Y00719*
X16956Y00723*
X16958Y00723*
X1696*
X16962Y00723*
X16968Y00719*
X16976Y00717*
X16983Y00719*
X1699Y00723*
X16994Y0073*
X16995Y00734*
X16995Y00734*
X16996Y00735*
X16998Y00737*
X16998Y00737*
X16998Y00738*
X16998Y0074*
X16999Y00742*
X16999Y00742*
X16999Y00742*
X16998Y00744*
X16998Y00745*
X17001Y00748*
X17005Y00753*
X17006Y00759*
Y01854*
X17005Y01859*
X17001Y01864*
X16988Y01877*
X1699Y01883*
X16993Y01885*
X16999Y01889*
X17003Y01895*
X17006Y01902*
X17007Y01909*
X17006Y01916*
X17003Y01923*
X16999Y01929*
X16995Y01931*
Y01974*
X17005Y01983*
X17005Y01983*
X17007Y01983*
X17014Y01984*
X17021Y01987*
X17026Y01991*
X17045Y01972*
X17052Y01967*
X17059Y01966*
X17168*
Y01931*
X17168Y0193*
X17167Y0193*
X17166Y01928*
X17164Y01925*
X17161Y01919*
X17156Y01919*
X17156Y01919*
X17152Y01926*
X17145Y01931*
X17137Y01932*
X17129Y01931*
X17122Y01926*
X17117Y01919*
X17116Y01911*
X17117Y01903*
X17122Y01896*
X17129Y01892*
X17137Y0189*
X17145Y01892*
X17152Y01896*
X17156Y01903*
X17156Y01904*
X17161Y01904*
X17164Y01897*
X17166Y01895*
X17167Y01893*
X17168Y01892*
X17168Y01892*
Y01815*
X17166Y01814*
X17166Y01814*
X17165Y01813*
X17159Y01813*
X17152Y0181*
X17146Y01806*
X17142Y018*
X17139Y01793*
X17138Y01786*
X17139Y01779*
X17142Y01772*
X17146Y01766*
X17152Y01762*
X17159Y01759*
X17166Y01758*
X17173Y01759*
X1718Y01762*
X17186Y01766*
X1719Y01772*
X17193Y01779*
X17194Y01785*
X17194Y01786*
X17194Y01786*
X17201Y01794*
X17206Y018*
X17207Y01807*
Y01891*
X17207Y01891*
X17208Y01892*
X17212Y01897*
X17215Y01904*
X17216Y01911*
X17215Y01919*
X17212Y01925*
X17208Y01931*
X17207Y01931*
X17207Y01932*
Y01961*
X17239Y01993*
X17293*
X17301Y01995*
X17307Y01999*
X17315Y02006*
X17319Y02004*
X17318Y01665*
X17185Y01532*
Y00798*
X17089Y00702*
X17086*
X17082Y00703*
X17082*
X16819*
X16813Y00702*
X16808Y00698*
X16774Y00664*
X1677Y00658*
X16769Y00652*
Y0061*
X16769Y00608*
X16769Y00607*
X16768Y00305*
X16717Y00267*
X16347*
X16317Y00297*
X16317Y02319*
X16317*
Y02411*
X16317Y02416*
X16319Y02424*
X16322Y02432*
X16327Y0244*
X16334Y02446*
X16341Y02451*
X16349Y02454*
X16358Y02456*
X16362Y02456*
X16422*
X16435Y02459*
X16448Y02464*
X1646Y02472*
X1647Y02482*
X16478Y02494*
X16483Y02507*
X16486Y0252*
Y02527*
Y02566*
X16486Y02572*
X16488Y02584*
X16493Y02594*
X16499Y02604*
X16507Y02612*
X16517Y02619*
X16528Y02623*
X16539Y02625*
X16545Y02626*
Y02626*
X17279*
X17321Y02584*
G37*
G36*
X16769Y02435D02*
X16771Y02435D01*
Y02423*
X1677Y02423*
X16769Y02423*
Y02416*
X1676*
X1676Y02415*
X1676Y02414*
X16759Y02412*
X16748Y02412*
X16748Y02414*
X16747Y02416*
X16747Y02416*
X16741*
Y02462*
X16755Y02476*
X16769*
Y02435*
G37*
G36*
X17126Y02288D02*
X17126Y02286D01*
X17126Y02284*
X17126Y02284*
X17127Y02283*
X17127Y02282*
X17127Y02281*
X17128Y02281*
X17128Y0228*
X17112*
X17112Y02281*
X17112Y02281*
X17113Y02282*
X17113Y02283*
X17113Y02284*
X17114Y02284*
X17114Y02286*
X17114Y02287*
X17114Y02289*
X17126*
X17126Y02288*
G37*
G36*
X17085Y02111D02*
X17083Y02112D01*
X1708Y02113*
X17078Y02114*
X17076Y02114*
X17075Y02115*
X17074Y02115*
X17073Y02115*
X17072Y02121*
X17073Y02121*
X17074Y02121*
X17075Y02122*
X17076Y02122*
X17077Y02123*
X17077Y02123*
X17078Y02124*
X17079Y02125*
X1708Y02126*
X1708Y02127*
X17085Y02111*
G37*
G36*
X16803Y02127D02*
Y02094D01*
X1679Y02081*
X16761*
X16761Y0208*
X1676Y0208*
X16759Y0208*
X16758Y02079*
X16757Y02078*
X16756Y02078*
X16755Y02077*
X16752Y02081*
X16751*
Y02081*
X16748Y02084*
X16749Y02085*
X1675Y02086*
X16751Y02086*
X16751Y02087*
X16751Y02088*
Y02127*
X16803*
G37*
G36*
X17005Y02067D02*
X17006Y02066D01*
X17007Y02066*
X17008Y02065*
X17009Y02064*
X1701Y02064*
X17011Y02064*
X17012Y02063*
X17013Y02063*
X17014Y02063*
Y02057*
X17013Y02056*
X17012Y02056*
X17011Y02056*
X1701Y02056*
X17009Y02055*
X17008Y02055*
X17007Y02054*
X17006Y02053*
X17005Y02053*
X17004Y02052*
Y02068*
X17005Y02067*
G37*
G36*
X17296Y0205D02*
X17296Y02049D01*
X17295Y02048*
X17295Y02047*
X17294Y02046*
X17294Y02045*
X17293Y02044*
X17293Y02043*
X17293Y02042*
X17293Y0204*
X17293Y02039*
X17281Y02051*
X17283Y02051*
X17284Y02051*
X17285Y02051*
X17286Y02051*
X17287Y02052*
X17288Y02052*
X17289Y02053*
X1729Y02053*
X17291Y02054*
X17292Y02054*
X17296Y0205*
G37*
G36*
X16431Y0203D02*
X1643Y0203D01*
X16429Y0203*
X16427Y02029*
X16426Y02029*
X16425Y02029*
X16424Y02028*
X16423Y02028*
X16422Y02027*
X16421Y02027*
X16421Y02026*
X16416Y02031*
X16417Y02032*
X16417Y02032*
X16418Y02033*
X16418Y02034*
X16419Y02035*
X16419Y02036*
X16419Y02038*
X16419Y02039*
X1642Y0204*
X1642Y02041*
X16431Y0203*
G37*
G36*
X17005Y01999D02*
X17004Y01999D01*
X17003Y02*
X17001Y01999*
X17Y01999*
X16999Y01999*
X16998Y01999*
X16997Y01998*
X16996Y01998*
X16996Y01997*
X16995Y01996*
X16991Y02002*
X16991Y02003*
X16992Y02003*
X16993Y02004*
X16993Y02005*
X16994Y02006*
X16994Y02007*
X16994Y02008*
X16995Y0201*
X16995Y02012*
X17005Y01999*
G37*
G36*
X17081Y02008D02*
X17081Y02007D01*
X17081Y02007*
X17081Y02006*
X17081Y02005*
X17082Y02004*
X17082Y02003*
X17083Y02003*
X17083Y02002*
X17084Y02001*
X17079Y01996*
X17079Y01997*
X17078Y01998*
X17077Y01998*
X17076Y01999*
X17075Y01999*
X17075Y01999*
X17074Y02*
X17073Y02*
X17072Y02*
X17071Y01999*
X17081Y02009*
X17081Y02008*
G37*
G36*
X17191Y01929D02*
X17191Y01928D01*
X17191Y01927*
X17192Y01926*
X17192Y01925*
X17193Y01924*
X17193Y01923*
X17194Y01922*
X17195Y01921*
X17196Y0192*
X17179Y01919*
X1718Y0192*
X17181Y01921*
X17182Y01922*
X17183Y01923*
X17183Y01924*
X17183Y01925*
X17184Y01926*
X17184Y01927*
X17184Y01928*
X17184Y01929*
X17191Y0193*
X17191Y01929*
G37*
G36*
X16647Y01924D02*
X16648Y01923D01*
X16649Y01922*
X1665Y01922*
X16651Y01921*
X16652Y01921*
X16653Y0192*
X16654Y0192*
X16655Y0192*
X16656Y0192*
X16655Y01913*
X16654Y01913*
X16653Y01913*
X16652Y01913*
X16651Y01913*
X1665Y01912*
X16649Y01912*
X16648Y01911*
X16647Y0191*
X16646Y0191*
X16645Y01909*
X16646Y01925*
X16647Y01924*
G37*
G36*
X17196Y01902D02*
X17195Y01901D01*
X17194Y01901*
X17193Y019*
X17193Y01899*
X17192Y01898*
X17192Y01897*
X17191Y01896*
X17191Y01895*
X17191Y01894*
X17191Y01893*
X17184Y01893*
X17184Y01894*
X17184Y01895*
X17184Y01896*
X17183Y01897*
X17183Y01898*
X17183Y01899*
X17182Y019*
X17181Y01901*
X1718Y01902*
X17179Y01903*
X17196Y01902*
G37*
G36*
X17181Y01797D02*
X17181Y01796D01*
X1718Y01795*
X1718Y01794*
X17179Y01793*
X17179Y01792*
X17178Y01791*
X17178Y0179*
X17178Y01789*
X17178Y01787*
X17178Y01786*
X17166Y01798*
X17167Y01798*
X17169Y01798*
X1717Y01798*
X17171Y01798*
X17172Y01799*
X17173Y01799*
X17174Y01799*
X17175Y018*
X17176Y01801*
X17177Y01801*
X17181Y01797*
G37*
G36*
X16462Y01501D02*
X16463Y01499D01*
X16463Y01498*
X16463Y01497*
X16464Y01496*
X16464Y01495*
X16465Y01494*
X16466Y01493*
X16466Y01492*
X16462Y01487*
X16461Y01488*
X1646Y01488*
X16459Y01489*
X16458Y01489*
X16457Y0149*
X16456Y0149*
X16455Y0149*
X16454Y0149*
X16453Y0149*
X16451Y0149*
X16462Y01503*
X16462Y01501*
G37*
G36*
X1646Y01478D02*
X16461Y01477D01*
X16462Y01477*
X16463Y01476*
X16464Y01476*
X16465Y01475*
X16466Y01475*
X16467Y01475*
X16468Y01474*
X16469Y01474*
Y01468*
X16468Y01468*
X16467Y01467*
X16466Y01467*
X16465Y01467*
X16464Y01466*
X16463Y01466*
X16462Y01465*
X16461Y01464*
X1646Y01464*
X16459Y01463*
Y01479*
X1646Y01478*
G37*
G36*
X16662Y00875D02*
X16663Y00874D01*
X16664Y00873*
X16665Y00873*
X16666Y00873*
X16667Y00873*
X16667Y00873*
X16668Y00873*
X16669Y00873*
X1667Y00874*
X16665Y00858*
X16664Y0086*
X16662Y00863*
X16662Y00865*
X1666Y00867*
X16659Y00868*
X16657Y0087*
X16661Y00875*
X16662Y00875*
G37*
G36*
X16816Y00841D02*
X16817Y0084D01*
X16864*
Y00763*
X16811*
Y00829*
X16811Y00829*
X1681Y0083*
X1681Y0083*
X16809Y00831*
X16809Y00832*
X16807Y00834*
X16811Y00838*
Y0084*
X16811Y0084*
X16814*
X16816Y00842*
X16816Y00841*
G37*
G36*
X16988Y00752D02*
X16987Y00751D01*
X16987Y0075*
X16986Y00749*
X16986Y00748*
X16986Y00747*
X16986Y00746*
X16986Y00745*
X16986Y00744*
X16986Y00743*
X16987Y00742*
X16971Y00748*
X16973Y00749*
X16978Y00751*
X16979Y00752*
X1698Y00753*
X16981Y00754*
X16982Y00754*
X16988Y00752*
G37*
G36*
X17121Y00648D02*
Y0061D01*
X17116Y00606*
X17111Y00607*
X17102Y00606*
X17098Y00603*
X17094Y00606*
X17086Y00607*
X17078Y00606*
X17071Y00601*
X17067Y00594*
X17065Y00586*
X17067Y00578*
X17071Y00571*
X17075Y00569*
X17076Y00562*
X17076Y00562*
X17073Y00556*
X17072Y00549*
X17073Y00542*
X17076Y00536*
X17077Y00535*
X17075Y00528*
X17072Y00526*
X17067Y00519*
X17065Y00511*
X17067Y00503*
X17072Y00496*
X17078Y00492*
X17087Y0049*
X17095Y00492*
X17099Y00494*
X17103Y00492*
X17111Y0049*
X17116Y00491*
X17121Y00487*
Y0046*
X17084Y00424*
X16818*
X16785Y00457*
Y00493*
X16789Y00495*
X16791Y00495*
X16799Y00493*
X16807Y00495*
X16811Y00497*
X16815Y00495*
X16823Y00493*
X16831Y00495*
X16838Y00499*
X16842Y00506*
X16844Y00514*
X16842Y00522*
X16838Y00529*
X16831Y00533*
X1683Y00534*
X16827Y00539*
X16828Y00542*
X16829Y00549*
X16828Y00556*
X16826Y00561*
X16828Y00566*
X16828Y00567*
X16835Y00572*
X1684Y00578*
X16841Y00586*
X1684Y00595*
X16835Y00601*
X16828Y00606*
X1682Y00608*
X16812Y00606*
X16808Y00603*
X16804Y00606*
X16796Y00608*
X1679Y00606*
X16785Y0061*
Y00652*
X16819Y00687*
X17082*
X17121Y00648*
G37*
G36*
X16686Y00374D02*
X16686Y00373D01*
X16686Y00372*
X16687Y00371*
X16687Y0037*
X16688Y00369*
X16688Y00368*
X16689Y00367*
X1669Y00366*
X16691Y00365*
X16674*
X16675Y00366*
X16676Y00367*
X16677Y00368*
X16677Y00369*
X16678Y0037*
X16678Y00371*
X16679Y00372*
X16679Y00373*
X16679Y00374*
X16679Y00375*
X16686*
X16686Y00374*
G37*
%LNnas-craftsman_nixie_v1-2*%
%LPC*%
G36*
X16602Y02528D02*
X16594Y02527D01*
X16587Y02522*
X16581Y02526*
X16573Y02528*
X16565Y02526*
X16558Y02522*
X16554Y02515*
X16552Y02507*
X16554Y02499*
X16558Y02492*
X16565Y02488*
X16573Y02486*
X16581Y02488*
X16588Y02492*
X16594Y02488*
X16602Y02486*
X1661Y02488*
X16616Y02492*
X16617Y02492*
X16622Y02491*
X16625Y02487*
X16632Y02482*
X1664Y02481*
X16648Y02482*
X16655Y02487*
X16659Y02494*
X16661Y02502*
X16659Y0251*
X16655Y02517*
X16648Y02521*
X1664Y02523*
X16632Y02521*
X16626Y02517*
X16625Y02517*
X1662Y02518*
X16617Y02522*
X1661Y02527*
X16602Y02528*
G37*
G36*
X16519Y02523D02*
X16511Y02521D01*
X16504Y02517*
X165Y0251*
X16498Y02502*
X165Y02494*
X16504Y02487*
X16511Y02482*
X16519Y02481*
X16527Y02482*
X16534Y02487*
X16539Y02494*
X1654Y02502*
X16539Y0251*
X16534Y02517*
X16527Y02521*
X16519Y02523*
G37*
G36*
X16584Y02396D02*
X16576Y02394D01*
X16569Y02389*
X16564Y02383*
X16563Y02375*
X16564Y02366*
X16569Y0236*
X16576Y02355*
X16584Y02353*
X16592Y02355*
X16599Y0236*
X16603Y02366*
X16605Y02375*
X16603Y02383*
X16599Y02389*
X16592Y02394*
X16584Y02396*
G37*
G36*
X17133Y02221D02*
X17125Y0222D01*
X1712Y02216*
X17115Y0222*
X17107Y02221*
X17099Y0222*
X17092Y02215*
X17088Y02208*
X17086Y022*
X17088Y02192*
X17092Y02185*
X17099Y02181*
X17107Y02179*
X17115Y02181*
X1712Y02184*
X17125Y02181*
X17133Y02179*
X17141Y02181*
X17148Y02185*
X17153Y02192*
X17154Y022*
X17153Y02208*
X17148Y02215*
X17141Y0222*
X17133Y02221*
G37*
G36*
X16584Y02202D02*
X16576Y02201D01*
X16569Y02196*
X16564Y02189*
X16563Y02181*
X16564Y02173*
X16569Y02166*
X16576Y02162*
X16584Y0216*
X16592Y02162*
X16599Y02166*
X16603Y02173*
X16605Y02181*
X16603Y02189*
X16599Y02196*
X16592Y02201*
X16584Y02202*
G37*
G36*
X16483D02*
X16475Y02201D01*
X16468Y02196*
X16463Y02189*
X16462Y02181*
X16463Y02173*
X16468Y02166*
X16475Y02162*
X16483Y0216*
X16491Y02162*
X16498Y02166*
X16502Y02173*
X16504Y02181*
X16502Y02189*
X16498Y02196*
X16491Y02201*
X16483Y02202*
G37*
G36*
X16617Y02061D02*
X16609Y02059D01*
X16602Y02055*
X16597Y02048*
X16596Y0204*
X16597Y02032*
X16602Y02025*
X16609Y0202*
X16617Y02019*
X16625Y0202*
X16632Y02025*
X16636Y02032*
X16638Y0204*
X16636Y02048*
X16632Y02055*
X16625Y02059*
X16617Y02061*
G37*
G36*
X16539Y01938D02*
X16531Y01937D01*
X16524Y01932*
X16519Y01925*
X16518Y01917*
X16519Y01909*
X16524Y01903*
X16531Y01898*
X16539Y01896*
X16547Y01898*
X16554Y01903*
X16558Y01909*
X1656Y01917*
X16558Y01925*
X16554Y01932*
X16547Y01937*
X16539Y01938*
G37*
G36*
X17087Y01932D02*
X17079Y01931D01*
X17072Y01926*
X17067Y01919*
X17066Y01911*
X17067Y01903*
X17072Y01896*
X17079Y01892*
X17087Y0189*
X17095Y01892*
X17102Y01896*
X17106Y01903*
X17108Y01911*
X17106Y01919*
X17102Y01926*
X17095Y01931*
X17087Y01932*
G37*
G36*
X17245Y01785D02*
X17236Y01784D01*
X17232Y0178*
X17227Y01784*
X17219Y01785*
X17211Y01784*
X17204Y01779*
X17199Y01772*
X17198Y01764*
X17199Y01756*
X17202Y01753*
X17199Y01749*
X17198Y01741*
X17199Y01733*
X17204Y01726*
X17211Y01722*
X17219Y0172*
X17227Y01722*
X17232Y01725*
X17236Y01722*
X17245Y0172*
X17253Y01722*
X17259Y01726*
X17264Y01733*
X17266Y01741*
X17264Y01749*
X17262Y01753*
X17264Y01756*
X17266Y01764*
X17264Y01772*
X17259Y01779*
X17253Y01784*
X17245Y01785*
G37*
G36*
X16967Y00635D02*
X16961Y00634D01*
X16955Y0063*
X16955Y00629*
X1695*
X16949Y0063*
X16944Y00634*
X16937Y00635*
X1693Y00634*
X16925Y0063*
X16921Y00624*
X1692Y00618*
X16921Y00611*
X16925Y00606*
X1693Y00602*
X16937Y00601*
X16944Y00602*
X16949Y00606*
X1695Y00607*
X16955*
X16955Y00606*
X16961Y00602*
X16967Y00601*
X16974Y00602*
X16979Y00606*
X16983Y00611*
X16984Y00618*
X16983Y00624*
X16979Y0063*
X16974Y00634*
X16967Y00635*
G37*
G36*
X1705Y00662D02*
X1704D01*
X17033Y00661*
X17026Y00658*
X17021Y00653*
X17016Y00648*
X17014Y00641*
X17013Y00634*
X17014Y00627*
X17016Y0062*
X17021Y00614*
X17026Y0061*
X17033Y00607*
X1704Y00606*
X1705*
X17057Y00607*
X17064Y0061*
X1707Y00614*
X17074Y0062*
X17077Y00627*
X17078Y00634*
X17077Y00641*
X17074Y00648*
X1707Y00653*
X17064Y00658*
X17057Y00661*
X1705Y00662*
G37*
G36*
X16861D02*
X16851D01*
X16844Y00661*
X16837Y00658*
X16832Y00653*
X16827Y00648*
X16825Y00641*
X16824Y00634*
X16825Y00627*
X16827Y0062*
X16832Y00614*
X16837Y0061*
X16844Y00607*
X16851Y00606*
X16861*
X16868Y00607*
X16875Y0061*
X16881Y00614*
X16885Y0062*
X16888Y00627*
X16889Y00634*
X16888Y00641*
X16885Y00648*
X16881Y00653*
X16875Y00658*
X16868Y00661*
X16861Y00662*
G37*
G36*
X16937Y00496D02*
X1693Y00495D01*
X16925Y00491*
X16921Y00486*
X1692Y00479*
X16921Y00472*
X16925Y00467*
X1693Y00463*
X16937Y00462*
X16943Y00463*
X16949Y00467*
X16953Y00472*
X16954Y00479*
X16953Y00486*
X16949Y00491*
X16943Y00495*
X16937Y00496*
G37*
G36*
X1705Y00492D02*
X1704D01*
X17033Y00491*
X17026Y00489*
X17021Y00484*
X17016Y00478*
X17014Y00472*
X17013Y00464*
X17014Y00457*
X17016Y00451*
X17021Y00445*
X17026Y0044*
X17033Y00438*
X1704Y00437*
X1705*
X17057Y00438*
X17064Y0044*
X1707Y00445*
X17074Y00451*
X17077Y00457*
X17078Y00464*
X17077Y00472*
X17074Y00478*
X1707Y00484*
X17064Y00489*
X17057Y00491*
X1705Y00492*
G37*
G36*
X16861D02*
X16851D01*
X16844Y00491*
X16837Y00489*
X16832Y00484*
X16827Y00478*
X16825Y00472*
X16824Y00464*
X16825Y00457*
X16827Y00451*
X16832Y00445*
X16837Y0044*
X16844Y00438*
X16851Y00437*
X16861*
X16868Y00438*
X16875Y0044*
X16881Y00445*
X16885Y00451*
X16888Y00457*
X16889Y00464*
X16888Y00472*
X16885Y00478*
X16881Y00484*
X16875Y00489*
X16868Y00491*
X16861Y00492*
G37*
%LNnas-craftsman_nixie_v1-3*%
%LPD*%
G54D13*
X16674Y00891D02*
X16681Y00898D01*
X16687D02*
X16742Y00953D01*
Y0207D02*
X16765Y02093D01*
X16742Y00953D02*
Y0207D01*
X16681Y00898D02*
X16687D01*
X17543Y00065D02*
D01*
X17546Y00065*
X17549Y00065*
X17553Y00066*
X17556Y00066*
X1756Y00068*
X17563Y00069*
X17566Y0007*
X17569Y00072*
X17572Y00074*
X17575Y00076*
X17577Y00079*
X1758Y00081*
X17582Y00084*
X17584Y00087*
X17586Y0009*
X17587Y00093*
X17589Y00096*
X1759Y00099*
X17591Y00102*
X17592Y00106*
X17592Y00109*
X17592Y00113*
X17593Y00115*
X17593Y0259D02*
D01*
X17593Y02594*
X17592Y02597*
X17592Y02601*
X17591Y02604*
X1759Y02607*
X17588Y02611*
X17587Y02614*
X17585Y02617*
X17583Y0262*
X17581Y02622*
X17579Y02625*
X17576Y02627*
X17574Y0263*
X17571Y02632*
X17568Y02634*
X17565Y02635*
X17562Y02637*
X17558Y02638*
X17555Y02639*
X17552Y02639*
X17548Y0264*
X17545Y0264*
X17543Y0264*
X16352Y0264D02*
D01*
X16349Y0264*
X16345Y0264*
X16342Y02639*
X16338Y02638*
X16335Y02637*
X16332Y02636*
X16329Y02634*
X16326Y02632*
X16323Y02631*
X1632Y02628*
X16317Y02626*
X16315Y02624*
X16313Y02621*
X16311Y02618*
X16309Y02615*
X16307Y02612*
X16306Y02609*
X16305Y02606*
X16304Y02602*
X16303Y02599*
X16302Y02595*
X16302Y02592*
X16302Y0259*
X16302Y00114D02*
D01*
X16302Y00111*
X16302Y00107*
X16303Y00104*
X16304Y00101*
X16305Y00097*
X16306Y00094*
X16308Y00091*
X16309Y00088*
X16311Y00085*
X16313Y00082*
X16316Y0008*
X16318Y00077*
X16321Y00075*
X16324Y00073*
X16327Y00071*
X1633Y00069*
X16333Y00068*
X16336Y00067*
X1634Y00066*
X16343Y00065*
X16347Y00065*
X1635Y00064*
X16352Y00064*
X17593Y00115D02*
Y02591D01*
X16352Y02641D02*
X17546D01*
X16302Y00114D02*
Y0259D01*
X16345Y00065D02*
X17543D01*
G54D64*
X16721Y02178D02*
X16735Y02193D01*
X16867*
X16867Y02193*
X16876D02*
X16879Y02196D01*
X16867Y02193D02*
X16876D01*
X16722Y02199D02*
Y0247D01*
X16748Y02496D02*
X16821D01*
X16722Y0247D02*
X16748Y02496D01*
X16707Y02185D02*
X16722Y02199D01*
X16721Y01552D02*
Y02178D01*
X16707Y01932D02*
Y02185D01*
X16729Y02515D02*
X16846D01*
X16707Y02494D02*
X16729Y02515D01*
X16846D02*
X16889Y02472D01*
X17101D02*
X1714Y02433D01*
X16889Y02472D02*
X17101D01*
X1714Y02433D02*
X17274D01*
X17313Y02395*
X17116Y02439D02*
X17134Y0242D01*
X17269D02*
X173Y02389D01*
X17134Y0242D02*
X17269D01*
X1711Y02425D02*
X17128Y02407D01*
X17257*
X17286Y02378*
X17105Y02411D02*
X17123Y02393D01*
X17252D02*
X17273Y02372D01*
X17123Y02393D02*
X17252D01*
X16821Y02496D02*
X16821Y02496D01*
X1683*
X16833Y02493*
X17293Y02013D02*
X17313Y02032D01*
X17188Y01969D02*
X17231Y02013D01*
X17293*
X17188Y0192D02*
Y01969D01*
X17313Y02032D02*
Y02395D01*
X17056Y0245D02*
X17104D01*
X17116Y02439D02*
X17116D01*
X17104Y0245D02*
X17116Y02439D01*
X16952Y0245D02*
X16978Y02425D01*
X1711*
X16863Y02447D02*
X16899Y02411D01*
X17105*
X17273Y02092D02*
Y02372D01*
X17286Y02087D02*
Y02378D01*
X173Y02058D02*
Y02389D01*
X17281Y02039D02*
X173Y02058D01*
X17179Y01999D02*
X17273Y02092D01*
X17082Y01999D02*
X17179D01*
X17069Y02011D02*
X17082Y01999D01*
X17185Y01985D02*
X17286Y02087D01*
X17059Y01985D02*
X17185D01*
X16639Y00864D02*
X16682Y00821D01*
Y00357D02*
Y00821D01*
X16639Y00864D02*
Y00973D01*
X167Y01033*
X16653Y00966D02*
X16713Y01026D01*
X16653Y00879D02*
Y00966D01*
X16665Y00867D02*
X16668D01*
X16675Y00859*
Y00859D02*
Y00859D01*
X16653Y00879D02*
X16665Y00867D01*
X16409Y02019D02*
X16431Y02042D01*
X16409Y01407D02*
X16424Y01392D01*
X16409Y01407D02*
Y02019D01*
X16475Y01401D02*
Y01423D01*
X16424Y01392D02*
X16466D01*
X16475Y01401*
X1645Y01444D02*
X16453D01*
X16475Y01423*
X16671Y01502D02*
X16721Y01552D01*
X16506Y01502D02*
X16671D01*
X16474Y01533D02*
X16506Y01502D01*
X16442Y01533D02*
X16474D01*
X16422Y01514D02*
X16442Y01533D01*
X16447Y01416D02*
X1645D01*
X16422Y01441D02*
X16447Y01416D01*
X16422Y01441D02*
Y01514D01*
X167Y01033D02*
Y01437D01*
X16665Y01471D02*
X167Y01437D01*
X16452Y01471D02*
X16665D01*
X16667Y01489D02*
X16713Y01442D01*
X16452Y01502D02*
X16465Y01489D01*
X16667*
X16713Y01026D02*
Y01442D01*
X16692Y01917D02*
X16707Y01932D01*
X1664Y01917D02*
X16692D01*
X17037Y02008D02*
X17059Y01985D01*
X17037Y02008D02*
Y0204D01*
X17017Y0206D02*
X17037Y0204D01*
X16995Y0206D02*
X17017D01*
X16976Y01982D02*
X17002Y02008D01*
X16976Y01921D02*
Y01982D01*
X17002Y02008D02*
X17007D01*
X16976Y01916D02*
X16976Y01916D01*
Y01921*
X16976Y01921D02*
X16976Y01921D01*
X17188Y0192D02*
X1719Y01918D01*
Y01918D02*
Y01918D01*
X1719Y01917D02*
X1719Y01918D01*
X1719Y01917D02*
X1719Y01917D01*
Y01917D02*
Y01917D01*
X17188Y01914D02*
X1719Y01917D01*
X17166Y01786D02*
X17188Y01807D01*
Y01914*
G54D88*
X16905Y02164D02*
Y02293D01*
X16819Y02079D02*
X16905Y02164D01*
X1688Y02317D02*
X16905Y02293D01*
X16819Y02079D02*
D01*
X16766Y02026D02*
X16819Y02079D01*
X16766Y00883D02*
Y02026D01*
X16754Y02429D02*
X16834D01*
X16869Y02395D02*
X17073D01*
X16834Y02429D02*
X16869Y02395D01*
X16754Y02429D02*
X16754Y02429D01*
X16754Y02337D02*
Y02429D01*
X16773Y02317D02*
X1688D01*
X16754Y02337D02*
X16773Y02317D01*
X17073Y02395D02*
X1712Y02348D01*
Y02272D02*
Y02348D01*
X16766Y00883D02*
X16823Y00826D01*
Y00826D02*
Y00826D01*
G54D89*
X1696Y00834D02*
D01*
X16961Y00834*
X16962Y00834*
X16962Y00834*
X16963Y00834*
X16963Y00834*
X16964Y00834*
X16964Y00835*
X16965Y00835*
X16965Y00835*
X16966Y00836*
X16966Y00836*
X16967Y00836*
X16967Y00837*
X16967Y00837*
X16968Y00838*
X16968Y00838*
X16968Y00839*
X16968Y00839*
X16968Y0084*
X16969Y0084*
X16969Y00841*
X16969Y00842*
X16969Y00842*
X16952Y00834D02*
D01*
X16951Y00834*
X16951Y00834*
X1695Y00834*
X1695Y00833*
X16949Y00833*
X16949Y00833*
X16948Y00833*
X16948Y00832*
X16947Y00832*
X16947Y00832*
X16946Y00831*
X16946Y00831*
X16946Y00831*
X16945Y0083*
X16945Y0083*
X16945Y00829*
X16944Y00829*
X16944Y00828*
X16944Y00828*
X16944Y00827*
X16944Y00826*
X16944Y00826*
Y00825*
X16944Y00825*
X16944Y00824*
X16944Y00824*
X16944Y00823*
X16944Y00823*
X16945Y00822*
X16945Y00821*
X16945Y00821*
X16946Y00821*
X16946Y0082*
X16946Y0082*
X16947Y00819*
X16947Y00819*
X16948Y00819*
X16948Y00818*
X16949Y00818*
X16949Y00818*
X1695Y00818*
X1695Y00818*
X16951Y00817*
X16951Y00817*
X16952Y00817*
X1696Y00801D02*
D01*
X16961Y00801*
X16962Y00801*
X16962Y00801*
X16963Y00801*
X16963Y00802*
X16964Y00802*
X16964Y00802*
X16965Y00802*
X16965Y00803*
X16966Y00803*
X16966Y00803*
X16967Y00804*
X16967Y00804*
X16967Y00805*
X16968Y00805*
X16968Y00806*
X16968Y00806*
X16968Y00807*
X16968Y00807*
X16969Y00808*
X16969Y00808*
X16969Y00809*
Y0081*
X16969Y0081*
X16969Y00811*
X16968Y00811*
X16968Y00812*
X16968Y00812*
X16968Y00813*
X16968Y00813*
X16967Y00814*
X16967Y00814*
X16967Y00815*
X16966Y00815*
X16966Y00816*
X16965Y00816*
X16965Y00816*
X16964Y00816*
X16964Y00817*
X16963Y00817*
X16963Y00817*
X16962Y00817*
X16962Y00817*
X16961Y00817*
X1696Y00817*
X16937Y00801D02*
D01*
X16937Y00801*
X16936Y00801*
X16936Y00801*
X16935Y00801*
X16935Y00801*
X16934Y008*
X16934Y008*
X16933Y008*
X16933Y008*
X16932Y00799*
X16932Y00799*
X16931Y00798*
X16931Y00798*
X16931Y00798*
X1693Y00797*
X1693Y00797*
X1693Y00796*
X1693Y00795*
X1693Y00795*
X16929Y00794*
X16929Y00794*
X16929Y00793*
Y00793*
X16929Y00792*
X16929Y00792*
X1693Y00791*
X1693Y0079*
X1693Y0079*
X1693Y00789*
X1693Y00789*
X16931Y00788*
X16931Y00788*
X16931Y00788*
X16932Y00787*
X16932Y00787*
X16933Y00786*
X16933Y00786*
X16934Y00786*
X16934Y00786*
X16935Y00785*
X16935Y00785*
X16936Y00785*
X16936Y00785*
X16937Y00785*
X16937Y00785*
X16969Y00777D02*
D01*
X16969Y00777*
X16969Y00778*
X16968Y00778*
X16968Y00779*
X16968Y00779*
X16968Y0078*
X16968Y0078*
X16967Y00781*
X16967Y00781*
X16967Y00782*
X16966Y00782*
X16966Y00783*
X16966Y00783*
X16965Y00783*
X16965Y00784*
X16964Y00784*
X16964Y00784*
X16963Y00784*
X16962Y00785*
X16962Y00785*
X16961Y00785*
X16961Y00785*
X1696Y00785*
X16958Y01887D02*
X16991Y01854D01*
X16958Y01887D02*
Y02058D01*
X16992Y02092*
X1694Y01874D02*
Y02071D01*
X16986Y02118*
X1694Y01874D02*
X16969Y01844D01*
X17086Y02111D02*
X17088Y02113D01*
X17086Y02111D02*
X17089D01*
X16969Y00842D02*
Y00896D01*
X16952Y00834D02*
X1696D01*
X16952Y00817D02*
X1696D01*
X16937Y00801D02*
X1696D01*
X16937Y00785D02*
X1696D01*
X16969Y00774D02*
Y00777D01*
Y00896D02*
Y01844D01*
X16986Y02118D02*
X17084D01*
X17088Y02113*
X16945Y0075D02*
X16969Y00774D01*
X16945Y0074D02*
Y0075D01*
X16942Y00737D02*
X16945Y0074D01*
X16992Y02092D02*
X16995D01*
X16991Y00759D02*
Y01854D01*
X16978Y00746D02*
X16991Y00759D01*
X16978Y00743D02*
Y00746D01*
X16975Y0074D02*
X16978Y00743D01*
G54D93*
X1663Y00309D03*
Y00463D03*
Y00348D03*
Y00385D03*
Y00423D03*
G54D94*
X16754Y02429D03*
X16833Y02493D03*
X1686Y0245D03*
X16754Y02462D03*
X16707Y02493D03*
X16952Y0245D03*
X17056D03*
X16431Y02042D03*
X16601Y01085D03*
X16649D03*
X16601Y01059D03*
X16626D03*
X1665D03*
X16626Y01085D03*
X17166Y01786D03*
X1645Y01502D03*
Y01416D03*
Y01444D03*
Y01471D03*
X16637Y01917D03*
X16979Y01909D03*
X171Y00867D03*
X17078Y00867D03*
Y00842D03*
X171Y00841D03*
X171Y00815D03*
X17078Y00816D03*
Y0079D03*
X171Y0079D03*
X16353Y00337D03*
X16376D03*
X16334Y00381D03*
Y00358D03*
X16768Y00701D03*
Y00726D03*
X16793Y00726D03*
Y00701D03*
X16833Y00878D03*
X16855Y00951D03*
Y00926D03*
Y00903D03*
Y00878D03*
X16833Y00952D03*
Y00927D03*
Y00903D03*
X16901Y00878D03*
X1688Y00879D03*
Y00904D03*
Y00927D03*
Y00952D03*
X16901Y00904D03*
Y00927D03*
Y00952D03*
X17007Y02011D03*
X17069Y02011D03*
X17087Y01829D03*
X17061D03*
X17038D03*
X17087Y01802D03*
X17061Y01802D03*
X17038D03*
X17188Y01911D03*
X17022Y0055D03*
X16998Y0055D03*
X1699Y00669D03*
X16905Y00666D03*
X16823Y00826D03*
X17281Y02039D03*
X17091Y02121D03*
X16995Y0206D03*
X17177Y02163D03*
X17204D03*
X17232Y02163D03*
X16879Y02196D03*
X17022Y02176D03*
X16942Y00737D03*
X16995Y02092D03*
X16976Y00737D03*
X17089Y02082D03*
X17276Y01917D03*
X17089Y02056D03*
X16954Y02128D03*
X1712Y02272D03*
X173Y01917D03*
X16632Y02266D03*
X16481D03*
X16382Y02151D03*
Y02266D03*
X1679Y02116D03*
Y02093D03*
X16765Y02116D03*
Y02093D03*
X16823Y00777D03*
Y008D03*
X16849Y00777D03*
Y008D03*
Y00826D03*
X16917Y00643D03*
X16984Y00644D03*
X16886Y0055D03*
X16908Y00549D03*
X16675Y00895D03*
X16682Y00357D03*
X16676Y00863D03*
G54D95*
X16543Y00622D03*
Y00707D03*
Y00751D03*
Y00579D03*
Y00664D03*
Y00795D03*
X16502Y00622D03*
X16582D03*
X16502Y00707D03*
X16582D03*
X16502Y00751D03*
X16582D03*
X16502Y00579D03*
X16582D03*
X16502Y00664D03*
X16582D03*
X16502Y00795D03*
X16582D03*
G54D96*
X1715Y02347D03*
Y02324D03*
Y02372D03*
M02*