%FSTAX23Y23*%
%MOIN*%
%SFA1B1*%

%IPPOS*%
%ADD10C,0.007870*%
%ADD12C,0.009840*%
%ADD13C,0.010000*%
%ADD125C,0.005910*%
%ADD126R,0.015750X0.016240*%
%ADD127R,0.433070X0.014920*%
%ADD128R,0.433070X0.014960*%
%ADD129R,0.029880X0.014920*%
%ADD130R,0.014920X0.014920*%
%ADD131R,0.059720X0.014920*%
%ADD132R,0.029840X0.014920*%
%ADD133R,0.044760X0.014920*%
%ADD134R,0.029880X0.014920*%
%ADD135R,0.074650X0.014920*%
%ADD136R,0.014920X0.014920*%
%ADD137R,0.059720X0.014920*%
%ADD138R,0.044800X0.014920*%
%ADD139R,0.029880X0.014960*%
%ADD140R,0.014920X0.014960*%
%ADD141R,0.014920X0.014960*%
%ADD142R,0.029840X0.014960*%
%ADD143R,0.014960X0.014960*%
%ADD144R,0.044800X0.014960*%
%ADD145R,0.014920X0.014920*%
%ADD146R,0.014960X0.014920*%
%ADD147R,0.029840X0.014920*%
%ADD148R,0.074650X0.014920*%
%ADD149R,0.014960X0.014920*%
%ADD150R,0.029880X0.014920*%
%ADD151R,0.044800X0.014920*%
%ADD152R,0.014920X0.014920*%
%ADD153R,0.089610X0.014960*%
%ADD154R,0.149330X0.014920*%
%ADD155R,0.089610X0.014920*%
%ADD156R,0.029840X0.014920*%
%ADD157R,0.059720X0.014960*%
%ADD158R,0.044800X0.014920*%
%ADD159R,0.029880X0.014920*%
%ADD160R,0.044800X0.014960*%
%ADD161R,0.074690X0.014960*%
%ADD162R,0.029880X0.014960*%
%ADD163R,0.074690X0.014920*%
%ADD164R,0.164250X0.014920*%
%ADD165R,0.149330X0.014920*%
%ADD166R,0.074690X0.014920*%
%ADD167R,0.059760X0.014920*%
%ADD168R,0.029880X0.014960*%
%ADD169R,0.014920X0.014960*%
%ADD170R,0.014920X0.014960*%
%ADD171R,0.044800X0.014960*%
%LNnas-craftsman_nixie_v1-1*%
%LPD*%
G36*
X16658Y00264D02*
X16682Y00321D01*
X16708Y00264*
X16658*
G37*
G36*
X17459Y02386D02*
X17459Y02386D01*
Y02386*
Y02385*
X17464Y02362*
Y02361*
X17464Y02361*
X17465Y02361*
X17465*
X17481Y02354*
X17482*
X17502Y02368*
X17503*
X17503Y02368*
X1752Y02351*
Y0235*
Y0235*
Y0235*
Y02349*
X17507Y0233*
Y0233*
Y02329*
Y02329*
Y02328*
Y02328*
X17514Y02312*
X17514Y02311*
X17515Y02311*
X17515*
X17537Y02307*
X17538*
X17538Y02307*
Y02306*
Y02306*
Y02283*
X17538Y02282*
X17538Y02282*
X17537*
X17516Y02277*
X17515*
X17515Y02277*
Y02276*
Y02276*
X17507Y02259*
Y02258*
Y02258*
Y02257*
Y02257*
X1752Y02239*
Y02238*
Y02238*
Y02237*
X17503Y02221*
X17503Y02221*
X17502*
X17502Y02221*
X17484Y02233*
X17482*
X17475Y02228*
X17473Y02229*
X17473Y02229*
X17457Y02269*
X17457Y0227*
X17457Y0227*
X17459Y02271*
X1746Y02272*
X1746*
X1746Y02272*
X17461Y02273*
X17465Y02276*
X17467Y02279*
X17469Y02283*
X17471Y02286*
X17472Y02289*
X17472Y02291*
X17472Y02293*
Y02294*
X17472Y02298*
X17471Y02301*
X1747Y02304*
X17468Y02307*
X17467Y02309*
X17466Y02311*
X17465Y02312*
X17465Y02312*
X17462Y02315*
X17459Y02317*
X17455Y02318*
X17453Y02319*
X1745Y0232*
X17448Y0232*
X17447*
X17443Y0232*
X17439Y02319*
X17436Y02317*
X17434Y02316*
X17432Y02315*
X1743Y02313*
X17429Y02312*
X17429Y02312*
X17426Y02309*
X17424Y02306*
X17423Y02303*
X17422Y023*
X17421Y02298*
X17421Y02296*
Y02294*
Y02294*
X17422Y02289*
X17423Y02285*
X17425Y02281*
X17427Y02278*
X17429Y02276*
X17431Y02274*
X17432Y02273*
X17433Y02273*
X17433Y02272*
X17434Y02272*
X17434Y02271*
X17436Y0227*
X17436Y02269*
Y02269*
Y02269*
X1742Y02229*
X1742Y02229*
X17419Y02228*
X17419*
X17411Y02233*
X17409*
X17392Y02221*
X17391Y02221*
X1739*
X1739Y02221*
X17373Y02237*
Y02238*
Y02238*
Y02239*
X17386Y02257*
Y02257*
Y02258*
Y02258*
Y02259*
X17379Y02276*
X17378Y02277*
X17378Y02277*
X17377*
X17356Y02282*
X17355Y02282*
X17355Y02282*
Y02283*
Y02306*
Y02307*
X17355Y02307*
X17356*
X17378Y02311*
X17379Y02311*
X17379Y02312*
Y02312*
X17387Y02328*
Y02329*
Y02329*
Y0233*
Y0233*
X17373Y02349*
Y0235*
Y0235*
Y02351*
Y02351*
X1739Y02368*
X1739Y02368*
X17392*
X17411Y02354*
X17413*
X17428Y02361*
X17429Y02361*
X17429Y02361*
Y02362*
Y02362*
X17434Y02385*
Y02386*
X17434Y02387*
X17458*
X17459Y02386*
G37*
G36*
X1754Y02138D02*
X17536D01*
Y02152*
X17536Y02154*
X17535Y02155*
X17534Y02156*
X17533Y02157*
X17532Y02158*
X17531*
X17529Y02157*
X17528Y02157*
X17527Y02156*
X17527Y02155*
X17526Y02153*
Y02152*
Y02152*
Y02138*
X17521*
Y02154*
X17521Y02157*
X17522Y02159*
X17523Y0216*
X17525Y02161*
X17527Y02162*
X17528Y02162*
X17529*
X17532Y02162*
X17534Y02161*
X17536Y0216*
X17536Y02159*
Y02179*
X17533Y02177*
X17531Y02176*
X1753Y02176*
X17529*
X17528Y02176*
X17527Y02177*
X17525Y02178*
X17523Y02179*
X17522Y0218*
X17522Y02181*
X17521Y02182*
X17521Y02185*
X17521Y02186*
Y02188*
Y02188*
Y02189*
Y02191*
X17521Y02193*
X17521Y02195*
Y02196*
X17522Y02197*
X17522Y02198*
X17522Y02199*
X17525Y022*
X17527Y02201*
X17529Y02201*
X17529*
X17532Y02201*
X17534Y022*
X17535Y02199*
X17536Y02199*
Y02201*
X1754*
Y02138*
G37*
G36*
X17493Y02177D02*
X17488D01*
Y02191*
X17488Y02193*
X17487Y02194*
X17486Y02195*
X17485Y02196*
X17484Y02197*
X17483*
X17481Y02196*
X1748Y02196*
X17479Y02195*
X17478Y02194*
X17478Y02192*
Y02191*
Y02191*
Y02177*
X17473*
Y02193*
X17473Y02196*
X17474Y02198*
X17475Y02199*
X17477Y022*
X17478Y02201*
X1748Y02201*
X17481*
X17484Y02201*
X17486Y022*
X17488Y02199*
X17488Y02199*
Y02201*
X17493*
Y02177*
G37*
G36*
X17386D02*
X17381D01*
Y02191*
X1738Y02193*
X1738Y02194*
X17379Y02195*
X17378Y02196*
X17376Y02197*
X17376*
X17375Y02196*
X17374Y02196*
X17373Y02195*
X17373Y02195*
X17369Y022*
X17371Y02201*
X17373Y02201*
X17374Y02201*
X17374*
X17377Y02201*
X17379Y022*
X1738Y02199*
X17381Y02199*
Y02201*
X17386*
Y02177*
G37*
G36*
X17411Y02184D02*
X17411Y02182D01*
X1741Y0218*
X17408Y02178*
X17407Y02177*
X17405Y02176*
X17404Y02176*
X17403*
X174Y02176*
X17398Y02178*
X17397Y02179*
X17396Y02179*
Y02177*
X17392*
Y02201*
X17396*
Y02187*
X17397Y02185*
X17397Y02183*
X17398Y02183*
X17399Y02182*
X174Y02181*
X17401*
X17403Y02182*
X17404Y02182*
X17405Y02183*
X17405Y02184*
X17406Y02186*
Y02186*
Y02187*
Y02201*
X17411*
Y02184*
G37*
G36*
X17362Y02201D02*
X17365Y02199D01*
X17367Y02197*
X17368Y02195*
X17369Y02193*
X17369Y02191*
X1737Y02189*
Y02189*
X17369Y02184*
X17368Y02181*
X17366Y02179*
X17364Y02178*
X17362Y02177*
X1736Y02176*
X17359Y02176*
X17358*
X17356Y02176*
X17355Y02177*
X17352Y02178*
X1735Y0218*
X1735Y0218*
Y02181*
X17353Y02184*
X17355Y02182*
X17357Y02182*
X17358Y02181*
X17358*
X1736Y02182*
X17362Y02183*
X17363Y02183*
X17364Y02185*
X17364Y02186*
X17365Y02187*
Y02188*
Y02189*
X17364Y02191*
X17364Y02193*
X17363Y02195*
X17361Y02196*
X1736Y02196*
X17359Y02197*
X17358*
X17356Y02196*
X17355Y02195*
X17354Y02194*
X17353Y02194*
X1735Y02197*
X17351Y02199*
X17352Y022*
X17355Y02201*
X17357Y02201*
X17358*
X17362Y02201*
G37*
G36*
X17511D02*
X17513Y02199D01*
X17515Y02197*
X17516Y02195*
X17517Y02193*
X17517Y02191*
X17517Y02189*
Y02189*
X17517Y02184*
X17516Y02181*
X17514Y02179*
X17512Y02178*
X1751Y02177*
X17508Y02176*
X17507Y02176*
X17506*
X17505Y02176*
X17503Y02177*
X175Y02178*
X17498Y02179*
X17498Y0218*
X17497*
X17501Y02183*
X17503Y02182*
X17505Y02181*
X17506Y02181*
X17507*
X17509Y02181*
X1751Y02182*
X17511Y02183*
X17512Y02184*
X17513Y02186*
Y02186*
Y02187*
X17497*
Y02191*
X17497Y02194*
X17498Y02197*
X175Y02199*
X17502Y022*
X17504Y02201*
X17506Y02201*
X17507*
X17511Y02201*
G37*
G36*
X17342D02*
X17344Y02199D01*
X17346Y02197*
X17347Y02195*
X17348Y02193*
X17348Y02191*
X17349Y02189*
Y02189*
X17348Y02184*
X17347Y02181*
X17345Y02179*
X17343Y02178*
X17341Y02177*
X17339Y02176*
X17338Y02176*
X17337*
X17336Y02176*
X17334Y02177*
X17331Y02178*
X17329Y02179*
X17329Y0218*
X17329*
X17332Y02183*
X17334Y02182*
X17335Y02181*
X17337Y02181*
X17337*
X17339Y02181*
X17341Y02182*
X17342Y02183*
X17343Y02184*
X17344Y02186*
Y02186*
Y02187*
X17328*
Y02191*
X17328Y02194*
X1733Y02197*
X17331Y02199*
X17333Y022*
X17335Y02201*
X17337Y02201*
X17338*
X17342Y02201*
G37*
G36*
X17558Y02201D02*
X17561Y022D01*
X17562Y02199*
X17563Y02199*
X17564Y02196*
X17565Y02192*
X17565Y02191*
Y0219*
Y02189*
Y02189*
X17565Y02185*
X17564Y02182*
X17563Y0218*
X17563Y0218*
X17561Y02178*
X1756Y02178*
X17557Y02176*
X17556Y02176*
X17555*
X17553Y02176*
X17552Y02177*
X17549Y02178*
X17548Y02179*
X17548Y0218*
X17547Y02181*
X17546Y02182*
X17545Y02185*
X17545Y02186*
Y02188*
Y02188*
Y02189*
Y02191*
X17545Y02193*
X17546Y02195*
X17546Y02196*
X17547Y02198*
X17548Y02199*
X1755Y022*
X17552Y02201*
X17554Y02201*
X17555*
X17558Y02201*
G37*
G36*
X17452D02*
X17454Y022D01*
X17455Y02199*
X17457Y02198*
X17457Y02196*
X17458Y02195*
Y02194*
Y02194*
X17457Y02192*
X17457Y0219*
X17456Y02189*
X17455Y02188*
X17452Y02187*
X17452Y02187*
X17447*
X17445Y02186*
X17444Y02185*
X17443Y02184*
Y02184*
X17444Y02183*
X17444Y02182*
X17446Y02181*
X17448Y02181*
X17448*
X17452Y02181*
X17454Y02182*
X17455Y02183*
X17456Y02184*
X17459Y02181*
X17458Y02179*
X17456Y02178*
X17453Y02177*
X17451Y02176*
X1745Y02176*
X17449*
X17445Y02176*
X17443Y02177*
X17441Y02179*
X1744Y0218*
X17439Y02181*
X17438Y02183*
Y02183*
Y02184*
X17439Y02186*
X17439Y02188*
X17441Y02189*
X17442Y0219*
X17443Y0219*
X17445Y02191*
X17445Y02191*
X17446*
X1745Y02192*
X17452Y02192*
X17453Y02193*
X17453Y02194*
Y02194*
X17453Y02195*
X17453Y02196*
X17451Y02196*
X1745Y02197*
X17449*
X17447Y02196*
X17445Y02196*
X17443Y02195*
X17442Y02194*
X17442*
X17439Y02198*
X17442Y022*
X17445Y02201*
X17447Y02201*
X17449*
X17452Y02201*
G37*
G36*
X17429D02*
X17431Y022D01*
X17433Y02199*
X17433Y02199*
X17434Y02196*
X17435Y02192*
X17435Y02191*
Y0219*
Y02189*
Y02189*
X17435Y02185*
X17434Y02182*
X17434Y0218*
X17433Y0218*
X17432Y02178*
X17431Y02178*
X17428Y02176*
X17426Y02176*
X17426*
X17424Y02176*
X17422Y02177*
X1742Y02178*
X17418Y02179*
X17418Y0218*
X17417Y02181*
X17416Y02182*
X17416Y02185*
X17415Y02186*
Y02188*
Y02188*
Y02189*
Y02191*
X17416Y02193*
X17416Y02195*
X17417Y02196*
X17418Y02198*
X17418Y02199*
X1742Y022*
X17423Y02201*
X17425Y02201*
X17426*
X17429Y02201*
G37*
G36*
X17492Y02138D02*
X17487D01*
Y02152*
X17486Y02154*
X17486Y02155*
X17485Y02156*
X17484Y02157*
X17483Y02158*
X17482*
X17481Y02157*
X1748Y02157*
X17479Y02156*
X17479Y02156*
X17475Y02161*
X17477Y02162*
X17479Y02162*
X1748Y02162*
X17481*
X17483Y02162*
X17485Y02161*
X17486Y0216*
X17487Y02159*
Y02162*
X17492*
Y02138*
G37*
G36*
X17392D02*
X17387D01*
Y02152*
X17387Y02154*
X17386Y02155*
X17386Y02156*
X17385Y02157*
X17383Y02158*
X17383*
X17381Y02157*
X1738Y02157*
X17379Y02156*
X17379Y02156*
X17375Y02161*
X17377Y02162*
X17379Y02162*
X1738Y02162*
X1738*
X17383Y02162*
X17385Y02161*
X17387Y0216*
X17387Y02159*
Y02162*
X17392*
Y02138*
G37*
G36*
X17512Y02162D02*
X17514Y02161D01*
X17516Y0216*
X17516Y02159*
X17513Y02156*
X17511Y02157*
X17509Y02157*
X17508Y02158*
X17506*
X17504Y02157*
X17504Y02157*
X17503Y02156*
X17502Y02155*
Y02154*
Y02152*
X17509*
X17512Y02152*
X17514Y02151*
X17516Y0215*
X17516Y02148*
X17517Y02147*
X17517Y02146*
Y02145*
Y02145*
X17517Y02142*
X17516Y0214*
X17515Y02139*
X17513Y02138*
X17512Y02137*
X1751Y02137*
X17507*
X17506Y02137*
X17504Y02139*
X17503Y0214*
X17502Y0214*
Y02138*
X17497*
Y02154*
X17498Y02157*
X17499Y02159*
X17501Y0216*
X17503Y02161*
X17505Y02162*
X17506Y02162*
X17508*
X17512Y02162*
G37*
G36*
X17412D02*
X17413Y02161D01*
X17414Y02161*
X17415Y0216*
X17416Y02159*
X17412Y02156*
X17411Y02157*
X1741Y02157*
X17408Y02158*
X17406*
X17405Y02157*
X17404Y02157*
X17403Y02156*
X17403Y02155*
Y02154*
Y02152*
X17409*
X17412Y02152*
X17414Y02151*
X17416Y0215*
X17417Y02148*
X17417Y02147*
X17418Y02146*
Y02145*
Y02145*
X17417Y02142*
X17416Y0214*
X17415Y02139*
X17413Y02138*
X17412Y02137*
X1741Y02137*
X17407*
X17406Y02137*
X17404Y02139*
X17403Y0214*
X17403Y0214*
Y02138*
X17398*
Y02154*
X17398Y02157*
X17399Y02159*
X17401Y0216*
X17403Y02161*
X17404Y02162*
X17406Y02162*
X1741*
X17412Y02162*
G37*
G36*
X17445Y02138D02*
X1744D01*
X17435Y02155*
X1743Y02138*
X17426*
X17418Y02162*
X17423*
X17428Y02145*
X17433Y02162*
X17437*
X17443Y02145*
X17448Y02162*
X17453*
X17445Y02138*
G37*
G36*
X17369Y02162D02*
X17371Y0216D01*
X17373Y02158*
X17374Y02156*
X17374Y02154*
X17375Y02152*
X17375Y02151*
Y0215*
X17375Y02146*
X17373Y02142*
X17372Y0214*
X1737Y02139*
X17368Y02138*
X17366Y02137*
X17364Y02137*
X17364*
X17362Y02137*
X1736Y02138*
X17358Y02139*
X17356Y0214*
X17355Y02141*
X17355*
X17359Y02144*
X17361Y02143*
X17363Y02142*
X17364Y02142*
X17365*
X17367Y02142*
X17368Y02142*
X17369Y02143*
X1737Y02145*
X1737Y02147*
Y02147*
Y02148*
X17355*
Y02152*
X17355Y02155*
X17356Y02158*
X17358Y0216*
X1736Y02161*
X17362Y02162*
X17364Y02162*
X17365*
X17369Y02162*
G37*
G36*
X17461Y02159D02*
X17463Y02161D01*
X17465Y02162*
X17466Y02162*
X17467*
X1747Y02162*
X17472Y02161*
X17473Y0216*
X17474Y02159*
X17474Y02158*
X17475Y02157*
X17475Y02154*
X17475Y02153*
Y02151*
Y0215*
Y0215*
Y02147*
X17475Y02145*
X17475Y02143*
X17474Y02142*
Y02142*
X17474Y02141*
X17474Y02141*
X17473Y02139*
X17472Y02139*
X17469Y02137*
X17467Y02137*
X17467*
X17464Y02137*
X17462Y02139*
X17461Y0214*
X17461Y0214*
Y02138*
X17455*
Y02172*
X17461*
Y02159*
G37*
%LNnas-craftsman_nixie_v1-2*%
%LPC*%
G36*
X17532Y02197D02*
X17531D01*
X17529Y02196*
X17528Y02195*
X17527Y02194*
X17527Y02193*
X17526Y02191*
X17526Y0219*
Y02189*
Y02189*
X17526Y02186*
X17527Y02184*
X17528Y02183*
X17528Y02182*
X17529Y02182*
X1753Y02181*
X17531*
X17533Y02182*
X17534Y02183*
X17535Y02183*
X17535Y02185*
X17536Y02186*
X17536Y02187*
Y02188*
Y02189*
X17536Y02191*
X17535Y02193*
X17534Y02195*
X17533Y02196*
X17533Y02196*
X17532Y02197*
G37*
G36*
X17508D02*
X17507D01*
X17506Y02196*
X17504Y02196*
X17503Y02194*
X17502Y02192*
X17502Y02191*
Y02191*
X17513*
X17512Y02193*
X17512Y02194*
X17511Y02195*
X1751Y02196*
X17508Y02197*
G37*
G36*
X17339D02*
X17338D01*
X17337Y02196*
X17335Y02196*
X17334Y02194*
X17333Y02192*
X17333Y02191*
Y02191*
X17344*
X17343Y02193*
X17343Y02194*
X17342Y02195*
X17341Y02196*
X17339Y02197*
G37*
G36*
X17555D02*
X17555D01*
X17553Y02196*
X17552Y02196*
X17551Y02195*
X17551Y02194*
X17551Y02194*
X1755Y02193*
X1755Y02191*
Y02189*
Y02189*
Y02189*
X1755Y02186*
X1755Y02184*
X17551Y02183*
X17551Y02183*
X17552Y02182*
X17553Y02182*
X17555Y02181*
X17555*
X17557Y02182*
X17558Y02182*
X17558Y02183*
X17559Y02183*
X1756Y02185*
X1756Y02187*
X1756Y02188*
Y02189*
X1756Y02191*
X17559Y02193*
X17559Y02194*
X17559Y02194*
X17558Y02196*
X17557Y02196*
X17555Y02197*
G37*
G36*
X17426D02*
X17426D01*
X17424Y02196*
X17422Y02196*
X17422Y02195*
X17421Y02194*
X17421Y02194*
X17421Y02193*
X1742Y02191*
Y02189*
Y02189*
Y02189*
Y02186*
X17421Y02184*
X17421Y02183*
X17421Y02183*
X17422Y02182*
X17424Y02182*
X17425Y02181*
X17426*
X17427Y02182*
X17429Y02182*
X17429Y02183*
Y02183*
X1743Y02184*
X1743Y02186*
X17431Y02188*
Y02188*
Y02189*
Y0219*
X1743Y02192*
X1743Y02193*
X1743Y02194*
X17429Y02194*
X17428Y02196*
X17427Y02196*
X17426Y02197*
G37*
G36*
X17509Y02148D02*
X17502D01*
Y02146*
X17503Y02144*
X17503Y02143*
X17505Y02142*
X17507Y02142*
X1751*
X17511Y02142*
X17512Y02143*
X17513Y02144*
Y02145*
X17512Y02146*
X17512Y02146*
X17511Y02147*
X17509Y02148*
G37*
G36*
X17409D02*
X17403D01*
Y02146*
X17403Y02144*
X17404Y02143*
X17405Y02142*
X17407Y02142*
X1741*
X17411Y02142*
X17412Y02143*
X17413Y02144*
Y02145*
X17412Y02146*
X17412Y02146*
X1741Y02147*
X17409Y02148*
G37*
G36*
X17366Y02158D02*
X17365D01*
X17364Y02157*
X17362Y02157*
X17361Y02155*
X1736Y02153*
X1736Y02152*
Y02152*
X1737*
X1737Y02154*
X1737Y02155*
X17369Y02156*
X17368Y02157*
X17366Y02158*
G37*
G36*
X17466D02*
X17465D01*
X17464Y02157*
X17462Y02156*
X17462Y02155*
X17461Y02154*
X17461Y02152*
X17461Y02151*
Y0215*
Y0215*
X17461Y02147*
X17461Y02145*
X17462Y02144*
X17463Y02143*
X17464Y02142*
X17464Y02142*
X17465*
X17467Y02142*
X17468Y02143*
X17469Y02145*
X17469Y02146*
X1747Y02147*
X1747Y02149*
Y0215*
Y0215*
X1747Y02153*
X17469Y02154*
X17468Y02156*
X17467Y02157*
X17467Y02157*
X17466Y02158*
G37*
%LNnas-craftsman_nixie_v1-3*%
%LPD*%
G54D10*
X17116Y0009D02*
D01*
X17116Y00091*
X17116Y00091*
X17116Y00091*
X17116Y00091*
X17116Y00092*
X17116Y00092*
X17116Y00092*
X17116Y00092*
X17115Y00093*
X17115Y00093*
X17115Y00093*
X17115Y00093*
X17115Y00093*
X17114Y00093*
X17114Y00094*
X17114Y00094*
X17114Y00094*
X17113Y00094*
X17113Y00094*
X17113Y00094*
X17113Y00094*
X17112Y00094*
X17112*
X17112Y00094*
X17112Y00094*
X17111Y00094*
X17111Y00094*
X17111Y00094*
X1711Y00094*
X1711Y00094*
X1711Y00093*
X1711Y00093*
X1711Y00093*
X17109Y00093*
X17109Y00093*
X17109Y00093*
X17109Y00092*
X17109Y00092*
X17109Y00092*
X17109Y00092*
X17108Y00091*
X17108Y00091*
X17108Y00091*
X17108Y00091*
X17108Y0009*
D01*
X17108Y0009*
X17108Y0009*
X17108Y00089*
X17108Y00089*
X17109Y00089*
X17109Y00089*
X17109Y00088*
X17109Y00088*
X17109Y00088*
X17109Y00088*
X17109Y00087*
X1711Y00087*
X1711Y00087*
X1711Y00087*
X1711Y00087*
X1711Y00087*
X17111Y00087*
X17111Y00086*
X17111Y00086*
X17112Y00086*
X17112Y00086*
X17112Y00086*
X17112*
X17113Y00086*
X17113Y00086*
X17113Y00086*
X17113Y00086*
X17114Y00087*
X17114Y00087*
X17114Y00087*
X17114Y00087*
X17115Y00087*
X17115Y00087*
X17115Y00087*
X17115Y00088*
X17115Y00088*
X17116Y00088*
X17116Y00088*
X17116Y00089*
X17116Y00089*
X17116Y00089*
X17116Y00089*
X17116Y0009*
X17116Y0009*
Y0009*
X16785Y02615D02*
D01*
X16785Y02615*
X16785Y02615*
X16786Y02615*
X16786Y02614*
X16786Y02614*
X16786Y02614*
X16786Y02614*
X16786Y02613*
X16786Y02613*
X16786Y02613*
X16787Y02613*
X16787Y02612*
X16787Y02612*
X16787Y02612*
X16787Y02612*
X16788Y02612*
X16788Y02612*
X16788Y02612*
X16788Y02612*
X16789Y02612*
X16789Y02611*
X16789Y02611*
X1679*
X1679Y02611*
X1679Y02612*
X1679Y02612*
X16791Y02612*
X16791Y02612*
X16791Y02612*
X16791Y02612*
X16792Y02612*
X16792Y02612*
X16792Y02612*
X16792Y02613*
X16792Y02613*
X16793Y02613*
X16793Y02613*
X16793Y02614*
X16793Y02614*
X16793Y02614*
X16793Y02614*
X16793Y02615*
X16793Y02615*
X16793Y02615*
Y02615*
D01*
X16793Y02616*
X16793Y02616*
X16793Y02616*
X16793Y02616*
X16793Y02617*
X16793Y02617*
X16793Y02617*
X16793Y02617*
X16793Y02618*
X16792Y02618*
X16792Y02618*
X16792Y02618*
X16792Y02619*
X16792Y02619*
X16791Y02619*
X16791Y02619*
X16791Y02619*
X16791Y02619*
X1679Y02619*
X1679Y02619*
X1679Y02619*
X1679Y02619*
X16789*
X16789Y02619*
X16789Y02619*
X16788Y02619*
X16788Y02619*
X16788Y02619*
X16788Y02619*
X16787Y02619*
X16787Y02619*
X16787Y02619*
X16787Y02618*
X16787Y02618*
X16786Y02618*
X16786Y02618*
X16786Y02617*
X16786Y02617*
X16786Y02617*
X16786Y02617*
X16786Y02616*
X16786Y02616*
X16785Y02616*
X16785Y02616*
X16785Y02615*
X16754Y00178D02*
Y00333D01*
X17148Y00178D02*
Y00333D01*
X17259Y01062D02*
Y01109D01*
X17145D02*
X17259D01*
X17145Y01062D02*
Y01109D01*
Y01062D02*
X17259D01*
X17261Y01013D02*
Y01048D01*
X16753Y02147D02*
Y02273D01*
X16363D02*
X16753D01*
X16363Y02147D02*
Y02273D01*
Y02147D02*
X16753D01*
X16759Y02073D02*
Y02133D01*
X17583Y01261D02*
Y01975D01*
X16341D02*
X16355D01*
X1732D02*
X17583D01*
X16341Y01261D02*
Y01975D01*
Y01261D02*
X16355D01*
X1732D02*
X17583D01*
X17148Y02372D02*
Y02528D01*
X16754Y02372D02*
Y02528D01*
G54D12*
X17115Y02045D02*
D01*
X17115Y02045*
X17115Y02046*
X17115Y02046*
X17115Y02046*
X17115Y02047*
X17114Y02047*
X17114Y02047*
X17114Y02047*
X17114Y02048*
X17114Y02048*
X17113Y02048*
X17113Y02049*
X17113Y02049*
X17113Y02049*
X17112Y02049*
X17112Y02049*
X17112Y02049*
X17111Y0205*
X17111Y0205*
X17111Y0205*
X1711Y0205*
X1711Y0205*
X1711*
X17109Y0205*
X17109Y0205*
X17109Y0205*
X17108Y0205*
X17108Y02049*
X17108Y02049*
X17108Y02049*
X17107Y02049*
X17107Y02049*
X17107Y02049*
X17106Y02048*
X17106Y02048*
X17106Y02048*
X17106Y02047*
X17106Y02047*
X17105Y02047*
X17105Y02047*
X17105Y02046*
X17105Y02046*
X17105Y02046*
X17105Y02045*
X17105Y02045*
X17105Y02045*
X17105Y02044*
X17105Y02044*
X17105Y02044*
X17105Y02043*
X17105Y02043*
X17106Y02043*
X17106Y02042*
X17106Y02042*
X17106Y02042*
X17106Y02041*
X17107Y02041*
X17107Y02041*
X17107Y02041*
X17108Y02041*
X17108Y0204*
X17108Y0204*
X17108Y0204*
X17109Y0204*
X17109Y0204*
X17109Y0204*
X1711Y0204*
X1711*
X1711Y0204*
X17111Y0204*
X17111Y0204*
X17111Y0204*
X17112Y0204*
X17112Y0204*
X17112Y02041*
X17113Y02041*
X17113Y02041*
X17113Y02041*
X17113Y02041*
X17114Y02042*
X17114Y02042*
X17114Y02042*
X17114Y02043*
X17114Y02043*
X17115Y02043*
X17115Y02044*
X17115Y02044*
X17115Y02044*
X17115Y02045*
X17115Y02045*
X17292Y01216D02*
D01*
X17292Y01217*
X17292Y01217*
X17292Y01217*
X17292Y01218*
X17292Y01218*
X17292Y01218*
X17292Y01219*
X17291Y01219*
X17291Y01219*
X17291Y01219*
X17291Y0122*
X17291Y0122*
X1729Y0122*
X1729Y0122*
X1729Y0122*
X17289Y01221*
X17289Y01221*
X17289Y01221*
X17288Y01221*
X17288Y01221*
X17288Y01221*
X17287Y01221*
X17287*
X17287Y01221*
X17286Y01221*
X17286Y01221*
X17286Y01221*
X17285Y01221*
X17285Y01221*
X17285Y0122*
X17285Y0122*
X17284Y0122*
X17284Y0122*
X17284Y0122*
X17284Y01219*
X17283Y01219*
X17283Y01219*
X17283Y01219*
X17283Y01218*
X17283Y01218*
X17283Y01218*
X17282Y01217*
X17282Y01217*
X17282Y01217*
X17282Y01216*
X17282Y01216*
X17282Y01216*
X17282Y01215*
X17283Y01215*
X17283Y01215*
X17283Y01214*
X17283Y01214*
X17283Y01214*
X17283Y01213*
X17284Y01213*
X17284Y01213*
X17284Y01213*
X17284Y01212*
X17285Y01212*
X17285Y01212*
X17285Y01212*
X17285Y01212*
X17286Y01212*
X17286Y01211*
X17286Y01211*
X17287Y01211*
X17287Y01211*
X17287*
X17288Y01211*
X17288Y01211*
X17288Y01211*
X17289Y01212*
X17289Y01212*
X17289Y01212*
X1729Y01212*
X1729Y01212*
X1729Y01212*
X17291Y01213*
X17291Y01213*
X17291Y01213*
X17291Y01213*
X17291Y01214*
X17292Y01214*
X17292Y01214*
X17292Y01215*
X17292Y01215*
X17292Y01215*
X17292Y01216*
X17292Y01216*
X17292Y01216*
G54D13*
X17543Y00065D02*
D01*
X17546Y00065*
X17549Y00065*
X17553Y00066*
X17556Y00066*
X1756Y00068*
X17563Y00069*
X17566Y0007*
X17569Y00072*
X17572Y00074*
X17575Y00076*
X17577Y00079*
X1758Y00081*
X17582Y00084*
X17584Y00087*
X17586Y0009*
X17587Y00093*
X17589Y00096*
X1759Y00099*
X17591Y00102*
X17592Y00106*
X17592Y00109*
X17592Y00113*
X17593Y00115*
X17593Y0259D02*
D01*
X17593Y02594*
X17592Y02597*
X17592Y02601*
X17591Y02604*
X1759Y02607*
X17588Y02611*
X17587Y02614*
X17585Y02617*
X17583Y0262*
X17581Y02622*
X17579Y02625*
X17576Y02627*
X17574Y0263*
X17571Y02632*
X17568Y02634*
X17565Y02635*
X17562Y02637*
X17558Y02638*
X17555Y02639*
X17552Y02639*
X17548Y0264*
X17545Y0264*
X17543Y0264*
X16352Y0264D02*
D01*
X16349Y0264*
X16345Y0264*
X16342Y02639*
X16338Y02638*
X16335Y02637*
X16332Y02636*
X16329Y02634*
X16326Y02632*
X16323Y02631*
X1632Y02628*
X16317Y02626*
X16315Y02624*
X16313Y02621*
X16311Y02618*
X16309Y02615*
X16307Y02612*
X16306Y02609*
X16305Y02606*
X16304Y02602*
X16303Y02599*
X16302Y02595*
X16302Y02592*
X16302Y0259*
X16302Y00114D02*
D01*
X16302Y00111*
X16302Y00107*
X16303Y00104*
X16304Y00101*
X16305Y00097*
X16306Y00094*
X16308Y00091*
X16309Y00088*
X16311Y00085*
X16313Y00082*
X16316Y0008*
X16318Y00077*
X16321Y00075*
X16324Y00073*
X16327Y00071*
X1633Y00069*
X16333Y00068*
X16336Y00067*
X1634Y00066*
X16343Y00065*
X16347Y00065*
X1635Y00064*
X16352Y00064*
X17593Y00115D02*
Y02591D01*
X16352Y02641D02*
X17546D01*
X16302Y00114D02*
Y0259D01*
X16345Y00065D02*
X17543D01*
G54D125*
X16953Y02091D02*
Y02185D01*
X16857Y02091D02*
X16953D01*
X16857D02*
Y02185D01*
X16953*
G54D126*
X16947Y02199D03*
G54D127*
X16604Y00735D03*
Y01154D03*
G54D128*
X16604Y0075D03*
Y01139D03*
G54D129*
X16806Y00765D03*
X16402D03*
X16806Y0084D03*
X16402D03*
X16806Y00929D03*
X16641D03*
X16462D03*
X16806Y01079D03*
X16567D03*
X16402D03*
X16806Y01109D03*
X16567D03*
X16402D03*
G54D130*
X16679Y00765D03*
Y0084D03*
X16768Y01079D03*
X16679D03*
X16499D03*
X16679Y01109D03*
G54D131*
X16596Y00765D03*
G54D132*
X16537Y00765D03*
G54D133*
X16484Y00765D03*
G54D134*
X16806Y0078D03*
X16552D03*
X16806Y0081D03*
X16402D03*
X16806Y00825D03*
X16567D03*
X16641Y0087D03*
X16567D03*
X16806Y00885D03*
X16522Y00915D03*
X16806Y00959D03*
Y01004D03*
X16746D03*
X16402D03*
X16806Y01049D03*
X16402D03*
X16806Y01064D03*
X16402D03*
X16806Y01124D03*
X16641D03*
X16402D03*
G54D135*
X16738Y0078D03*
Y01049D03*
X1647D03*
G54D136*
X16679Y0078D03*
X16768Y0081D03*
Y00825D03*
X16679D03*
X16738Y00974D03*
X16679Y01049D03*
X16768Y01064D03*
X16499D03*
X16679Y01124D03*
G54D137*
X16611Y0078D03*
X16417Y00885D03*
X16791Y00915D03*
X16417D03*
X16791Y00974D03*
X16417D03*
G54D138*
X1641Y0078D03*
X16664Y0081D03*
X1641Y00825D03*
X16514Y0087D03*
X16574Y00885D03*
X16589Y00915D03*
X1641Y00959D03*
G54D139*
X16806Y00795D03*
X16567D03*
X16806Y00855D03*
X16567D03*
X16806Y00944D03*
X16761D03*
X16402D03*
X16806Y01034D03*
X16402D03*
G54D140*
X16768Y00795D03*
X16499Y00855D03*
X16589Y009D03*
X16679Y01034D03*
X16589D03*
G54D141*
X16708Y00795D03*
X16634Y00855D03*
X16529D03*
X16619Y009D03*
X1647D03*
X16544Y00944D03*
X16484D03*
X16664Y00989D03*
X16634D03*
X16619Y01034D03*
X16529D03*
G54D142*
X16671Y00795D03*
X16492D03*
X16671Y00855D03*
G54D143*
X16604Y00795D03*
X16455D03*
X16559Y009D03*
X16514D03*
X16649Y00944D03*
X16455Y00989D03*
X16649Y01034D03*
X16559D03*
G54D144*
X1641Y00795D03*
X16679Y009D03*
X1641D03*
X16514Y00989D03*
X1641D03*
G54D145*
X16708Y0081D03*
X16544D03*
X16708Y00825D03*
X16619D03*
X16664Y00885D03*
X16619D03*
X16708Y00915D03*
X16634D03*
X16484Y01004D03*
X16529Y01049D03*
X16708Y01064D03*
X16634D03*
X16529D03*
X1644D03*
X16529Y01124D03*
G54D146*
X16604Y0081D03*
Y0087D03*
X16649Y00959D03*
X16604Y00974D03*
G54D147*
X16477Y0081D03*
Y00959D03*
G54D148*
X16738Y0084D03*
Y01109D03*
X1647D03*
G54D149*
X16649Y0084D03*
X16559D03*
X16604Y00929D03*
X16559Y01019D03*
G54D150*
X16596Y0084D03*
X16507Y00929D03*
G54D151*
X16514Y0084D03*
X16753Y00929D03*
X16694D03*
X1641D03*
X16604Y01019D03*
G54D152*
X1644Y0084D03*
X16544Y00929D03*
X16708Y01079D03*
X16529D03*
X1644D03*
X16529Y01109D03*
G54D153*
X16432Y00855D03*
G54D154*
X16746Y0087D03*
G54D155*
X16432Y0087D03*
X16552Y00959D03*
X16641Y01004D03*
G54D156*
X16731Y00885D03*
X16671Y01064D03*
G54D157*
X16791Y009D03*
X16596Y00944D03*
G54D158*
X16738Y00959D03*
X16649Y00974D03*
G54D159*
X16686Y00959D03*
X16596Y01064D03*
Y01124D03*
G54D160*
X16798Y00989D03*
G54D161*
X16723Y00989D03*
G54D162*
X16596Y00989D03*
G54D163*
X16544Y01004D03*
G54D164*
X16738Y01019D03*
G54D165*
X16462Y01019D03*
G54D166*
X16589Y01049D03*
G54D167*
X16626Y01079D03*
Y01109D03*
G54D168*
X16806Y01094D03*
X16402D03*
G54D169*
X16768Y01094D03*
X16679D03*
X16589D03*
X16499D03*
G54D170*
X16708Y01094D03*
X16634D03*
X1644D03*
G54D171*
X16544Y01094D03*
M02*