%FSTAX23Y23*%
%MOIN*%
%SFA1B1*%

%IPPOS*%
%ADD13C,0.010000*%
%ADD27R,0.015750X0.027560*%
%ADD28R,0.037400X0.066930*%
%ADD41C,0.047240*%
%ADD64C,0.006690*%
%ADD65R,0.055000X0.090000*%
%ADD66R,0.224020X0.243310*%
%ADD67R,0.055120X0.109650*%
%ADD68R,0.045280X0.023620*%
%ADD69R,0.059060X0.025590*%
%ADD70R,0.044090X0.067720*%
%ADD71R,0.051180X0.070870*%
%ADD72R,0.037400X0.031500*%
%ADD73R,0.027560X0.023620*%
%ADD74R,0.027560X0.039370*%
%ADD75R,0.070870X0.295280*%
%ADD76R,0.120080X0.122050*%
%ADD77R,0.011810X0.034250*%
%ADD78R,0.088580X0.061020*%
%ADD79R,0.046460X0.138580*%
%ADD80R,0.029530X0.037010*%
%ADD81R,0.124020X0.070870*%
%ADD82R,0.039370X0.035430*%
%ADD83R,0.022050X0.020470*%
%ADD84R,0.020470X0.022050*%
%ADD85R,0.017720X0.017720*%
%ADD86R,0.017720X0.017720*%
%ADD87C,0.019680*%
%ADD88C,0.011810*%
%ADD89C,0.006300*%
%ADD90C,0.020470*%
%ADD91O,0.086610X0.043310*%
%ADD92C,0.118110*%
%ADD93C,0.035430*%
%ADD94C,0.023620*%
%ADD95C,0.039370*%
%LNnas-craftsman_nixie_v1-1*%
%LPD*%
G36*
X16829Y02482D02*
X16828Y02482D01*
X16827Y02482*
X16826Y02482*
X16826Y02482*
X16825Y02482*
X16824Y02482*
X16823Y02481*
X16822Y02481*
X16821Y0248*
X1682Y02479*
X16814Y02487*
X16815Y02488*
X1682Y02494*
X16821Y02495*
X16822Y02497*
X16822Y02497*
X16829Y02482*
G37*
G36*
X17002Y02492D02*
X17002Y02491D01*
X17002Y0249*
X17002Y02489*
X17003Y02488*
X17003Y02487*
X17004Y02486*
X17004Y02486*
X17005Y02485*
X17006Y02484*
X16999Y02477*
X16998Y02478*
X16997Y02478*
X16996Y02479*
X16995Y0248*
X16994Y0248*
X16993Y0248*
X16993Y02481*
X16992Y02481*
X16991Y02481*
X1699Y02481*
X17002Y02493*
X17002Y02492*
G37*
G36*
X16813Y02472D02*
X16813Y02468D01*
X16813Y02467*
X16813Y02467*
X16813Y02467*
X16814Y02466*
X16814Y02466*
X16801Y02467*
X16802Y02467*
X16802Y02467*
X16802Y02468*
X16802Y02468*
X16802Y02469*
X16802Y02469*
X16803Y02471*
X16803Y02473*
X16813*
X16813Y02472*
G37*
G36*
X17011Y02475D02*
X17012Y02472D01*
X17012Y0247*
X17012Y02469*
X17013Y02468*
X17013Y02467*
X17014Y02467*
X17014Y02466*
X17015Y02466*
X16997*
X16998Y02466*
X16999Y02467*
X16999Y02467*
X17Y02468*
X17Y02469*
X17001Y0247*
X17001Y02472*
X17001Y02473*
X17001Y02475*
X17001Y02476*
X17011*
X17011Y02475*
G37*
G36*
X16715Y02484D02*
X16714Y02483D01*
X16713Y02483*
X16713Y02482*
X16713Y02481*
X16712Y0248*
X16712Y02479*
X16712Y02478*
X16711Y02477*
X16711Y02476*
X16711Y02476*
X16711Y02475*
X16711Y02473*
X16712Y02472*
X16712Y0247*
X16713Y02469*
X16713Y02468*
X16714Y02467*
X16714Y02466*
X16715Y02466*
X16716Y02465*
X16696*
X16697Y02466*
X16698Y02466*
X16699Y02467*
X16699Y02468*
X167Y02469*
X167Y0247*
X16701Y02472*
X16701Y02473*
X16701Y02475*
X16701Y02476*
X16701Y02477*
X16701Y02478*
X16701Y02479*
X16701Y0248*
X16701Y02481*
X167Y02482*
X167Y02483*
X16699Y02484*
X16699Y02484*
X16698Y02485*
X16715Y02484*
G37*
G36*
X16919Y02484D02*
X16919Y02483D01*
X16918Y02483*
X16918Y02482*
X16917Y02481*
X16917Y0248*
X16916Y02479*
X16916Y02478*
X16916Y02477*
X16916Y02476*
X16916Y02475*
X16916Y02474*
X16916Y02472*
X16916Y0247*
X16917Y02469*
X16917Y02468*
X16917Y02466*
X16918Y02465*
X16919Y02464*
X16919Y02463*
X1692Y02463*
X16901Y02467*
X16902Y02467*
X16903Y02468*
X16903Y02468*
X16904Y02469*
X16905Y0247*
X16905Y02471*
X16905Y02472*
X16906Y02474*
X16906Y02476*
X16906Y02476*
X16906Y02477*
X16906Y02478*
X16906Y02479*
X16905Y0248*
X16905Y02481*
X16905Y02482*
X16904Y02483*
X16904Y02483*
X16903Y02484*
X16903Y02485*
X16919Y02484*
G37*
G36*
X16805Y02489D02*
X16798Y02483D01*
X16796Y02479*
X16795Y02473*
Y02473*
X1679Y02471*
X16784Y02466*
X16779Y0246*
X16778Y02459*
X16774Y0246*
X16774Y02462*
X16772Y0247*
X16768Y02476*
X16762Y02481*
X16754Y02482*
X16746Y02481*
X1674Y02476*
X16735Y0247*
X16735Y02467*
X16729Y02465*
X16729Y02466*
X16722Y02471*
X16719Y02472*
Y02477*
X16721Y02479*
X16726Y02485*
X16727Y02493*
X16726Y02501*
X16721Y02507*
X16715Y02511*
X16707Y02513*
X16699Y02511*
X16693Y02507*
X16688Y02501*
X16687Y02493*
X16688Y02485*
X16693Y02479*
X16693Y02478*
Y02472*
X1669Y02471*
X16684Y02466*
X16679Y0246*
X16676Y02452*
X16674Y02444*
X16676Y02436*
X16679Y02428*
X16684Y02421*
X1669Y02416*
X16698Y02413*
X16706Y02412*
X16714Y02413*
X16722Y02416*
X16729Y02421*
X1673Y02423*
X16735Y02422*
X16735Y02422*
X1674Y02415*
X16746Y02411*
X16754Y02409*
X16762Y02411*
X16768Y02415*
X16772Y02422*
X16774Y02427*
X16778Y02428*
X16779Y02428*
X16784Y02421*
X1679Y02416*
X16798Y02413*
X16805Y02412*
Y02243*
X16779Y02218*
X16741*
Y02336*
X16671*
Y02218*
X16636*
X16607Y02189*
X16601Y02191*
X16598Y02195*
X16591Y022*
X16584Y02201*
X16576Y022*
X1657Y02195*
X16565Y02189*
X16564Y02181*
X16565Y02173*
X1657Y02167*
X16574Y02164*
X16576Y02158*
X16564Y02146*
X16493*
Y02021*
X16504*
Y01907*
X16505Y01902*
X16508Y01899*
X16519Y01887*
X16523Y01885*
X16527Y01884*
X16549*
X16552Y01881*
Y01781*
X16499Y01727*
Y0086*
X16471Y00832*
X16392*
X16389Y00832*
X16387Y00831*
X16384*
Y00825*
X16384Y00824*
X16384Y00499*
X16384Y00499*
X16384Y00499*
X16384Y00498*
Y00497*
X16384Y00497*
X16384Y00496*
X16384Y00496*
X16384Y00496*
X16385Y00494*
X16386Y00493*
X16386Y00493*
X16386Y00493*
X1648Y00408*
X16481Y00407*
X16482Y00407*
X16505Y00386*
Y00332*
X16426*
X16405Y00353*
X16404Y00388*
X16384Y00408*
X16321*
X16317Y00411*
X16317Y02317*
X16318Y02317*
Y0241*
X16318Y02414*
X1632Y02423*
X16323Y02431*
X16328Y02438*
X16335Y02445*
X16342Y02449*
X1635Y02453*
X16359Y02455*
X16363Y02455*
X16423*
X16436Y02458*
X16449Y02463*
X16461Y02471*
X16471Y02481*
X16479Y02492*
X16484Y02505*
X16487Y02519*
Y02526*
Y02565*
X16487Y02571*
X16489Y02582*
X16494Y02593*
X165Y02602*
X16508Y02611*
X16518Y02617*
X16529Y02622*
X1654Y02624*
X16546Y02624*
Y02626*
X16805*
Y02489*
G37*
G36*
X17128Y02454D02*
X17128Y02454D01*
X17129Y02453*
X1713Y02453*
X17131Y02453*
X17132Y02452*
X17133Y02452*
X17134Y02452*
X17138Y02452*
Y02442*
X17136Y02442*
X17134Y02442*
X17133Y02441*
X17132Y02441*
X17131Y02441*
X1713Y0244*
X1713Y0244*
X1713Y02439*
X17129Y02439*
X17127Y02455*
X17128Y02454*
G37*
G36*
X17322Y02585D02*
Y0209D01*
X17321Y01807*
X17288Y01779*
X17258*
X17252Y01783*
X17245Y01784*
X17237Y01783*
X17232Y01779*
X17226Y01783*
X17219Y01784*
X17211Y01783*
X17205Y01779*
X17189*
X17185Y01783*
X17186Y01786*
X17185Y01794*
X1718Y018*
X17174Y01804*
X17166Y01806*
X17158Y01804*
X17152Y018*
X17147Y01794*
X17146Y01786*
X17147Y01783*
X17143Y01779*
X16565*
X1656Y01784*
Y01881*
X16565Y01884*
X16615*
X1662Y01885*
X16623Y01887*
X16634Y01898*
X16637Y01897*
X16645Y01899*
X16651Y01903*
X16656Y0191*
X16657Y01917*
X16656Y01925*
X16651Y01932*
X16645Y01936*
X16637Y01937*
X16629Y01936*
X16623Y01932*
X16619Y01925*
X16617Y01917*
X16618Y01914*
X1661Y01907*
X16561*
X16558Y01912*
X16559Y01917*
X16557Y01925*
X16553Y01932*
X1655Y01933*
Y01955*
X16556Y0196*
X16847*
X16852Y01961*
X16855Y01964*
X16874Y01983*
X16877Y01986*
X16878Y01991*
Y02022*
X16898*
X16899Y02021*
X16906Y02016*
X16913Y02015*
X16921Y02016*
X16928Y02021*
X16932Y02027*
X16934Y02035*
X16932Y02043*
X16928Y02049*
X16921Y02054*
X16913Y02055*
X16908Y02054*
X16903Y02057*
Y02147*
X16832*
Y02022*
X16855*
Y01996*
X16842Y01983*
X16551*
X16547Y01982*
X16543Y0198*
X16532Y01969*
X16527Y01971*
Y02021*
X16564*
Y02138*
X16567Y02139*
X16569Y0214*
X16581Y02152*
X16582Y02153*
X16582Y02154*
X16583Y02154*
X16583Y02155*
X16583Y02156*
X16584Y02157*
X16584Y02158*
X16584Y02158*
X16584Y0216*
X16588Y02162*
X16591Y02163*
X16598Y02167*
X16602Y02173*
X16603Y02177*
X16604Y02178*
X16607Y02181*
X16607Y02181*
X16608Y02181*
X16609Y02182*
X1661Y02182*
X16611Y02182*
X16611Y02182*
X16612Y02183*
X16613Y02184*
X16639Y0221*
X16671*
X16671Y0221*
X16698*
Y02273*
X16714*
Y0221*
X16741*
X16741Y0221*
X16779*
X16782Y02211*
X16785Y02212*
X1681Y02238*
X16812Y0224*
X16813Y02243*
Y02337*
X16818Y02338*
X16819Y02336*
X16825Y02332*
X16832Y02331*
Y02212*
X1686*
X16863Y02207*
X16861Y02204*
X16859Y02196*
X16861Y02189*
X16865Y02182*
X16872Y02178*
X16879Y02176*
X16887Y02178*
X16894Y02182*
X16898Y02189*
X16899Y02196*
X16898Y02204*
X16896Y02207*
X16899Y02212*
X16903*
Y02328*
X16908Y02332*
X16913Y02331*
X16921Y02332*
X16927Y02336*
X16932Y02343*
X16933Y02351*
X16932Y02358*
X16927Y02365*
X16921Y02369*
X16913Y02371*
X16906Y02369*
X16899Y02365*
X16895Y02358*
X16893Y02351*
X16895Y02343*
X16896Y02341*
X16893Y02337*
X16853*
X1685Y02341*
X16852Y02343*
X16853Y02351*
X16852Y02358*
X16847Y02365*
X16841Y02369*
X16833Y02371*
X16825Y02369*
X16819Y02365*
X16818Y02363*
X16813Y02364*
Y02412*
X16813Y02413*
X16814Y02413*
X16822Y02416*
X16829Y02421*
X16834Y02428*
X16837Y02436*
X16838Y0244*
X16843Y02441*
X16846Y02436*
X16853Y02432*
X1686Y0243*
X16868Y02432*
X16871Y02434*
X16877Y02432*
X16879Y02428*
X16884Y02421*
X1689Y02416*
X16898Y02413*
X16906Y02412*
X16914Y02413*
X16922Y02416*
X16929Y02421*
X16934Y02428*
X16935Y02432*
X16942Y02434*
X16945Y02432*
X16952Y0243*
X1696Y02432*
X16967Y02436*
X1697Y02441*
X16975Y0244*
X16976Y02436*
X16979Y02428*
X16984Y02421*
X1699Y02416*
X16998Y02413*
X17006Y02412*
X17014Y02413*
X17022Y02416*
X17029Y02421*
X17034Y02428*
X17037Y02435*
X17041Y02437*
X17042Y02437*
X17042Y02436*
X17048Y02432*
X17056Y0243*
X17064Y02432*
X1707Y02436*
X1707Y02436*
X17075Y02436*
X17076Y02435*
X17079Y02428*
X17084Y02421*
X1709Y02416*
X17098Y02413*
X17106Y02412*
X17114Y02413*
X17122Y02416*
X17129Y02421*
X17134Y02428*
X17136Y02434*
X17138*
X17143Y02435*
X17147Y02438*
X17159Y02449*
X17162Y02453*
X17162Y02456*
X17166Y02459*
X17171Y02465*
X17172Y02473*
X17171Y0248*
X17166Y02487*
X1716Y02491*
X17152Y02493*
X17144Y02491*
X17138Y02487*
X17133Y0248*
X17132Y02473*
X17133Y02469*
X1713Y02467*
X17128Y02467*
X17122Y02471*
X17114Y02474*
X17106Y02476*
X17098Y02474*
X1709Y02471*
X17084Y02466*
X17079Y0246*
X17077Y0246*
X17073Y0246*
X1707Y02465*
X17064Y02469*
X17056Y0247*
X17048Y02469*
X17042Y02465*
X17039Y0246*
X17036Y0246*
X17033Y0246*
X17029Y02466*
X17022Y02471*
X17019Y02472*
Y02476*
X17018Y02481*
X17016Y02486*
X1701Y02492*
X1701Y02493*
X17008Y02501*
X17004Y02507*
X16997Y02511*
X1699Y02513*
X16982Y02511*
X16975Y02507*
X16971Y02501*
X1697Y02493*
X16971Y02485*
X16975Y02479*
X16982Y02474*
X16985Y02474*
X16987Y02468*
X16984Y02466*
X16979Y0246*
X16977Y02455*
X16971Y02455*
X16971Y02458*
X16967Y02465*
X1696Y02469*
X16952Y0247*
X16945Y02469*
X16938Y02465*
X16937Y02463*
X16931Y02463*
X16929Y02466*
X16924Y0247*
Y02477*
X16926Y02479*
X1693Y02485*
X16932Y02493*
X1693Y02501*
X16926Y02507*
X16919Y02511*
X16912Y02513*
X16904Y02511*
X16897Y02507*
X16893Y02501*
X16892Y02493*
X16893Y02485*
X16897Y02479*
X16896Y02474*
X1689Y02471*
X16884Y02466*
X16881Y02463*
X16875Y02463*
X16875Y02465*
X16868Y02469*
X1686Y0247*
X16853Y02469*
X16846Y02465*
X16842Y02458*
X16841Y02455*
X16836Y02454*
X16834Y0246*
X16829Y02466*
X16829Y02472*
X16831Y02473*
X16833Y02473*
X16841Y02474*
X16848Y02479*
X16852Y02485*
X16854Y02493*
X16852Y02501*
X16848Y02507*
X16841Y02511*
X16833Y02513*
X16826Y02511*
X16819Y02507*
X16818Y02505*
X16813Y02506*
Y02626*
X16818*
X17277*
X17322Y02585*
G37*
G36*
X17353Y02261D02*
X17353Y02262D01*
X17353Y02263*
X17352Y02264*
X17351Y02265*
X1735Y02266*
X17349Y02266*
X17347Y02267*
X17346Y02267*
X17344Y02267*
X17341Y02267*
Y02279*
X17344Y02279*
X17346Y02279*
X17347Y0228*
X17349Y0228*
X1735Y0228*
X17351Y02281*
X17352Y02282*
X17353Y02283*
X17353Y02284*
X17353Y02285*
Y02261*
G37*
G36*
Y02071D02*
X17353Y02072D01*
X17353Y02073*
X17352Y02074*
X17351Y02075*
X1735Y02076*
X17349Y02076*
X17347Y02077*
X17346Y02077*
X17344Y02077*
X17341Y02077*
Y02089*
X17344Y02089*
X17346Y02089*
X17347Y0209*
X17349Y0209*
X1735Y02091*
X17351Y02091*
X17352Y02092*
X17353Y02093*
X17353Y02094*
X17353Y02095*
Y02071*
G37*
G36*
X16872Y0203D02*
X16872Y0203D01*
X16871Y02029*
X16871Y02029*
X1687Y02028*
X1687Y02028*
X1687Y02027*
X1687Y02026*
X1687Y02025*
X1687Y02023*
X16863*
X16863Y02025*
X16863Y02026*
X16863Y02027*
X16862Y02028*
X16862Y02028*
X16862Y02029*
X16861Y02029*
X16861Y0203*
X1686Y0203*
X1686Y0203*
X16873*
X16872Y0203*
G37*
G36*
X16522Y02029D02*
X16521Y02028D01*
X16521Y02028*
X1652Y02028*
X1652Y02027*
X1652Y02026*
X16519Y02025*
X16519Y02024*
X16519Y02023*
X16519Y02022*
X16512*
X16512Y02023*
X16512Y02024*
X16512Y02025*
X16512Y02026*
X16512Y02027*
X16511Y02028*
X16511Y02028*
X1651Y02028*
X1651Y02029*
X16509Y02029*
X16522*
X16522Y02029*
G37*
G36*
X16542Y01935D02*
X16542Y01934D01*
X16543Y01933*
X16543Y01932*
X16543Y01931*
X16544Y0193*
X16545Y01929*
X16545Y01928*
X16546Y01927*
X16547Y01926*
X16531*
X16531Y01927*
X16532Y01928*
X16533Y01929*
X16534Y0193*
X16534Y01931*
X16535Y01932*
X16535Y01933*
X16535Y01934*
X16535Y01935*
X16535Y01936*
X16542*
X16542Y01935*
G37*
G36*
X16637Y01906D02*
X16636Y01906D01*
X16634Y01905*
X16633Y01905*
X16632Y01905*
X16631Y01905*
X1663Y01904*
X16629Y01904*
X16628Y01903*
X16627Y01903*
X16626Y01902*
X16622Y01907*
X16622Y01908*
X16623Y01908*
X16624Y01909*
X16624Y0191*
X16624Y01911*
X16625Y01912*
X16625Y01913*
X16625Y01915*
X16625Y01916*
X16625Y01917*
X16637Y01906*
G37*
G36*
X17164Y01645D02*
Y01403D01*
X17148Y01385*
X17054*
X17036Y01367*
Y0125*
X17026Y01239*
X16628*
X16586Y01272*
Y01634*
X16634Y01682*
X17119*
X17164Y01645*
G37*
G36*
X16849Y01149D02*
Y01019D01*
X16827Y00998*
X16732*
X16729Y01001*
X16729Y01002*
X16729Y01108*
X16774Y01153*
X16844*
X16849Y01149*
G37*
G36*
X17057Y01128D02*
Y01002D01*
X17047Y00992*
X17006*
X17Y00998*
X16941*
X16912Y01019*
Y01126*
X16939Y01153*
X17031Y01153*
X17057Y01128*
G37*
G36*
X16703Y01123D02*
X16719Y01107D01*
X16719Y00969*
X16567Y00969*
X16563Y00973*
Y01099*
X16587Y01123*
X16703*
G37*
G36*
X16729Y0096D02*
X1673Y0096D01*
Y00948*
X16727Y00948*
X16725Y00947*
X16724Y00947*
X16722Y00947*
X16721Y00946*
X1672Y00946*
X16719Y00945*
X16718Y00944*
X16718Y00943*
X16718Y00942*
X16718Y00948*
X16717*
Y0096*
X16718Y0096*
X16718Y00961*
X16718Y00961*
X16718Y00961*
X16719Y0096*
X1672Y0096*
X16721Y0096*
X16722Y0096*
X16723Y0096*
X16725Y0096*
X16726Y00961*
X16727Y00962*
X16728Y00962*
X16729Y00963*
X16729Y00964*
X16729Y00965*
X16729Y0096*
G37*
G36*
X16698Y00941D02*
X16698Y00942D01*
X16697Y00943*
X16697Y00944*
X16696Y00944*
X16695Y00945*
X16693Y00945*
X16692Y00946*
X1669Y00946*
X16688Y00946*
X16686Y00946*
Y00958*
X16688Y00958*
X16693Y00959*
X16695Y00959*
X16696Y00959*
X16696Y0096*
X16697Y0096*
X16697Y00961*
X16698Y00961*
X16698Y00941*
G37*
G36*
X16684Y00933D02*
X16684Y00932D01*
X16685Y00932*
X16686Y00931*
X16687Y00931*
X16688Y0093*
X16689Y0093*
X1669Y0093*
X16691Y0093*
X16692Y0093*
Y0092*
X16691Y0092*
X1669Y0092*
X16689Y0092*
X16688Y00919*
X16687Y00919*
X16686Y00919*
X16685Y00918*
X16684Y00918*
X16684Y00917*
X16683Y00917*
Y00933*
X16684Y00933*
G37*
G36*
X16699Y00887D02*
X16699Y00887D01*
X16699Y00888*
X16698Y00889*
X16697Y00889*
X16696Y00889*
X16695Y0089*
X16694Y0089*
X16693Y0089*
X16691Y0089*
X1669Y0089*
X16689Y0089*
X16688Y0089*
X16687Y0089*
X16686Y00889*
X16685Y00889*
X16684Y00888*
X16684Y00888*
X16683Y00887*
X16683Y00904*
X16683Y00903*
X16684Y00902*
X16685Y00902*
X16686Y00902*
X16687Y00901*
X16688Y00901*
X16689Y00901*
X1669Y009*
X16691Y009*
X16694Y00901*
X16695Y00901*
X16696Y00901*
X16697Y00902*
X16698Y00902*
X16699Y00903*
X16699Y00903*
X16699Y00904*
Y00887*
G37*
G36*
X16729Y00858D02*
X16729Y00858D01*
X16729Y00859*
X16728Y0086*
X16728Y0086*
X16727Y0086*
X16727Y00861*
X16726Y00861*
X16725Y00861*
X16724Y00861*
X16723Y00861*
X16722Y00861*
X16721Y00861*
X1672Y00861*
X16719Y00861*
X16718Y0086*
X16717Y0086*
X16717Y0086*
X16717Y00859*
X16716Y00858*
X16716Y00858*
Y00871*
X16716Y00871*
X16717Y0087*
X16717Y0087*
X16717Y00869*
X16718Y00869*
X16719Y00868*
X1672Y00868*
X16721Y00868*
X16722Y00868*
X16723Y00868*
X16724Y00868*
X16725Y00868*
X16726Y00868*
X16727Y00868*
X16727Y00869*
X16728Y00869*
X16728Y0087*
X16729Y0087*
X16729Y00871*
X16729Y00871*
Y00858*
G37*
G36*
X16684Y00872D02*
X16687Y0087D01*
X16688Y0087*
X16689Y00869*
X1669Y00869*
X16691Y00868*
X16692Y00868*
X16693Y00868*
X16693Y00868*
X16694Y00868*
X16695Y00868*
X16696Y00868*
X16697Y00868*
X16697Y00869*
X16698Y00869*
X16698Y0087*
X16699Y0087*
X16699Y00871*
X16699Y00871*
Y00858*
X16699Y00858*
X16699Y00859*
X16698Y0086*
X16698Y0086*
X16697Y0086*
X16697Y00861*
X16696Y00861*
X16695Y00861*
X16694Y00861*
X16693Y00861*
X16692Y00861*
X16691Y00861*
X1669Y0086*
X16689Y0086*
X16689Y00859*
X16688Y00859*
X16687Y00858*
X16686Y00857*
X16685Y00856*
X16683Y00872*
X16684Y00872*
G37*
G36*
X1702Y00757D02*
X1702Y00758D01*
X1702Y00758*
X17019Y00759*
X17019Y00759*
X17018Y00759*
X17018Y0076*
X17017Y0076*
X17016Y0076*
X17015Y0076*
X17014Y0076*
Y00766*
X17015Y00766*
X17016Y00766*
X17017Y00767*
X17018Y00767*
X17018Y00767*
X17019Y00768*
X17019Y00768*
X1702Y00768*
X1702Y00769*
X1702Y0077*
Y00757*
G37*
G36*
X16951Y00756D02*
X1695Y00756D01*
X1695Y00756*
X1695Y00755*
X16949Y00755*
X16949Y00754*
X16949Y00753*
X16949Y00753*
X16949Y00752*
X16949Y00751*
X16949Y00749*
X1695Y00747*
X16951Y00746*
X16952Y00743*
X16936Y00748*
X16938Y00748*
X16938Y00749*
X16939Y0075*
X1694Y00751*
X16941Y00751*
X16941Y00752*
X16942Y00753*
X16942Y00754*
X16942Y00754*
X16942Y00755*
X16942Y00755*
X16942Y00756*
X16942Y00756*
X16941Y00756*
X16941Y00756*
X16952Y00756*
X16951Y00756*
G37*
G36*
X16921Y00795D02*
Y00741D01*
X1689*
X16867Y00718*
X16845*
Y00747*
X16841Y00751*
X16749*
X1674Y0074*
Y0046*
X16711*
Y00454*
X16708Y0045*
X16657Y00451*
X16655Y00475*
X16613Y00528*
Y00824*
X16628Y00839*
X16877*
X16921Y00795*
G37*
G36*
X17174Y00725D02*
X17174Y00722D01*
X17174Y00721*
X17175Y0072*
X17175Y00719*
X17176Y00718*
X17176Y00718*
X17177Y00717*
X17178Y00717*
X17158*
X17159Y00717*
X1716Y00718*
X1716Y00718*
X17161Y00719*
X17161Y0072*
X17161Y00721*
X17162Y00722*
X17162Y00724*
X17162Y00725*
X17162Y00727*
X17174*
X17174Y00725*
G37*
G36*
X17151Y01334D02*
X17187Y01297D01*
X17189Y00806*
X17186Y00802*
X17141*
Y00725*
X17131*
Y00725*
X17075*
X17071Y00721*
X17062*
Y00685*
X17058Y00682*
X17022Y00683*
X17023Y00744*
X17059*
Y00792*
X17008*
Y00778*
X17003*
X16997Y00777*
X16993Y00774*
X16985Y00767*
X1698Y00768*
Y00792*
X16933*
X1693Y00795*
X16929Y00798*
X16927Y008*
X16883Y00845*
X1688Y00846*
X16877Y00847*
X16796*
X16796Y00954*
X16814Y00972*
X17076*
X17092Y00988*
Y01334*
X17151*
G37*
G36*
X16837Y0068D02*
X16833Y00677D01*
X16748*
X16748Y00681*
Y00737*
X16753Y00743*
X16837*
X16837Y0068*
G37*
G36*
X17179Y00647D02*
X17178Y00646D01*
X17177Y00646*
X17176Y00645*
X17175Y00644*
X17175Y00643*
X17174Y00641*
X17174Y00641*
X17174Y0064*
X17175Y00639*
X17175Y00639*
X17175Y00638*
X17176Y00637*
X17176Y00637*
X17174*
X17174Y00635*
X17162*
X17162Y00637*
X1716*
X1716Y00637*
X17161Y00638*
X17161Y00639*
X17161Y00639*
X17161Y0064*
X17162Y00641*
X17161Y00641*
X17161Y00643*
X17161Y00644*
X1716Y00645*
X17159Y00646*
X17158Y00646*
X17157Y00647*
X17156Y00647*
X1718*
X17179Y00647*
G37*
G36*
X17174Y00627D02*
X17174Y00623D01*
X17174Y00622*
X17175Y00621*
X17175Y0062*
X17175Y0062*
X17176*
X17176Y0062*
Y0062*
X17176Y00619*
X17176Y00619*
X17177Y00619*
X17178Y00618*
X17175*
X17175Y00618*
X17175Y00617*
X17174Y00617*
X17174Y00616*
X17174Y00615*
X17174Y00614*
X17174Y00611*
X17162*
X17162Y00612*
X17162Y00615*
X17162Y00616*
X17161Y00617*
X17161Y00617*
X17161Y00618*
X17161Y00618*
X17158*
X17159Y00619*
X17159Y00619*
X1716Y00619*
X1716Y0062*
X1716Y0062*
X1716Y0062*
X17161*
X17161Y0062*
X17161Y00621*
X17161Y00622*
X17162Y00623*
X17162Y00625*
X17162Y00627*
X17162Y00628*
X17174*
X17174Y00627*
G37*
G36*
X16604Y00554D02*
X16599Y00549D01*
X16499*
X16482Y00562*
Y00823*
X16604*
Y00554*
G37*
G36*
X17174Y00538D02*
X17174Y00536D01*
X1718*
X17179Y00536*
X17178Y00536*
X17177Y00535*
X17176Y00534*
X17175Y00533*
X17175Y00532*
X17175Y00532*
X17176Y00531*
X17176Y00531*
X17174*
X17174Y0053*
X17174Y00529*
X17174Y00527*
X17174Y00524*
X17162*
X17162Y00527*
X17162Y00529*
X17161Y0053*
X17161Y00531*
X1716*
X1716Y00531*
X17161Y00532*
X17161Y00532*
X17161Y00533*
X1716Y00534*
X17159Y00535*
X17158Y00536*
X17157Y00536*
X17156Y00536*
X17162*
X17162Y00537*
X17162Y0054*
X17174*
X17174Y00538*
G37*
G36*
X16857Y00603D02*
X16861Y006D01*
Y00494*
X16835*
X16827Y00493*
X1682Y0049*
X16814Y00486*
X16809Y00479*
X16807Y00474*
X1677*
X16756Y00491*
Y00594*
X16765Y00603*
X16857*
G37*
G36*
X17109Y00713D02*
X17131Y00691D01*
Y00639*
X17135*
Y00505*
X17113Y00471*
X17096Y00471*
X17096Y00472*
X17093Y00479*
X17088Y00486*
X17082Y0049*
X17075Y00493*
X17067Y00494*
X17042*
Y00549*
X17042Y0055*
X17042Y00552*
Y00604*
X17067*
X17075Y00605*
X17082Y00608*
X17088Y00613*
X17093Y00619*
X17096Y00626*
X17097Y00634*
X17096Y00641*
X17093Y00649*
X17088Y00655*
X17082Y0066*
X17075Y00663*
X17068Y00663*
Y00681*
X17069Y00682*
X17069Y00682*
X17069Y00682*
X17069Y00683*
X1707Y00685*
X1707Y00685*
X1707Y00685*
Y00709*
X1707Y0071*
X17075Y00713*
X17109*
G37*
G36*
X16941Y00705D02*
X16986D01*
X17012Y00676*
Y00673*
X17012*
Y00661*
X17009Y0066*
X17003Y00655*
X16998Y00649*
X16995Y00641*
X16994Y00634*
X16995Y00626*
X16998Y00619*
X17003Y00613*
X17009Y00608*
X17016Y00605*
X17024Y00604*
X17034*
Y00494*
X17024*
X17016Y00493*
X17009Y0049*
X17003Y00486*
X16998Y00479*
X16995Y00472*
X16994Y00464*
X16995Y00457*
X16998Y0045*
X16998Y00449*
X16996Y00445*
X16906*
X16904Y00449*
X16904Y0045*
X16907Y00457*
X16908Y00464*
X16907Y00472*
X16904Y00479*
X16899Y00486*
X16893Y0049*
X16886Y00493*
X16878Y00494*
X16875*
Y00603*
X16879Y00604*
X16886Y00605*
X16893Y00608*
X16899Y00613*
X16904Y00619*
X16907Y00626*
X16908Y00634*
X16907Y00641*
X16904Y00649*
X16899Y00655*
X16893Y0066*
X16886Y00663*
X16878Y00664*
X16845*
Y00701*
X1687*
X16882Y00713*
X16933*
X16941Y00705*
G37*
G36*
X16474Y00824D02*
Y00558D01*
X16496Y00541*
X16603*
Y0045*
X16549*
Y00414*
X16486*
X16392Y00499*
X16392Y00824*
X16474*
G37*
G36*
X16648Y00472D02*
X16648Y00462D01*
Y00442*
X16709*
Y00443*
X16711Y00443*
X16711Y00443*
X16711*
X16712Y00444*
X16713Y00445*
X16713Y00445*
X16713*
X16717Y00448*
X16717Y00448*
X16717Y00448*
X16718Y00449*
X16719Y00451*
Y00451*
X16719Y00451*
X16719Y00451*
X1674*
X16743Y00452*
X16743Y00452*
X16748Y00451*
X16748Y00448*
Y00406*
X16743Y00403*
X16712*
X16709Y00407*
Y00407*
X16648*
Y00367*
X1666*
X16664Y00362*
X16662Y00357*
X16664Y00349*
X16668Y00342*
X16675Y00338*
X16682Y00337*
X1669Y00338*
X16697Y00342*
X16701Y00349*
X16703Y00357*
X16701Y00362*
X16704Y00367*
X16709*
X16712Y00369*
X16743*
X16745*
X16748Y00365*
Y0031*
X16695Y00268*
X16346*
X16317Y00297*
Y00395*
X16321Y004*
X1638*
X16396Y00384*
X16396Y00373*
Y00343*
X16404*
X1642Y00327*
X16423Y00325*
X16426Y00324*
X16476*
Y00323*
X16515*
X16515Y00323*
X16567*
X1657Y00324*
X16571Y00324*
X16579*
Y00334*
X16579Y00334*
Y00349*
X16579Y0035*
X16585Y0035*
X16585*
X16585*
X16587Y0035*
X16589Y0035*
Y0035*
X16589*
X1659Y00351*
X16591Y00352*
X16606Y00367*
X16611*
Y00375*
X16611Y00375*
Y00399*
X16611Y004*
Y00407*
X16604*
X16603Y00407*
X1656*
X16559Y00408*
X16557Y00412*
X16557Y00414*
Y00442*
X16603*
X16604Y00442*
X16611*
Y00449*
X16611Y0045*
Y00509*
X16616Y00511*
X16648Y00472*
G37*
G36*
X1672Y00389D02*
X16724Y00389D01*
Y00382*
X16724Y00382*
X16724Y00382*
X16723Y00382*
X1672Y00382*
Y00379*
X1672Y00379*
X1672Y0038*
X16719Y0038*
X16719Y00381*
X16718Y00381*
X16717Y00381*
X16717Y00382*
X16716Y00382*
X16714Y00382*
X16713Y00382*
Y00389*
X16714Y00389*
X16716Y00389*
X16717Y00389*
X16717Y00389*
X16718Y00389*
X16719Y0039*
X16719Y0039*
X1672Y00391*
X1672Y00391*
X1672Y00392*
Y00389*
G37*
G36*
X16701Y00391D02*
X16701Y00391D01*
X16702Y0039*
X16702Y0039*
X16703Y00389*
X16704Y00389*
X16705Y00389*
X16706Y00389*
X16707Y00389*
X16708Y00389*
Y00382*
X16707Y00382*
X16706Y00382*
X16705Y00382*
X16704Y00381*
X16703Y00381*
X16702Y00381*
X16702Y0038*
X16701Y0038*
X16701Y00379*
X16701Y00379*
Y00392*
X16701Y00391*
G37*
G36*
X16686Y00379D02*
X16686Y00379D01*
X16686Y00378*
X16686Y00375*
X1669*
X16689Y00375*
X16688Y00375*
X16688Y00375*
X16687Y00374*
X16687Y00374*
X16687Y00373*
X16687Y00372*
X16687Y00372*
X16687Y00371*
X16687Y0037*
X16688Y00369*
X16689Y00368*
X16689Y00367*
X1669Y00366*
X16691Y00365*
X16686Y00365*
X16686Y00361*
X16679*
X16679Y00361*
X16679Y00361*
X1668Y00362*
X1668Y00365*
X16675Y00365*
X16676Y00366*
X16676Y00367*
X16677Y00368*
X16678Y00369*
X16678Y0037*
X16679Y00371*
X16679Y00372*
X16679Y00372*
X16679Y00373*
X16679Y00374*
X16678Y00374*
X16678Y00375*
X16677Y00375*
X16677Y00375*
X16676Y00375*
X16679*
X16679Y00379*
X16686*
X16686Y00379*
G37*
G36*
X16603Y00375D02*
X16585Y00358D01*
X16579Y00358*
X16577*
X16576*
X16571Y00352*
Y00334*
X16567Y00331*
X16515*
Y00394*
X1652Y00399*
X16603*
Y00375*
G37*
G36*
X1732Y0148D02*
Y00192D01*
X17281Y00152*
X16829*
X16818Y00163*
Y00208*
X16827Y00216*
X17238*
X17258Y00237*
X17259Y0139*
X17232Y01413*
Y0148*
X17245Y01493*
X17312*
X1732Y0148*
G37*
%LNnas-craftsman_nixie_v1-2*%
%LPC*%
G36*
X16602Y02527D02*
X16594Y02526D01*
X16588Y02522*
X16583Y02524*
X16581Y02526*
X16573Y02527*
X16566Y02526*
X16559Y02521*
X16555Y02515*
X16553Y02507*
X16555Y02499*
X16558Y02494*
Y02459*
X16617*
Y02485*
X16622Y02488*
X16623Y02487*
Y02449*
X16622Y02449*
X16617Y02451*
X16558*
Y02448*
X16553Y02446*
X16549Y0245*
Y02499*
X16542*
X16539Y02502*
X16538Y02509*
X16533Y02516*
X16527Y0252*
X16519Y02522*
X16511Y0252*
X16505Y02516*
X16501Y02509*
X16499Y02502*
X16501Y02494*
X16505Y02488*
X16511Y02483*
X16515Y02482*
Y02434*
X16533*
X16544Y02422*
X16548Y0242*
X16552Y02419*
X16558*
Y02408*
X16617*
Y02418*
X16624*
X16628Y02419*
X16632Y02421*
X16642Y02432*
X16643Y02432*
X16656*
Y02464*
Y02491*
X16658Y02494*
X1666Y02502*
X16658Y02509*
X16654Y02516*
X16647Y0252*
X1664Y02522*
X16632Y0252*
X16626Y02516*
X16625Y02515*
X1662Y02516*
X16616Y02522*
X1661Y02526*
X16602Y02527*
G37*
G36*
X16584Y02395D02*
X16576Y02393D01*
X1657Y02389*
X16565Y02382*
X16564Y02375*
X16565Y02367*
X1657Y0236*
X16576Y02356*
X16584Y02354*
X16591Y02356*
X16598Y0236*
X16602Y02367*
X16604Y02375*
X16602Y02382*
X16598Y02389*
X16591Y02393*
X16584Y02395*
G37*
G36*
X16564Y02336D02*
X16493D01*
Y02287*
X1649Y02285*
X16488Y02285*
X16481Y02287*
X16473Y02285*
X16467Y02281*
X16463Y02274*
X16461Y02266*
X16463Y02259*
X16467Y02252*
X16473Y02248*
X16481Y02246*
X16488Y02248*
X1649Y02248*
X16493Y02246*
Y0221*
X16564*
Y02336*
G37*
G36*
X16632Y02287D02*
X16625Y02285D01*
X16618Y02281*
X16614Y02274*
X16612Y02266*
X16614Y02259*
X16618Y02252*
X16625Y02248*
X16632Y02246*
X1664Y02248*
X16647Y02252*
X16651Y02259*
X16653Y02266*
X16651Y02274*
X16647Y02281*
X1664Y02285*
X16632Y02287*
G37*
G36*
X16382D02*
X16374Y02285D01*
X16368Y02281*
X16363Y02274*
X16362Y02266*
X16363Y02259*
X16368Y02252*
X16374Y02248*
X16382Y02246*
X16389Y02248*
X16396Y02252*
X164Y02259*
X16402Y02266*
X164Y02274*
X16396Y02281*
X16389Y02285*
X16382Y02287*
G37*
G36*
X16483Y02201D02*
X16475Y022D01*
X16469Y02195*
X16464Y02189*
X16463Y02181*
X16464Y02173*
X16469Y02167*
X16475Y02163*
X16483Y02161*
X1649Y02163*
X16497Y02167*
X16501Y02173*
X16503Y02181*
X16501Y02189*
X16497Y02195*
X1649Y022*
X16483Y02201*
G37*
G36*
X16382Y02171D02*
X16374Y02169D01*
X16368Y02165*
X16363Y02158*
X16362Y02151*
X16363Y02143*
X16368Y02137*
X16374Y02132*
X16382Y02131*
X16389Y02132*
X16396Y02137*
X164Y02143*
X16402Y02151*
X164Y02158*
X16396Y02165*
X16389Y02169*
X16382Y02171*
G37*
G36*
X16461Y02062D02*
X16454Y0206D01*
X1645Y02058*
X16446Y02056*
X16443Y02058*
X16439Y0206*
X16431Y02062*
X16424Y0206*
X16417Y02056*
X16413Y02049*
X16411Y02042*
X16413Y02034*
X16417Y02027*
X16424Y02023*
X16431Y02021*
X16439Y02023*
X16443Y02025*
X16446Y02027*
X1645Y02025*
X16454Y02023*
X16461Y02021*
X16469Y02023*
X16476Y02027*
X1648Y02034*
X16481Y02042*
X1648Y02049*
X16476Y02056*
X16469Y0206*
X16461Y02062*
G37*
G36*
X1645Y01522D02*
X16443Y01521D01*
X16436Y01516*
X16432Y0151*
X1643Y01502*
X16432Y01494*
X16435Y0149*
X16436Y01487*
X16435Y01483*
X16432Y01479*
X1643Y01471*
X16432Y01463*
X16436Y01458*
X16432Y01452*
X1643Y01444*
X16432Y01436*
X16436Y0143*
X16432Y01424*
X1643Y01416*
X16432Y01409*
X16436Y01402*
X16443Y01398*
X1645Y01396*
X16458Y01398*
X16465Y01402*
X16469Y01409*
X1647Y01416*
X16469Y01424*
X16465Y0143*
X16469Y01436*
X1647Y01444*
X16469Y01452*
X16465Y01458*
X16469Y01463*
X1647Y01471*
X16469Y01479*
X16466Y01483*
X16465Y01487*
X16466Y0149*
X16469Y01494*
X1647Y01502*
X16469Y0151*
X16465Y01516*
X16458Y01521*
X1645Y01522*
G37*
G36*
X17214Y02474D02*
Y02452D01*
X17237*
X17237Y02452*
X17234Y0246*
X17229Y02466*
X17222Y02471*
X17214Y02474*
X17214Y02474*
G37*
G36*
X17198D02*
X17198Y02474D01*
X1719Y02471*
X17184Y02466*
X17179Y0246*
X17176Y02452*
X17176Y02452*
X17198*
Y02474*
G37*
G36*
X17237Y02436D02*
X17214D01*
Y02413*
X17214Y02413*
X17222Y02416*
X17229Y02421*
X17234Y02428*
X17237Y02436*
X17237Y02436*
G37*
G36*
X17198D02*
X17176D01*
X17176Y02436*
X17179Y02428*
X17184Y02421*
X1719Y02416*
X17198Y02413*
X17198Y02413*
Y02436*
G37*
G36*
X1708Y02337D02*
X17052D01*
Y02282*
X1708*
Y02337*
G37*
G36*
X16995Y02371D02*
X16987Y02369D01*
X1698Y02365*
X16976Y02358*
X16974Y02351*
X16976Y02343*
X1698Y02336*
X16987Y02332*
X16995Y02331*
X17002Y02332*
X17004Y02333*
X17009Y02331*
Y02282*
X17037*
Y02337*
X17015*
X17012Y02342*
X17013Y02343*
X17015Y02351*
X17013Y02358*
X17009Y02365*
X17002Y02369*
X16995Y02371*
G37*
G36*
X17239Y02336D02*
X17168D01*
Y0221*
X17239*
Y02251*
X17244Y02254*
X1725Y02252*
X17258Y02254*
X17264Y02258*
X17269Y02265*
X1727Y02272*
X17269Y0228*
X17264Y02287*
X17258Y02291*
X1725Y02292*
X17244Y02291*
X17239Y02294*
Y02336*
G37*
G36*
X1712Y02292D02*
X17112Y0229D01*
X17106Y02286*
X17101Y02279*
X171Y02272*
X17101Y02264*
X17106Y02258*
X17112Y02253*
X1712Y02252*
X17127Y02253*
X17134Y02258*
X17138Y02264*
X1714Y02272*
X17138Y02279*
X17134Y02286*
X17127Y0229*
X1712Y02292*
G37*
G36*
X17133Y0222D02*
X17125Y02219D01*
X1712Y02215*
X17115Y02219*
X17107Y0222*
X171Y02219*
X17093Y02214*
X17089Y02208*
X17087Y022*
X17089Y02192*
X17093Y02186*
X171Y02182*
X17107Y0218*
X17115Y02182*
X1712Y02185*
X17125Y02182*
X17133Y0218*
X17141Y02182*
X17147Y02186*
X17152Y02193*
X17153Y022*
X17152Y02208*
X17147Y02214*
X17141Y02219*
X17133Y0222*
G37*
G36*
X1708Y02266D02*
X17052D01*
Y02212*
X1708*
Y02266*
G37*
G36*
X17037D02*
X17009D01*
Y02212*
X17037*
Y02266*
G37*
G36*
X16683Y02201D02*
X16675Y022D01*
X16669Y02195*
X16664Y02189*
X16663Y02181*
X16664Y02173*
X16669Y02167*
X16675Y02163*
X16683Y02161*
X16691Y02163*
X16697Y02167*
X16702Y02173*
X16703Y02181*
X16702Y02189*
X16697Y02195*
X16691Y022*
X16683Y02201*
G37*
G36*
X17037Y02147D02*
X17009D01*
Y02112*
X17005Y0211*
X17003Y02111*
X16995Y02113*
X16988Y02111*
X16981Y02107*
X16977Y021*
X16975Y02092*
X16977Y02085*
X16981Y02078*
Y02074*
X16977Y02068*
X16975Y0206*
X16977Y02052*
X16981Y02046*
X16988Y02041*
X16995Y0204*
X17003Y02041*
X17005Y02042*
X17009Y0204*
Y02033*
X17007Y02031*
X16999Y0203*
X16993Y02025*
X16988Y02019*
X16987Y02011*
X16988Y02003*
X16993Y01997*
X16999Y01992*
X17007Y01991*
X17014Y01992*
X17021Y01997*
X17025Y02003*
X17027Y02011*
X17026Y02017*
X17029Y02022*
X17047*
X1705Y02017*
X17049Y02011*
X17051Y02003*
X17055Y01997*
X17062Y01993*
X17069Y01991*
X17077Y01993*
X17083Y01997*
X17088Y02003*
X17089Y02011*
X17088Y02019*
X17083Y02025*
X1708Y02028*
Y02077*
X17045*
Y02085*
X17037*
Y02147*
G37*
G36*
X1708D02*
X17052D01*
Y02093*
X1708*
Y02099*
X17085Y02102*
X17091Y02101*
X17098Y02102*
X17105Y02107*
X17109Y02113*
X17111Y02121*
X17109Y02129*
X17105Y02135*
X17098Y02139*
X17091Y02141*
X17085Y0214*
X1708Y02143*
Y02147*
G37*
G36*
X16698Y02146D02*
X16671D01*
Y02091*
X16698*
Y02146*
G37*
G36*
X16741D02*
X16714D01*
Y02083*
Y02021*
X16741*
Y02084*
X16743Y02084*
X16746Y02084*
X1675Y02079*
X16757Y02074*
X16765Y02073*
X16772Y02074*
X16777Y02078*
X16783Y02074*
X1679Y02073*
X16798Y02074*
X16805Y02079*
X16809Y02085*
X1681Y02093*
X16809Y02101*
X16806Y02105*
X16809Y02108*
X1681Y02116*
X16809Y02124*
X16805Y0213*
X16798Y02135*
X1679Y02136*
X16783Y02135*
X16777Y02131*
X16772Y02135*
X16765Y02136*
X16757Y02135*
X1675Y0213*
X16746Y02124*
X16743Y02125*
X16741Y02125*
Y02146*
G37*
G36*
X16698Y02075D02*
X16671D01*
Y02021*
X16698*
Y02075*
G37*
G36*
X16617Y0206D02*
X16609Y02058D01*
X16603Y02054*
X16598Y02048*
X16597Y0204*
X16598Y02032*
X16603Y02026*
X16609Y02021*
X16617Y0202*
X16625Y02021*
X16631Y02026*
X16635Y02032*
X16637Y0204*
X16635Y02048*
X16631Y02054*
X16625Y02058*
X16617Y0206*
G37*
G36*
X17281Y02059D02*
X17273Y02058D01*
X17267Y02053*
X17263Y02047*
X17261Y02039*
X17263Y02031*
X17267Y02025*
X17273Y0202*
X17281Y02019*
X17289Y0202*
X17295Y02025*
X173Y02031*
X17301Y02039*
X173Y02047*
X17295Y02053*
X17289Y02058*
X17281Y02059*
G37*
G36*
X17239Y02146D02*
X17168D01*
Y02021*
X17179*
Y01929*
X17174Y01926*
X1717Y01919*
X17168Y01911*
X1717Y01904*
X17174Y01897*
X17181Y01893*
X17188Y01891*
X17196Y01893*
X17202Y01897*
X17207Y01904*
X17208Y01911*
X17207Y01919*
X17202Y01926*
X17202Y01926*
Y02021*
X17239*
Y02146*
G37*
G36*
X17137Y01931D02*
X17129Y0193D01*
X17123Y01926*
X17118Y01919*
X17117Y01911*
X17118Y01904*
X17123Y01897*
X17129Y01893*
X17137Y01891*
X17144Y01893*
X17151Y01897*
X17155Y01904*
X17157Y01911*
X17155Y01919*
X17151Y01926*
X17144Y0193*
X17137Y01931*
G37*
G36*
X17087D02*
X17079Y0193D01*
X17073Y01926*
X17068Y01919*
X17067Y01911*
X17068Y01904*
X17073Y01897*
X17079Y01893*
X17087Y01891*
X17095Y01893*
X17101Y01897*
X17105Y01904*
X17107Y01911*
X17105Y01919*
X17101Y01926*
X17095Y0193*
X17087Y01931*
G37*
G36*
X16979Y01929D02*
X16972Y01927D01*
X16965Y01923*
X16961Y01917*
X16959Y01909*
X16961Y01901*
X16965Y01895*
X16972Y0189*
X16979Y01889*
X16987Y0189*
X16993Y01895*
X16998Y01901*
X16999Y01909*
X16998Y01917*
X16993Y01923*
X16987Y01927*
X16979Y01929*
G37*
G36*
X1705Y00882D02*
X17014D01*
Y0088*
X17008*
Y00881*
X16934*
Y0084*
X17008*
Y00844*
X17014*
Y00844*
X1705*
Y00882*
G37*
G36*
X16803Y00572D02*
X16795Y0057D01*
X16787Y00565*
X16782Y00558*
X16781Y00549*
X16782Y00541*
X16787Y00533*
X16795Y00528*
X16803Y00527*
X16812Y00528*
X16819Y00533*
X16824Y00541*
X16826Y00549*
X16824Y00558*
X16819Y00565*
X16812Y0057*
X16803Y00572*
G37*
G36*
X17098D02*
X1709Y0057D01*
X17083Y00565*
X17078Y00558*
X17076Y00549*
X17078Y00541*
X17083Y00533*
X1709Y00528*
X17098Y00527*
X17107Y00528*
X17114Y00533*
X17119Y00541*
X17121Y00549*
X17119Y00558*
X17114Y00565*
X17107Y0057*
X17098Y00572*
G37*
G36*
X16967Y00638D02*
X1696Y00636D01*
X16953Y00632*
X16951*
X16945Y00636*
X16937Y00638*
X16929Y00636*
X16923Y00632*
X16918Y00625*
X16917Y00618*
X16918Y00613*
X16914Y00608*
X16907*
Y00558*
X16923*
Y00554*
X16926*
X16927Y0055*
X16928Y00549*
X16925Y00544*
X16923*
Y0054*
X16907*
Y0049*
X16915*
X16918Y00485*
X16917Y00479*
X16918Y00471*
X16923Y00465*
X16929Y0046*
X16937Y00459*
X16945Y0046*
X16951Y00465*
X16955Y00471*
X16957Y00479*
X16957Y00481*
X1696Y00486*
X16978*
Y0049*
X16994*
Y0054*
X16978*
Y00544*
X16973*
X16971Y00548*
X16969Y0055*
X16971Y00554*
X16978*
Y00558*
X16994*
Y00608*
X1699*
X16986Y00613*
X16987Y00618*
X16986Y00625*
X16981Y00632*
X16975Y00636*
X16967Y00638*
G37*
%LNnas-craftsman_nixie_v1-3*%
%LPD*%
G36*
X16605Y025D02*
X16605Y02499D01*
X1661Y02499*
X16609Y02498*
X16608Y02497*
X16607Y02496*
X16607Y02495*
X16607Y02495*
X16607Y02494*
X16608Y02494*
X16608Y02494*
X16606*
X16606Y02494*
X16606Y02493*
X16605Y02492*
X16605Y02491*
X16605Y0249*
X16605Y02489*
X16598Y02489*
X16598Y0249*
X16598Y02491*
X16598Y02492*
X16597Y02493*
X16597Y02494*
X16595*
X16596Y02494*
X16596Y02494*
X16597Y02495*
X16597Y02495*
X16597Y02495*
X16596Y02496*
X16595Y02497*
X16594Y02498*
X16593Y02499*
X16598Y02499*
X16598Y025*
X16598Y02501*
X16605*
X16605Y025*
G37*
G36*
X16577D02*
X16577Y02499D01*
X16582Y02499*
X16581Y02498*
X1658Y02496*
X16579Y02495*
X16579Y02495*
X16579Y02495*
X1658Y02494*
X1658Y02494*
X16581Y02494*
X16579*
X16579Y02494*
X16578Y02493*
X16578Y02492*
X16578Y02491*
X16577Y0249*
X16577Y02489*
X16571Y02488*
X16571Y02489*
X1657Y0249*
X1657Y02491*
X1657Y02492*
X16569Y02493*
X16569Y02494*
X16567*
X16568Y02494*
X16569Y02494*
X16569Y02495*
X16568Y02495*
X16567Y02496*
X16567Y02497*
X16566Y02498*
X16571Y02498*
X16571Y02499*
X16571Y025*
X16571Y02501*
X16577*
X16577Y025*
G37*
G36*
X16525Y02496D02*
X16529Y02492D01*
X16531Y02492*
X16532Y02491*
X16533Y02491*
X16534Y0249*
X16534Y02491*
X16535Y02491*
X16523Y02483*
X16524Y02484*
X16524Y02484*
X16524Y02485*
X16524Y02486*
X16524Y02487*
X16523Y02488*
X16522Y02489*
X16521Y0249*
X16519Y02493*
X16523Y02498*
X16525Y02496*
G37*
G36*
X16643Y02495D02*
X16643Y02493D01*
X16643Y02493*
X16648*
X16647Y02492*
X16646Y02491*
X16645Y0249*
X16645Y0249*
X16645Y02489*
X16646Y02489*
X16646Y02489*
X16645*
X16644Y02488*
X16644Y02487*
X16644Y02486*
X16643Y02485*
X16643Y02484*
X16643Y02483*
X16636*
X16636Y02484*
X16636Y02485*
X16636Y02486*
X16636Y02487*
X16635Y02488*
X16635Y02489*
X16633*
X16634Y02489*
X16634Y02489*
X16634Y0249*
X16634Y0249*
X16633Y02491*
X16632Y02492*
X16631Y02493*
X16636*
X16636Y02493*
X16636Y02495*
X16636Y02496*
X16643*
X16643Y02495*
G37*
G36*
X1654Y02451D02*
X1654Y0245D01*
X1654Y02449*
X1654Y02449*
X16541Y02448*
X16541Y02447*
X16542Y02446*
X16543Y02444*
X16546Y02442*
X16541Y02437*
X16539Y02438*
X16537Y02441*
X16536Y02441*
X16535Y02442*
X16534Y02442*
X16533Y02442*
X16532Y02442*
X16532Y02442*
X16531Y02442*
X16541Y02451*
X1654Y02451*
G37*
G36*
X16566Y02424D02*
X16566Y02424D01*
X16566Y02425*
X16566Y02425*
X16565Y02426*
X16565Y02426*
X16564Y02427*
X16563Y02427*
X16562Y02427*
X16561Y02427*
X1656Y02427*
Y02434*
X16561Y02434*
X16562Y02434*
X16563Y02434*
X16564Y02434*
X16565Y02435*
X16565Y02435*
X16566Y02435*
X16566Y02436*
X16566Y02436*
X16566Y02437*
Y02424*
G37*
G36*
X16609Y02435D02*
X1661Y02435D01*
X1661Y02434*
X1661Y02434*
X16611Y02434*
X16612Y02433*
X16613Y02433*
X16614Y02433*
X16615Y02433*
X16616Y02433*
Y02426*
X16615Y02426*
X16614Y02426*
X16613Y02426*
X16612Y02426*
X16611Y02425*
X1661Y02425*
X1661Y02424*
X1661Y02424*
X16609Y02423*
X16609Y02423*
Y02436*
X16609Y02435*
G37*
G36*
X17197Y02029D02*
X17196Y02028D01*
X17196Y02028*
X17195Y02028*
X17195Y02027*
X17195Y02026*
X17194Y02025*
X17194Y02024*
X17194Y02023*
X17194Y02022*
X17187*
X17187Y02023*
X17187Y02024*
X17187Y02025*
X17187Y02026*
X17186Y02027*
X17186Y02028*
X17186Y02028*
X17185Y02028*
X17185Y02029*
X17184Y02029*
X17197*
X17197Y02029*
G37*
G36*
X17194Y01929D02*
X17194Y01928D01*
X17194Y01927*
X17194Y01926*
X17195Y01925*
X17195Y01924*
X17195Y01923*
X17196Y01921*
X17197Y01919*
X17198Y01918*
X17182Y01921*
X17183Y01922*
X17184Y01923*
X17185Y01924*
X17185Y01924*
X17186Y01925*
X17186Y01926*
X17187Y01927*
X17187Y01928*
X17187Y01929*
X17187Y0193*
X17194Y01929*
G37*
G36*
X17022Y00852D02*
X17022Y00852D01*
X17021Y00852*
X17019Y00852*
X17015Y00852*
X17007Y00851*
X17005Y00851*
X17003Y00851*
X17002Y0085*
X17001Y00849*
X17001Y00849*
X17Y00848*
Y00873*
X17001Y00873*
X17001Y00873*
X17002Y00872*
X17003Y00872*
X17007Y00872*
X17009Y00872*
X1702Y00873*
X17021Y00873*
X17022Y00873*
X17022Y00874*
Y00852*
G37*
G54D13*
X17109Y02446D02*
X17109Y02447D01*
X17138*
X17149Y02458*
Y0247*
X17152Y02473*
X1683Y0249D02*
X16833Y02493D01*
X16808Y02473D02*
X16824Y0249D01*
X16808Y02445D02*
Y02473D01*
X16824Y0249D02*
X1683D01*
X16806Y02444D02*
X16808Y02445D01*
X16906Y02444D02*
X16911Y02448D01*
Y02492D02*
X16912Y02493D01*
X16911Y02448D02*
Y02492D01*
X17006Y02444D02*
Y02476D01*
X1699Y02493D02*
X17006Y02476D01*
X16742Y00911D02*
X16758D01*
X16734Y00918D02*
X16742Y00911D01*
X16675Y00925D02*
X16728D01*
X16734Y00918D02*
Y00919D01*
X16728Y00925D02*
X16734Y00919D01*
X16706Y0244D02*
Y02495D01*
X16707Y02496*
X16675Y00895D02*
X16702D01*
X16682Y00357D02*
X16683Y00357D01*
X16679Y00387D02*
X16683Y00383D01*
X16728Y00385D02*
X16729Y00386D01*
X17543Y00065D02*
D01*
X17546Y00065*
X17549Y00065*
X17553Y00066*
X17556Y00066*
X1756Y00068*
X17563Y00069*
X17566Y0007*
X17569Y00072*
X17572Y00074*
X17575Y00076*
X17577Y00079*
X1758Y00081*
X17582Y00084*
X17584Y00087*
X17586Y0009*
X17587Y00093*
X17589Y00096*
X1759Y00099*
X17591Y00102*
X17592Y00106*
X17592Y00109*
X17592Y00113*
X17593Y00115*
X17593Y0259D02*
D01*
X17593Y02594*
X17592Y02597*
X17592Y02601*
X17591Y02604*
X1759Y02607*
X17588Y02611*
X17587Y02614*
X17585Y02617*
X17583Y0262*
X17581Y02622*
X17579Y02625*
X17576Y02627*
X17574Y0263*
X17571Y02632*
X17568Y02634*
X17565Y02635*
X17562Y02637*
X17558Y02638*
X17555Y02639*
X17552Y02639*
X17548Y0264*
X17545Y0264*
X17543Y0264*
X16352Y0264D02*
D01*
X16349Y0264*
X16345Y0264*
X16342Y02639*
X16338Y02638*
X16335Y02637*
X16332Y02636*
X16329Y02634*
X16326Y02632*
X16323Y02631*
X1632Y02628*
X16317Y02626*
X16315Y02624*
X16313Y02621*
X16311Y02618*
X16309Y02615*
X16307Y02612*
X16306Y02609*
X16305Y02606*
X16304Y02602*
X16303Y02599*
X16302Y02595*
X16302Y02592*
X16302Y0259*
X16302Y00114D02*
D01*
X16302Y00111*
X16302Y00107*
X16303Y00104*
X16304Y00101*
X16305Y00097*
X16306Y00094*
X16308Y00091*
X16309Y00088*
X16311Y00085*
X16313Y00082*
X16316Y0008*
X16318Y00077*
X16321Y00075*
X16324Y00073*
X16327Y00071*
X1633Y00069*
X16333Y00068*
X16336Y00067*
X1634Y00066*
X16343Y00065*
X16347Y00065*
X1635Y00064*
X16352Y00064*
X17593Y00115D02*
Y02591D01*
X16352Y02641D02*
X17546D01*
X16302Y00114D02*
Y0259D01*
X16345Y00065D02*
X17543D01*
G54D27*
X16574Y02429D03*
Y02481D03*
X16602D03*
Y02429D03*
G54D28*
X17169Y00841D03*
X17279D03*
X17168Y00761D03*
X17278D03*
G54D41*
X17106Y02444D03*
X16806D03*
X16706D03*
X17206D03*
X16906D03*
X17006D03*
G54D64*
X17313Y02274D02*
D01*
X17313Y02274*
X17313Y02274*
X17313Y02274*
X17313Y02274*
X17313Y02274*
X17313Y02274*
X17313Y02274*
X17313Y02274*
X17313Y02274*
X17313Y02273*
X17313Y02273*
X17313Y02273*
X17313Y02273*
X17314Y02273*
X17314Y02273*
X17314Y02273*
X17314Y02273*
X17314Y02273*
X17314Y02273*
X17314Y02273*
X17314Y02273*
X17314Y02273*
X17314*
X16602Y02481D02*
Y02507D01*
X16527Y02488D02*
X16532Y02482D01*
X16527Y02488D02*
Y0249D01*
X16519Y02497D02*
X16527Y0249D01*
X16519Y02497D02*
Y02502D01*
X1664Y02501D02*
Y02503D01*
Y0248D02*
Y02501D01*
X17106Y02444D02*
X17109Y02446D01*
X16574Y02481D02*
Y0251D01*
X16681Y00865D02*
X16759D01*
X16527Y01896D02*
X16615D01*
X16516Y01907D02*
X16527Y01896D01*
X16516Y01907D02*
Y0207D01*
X16615Y01896D02*
X16637Y01917D01*
X17191Y01918D02*
Y0207D01*
X1664Y02503D02*
X1664Y02504D01*
X16634Y02443D02*
X1664Y02449D01*
X16634Y0244D02*
Y02443D01*
X16624Y02429D02*
X16634Y0244D01*
X16602Y02429D02*
X16624D01*
X16573Y0243D02*
X16574Y02429D01*
X16552Y0243D02*
X16573D01*
X16532Y02451D02*
X16552Y0243D01*
X1719Y01917D02*
X17191Y01918D01*
Y0207D02*
X17203Y02083D01*
X17297Y02076D02*
X17304Y02083D01*
X16539Y01959D02*
X16551Y01972D01*
X16847*
X16866Y01991*
Y02083*
X16539Y01917D02*
Y01959D01*
X16683Y00357D02*
Y00383D01*
X16693Y00385D02*
X16728D01*
G54D65*
X16818Y01107D03*
X16998D03*
G54D66*
X16908Y0136D03*
G54D67*
X17045Y02085D03*
Y02274D03*
X16867Y02085D03*
Y02274D03*
X17381Y02083D03*
Y02273D03*
X17203Y02083D03*
Y02273D03*
X16706Y02083D03*
Y02273D03*
X16529Y02083D03*
Y02273D03*
G54D68*
X16679Y00462D03*
Y00387D03*
X1658D03*
Y00425D03*
Y00462D03*
G54D69*
X16758Y01011D03*
Y00961D03*
Y00911D03*
Y00861D03*
X16971D03*
Y00911D03*
Y00961D03*
Y01011D03*
G54D70*
X16521Y00448D03*
X16358D03*
G54D71*
X17164Y00682D03*
X17286D03*
G54D72*
X17168Y00552D03*
Y00603D03*
X17028Y00957D03*
Y01008D03*
G54D73*
X16955Y00693D03*
Y00768D03*
X17034D03*
G54D74*
X17034Y00701D03*
G54D75*
X16427Y00675D03*
X16648D03*
G54D76*
X16657Y01331D03*
X16417D03*
G54D77*
X16843Y00583D03*
X17059D03*
X16941D03*
X16961D03*
X16921D03*
X16902D03*
X1698D03*
X17D03*
X16843Y00515D03*
X17059D03*
X16941D03*
X16961D03*
X16921D03*
X16902D03*
X1698D03*
X17D03*
G54D78*
X17117Y01445D03*
X17275D03*
G54D79*
X17282Y0111D03*
X17115D03*
X17283Y01265D03*
X17116D03*
X17282Y0096D03*
X17115D03*
G54D80*
X16419Y0037D03*
X16364D03*
G54D81*
X16424Y01008D03*
X16625D03*
G54D82*
X16902Y00696D03*
Y00759D03*
X17089Y00696D03*
Y00759D03*
G54D83*
X16826Y00728D03*
X16856D03*
Y00691D03*
X16826D03*
X16495Y00341D03*
X16526D03*
G54D84*
X16729Y00471D03*
Y00441D03*
X16708Y0095D03*
Y00981D03*
X17032Y00863D03*
Y00893D03*
G54D85*
X16495Y00376D03*
X16526D03*
X16562Y00341D03*
X16593D03*
G54D86*
X16729Y00386D03*
Y00417D03*
X16708Y00895D03*
Y00864D03*
X1664Y02449D03*
Y0248D03*
X16532Y02451D03*
Y02482D03*
G54D87*
X16972Y00862D02*
X17032D01*
X16971Y00861D02*
X16972Y00862D01*
X17032Y00862D02*
Y00863D01*
X17032Y00862D02*
X17032Y00862D01*
G54D88*
X17168Y00628D02*
Y00727D01*
Y00522D02*
Y00552D01*
X17168Y00727D02*
X17168Y00727D01*
X17168Y00727D02*
Y00761D01*
X16708Y0095D02*
X16711Y00954D01*
X16751*
X16758Y00961*
X16452Y00991D02*
X1649Y00952D01*
X16706D02*
X16708Y0095D01*
X1649Y00952D02*
X16706D01*
X17168Y00607D02*
Y00628D01*
Y00607D02*
X17169Y00606D01*
X17314Y02273D02*
X17381D01*
X17304Y02083D02*
X17381D01*
G54D89*
X16954Y00768D02*
X16955D01*
X16942Y00737D02*
Y00741D01*
X16945Y00759D02*
X16954Y00768D01*
X16945Y00744D02*
Y00759D01*
X16942Y00741D02*
X16945Y00744D01*
X16941Y00583D02*
Y00616D01*
Y00486D02*
Y00515D01*
X16937Y00479D02*
Y00482D01*
X16941Y00486*
Y00556D02*
Y00583D01*
Y00556D02*
X1696Y00537D01*
X16962Y00609D02*
X16965Y00613D01*
X16962Y00584D02*
Y00609D01*
X16965Y00613D02*
Y00616D01*
X16939Y00617D02*
X16941Y00616D01*
X1696Y00516D02*
Y00537D01*
Y00516D02*
X16961Y00515D01*
X17029Y00763D02*
X17034Y00768D01*
X17003Y00763D02*
X17029D01*
X16977Y00736D02*
X17003Y00763D01*
G54D90*
X16803Y00549D03*
X17098D03*
G54D91*
X16856Y00634D03*
Y00464D03*
X17045Y00634D03*
Y00464D03*
G54D92*
X16408Y00165D03*
X17496Y00165D03*
X17496Y02537D03*
X16408Y02537D03*
G54D93*
X1663Y00309D03*
Y00463D03*
Y00348D03*
Y00385D03*
Y00423D03*
G54D94*
X16519Y02502D03*
X17152Y02473D03*
X1691Y00196D03*
X16754Y02429D03*
X16833Y02493D03*
X1686Y0245D03*
X16754Y02462D03*
X16707Y02493D03*
X1715Y02347D03*
X1725Y02272D03*
X16833Y02351D03*
X16952Y0245D03*
X1699Y02493D03*
X16912D03*
X16913Y02351D03*
X16995D03*
X17056Y0245D03*
X16683Y02181D03*
X16584D03*
X16431Y02042D03*
X16584Y02375D03*
X16483Y02181D03*
X16601Y01085D03*
X16649D03*
X16601Y01059D03*
X16626D03*
X1665D03*
X16626Y01085D03*
X17166Y01786D03*
X17137Y01911D03*
X1645Y01502D03*
Y01416D03*
Y01444D03*
X17087Y01911D03*
X1645Y01471D03*
X16637Y01917D03*
X16539D03*
X16979Y01909D03*
X17168Y00522D03*
X171Y00867D03*
X17078Y00867D03*
Y00842D03*
X171Y00841D03*
X171Y00815D03*
X17078Y00816D03*
Y0079D03*
X171Y0079D03*
X16353Y00337D03*
X16376D03*
X16334Y00381D03*
Y00358D03*
X16768Y00701D03*
Y00726D03*
X16793Y00726D03*
Y00701D03*
X16833Y00878D03*
X16855Y00951D03*
Y00926D03*
Y00903D03*
Y00878D03*
X16833Y00952D03*
Y00927D03*
Y00903D03*
X16901Y00878D03*
X1688Y00879D03*
Y00904D03*
Y00927D03*
Y00952D03*
X16901Y00904D03*
Y00927D03*
Y00952D03*
X16675Y00925D03*
X17007Y02011D03*
X16913Y02035D03*
X17069Y02011D03*
X17087Y01829D03*
X17061D03*
X17038D03*
X17087Y01802D03*
X17061Y01802D03*
X17038D03*
X17188Y01911D03*
X17022Y0055D03*
X16998Y0055D03*
X1699Y00669D03*
X16905Y00666D03*
X16823Y00826D03*
X17281Y02039D03*
X17091Y02121D03*
X16995Y0206D03*
X17177Y02163D03*
X17204D03*
X17232Y02163D03*
X1715Y02324D03*
X16879Y02196D03*
X16573Y02507D03*
X16602Y02507D03*
X17168Y00628D03*
X1664Y02502D03*
X17022Y02176D03*
X16942Y00737D03*
X16937Y00618D03*
X16995Y02092D03*
X16976Y00737D03*
X16967Y00618D03*
X16937Y00479D03*
X17089Y02082D03*
X17276Y01917D03*
X17089Y02056D03*
X16954Y02128D03*
X17133Y022D03*
X17107Y022D03*
X1712Y02272D03*
X173Y01917D03*
X16617Y0204D03*
X1715Y02372D03*
X16632Y02266D03*
X16481D03*
X16382Y02151D03*
Y02266D03*
X16757Y02257D03*
Y0228D03*
X16783Y02257D03*
Y02281D03*
X16461Y02042D03*
X1679Y02116D03*
Y02093D03*
X16765Y02116D03*
Y02093D03*
X17219Y01741D03*
Y01764D03*
X17245Y01741D03*
Y01764D03*
X16823Y00777D03*
Y008D03*
X16849Y00777D03*
Y008D03*
Y00826D03*
X17087Y00511D03*
X17111D03*
X17086Y00586D03*
X17111D03*
X16796Y00586D03*
X1682D03*
X16917Y00643D03*
X16984Y00644D03*
X16886Y0055D03*
X16908Y00549D03*
X1699Y00172D03*
Y00198D03*
X16909Y0017D03*
X16834Y00196D03*
X16834Y00171D03*
X16823Y00514D03*
X16799D03*
X16675Y00895D03*
X16682Y00357D03*
X16676Y00863D03*
G54D95*
X16543Y00622D03*
Y00707D03*
Y00751D03*
Y00579D03*
Y00664D03*
Y00795D03*
X16502Y00622D03*
X16582D03*
X16502Y00707D03*
X16582D03*
X16502Y00751D03*
X16582D03*
X16502Y00579D03*
X16582D03*
X16502Y00664D03*
X16582D03*
X16502Y00795D03*
X16582D03*
M02*