%FSTAX23Y23*%
%MOIN*%
%SFA1B1*%

%IPPOS*%
%ADD13C,0.010000*%
%ADD27R,0.015750X0.027560*%
%ADD28R,0.037400X0.066930*%
%ADD38R,0.062870X0.097870*%
%ADD39R,0.231890X0.251180*%
%ADD40R,0.062990X0.117520*%
%ADD41C,0.047240*%
%ADD42R,0.053150X0.031500*%
%ADD43R,0.066930X0.033470*%
%ADD44R,0.051970X0.075590*%
%ADD45R,0.059060X0.078740*%
%ADD46R,0.045280X0.039370*%
%ADD47R,0.035430X0.031500*%
%ADD48R,0.035430X0.047240*%
%ADD49R,0.078740X0.303150*%
%ADD50R,0.127950X0.129920*%
%ADD51R,0.019680X0.042130*%
%ADD52R,0.096460X0.068900*%
%ADD53R,0.054330X0.146460*%
%ADD54R,0.037400X0.044880*%
%ADD55R,0.131890X0.078740*%
%ADD56R,0.047240X0.043310*%
%ADD57R,0.029920X0.028350*%
%ADD58R,0.028350X0.029920*%
%ADD59R,0.025590X0.025590*%
%ADD60R,0.025590X0.025590*%
%ADD61C,0.028350*%
%ADD62O,0.094490X0.051180*%
%ADD63C,0.125980*%
%LNnas-craftsman_nixie_v1-1*%
%LPD*%
G36*
X16523Y01885D02*
X16524Y01885D01*
X16525Y01885*
X16525Y01884*
X16525Y01884*
X16526Y01884*
X16526Y01883*
Y01883*
X16526Y01882*
Y01881*
X16525*
Y01881*
Y01881*
X16525Y01881*
X16525Y01881*
X16525Y01881*
X16525Y01881*
Y01881*
X16525Y01881*
X16525Y0188*
Y01878*
Y01878*
X16525Y01877*
X16525Y01877*
X16525Y01876*
Y01876*
X16525Y01876*
X16524Y01875*
X16524Y01873*
X16524Y01872*
X16523Y01871*
X16522Y01869*
X16521Y01868*
Y01868*
X1652Y01867*
X1652Y01866*
X16519Y01865*
X16519Y01865*
X16519Y01864*
Y01864*
X16519Y01864*
X16518Y01864*
X16518Y01863*
X16516Y01861*
X16514Y01859*
X16514Y01859*
X16514Y01859*
X16513Y01858*
X16513Y01857*
X16511Y01856*
X1651Y01854*
X1651Y01854*
X16509Y01853*
X16508Y01852*
X16507Y0185*
X16507Y0185*
X16507Y01849*
X16506Y01849*
X16505Y01848*
X16505Y01847*
X16503Y01846*
X16502Y01845*
X165Y01844*
X16497Y01836*
Y01836*
X16496Y01835*
X16496Y01835*
X16496Y01835*
X16495Y01834*
X16495Y01834*
X16494Y01833*
X16493Y01832*
X16492Y01831*
X16491Y01829*
X16489Y01826*
X16486Y01823*
X16486Y01823*
X16486Y01823*
X16486Y01822*
X16485Y01822*
X16484Y0182*
X16483Y0182*
X16483Y01819*
X16483Y01819*
X16483Y01819*
X16482Y01818*
X16481Y01817*
X1648Y01816*
X1648Y01815*
X16479Y01813*
X16478Y01812*
X16476Y0181*
X16475Y01808*
X16473Y01806*
X16471Y01803*
X16469Y01801*
X16469Y018*
X16468Y018*
X16468Y01799*
X16466Y01797*
X16465Y01795*
X16464Y01794*
X16462Y01792*
X16461Y01791*
X1646Y01789*
X16458Y01787*
X16456Y01785*
X16456Y01785*
X16456Y01784*
X16455Y01784*
X16455Y01783*
X16455Y01783*
X16454Y01783*
X16453Y01781*
Y01781*
X16453Y01781*
X16453Y01781*
X16453Y0178*
Y0178*
X16452Y01779*
X16452Y01779*
X16452Y01779*
X16452Y01778*
X16451Y01778*
X16451Y01777*
X1645Y01776*
X16449Y01774*
X16448Y01773*
X16448Y01771*
X16447Y01769*
Y01768*
X16446Y01768*
X16446Y01767*
X16446Y01766*
X16446Y01766*
X16445Y01766*
X16445Y01765*
X16444Y01764*
X16444Y01763*
X16444Y01763*
X16443Y01762*
X16443Y0176*
X16442Y0176*
X16442Y01759*
X16442Y01759*
X16441Y01758*
X16441Y01758*
X16441Y01757*
X1644Y01757*
X1644Y01756*
X16439Y01755*
X16438Y01754*
X16438Y01754*
X16437Y01754*
X16435*
X16434Y01754*
X16434*
X16433Y01754*
X16433Y01754*
X16432*
Y01754*
X16432Y01755*
X16431Y01755*
X1643Y01757*
X16428Y01759*
X16428Y01759*
X16427Y01759*
X16427Y0176*
X16426Y01762*
X16425Y01764*
X16425Y01766*
X16424Y01769*
X16424Y01771*
Y01772*
X16425Y01772*
X16425Y01773*
X16425Y01774*
X16425Y01775*
X16425Y01776*
X16425Y01777*
Y01778*
X16427Y01789*
Y01789*
Y01789*
X16427Y0179*
Y01791*
X16427Y01793*
X16427Y01795*
X16428Y01798*
X16428Y018*
X16428Y01801*
Y01802*
X16428Y01802*
Y01803*
Y01803*
Y01803*
Y01804*
X16428Y01805*
Y01806*
X16428Y01808*
X16429Y0181*
X16429Y01812*
Y01812*
X16429Y01813*
X16429Y01814*
X16429Y01815*
X1643Y01817*
X1643Y01819*
X1643Y01821*
X1643Y01823*
Y01824*
Y01824*
X1643Y01825*
X16431Y01826*
Y01826*
X16431Y01827*
X16431Y01828*
Y01828*
X1643Y01827*
X16429Y01826*
X16428Y01825*
X16428Y01824*
X16428Y01824*
X16427Y01823*
X16427Y01822*
X16426Y01821*
X16425Y0182*
X16425Y01819*
X16424Y01819*
X16424Y01819*
X16424Y01818*
X16423Y01817*
X16423Y01816*
X16422Y01815*
X16421Y01814*
X16421Y01814*
X16421Y01813*
X1642Y01813*
X1642Y01812*
X16419Y01811*
X16418Y0181*
X16418Y01809*
X16416Y01805*
X16415Y01805*
X16415Y01805*
X16414Y01803*
X16413Y01802*
Y01802*
X16413Y01802*
X16412Y01801*
X16412Y018*
X16411Y01799*
X164Y01783*
Y01782*
X16399Y01782*
X16399Y01782*
X16399Y01782*
Y01781*
X16399Y01781*
X16398Y0178*
X16398Y0178*
X16398Y0178*
X16397Y01779*
X16397Y01778*
X16396Y01777*
X16395Y01775*
X16394Y01773*
X16392Y01771*
X16392Y01771*
X16391Y0177*
X16391Y01769*
X1639Y01768*
X16387Y01765*
X16386Y01763*
X16385Y01762*
Y01762*
X16385Y01762*
X16385Y01761*
X16384Y0176*
X16384Y01759*
X16382Y01757*
X16381Y01754*
X16379Y01751*
X16376Y01745*
X16376Y01745*
X16376Y01745*
X16375Y01744*
X16375Y01743*
X16374Y01743*
X16374Y01743*
X16373Y01743*
X16373Y01743*
X16372*
X16372Y01743*
X16371Y01743*
X1637Y01744*
X16368Y01745*
X16368*
X16368Y01745*
X16367Y01746*
X16367Y01746*
X16367Y01746*
X16366Y01747*
X16366Y01747*
X16366Y01748*
X16365Y01748*
X16364Y01749*
X16361Y01752*
Y01752*
X16361Y01753*
X16361Y01753*
X16361Y01754*
Y01754*
X1636Y01755*
Y01755*
X1636Y01756*
X1637Y01771*
X1637*
X1637Y01771*
X1637Y01772*
X16371Y01772*
X16371Y01773*
X16377Y01783*
X16378Y01783*
X16378Y01783*
X16378Y01784*
X16379Y01785*
X16379Y01785*
X1638Y01786*
X1638Y01786*
X16381Y01787*
X16381Y01787*
Y01787*
X16381Y01788*
X16382Y01788*
X16382Y01789*
X16383Y0179*
X16384Y01791*
X16385Y01793*
X16385Y01793*
X16385Y01793*
X16386Y01794*
X16386Y01796*
X16387Y01797*
X16389Y01799*
X16391Y01802*
X16392Y01802*
X16392Y01802*
X16392Y01803*
X164Y01815*
X164Y01815*
X16401Y01816*
X16402Y01817*
X16403Y01818*
X16404Y0182*
X16405Y01822*
X16408Y01825*
Y01825*
X16409Y01826*
X16409Y01827*
X1641Y01828*
X16411Y01829*
X16412Y01831*
X16413Y01833*
X16415Y01836*
X16425Y0185*
X16425Y0185*
X16426Y01851*
X16427Y01852*
X16428Y01854*
X16428Y01854*
X16428Y01854*
X16429Y01855*
X1643Y01856*
X1643Y01857*
X16431Y01857*
Y01857*
X16431Y01858*
X16431Y01858*
X16432Y01859*
X16432Y01859*
X16433Y0186*
X16433Y0186*
X16433Y01861*
X16434Y01861*
X16434Y01862*
X16435Y01863*
X16436Y01864*
Y01865*
X16436Y01865*
X16437Y01865*
X16437Y01866*
X16438Y01867*
X16438Y01868*
X16439Y01869*
X16439Y0187*
X1644Y01871*
X1644Y01871*
X16441Y01871*
X16441Y01872*
X16443Y01874*
X16444Y01875*
X16445Y01876*
X16445*
X16445Y01876*
X16446Y01877*
X16448Y01877*
X16449Y01878*
X1645*
X1645Y01878*
X1645Y01878*
X16451Y01879*
X16453Y01879*
X16455Y0188*
X16455Y0188*
X16455Y0188*
X16456Y01879*
X16457Y01878*
X16458Y01877*
X16458Y01876*
X1646Y01865*
Y01864*
X16459Y01864*
X16459Y01863*
X16459Y01863*
X16458Y01861*
X16457Y01859*
X16457Y01858*
X16456Y01858*
X16456Y01857*
X16455Y01856*
X16454Y01855*
X16453Y01854*
X16453Y01852*
X16452Y0185*
X16451Y01848*
Y01848*
X16451Y01847*
Y01847*
X16451Y01846*
X16451Y01844*
X1645Y01844*
Y01843*
Y01839*
Y01839*
Y01838*
X1645Y01838*
Y01837*
X1645Y01836*
Y01834*
X1645Y01832*
X1645Y01829*
X16449Y01825*
X16449Y01822*
Y01821*
X16449Y0182*
Y0182*
Y01819*
Y01819*
Y01818*
Y01815*
X16449Y01813*
Y01812*
Y01812*
Y01811*
X16449Y01809*
X16448Y01801*
X16448Y01801*
X16449Y01801*
X16449Y01802*
X16449Y01802*
X1645Y01803*
X1645Y01803*
X1645Y01803*
X16451Y01804*
X16452Y01804*
X16452Y01805*
X16453Y01806*
X16454Y01807*
X16456Y01809*
X16459Y01814*
X16459Y01814*
X1646Y01815*
X16461Y01816*
X16462Y01817*
Y01817*
X16462Y01817*
X16463Y01818*
X16463Y01819*
X16464Y0182*
X16466Y01823*
X16468Y01825*
X16471Y01829*
X16473Y01832*
X16476Y01835*
X16477Y01836*
X16477Y01836*
X16477Y01836*
X16478Y01837*
X16478*
X16478Y01837*
X16479Y01837*
X16479Y01837*
X16494Y01851*
X16494Y01851*
Y01851*
X16494Y01852*
X16495Y01852*
X16495Y01853*
X16495Y01853*
X16496Y01854*
X16496Y01854*
X16496Y01855*
Y01856*
X16496Y01856*
X16497Y01856*
X16497Y01856*
X16497Y01856*
X16498Y01855*
X16499Y01854*
X16499Y01854*
X165Y01854*
X165Y01853*
Y01855*
X165Y01856*
X165Y01856*
Y01857*
Y01857*
Y01858*
X165Y01859*
X16499Y01859*
X16499Y01859*
X16499*
X165Y01858*
X16499Y01858*
X16499Y01858*
X16498Y01857*
X16497Y01856*
X16497Y01857*
Y01858*
X16497Y01859*
X16499*
X16499Y01859*
Y0186*
X16499Y0186*
X16499Y01861*
X165Y01862*
X165Y01863*
X165Y01863*
X16501Y01864*
X16502Y01865*
X16504Y01866*
X16504Y01865*
Y01865*
X16505Y01865*
X16505Y01866*
X16506Y01866*
X16506Y01867*
X16506*
X16506Y01867*
Y01867*
X16506Y01868*
Y01868*
Y01869*
Y01869*
X16506Y0187*
X16506Y0187*
X16507Y01871*
Y01871*
X16507Y01871*
X16507*
X16507Y01871*
X16508Y01872*
X16509Y01872*
X16509Y01874*
X1651Y01874*
X1651Y01875*
X1651Y01875*
X16511Y01876*
X16513Y01879*
X16513Y0188*
X16514Y01881*
X16514Y01881*
X16515Y01881*
X16516Y01882*
X16517Y01883*
X16517*
X16518Y01883*
X16518Y01883*
X16519Y01883*
X16519Y01883*
Y01883*
X16519Y01882*
X16519*
X16519Y01883*
X16519Y01883*
X1652Y01884*
X1652Y01884*
X16521Y01884*
X16522Y01885*
X16523Y01886*
X16523Y01885*
G37*
G36*
X16604Y01819D02*
X16604Y01819D01*
X16605Y01819*
X16606Y01818*
X16607Y01818*
X16607Y01818*
X16607Y01818*
X16608Y01818*
X16608Y01817*
X16608Y01817*
X16608Y01817*
Y01817*
X16608Y01816*
X16608Y01816*
X16608Y01816*
X16607Y01816*
X16607Y01815*
X16607Y01815*
X16606Y01814*
X16606Y01814*
X16606Y01813*
X16605Y01813*
X16605Y01813*
X16605Y01813*
X16605Y01813*
X16605Y01812*
X16604Y01812*
X16604Y01811*
X16604Y01811*
X16604Y01811*
X16604Y01811*
X16603Y0181*
X16603Y0181*
X16603Y01809*
X16603Y01809*
X16603Y01808*
X16602Y01808*
X16602Y01807*
Y01807*
X16602Y01807*
X16602Y01807*
X16602Y01806*
X16602Y01806*
X16602Y01806*
X16601Y01805*
X16601Y01804*
X16601Y01804*
X16601Y01804*
X16601Y01803*
X166Y01803*
X166Y01803*
X166Y01803*
X166*
X166Y01803*
X16599Y01803*
X16599Y01803*
X16599Y01804*
X16599Y01804*
X16598Y01804*
Y01804*
X16598Y01804*
X16598Y01805*
Y01805*
Y01805*
X16598Y01806*
X16599Y01806*
X16599Y01806*
Y01806*
X16599Y01806*
X16599Y01807*
X16599Y01807*
Y01807*
X16599Y01807*
X16599Y01808*
X16599Y01808*
Y01808*
X16599Y01809*
Y01809*
Y0181*
Y0181*
Y0181*
Y0181*
Y0181*
Y01811*
X16599Y01811*
Y01812*
X16599Y01812*
X16599Y01813*
X16599Y01813*
Y01813*
X16599Y01813*
X16599Y01813*
X16599Y01813*
X16599Y01814*
X16598Y01814*
X16598Y01814*
X16598Y01814*
X16598Y01814*
X16598Y01814*
X16597Y01815*
X16597Y01815*
X16597Y01815*
X16597Y01816*
X16597Y01816*
Y01816*
Y01816*
Y01816*
Y01816*
X16597Y01817*
X16597Y01817*
X16597Y01817*
X16597Y01817*
X16597Y01817*
X16597Y01818*
X16597Y01818*
X16598Y01818*
X16598Y01818*
X16598Y01818*
X16598Y01818*
X16599Y01818*
X16599Y01818*
X166Y01818*
X166Y01819*
X16601Y01819*
X16602Y01819*
X16603*
X16604Y01819*
G37*
G36*
X16598Y01802D02*
X16598Y01802D01*
X16598Y01802*
X16599Y01802*
X16599Y01802*
X16599Y01801*
X16599Y01801*
Y01801*
Y018*
X16599Y018*
X16599Y018*
X16599Y018*
X16599Y01799*
X16598Y01799*
X16598Y01799*
X16598*
X16598Y01799*
X16597Y01799*
X16597Y01799*
X16597Y01799*
X16597Y018*
X16596Y018*
X16596Y01801*
Y01801*
X16596Y01801*
X16596Y01801*
X16597Y01802*
X16597Y01802*
X16597Y01802*
X16597Y01802*
X16598Y01802*
X16598*
X16598Y01802*
G37*
G36*
X16588Y01819D02*
X16589D01*
X1659Y01819*
X16591Y01819*
X16591Y01819*
X16592Y01818*
X16592Y01818*
X16592*
X16592Y01818*
X16592Y01818*
X16593Y01818*
X16593Y01818*
X16593Y01818*
X16594Y01817*
X16594Y01817*
X16594Y01817*
X16594Y01817*
X16594Y01816*
X16594Y01816*
Y01816*
X16594Y01815*
X16594Y01815*
X16594Y01815*
X16594Y01815*
X16594Y01815*
X16594Y01814*
X16593Y01814*
X16593Y01814*
X16593Y01813*
X16593Y01813*
Y01812*
Y01812*
Y01812*
X16593Y01811*
Y01811*
X16593Y01811*
X16593Y0181*
X16594Y0181*
X16594Y01809*
X16594Y01808*
X16594Y01807*
Y01807*
X16594Y01807*
X16594Y01807*
X16594Y01807*
X16595Y01806*
X16595Y01806*
X16595Y01805*
X16595Y01804*
X16595Y01804*
X16595Y01803*
Y01803*
Y01802*
X16595Y01802*
Y01802*
X16595Y01801*
X16595Y01801*
X16595Y01801*
X16596Y018*
X16596Y018*
X16596Y018*
X16596Y018*
X16596Y018*
X16596Y01799*
X16596Y01799*
X16596Y01799*
Y01798*
Y01798*
Y01798*
X16596Y01798*
X16596Y01798*
X16596Y01797*
X16596Y01797*
X16596Y01796*
X16596Y01795*
Y01795*
X16596Y01795*
X16596Y01795*
X16596Y01794*
X16597Y01793*
X16597Y01793*
Y01793*
Y01793*
Y01793*
Y01792*
X16597Y01792*
Y01792*
X16596Y01792*
X16596Y01791*
X16596Y01791*
Y01791*
X16596Y01791*
X16596Y0179*
X16596Y0179*
X16596Y0179*
X16596Y0179*
X16596Y01789*
X16596Y01789*
Y01789*
X16596Y01789*
X16596Y01789*
X16595Y01789*
X16595Y01788*
X16595Y01788*
X16595Y01788*
X16595Y01788*
X16594Y01788*
X16594Y01788*
X16594Y01787*
X16594Y01787*
X16594Y01786*
Y01786*
X16594Y01786*
X16594Y01786*
X16594Y01786*
X16594Y01786*
X16594Y01787*
X16595Y01787*
X16595Y01788*
X16595Y01788*
X16595Y01788*
X16596Y01788*
X16596Y01788*
X16596Y01788*
X16596Y01788*
X16597Y01788*
X16597Y01788*
Y01788*
Y01788*
X16597Y01787*
X16597Y01787*
X16597Y01787*
X16597Y01787*
X16597Y01786*
Y01786*
X16596Y01786*
X16596Y01786*
X16596Y01786*
X16595Y01785*
X16595*
X16595Y01785*
X16595Y01785*
X16595*
X16595Y01785*
X16594Y01785*
X16594Y01785*
X16594Y01785*
X16594Y01786*
X16594Y01786*
X16594Y01786*
X16594*
X16594Y01786*
X16593Y01786*
X16593Y01786*
X16593Y01785*
X16593Y01785*
X16592Y01785*
X16591Y01785*
X16591*
X16591Y01785*
X1659Y01785*
X1659Y01785*
X16589Y01786*
X16589Y01786*
X16589Y01786*
X16589Y01786*
X16589Y01786*
X16589Y01786*
X16588Y01787*
X16588Y01787*
X16588Y01787*
X16588Y01788*
X16588Y01788*
X16588Y01788*
X16587Y01789*
X16587Y01789*
X16587Y01789*
X16587Y0179*
X16587Y01791*
Y01791*
X16587Y01791*
X16587Y01791*
X16586Y01792*
X16586Y01792*
X16586Y01793*
X16586Y01793*
Y01793*
X16586Y01793*
X16586Y01793*
X16586Y01793*
X16586Y01794*
X16586Y01794*
X16585Y01794*
X16585Y01795*
X16585Y01795*
X16585Y01795*
X16585Y01796*
X16585Y01796*
X16584Y01796*
X16584Y01797*
X16584Y01797*
X16584Y01798*
X16584Y01798*
X16584Y01799*
X16584Y01799*
X16583Y018*
Y018*
X16583Y018*
X16583Y018*
X16583Y018*
X16583Y01801*
X16583Y01801*
X16583Y01802*
X16583Y01803*
X16582Y01804*
X16582Y01805*
X16582Y01806*
Y01806*
X16582Y01806*
X16582Y01806*
X16582Y01806*
X16581Y01807*
X16581Y01807*
X16581Y01808*
X16581Y01809*
Y01809*
X16581Y01809*
Y01809*
X16581Y01809*
X16581Y01809*
X1658Y0181*
X1658Y0181*
X1658Y01811*
X1658Y01812*
X1658Y01812*
X1658Y01812*
X1658Y01812*
X16579Y01813*
X16579Y01813*
X16579Y01814*
X16579Y01814*
X16578Y01814*
X16578Y01814*
X16578Y01815*
X16578Y01815*
X16578Y01815*
X16578Y01815*
X16578Y01816*
X16578Y01816*
X16578Y01816*
X16578Y01817*
X16578Y01817*
X16578Y01817*
X16578Y01818*
X16579Y01818*
X16579Y01818*
X1658Y01818*
X1658Y01818*
X16581Y01819*
X16581*
X16581Y01819*
X16582*
X16582Y01819*
X16583Y01819*
X16584*
X16585Y01819*
X16588*
X16588Y01819*
G37*
G36*
X16641Y01794D02*
X16642D01*
X16642Y01794*
X16643Y01794*
X16643Y01794*
X16644Y01794*
X16644Y01793*
X16645Y01793*
X16645Y01793*
X16645Y01792*
X16645Y01792*
X16646Y01792*
X16646Y01792*
X16646Y01791*
X16646Y01791*
X16646Y0179*
Y0179*
Y0179*
X16646Y0179*
X16646Y01789*
X16646Y01789*
X16646Y01788*
X16646Y01788*
X16646Y01787*
X16645Y01787*
X16645Y01787*
X16645Y01787*
X16645Y01786*
X16645Y01786*
X16644Y01786*
X16644Y01785*
X16644*
X16644Y01785*
X16644Y01785*
X16644Y01785*
X16643Y01785*
X16643Y01785*
X16643Y01785*
X16642Y01785*
X16642*
X16642Y01785*
X16641Y01785*
X16641Y01785*
X16641*
X16641Y01785*
X1664Y01785*
X1664Y01785*
X1664Y01785*
X1664Y01785*
X16639Y01786*
X16639Y01786*
X16639Y01786*
Y01786*
X16639Y01785*
X16639Y01785*
X16639Y01785*
X16639*
X16639Y01785*
X16638Y01785*
X16638Y01785*
X16638*
X16638Y01785*
X16637Y01785*
X16637Y01785*
X16637Y01785*
X16637Y01785*
X16637Y01786*
X16636Y01786*
X16636Y01786*
X16636Y01787*
X16636Y01787*
Y01787*
X16636Y01788*
X16636Y01788*
X16636Y01788*
X16636Y01788*
X16636Y01788*
X16637Y01788*
X16636Y01788*
X16636Y01789*
X16636Y01789*
X16636Y0179*
X16636Y0179*
Y01791*
Y01791*
X16636Y01791*
X16636Y01791*
X16636Y01792*
X16636Y01792*
X16637Y01793*
X16637Y01793*
X16637Y01793*
X16637Y01793*
X16638Y01794*
X16638Y01794*
X16639Y01794*
X16639Y01794*
X1664Y01794*
X1664Y01794*
X16641*
X16641Y01794*
G37*
G36*
X16614D02*
X16615D01*
X16615Y01794*
X16615Y01794*
X16616Y01794*
X16617Y01794*
X16617Y01793*
X16618Y01793*
X16618Y01793*
X16618Y01792*
X16618Y01792*
X16619Y01792*
X16619Y01792*
X16619Y01791*
X16619Y01791*
X16619Y0179*
Y0179*
Y0179*
X16619Y0179*
X16619Y01789*
X16619Y01789*
X16619Y01788*
X16619Y01788*
X16618Y01787*
X16618Y01787*
X16618Y01787*
X16618Y01787*
X16618Y01786*
X16618Y01786*
X16617Y01786*
X16617Y01785*
X16617*
X16617Y01785*
X16617Y01785*
X16617Y01785*
X16616Y01785*
X16616Y01785*
X16616Y01785*
X16615Y01785*
X16615*
X16615Y01785*
X16614Y01785*
X16614Y01785*
X16614*
X16613Y01785*
X16613Y01785*
X16613Y01785*
X16613Y01785*
X16612Y01785*
X16612Y01786*
X16612Y01786*
X16612Y01786*
Y01786*
X16612Y01785*
X16612Y01785*
X16612Y01785*
X16612*
X16611Y01785*
X16611Y01785*
X16611Y01785*
X16611*
X16611Y01785*
X1661Y01785*
X1661Y01785*
X1661Y01785*
X1661Y01785*
X16609Y01786*
X16609Y01786*
X16609Y01786*
X16609Y01787*
X16609Y01787*
Y01787*
X16609Y01788*
X16609Y01788*
X16609Y01788*
X16609Y01788*
X16609Y01788*
X16609Y01788*
X16609Y01788*
X16609Y01789*
X16609Y01789*
X16609Y0179*
X16609Y0179*
Y01791*
Y01791*
X16609Y01791*
X16609Y01791*
X16609Y01792*
X16609Y01792*
X1661Y01793*
X1661Y01793*
X1661Y01793*
X1661Y01793*
X16611Y01794*
X16611Y01794*
X16611Y01794*
X16612Y01794*
X16613Y01794*
X16613Y01794*
X16614*
X16614Y01794*
G37*
G36*
X1666Y01818D02*
X1666Y01811D01*
Y01811*
Y01811*
Y01811*
Y0181*
Y0181*
X1666Y0181*
Y01809*
Y01809*
X1666Y01808*
Y01807*
X1666Y01806*
X1666Y01804*
X1666Y01803*
X1666Y01801*
X1666Y018*
X16659Y01798*
X16659Y01797*
X16659Y01796*
X16659Y01795*
X16659Y01795*
X16659Y01794*
X16659Y01794*
X16659Y01793*
X16659Y01793*
X16659Y01793*
X16659*
X16659Y01793*
X1666Y01793*
X1666Y01793*
X1666Y01792*
X1666Y01792*
X1666Y01792*
X1666Y01792*
X1666Y01791*
X1666Y01791*
X1666Y0179*
Y0179*
X1666Y01789*
Y01789*
X1666Y01789*
X1666Y01789*
Y01789*
X1666Y01788*
X1666Y01788*
X1666Y01788*
Y01788*
X16661*
X16661Y01788*
X16661Y01788*
X16662Y01788*
X16662Y01787*
X16662Y01787*
X16662Y01787*
X16662Y01787*
X16662Y01787*
X16662Y01787*
X16662Y01787*
X16662Y01786*
Y01786*
X16662Y01786*
Y01786*
X16662Y01786*
X16662Y01786*
X16662Y01785*
X16662Y01785*
X16662Y01785*
X16661Y01785*
X16661Y01785*
X16661*
X1666Y01785*
X1666*
X1666Y01784*
X1666Y01784*
X16659*
X16659Y01784*
X16658Y01784*
X16658Y01784*
X16657Y01784*
X16657Y01784*
X16656*
X16655Y01784*
X16655Y01784*
X16652*
X16651Y01784*
X1665Y01784*
X16649Y01784*
X16648Y01784*
X16648Y01785*
X16647Y01785*
X16647Y01785*
X16647Y01785*
Y01785*
X16647Y01785*
Y01785*
X16647Y01786*
X16647Y01786*
X16647Y01786*
X16647Y01787*
X16648Y01787*
X16648Y01787*
X16648Y01788*
X1665Y01789*
Y01813*
X16648Y01814*
X16648Y01814*
X16648Y01814*
X16648Y01814*
X16648Y01814*
X16648Y01815*
X16648Y01815*
X16648Y01815*
X16647Y01816*
Y01816*
X16648Y01816*
X16648Y01817*
X16648Y01817*
X16648Y01817*
X16649Y01818*
X16649Y01818*
X16649*
X16649Y01818*
X16649Y01818*
X1665Y01818*
X1665Y01818*
X16651Y01818*
X16651Y01818*
X16651*
X16652Y01818*
X16652Y01818*
X16652*
X16653Y01818*
X16653*
X16653Y01818*
X16654Y01818*
X16655Y01818*
X16658*
X1666Y01818*
G37*
G36*
X16633D02*
X16633Y01811D01*
Y01811*
Y01811*
Y01811*
Y0181*
Y0181*
X16633Y0181*
Y01809*
Y01809*
X16633Y01808*
Y01807*
X16633Y01806*
X16633Y01804*
X16633Y01803*
X16633Y01801*
X16632Y018*
X16632Y01798*
X16632Y01797*
X16632Y01796*
X16632Y01795*
X16632Y01795*
X16632Y01794*
X16632Y01794*
X16632Y01793*
X16632Y01793*
X16632Y01793*
X16632*
X16632Y01793*
X16632Y01793*
X16633Y01793*
X16633Y01792*
X16633Y01792*
X16633Y01792*
X16633Y01792*
X16633Y01791*
X16633Y01791*
X16633Y0179*
Y0179*
X16633Y01789*
Y01789*
X16633Y01789*
X16633Y01789*
Y01789*
X16633Y01788*
X16633Y01788*
X16633Y01788*
Y01788*
X16634*
X16634Y01788*
X16634Y01788*
X16634Y01788*
X16635Y01787*
X16635Y01787*
X16635Y01787*
X16635Y01787*
X16635Y01787*
X16635Y01787*
X16635Y01787*
X16635Y01786*
Y01786*
X16635Y01786*
Y01786*
X16635Y01786*
X16635Y01786*
X16635Y01785*
X16635Y01785*
X16635Y01785*
X16634Y01785*
X16634Y01785*
X16633*
X16633Y01785*
X16633*
X16633Y01784*
X16633Y01784*
X16632*
X16632Y01784*
X16631Y01784*
X16631Y01784*
X1663Y01784*
X1663Y01784*
X16629*
X16628Y01784*
X16628Y01784*
X16625*
X16624Y01784*
X16622Y01784*
X16622Y01784*
X16621Y01784*
X16621Y01785*
X1662Y01785*
X1662Y01785*
X1662Y01785*
Y01785*
X1662Y01785*
Y01785*
X1662Y01786*
X1662Y01786*
X1662Y01786*
X1662Y01787*
X16621Y01787*
X16621Y01787*
X16621Y01788*
X16623Y01789*
Y01813*
X16621Y01814*
X16621Y01814*
X16621Y01814*
X16621Y01814*
X16621Y01814*
X16621Y01815*
X16621Y01815*
X1662Y01815*
X1662Y01816*
Y01816*
X1662Y01816*
X16621Y01817*
X16621Y01817*
X16621Y01817*
X16622Y01818*
X16622Y01818*
X16622*
X16622Y01818*
X16622Y01818*
X16623Y01818*
X16623Y01818*
X16624Y01818*
X16624Y01818*
X16624*
X16625Y01818*
X16625Y01818*
X16625*
X16625Y01818*
X16626*
X16626Y01818*
X16627Y01818*
X16628Y01818*
X16631*
X16633Y01818*
G37*
G36*
X16532Y01845D02*
X16532Y01845D01*
X16533Y01845*
X16534Y01844*
X16535Y01844*
X16536Y01843*
X16537Y01842*
X16538Y01841*
X16538Y01841*
X16538Y01841*
X16538Y0184*
X16539Y0184*
X1654Y01838*
X1654Y01837*
X1654Y01837*
X1654Y01837*
X1654Y01836*
X1654Y01835*
X1654Y01834*
X1654Y01834*
X1654Y01834*
X16539Y01833*
X16539Y01833*
X16539Y01831*
X16539Y0183*
X16539Y0183*
X16539Y0183*
X16539Y01829*
X16539Y01828*
X16538Y01827*
X16538Y01826*
X16538Y01825*
X16537Y01823*
X16535Y01815*
X16535Y01815*
X16535Y01815*
X16535Y01815*
X16535Y01815*
X16534Y01815*
X16534Y01815*
X16534Y01814*
X16534Y01814*
X16534Y01813*
X16533Y01812*
X16533Y0181*
X16532Y01808*
X16531Y01806*
X16531Y01804*
X1653Y01802*
X1653Y01802*
X1653Y01802*
X1653Y01801*
X16529Y018*
X16528Y01799*
X16527Y01799*
X16527Y01799*
X16527Y01799*
X16526Y01799*
X16526Y01799*
X16524Y01799*
X16523Y018*
X16523Y018*
X16523Y018*
X16522Y01801*
X16521Y01801*
X1652Y01802*
X1652Y01802*
X16519Y01802*
X16519Y01803*
X16518Y01803*
X16518Y01803*
X16518Y01803*
X16517Y01804*
X16517Y01805*
X16516Y01805*
X16516Y01806*
X16516Y01807*
X16516Y01807*
X16516Y01808*
X16516Y01809*
X16517Y0181*
X16518Y01812*
X16518Y01813*
X16518Y01814*
X16519Y01814*
X16519Y01814*
X16519Y01815*
X1652Y01817*
X1652Y01818*
X16521Y0182*
X16522Y01822*
X16522Y01823*
X16522Y01823*
X1652Y01822*
X1652Y01821*
X1652Y01821*
X16519Y01821*
X16516Y01817*
X16516Y01817*
X16515Y01816*
X16515Y01816*
X16514Y01815*
X16513Y01814*
X16513Y01814*
X16511Y01812*
X16511Y01811*
X1651Y01811*
X1651Y0181*
X16509Y01809*
X16509Y01809*
X16509Y01809*
X16508Y01809*
X16507Y01808*
X16507Y01807*
X16506Y01807*
X16506Y01806*
X16505Y01805*
X16505Y01805*
X16504Y01804*
X16504Y01804*
X16503Y01803*
X16502Y01802*
X16502Y01802*
X16502Y01801*
X16501Y01801*
X165Y018*
X165Y01799*
X165Y01799*
X16499Y01799*
X16498Y01798*
X16497Y01796*
X16497Y01796*
X16497Y01795*
X16496Y01794*
X16495Y01793*
X16494Y01791*
X16492Y01789*
X16491Y01788*
X1649Y01786*
X1649Y01786*
X1649Y01786*
X16489Y01785*
X16489Y01784*
X16487Y01782*
X16487Y01781*
X16486Y0178*
X16486Y0178*
X16486Y0178*
X16485Y01779*
X16485Y01778*
X16485Y01778*
X16485Y01778*
X16484Y01776*
X16484Y01776*
X16483Y01775*
X16483Y01775*
X16483Y01774*
X16482Y01772*
X16481Y01772*
X16481Y01771*
X16481Y01771*
X16481Y0177*
X1648Y0177*
X1648Y0177*
X1648Y01769*
X1648Y01769*
X1648Y01769*
X1648Y01768*
X1648Y01768*
X16479Y01767*
X16479Y01766*
X16478Y01765*
X16477Y01764*
X16476Y01762*
X16476Y01759*
X16475Y01759*
X16475Y01758*
X16475Y01757*
X16474Y01756*
X16473Y01753*
X16473Y01752*
X16472Y0175*
X1647Y01746*
X1647Y01745*
X1647Y01745*
X1647Y01744*
X1647Y01743*
X1647Y01742*
X16469Y01741*
X16469Y01741*
X16469Y0174*
X16469Y0174*
X16469Y0174*
X16469Y01739*
X16469Y01738*
X16468Y01737*
X16468Y01735*
X16468Y01734*
X16468Y01732*
X16468Y01732*
X16468Y01732*
X16468Y01731*
X16468Y0173*
X16468Y01728*
X16468Y01726*
X16468Y01725*
X16468Y01725*
X16468Y01725*
X16468Y01724*
X16468Y01724*
X1648Y01736*
X1648Y01736*
X16481Y01736*
X16481Y01736*
X16482Y01737*
X16483Y01738*
X16484Y01739*
X16485Y0174*
X16487Y01742*
X16487Y01742*
X16488Y01742*
X16488Y01743*
X16488Y01743*
X16489Y01744*
X1649Y01745*
X1649Y01745*
X1649Y01745*
X16491Y01746*
X16491Y01746*
X16491Y01746*
X16491Y01747*
X16492Y01747*
X16492Y01747*
X16492Y01748*
X16493Y01748*
X16494Y0175*
X16494Y0175*
X16495Y0175*
X16495Y01751*
X16496Y01751*
X16497Y01752*
X16498Y01753*
X16498Y01753*
X16499Y01753*
X16499Y01754*
X16499Y01754*
X165Y01755*
X16501Y01756*
X16502Y01757*
X16503Y01758*
X16505Y01759*
X16505Y01759*
X16505Y0176*
X16506Y01761*
X16507Y01761*
X16508Y01762*
X16509Y01763*
X16509Y01764*
X1651Y01764*
X1651Y01764*
X1651Y01764*
X1651Y01765*
X16511Y01765*
X16513Y01766*
X16514*
X16514Y01766*
X16514Y01766*
X16515Y01766*
X16515Y01766*
X16515Y01766*
X16516Y01767*
X16519Y01768*
X16519Y01768*
X16519Y01767*
X1652Y01767*
X1652Y01765*
X1652Y01765*
X1652Y01765*
X1652Y01765*
X16519Y01764*
X16521Y01764*
X16521Y01764*
X16521Y01763*
X16521Y01763*
X1652Y01762*
X1652Y01761*
X1652Y0176*
X1652Y0176*
X16519Y01759*
X16519Y01759*
X16519Y01759*
X16518Y01758*
X16518Y01758*
X16518Y01758*
X16517Y01757*
X16517Y01757*
X16517Y01757*
X16517Y01756*
X16517Y01756*
X16516Y01755*
X16515Y01755*
X16515Y01755*
X16515Y01754*
X16514Y01753*
X16513Y01752*
X16513Y01752*
X16512Y01752*
X16512Y01751*
X16512Y01751*
X16511Y0175*
X1651Y01749*
X1651Y01749*
X1651Y01749*
X16509Y01748*
X16508Y01747*
X16507Y01746*
X16506Y01745*
X16505Y01743*
X16503Y01741*
X16503Y01741*
X16502Y01741*
X16502Y01741*
X16502Y0174*
X16501Y0174*
X16501Y0174*
X16501Y0174*
X16501Y0174*
X16501Y0174*
X165Y01739*
X165Y01739*
X16499Y01738*
X16499Y01738*
X16499Y01737*
X16498Y01737*
X16498Y01737*
X16498Y01737*
X16497Y01736*
X16496Y01735*
X16496Y01735*
X16496Y01735*
X16496Y01735*
X16495Y01734*
X16494Y01733*
X16493Y01732*
X16493Y01732*
X16493Y01731*
X16492Y01731*
X16491Y01731*
X16491Y0173*
X16491Y0173*
X1649Y01729*
X16489Y01728*
X16489Y01728*
X16489Y01728*
X16488Y01727*
X16487Y01726*
X16487Y01725*
X16487Y01725*
X16486Y01725*
X16486Y01724*
X16485Y01723*
X16484Y01723*
X16484Y01722*
X16483Y01721*
X16483Y01721*
X16483Y01721*
X16483Y0172*
X16482Y0172*
X16482Y01719*
X16481Y01719*
X1648Y01718*
X16479Y01716*
X16479Y01716*
X16478Y01716*
X16477Y01715*
X16476Y01714*
X16475Y01713*
X16474Y01712*
X16471Y01709*
X16471Y01709*
X16471Y01709*
X1647Y01708*
X16469Y01707*
X16469Y01706*
X16468Y01705*
X16467Y01705*
X16467Y01704*
X16467Y01704*
X16466Y01704*
X16466Y01703*
X16464Y01703*
X16464Y01703*
X16463Y01703*
X16462Y01703*
X16456Y01704*
X16456Y01704*
X16456Y01705*
X16455Y01705*
X16455Y01705*
X16454Y01706*
X16453Y01706*
X16452Y01707*
X16452Y01707*
X16452Y01708*
X16452Y01709*
X16452Y01709*
X16451Y0171*
X16451Y01712*
X16451Y01714*
X1645Y01717*
X1645Y0172*
X1645Y01721*
X1645Y01722*
X1645Y01723*
X1645Y01723*
X1645Y01723*
X1645Y01724*
X1645Y01724*
X1645Y01725*
X1645Y01726*
X1645Y01726*
X1645Y01727*
X1645Y01727*
X1645Y01727*
X1645Y01728*
X1645Y01729*
X1645Y0173*
X16456Y01751*
X16456Y01751*
X16456Y01752*
X16456Y01752*
X16457Y01753*
X16457Y01753*
X16457Y01753*
X16457Y01753*
X16457Y01753*
X16457Y01754*
X16457Y01754*
X16457Y01754*
X16457Y01755*
X16457Y01756*
X16457Y01756*
X16458Y01756*
X16458Y01756*
X16458Y01757*
X16458Y01757*
X16458Y01758*
X16458Y01759*
X16459Y0176*
X16459Y01761*
X16461Y01764*
X16462Y01767*
X16462Y01767*
X16462Y01768*
X16462Y01768*
X16462Y01768*
X16462Y01769*
X16463Y0177*
X16464Y0177*
X16464Y01771*
X16464Y01771*
X16464Y01772*
X16465Y01772*
X16465Y01774*
X16466Y01775*
X16467Y01777*
X16468Y01779*
X16468Y01779*
X16468Y01779*
X16469Y0178*
X1647Y01781*
X1647Y01781*
X1647Y01781*
X1647Y01782*
X16471Y01782*
X16471Y01783*
X16471Y01783*
X16472Y01784*
X16473Y01785*
X16473Y01786*
X16474Y01788*
X16475Y01789*
X16476Y01791*
X16478Y01793*
X16479Y01795*
X16479Y01795*
X1648Y01796*
X1648Y01796*
X16481Y01797*
X16481Y01798*
X16482Y018*
X16484Y01802*
X16486Y01805*
X16488Y01808*
X16488Y01809*
X16489Y0181*
X1649Y01811*
X1649Y01811*
X1649Y01811*
X1649Y01812*
X16491Y01812*
X16491Y01812*
X16492Y01814*
X16493Y01815*
X16493Y01815*
X16494Y01815*
X16494Y01815*
X16494Y01816*
X16495Y01817*
X16497Y01818*
X16497Y01818*
X16497Y01819*
X16498Y01819*
X16498Y0182*
X16499Y01821*
X165Y01821*
X16501Y01822*
X16502Y01824*
X16504Y01826*
X16507Y01829*
X1651Y01832*
X16513Y01835*
X16513Y01835*
X16513Y01835*
X16514Y01835*
X16514Y01836*
X16515Y01836*
X16516Y01837*
X16517Y01838*
X1652Y0184*
X16522Y01841*
X16524Y01842*
X16527Y01844*
X16527Y01844*
X16528Y01844*
X16528Y01844*
X16528Y01844*
X16529Y01845*
X1653Y01845*
X1653Y01845*
X16531Y01846*
X16531Y01845*
X16531Y01845*
X16531Y01846*
X16532Y01845*
G37*
G36*
X16659Y01872D02*
X16659Y01872D01*
X1666Y01872*
X1666Y01872*
X1666Y01872*
X1666Y01872*
X1666Y01871*
X1666Y01871*
X16661Y01871*
X16661Y0187*
X16661Y0187*
X16661Y0187*
X16661*
X16661Y0187*
X16661Y0187*
X16661Y0187*
X16661Y0187*
X16662Y0187*
X16662Y01871*
X16662*
X16662Y01871*
X16662Y01871*
X16663Y01871*
X16663Y01871*
X16664Y01871*
X16665Y01871*
X16665*
X16665Y01871*
X16665Y01871*
X16666Y01871*
X16666Y01871*
Y0187*
Y0187*
Y0187*
X16666Y0187*
X16666Y0187*
X16665Y01869*
X16665Y01869*
X16665Y01868*
X16665Y01868*
Y01868*
X16665Y01867*
X16665Y01867*
X16665Y01867*
X16664Y01866*
X16664Y01866*
X16664Y01865*
X16663Y01865*
X16663Y01864*
X16663Y01864*
Y01864*
X16663*
X16663Y01864*
X16664*
X16664Y01864*
X16665Y01864*
X16665Y01864*
X16665Y01864*
X16665Y01864*
X16665Y01863*
X16665Y01863*
Y01863*
Y01863*
X16665Y01862*
Y01862*
X16665*
Y01862*
X16665Y01862*
X16665Y01862*
X16665Y01861*
Y01861*
Y0186*
X16665Y0186*
X16665Y01859*
Y01859*
X16665Y01859*
X16665Y01859*
X16666Y01859*
X16666Y01859*
X16666Y01859*
X16666*
X16666Y01858*
X16667Y01858*
X16667Y01858*
X16667Y01858*
X16667Y01858*
X16668Y01858*
X16668Y01858*
X16668Y01858*
X16668Y01857*
X16668Y01857*
X16668Y01857*
X16668Y01856*
Y01856*
Y01856*
Y01856*
X16668Y01856*
X16668Y01855*
X16668Y01855*
X16669Y01854*
X16669Y01854*
X16669Y01853*
X16669Y01853*
X1667Y01853*
X1667Y01852*
X1667Y01851*
X16671Y0185*
X16672Y01849*
X16672Y01848*
X16673Y01846*
X16673Y01846*
X16673Y01846*
X16674Y01846*
X16674Y01846*
X16674Y01845*
X16674Y01845*
X16674Y01844*
X16675Y01844*
X16675Y01842*
X16676Y01841*
X16677Y0184*
X16678Y01838*
X16678Y01838*
X16678Y01838*
X16678Y01837*
X16678Y01837*
X16679Y01836*
X16679Y01836*
X16679Y01835*
X1668Y01834*
X1668Y01834*
X1668Y01834*
X1668Y01834*
X1668Y01833*
X16681Y01833*
X16681Y01832*
X16681Y01832*
Y01832*
X16681Y01832*
X16681Y01832*
X16682Y01831*
X16682Y01831*
Y01831*
X16682Y01831*
X16682Y0183*
X16683Y0183*
X16683Y0183*
Y01829*
X16683Y01829*
X16683Y01829*
X16683Y01828*
Y01828*
X16683Y01828*
X16683Y01828*
X16682Y01827*
X16682Y01827*
X16682Y01827*
X16682Y01827*
X16682Y01827*
X16681Y01827*
X16681Y01827*
X1668Y01826*
X1668Y01826*
X16679Y01826*
X16678Y01826*
X16677Y01826*
X16676Y01826*
X16674Y01826*
X16673Y01826*
X16669*
X16669Y01826*
X16668Y01826*
X16667*
X16666Y01826*
X16664Y01826*
X16663Y01826*
X16662Y01826*
X16662Y01826*
X16661Y01827*
X16661Y01827*
X1666Y01827*
Y01827*
X1666Y01827*
X1666Y01828*
Y01828*
X1666Y01829*
X16661Y0183*
X16661Y01831*
X16661Y01831*
X16662Y01832*
X16662Y01832*
Y01832*
Y01832*
X16662Y01832*
X16662Y01832*
X16662Y01833*
Y01833*
X16661Y01833*
X16661Y01833*
X16661Y01833*
X16661Y01834*
X16661Y01834*
X16661Y01834*
X16661Y01835*
X1666Y01835*
X1666Y01836*
X1666Y01837*
X16659Y01837*
X16659Y01838*
X16658Y01839*
Y01839*
X16658Y0184*
X16658Y0184*
X16658Y0184*
X16658Y01841*
X16657Y01841*
X16657Y01842*
X16656Y01843*
X16656Y01844*
X16656Y01845*
X16655Y01845*
X16655Y01846*
X16655Y01846*
X16655Y01846*
X16655Y01847*
X16654Y01847*
X16654Y01848*
X16654Y01848*
Y01848*
X16654Y01848*
X16654Y01849*
X16653Y01849*
X16653Y01849*
Y01849*
X16653Y01849*
X16653Y0185*
X16653Y0185*
X16653Y01851*
X16651Y01854*
X16651Y01854*
X16651Y01854*
X16651Y01854*
X16651Y01855*
X16651Y01855*
X1665Y01856*
X1665Y01857*
X16649Y01857*
X16649Y01857*
X16649Y01858*
X16649Y01858*
X16649Y01859*
X16649Y01859*
X16648Y0186*
X16648Y0186*
X16648Y0186*
X16648Y0186*
X16648Y01861*
X16648Y01861*
X16648Y01861*
X16647Y01862*
X16647Y01863*
X16646Y01864*
X16645Y01865*
X16645Y01866*
X16644Y01867*
X16644Y01867*
Y01867*
X16644Y01868*
X16644Y01868*
X16644Y01868*
X16644Y01868*
Y01869*
X16644Y01869*
X16644Y0187*
X16644Y0187*
X16644Y0187*
X16645Y01871*
X16645Y01871*
X16646Y01871*
X16647Y01871*
X16647*
X16648Y01871*
X16649Y01871*
X16649*
X16651Y01871*
X16652Y01871*
X16652*
X16652Y01871*
X16653*
X16653Y01871*
X16654*
X16655Y01871*
X16656*
X16656Y01871*
X16656Y01871*
X16657Y01871*
X16657Y01871*
X16657Y01871*
X16657Y01871*
X16657Y01872*
X16657Y01872*
X16658Y01872*
X16658Y01872*
X16658Y01872*
X16659*
X16659Y01872*
G37*
G36*
X1681Y01873D02*
X1681D01*
X16811Y01872*
X16811Y01872*
X16811Y01872*
X16811Y01872*
X16812Y01871*
X16812Y01871*
X16812Y0187*
Y0187*
X16812Y0187*
X16812Y01869*
X16812Y01869*
X16812Y01869*
X16812Y01868*
Y01868*
X16813Y01867*
X16813Y01867*
Y01866*
X16813Y01865*
X16813Y01864*
Y01864*
Y01863*
Y01863*
Y01863*
Y01862*
Y01862*
Y01861*
Y0186*
X16813Y01859*
X16813Y01858*
X16812Y01857*
X16812Y01856*
X16812Y01855*
X16812Y01855*
X16812Y01854*
X16812Y01854*
X16812*
X16811Y01854*
X16811Y01854*
X16811Y01853*
X1681*
X1681Y01853*
X16809Y01854*
X16809Y01854*
X16808Y01854*
X16808Y01855*
X16808Y01855*
X16807Y01856*
X16807Y01857*
Y01857*
X16807Y01857*
X16807Y01857*
X16807Y01857*
X16807Y01858*
X16807Y01858*
X16806Y01859*
X16806Y01859*
Y0186*
X16806Y0186*
X16806Y0186*
X16806Y0186*
X16806Y01861*
X16806Y01861*
X16805Y01862*
X16805Y01863*
X16805Y01864*
X16805Y01864*
X16804Y01865*
X16804Y01865*
X16804Y01865*
Y01865*
X16804Y01865*
X16804Y01865*
X16804Y01866*
X16803Y01866*
X16803Y01867*
X16803Y01868*
X16803Y01868*
Y01869*
Y01869*
X16803Y0187*
X16803Y0187*
X16803Y0187*
X16803Y0187*
X16803Y0187*
X16804Y0187*
X16804Y01871*
X16804Y01871*
X16805Y01871*
X16805*
X16805Y01871*
X16806*
X16806Y01871*
X16806Y01871*
X16806Y01871*
X16807Y01871*
X16807Y01871*
X16808Y01872*
X16808Y01872*
X16808Y01872*
X16808Y01872*
X16808Y01872*
X16809Y01872*
X16809Y01873*
X1681Y01873*
X1681Y01873*
G37*
G36*
X1701Y01872D02*
X1701Y01871D01*
X17011Y01871*
X17011Y01871*
X17011*
X17011Y01871*
X17011Y01871*
X17012Y01871*
X17012Y0187*
X17012Y0187*
X17012Y0187*
X17012Y0187*
X17013Y0187*
X17013*
X17013Y0187*
X17013Y01869*
X17014Y01869*
X17015Y01869*
X17015Y01869*
X17015Y01869*
X17015Y01868*
X17016Y01868*
X17017Y01867*
X17017Y01867*
X17018Y01866*
X17019Y01865*
X17019Y01865*
X17019Y01865*
X17019Y01865*
X1702Y01864*
X1702Y01864*
X1702Y01863*
X17021Y01863*
X17021Y01862*
X17022Y01861*
X17022Y0186*
X17023Y01859*
Y01859*
X17023Y01858*
X17023Y01858*
X17023Y01858*
X17023Y01857*
X17023Y01857*
X17023Y01856*
X17023Y01855*
X17023Y01854*
X17024Y01853*
X17024Y01852*
X17024Y01851*
Y0185*
Y01848*
X17024Y01847*
X17023Y01845*
Y01845*
X17023Y01845*
Y01845*
X17023Y01844*
X17023Y01843*
X17023Y01843*
X17023Y01842*
X17023Y01841*
X17022Y01839*
X17022Y01838*
X17022Y01837*
X17022Y01837*
X17021Y01836*
X17021Y01835*
X1702Y01835*
X1702Y01835*
X1702Y01834*
X1702Y01834*
X1702Y01834*
Y01834*
X1702Y01834*
X1702Y01833*
X1702Y01833*
X17019Y01832*
X17019Y01832*
X17018Y01831*
X17018Y01831*
X17017Y0183*
X17017Y0183*
X17017*
X17017Y0183*
X17017Y0183*
X17016Y0183*
X17016Y01829*
X17015Y01829*
X17014Y01828*
X17013Y01828*
X17013Y01827*
X17012Y01827*
X17012*
X17012Y01827*
X17011Y01827*
X17011Y01826*
X1701Y01826*
X17009Y01826*
X17009Y01826*
X17008Y01826*
X17007*
X17007Y01826*
X17006Y01826*
X17006Y01826*
X17005Y01826*
X17005Y01827*
X17005Y01827*
X17004Y01828*
Y01828*
Y01828*
Y01828*
Y01829*
X17005Y01829*
X17005Y0183*
X17005Y01831*
X17005Y01831*
X17005Y01831*
X17005Y01832*
X17005Y01832*
X17006Y01832*
X17006Y01833*
X17006Y01833*
X17006Y01834*
X17006Y01835*
X17006Y01836*
X17006Y01837*
X17006Y01838*
X17007Y01839*
X17007Y01839*
X17007Y0184*
X17007Y01841*
X17007Y01842*
X17007Y01843*
X17007Y01844*
X17007Y01846*
X17007Y01847*
Y01847*
Y01847*
Y01847*
X17007Y01847*
Y01848*
Y01848*
X17007Y01849*
X17007Y0185*
X17007Y01851*
X17008Y01853*
X17008Y01854*
X17008Y01857*
X17008Y01858*
X17008Y0186*
X17008Y01861*
X17008Y01862*
X17008Y01862*
X17008Y01863*
X17009Y01863*
X17009Y01863*
Y01864*
X17009Y01864*
X17009Y01864*
X17008Y01864*
X17008*
X17008Y01864*
X17008Y01864*
X17007Y01864*
X17007Y01864*
X17007Y01865*
X17006Y01865*
X17006Y01866*
Y01866*
X17006Y01866*
X17006Y01866*
X17006Y01866*
X17006Y01867*
X17005Y01867*
X17005Y01868*
Y01868*
X17005Y01868*
X17005Y01868*
X17005Y01869*
Y01869*
X17005Y0187*
X17005Y0187*
X17005Y0187*
X17005Y0187*
X17006Y01871*
X17006Y01871*
X17006*
X17007Y01871*
X17007Y0187*
X17008Y0187*
X17008*
X17008Y0187*
X17008Y0187*
X17008Y0187*
X17008Y01871*
X17008Y01871*
X17008Y01871*
X17009Y01872*
X17009*
X17009Y01872*
X17009*
X1701Y01872*
G37*
G36*
X1684D02*
X16841Y01871D01*
X16841Y01871*
X16842Y01871*
X16842*
X16842Y01871*
X16842Y01871*
X16842Y01871*
X16843Y0187*
X16843Y0187*
X16843Y0187*
X16843Y0187*
X16844Y0187*
X16844*
X16844Y0187*
X16844Y01869*
X16845Y01869*
X16845Y01869*
X16845Y01869*
X16846Y01869*
X16846Y01868*
X16847Y01868*
X16847Y01867*
X16848Y01867*
X16849Y01866*
X1685Y01865*
X1685Y01865*
X1685Y01865*
X1685Y01865*
X1685Y01864*
X1685Y01864*
X16851Y01863*
X16851Y01863*
X16852Y01862*
X16853Y01861*
X16853Y0186*
X16854Y01859*
Y01859*
X16854Y01858*
X16854Y01858*
X16854Y01858*
X16854Y01857*
X16854Y01857*
X16854Y01856*
X16854Y01855*
X16854Y01854*
X16854Y01853*
X16854Y01852*
X16854Y01851*
Y0185*
Y01848*
X16854Y01847*
X16854Y01845*
Y01845*
X16854Y01845*
Y01845*
X16854Y01844*
X16854Y01843*
X16854Y01843*
X16854Y01842*
X16854Y01841*
X16853Y01839*
X16853Y01838*
X16853Y01837*
X16852Y01837*
X16852Y01836*
X16852Y01835*
X16851Y01835*
X16851Y01835*
X16851Y01834*
X16851Y01834*
X16851Y01834*
Y01834*
X16851Y01834*
X16851Y01833*
X1685Y01833*
X1685Y01832*
X16849Y01832*
X16849Y01831*
X16849Y01831*
X16848Y0183*
X16848Y0183*
X16848*
X16848Y0183*
X16847Y0183*
X16847Y0183*
X16847Y01829*
X16846Y01829*
X16845Y01828*
X16844Y01828*
X16843Y01827*
X16843Y01827*
X16843*
X16843Y01827*
X16842Y01827*
X16842Y01826*
X16841Y01826*
X1684Y01826*
X16839Y01826*
X16839Y01826*
X16838*
X16837Y01826*
X16837Y01826*
X16837Y01826*
X16836Y01826*
X16836Y01827*
X16835Y01827*
X16835Y01828*
Y01828*
Y01828*
Y01828*
Y01829*
X16835Y01829*
X16836Y0183*
X16836Y01831*
X16836Y01831*
X16836Y01831*
X16836Y01832*
X16836Y01832*
X16836Y01832*
X16836Y01833*
X16837Y01833*
X16837Y01834*
X16837Y01835*
X16837Y01836*
X16837Y01837*
X16837Y01838*
X16837Y01839*
X16837Y01839*
X16837Y0184*
X16838Y01841*
X16838Y01842*
X16838Y01843*
X16838Y01844*
X16838Y01846*
X16838Y01847*
Y01847*
Y01847*
Y01847*
X16838Y01847*
Y01848*
Y01848*
X16838Y01849*
X16838Y0185*
X16838Y01851*
X16838Y01853*
X16838Y01854*
X16839Y01857*
X16839Y01858*
X16839Y0186*
X16839Y01861*
X16839Y01862*
X16839Y01862*
X16839Y01863*
X16839Y01863*
X16839Y01863*
Y01864*
X1684Y01864*
X1684Y01864*
X16839Y01864*
X16839*
X16839Y01864*
X16838Y01864*
X16838Y01864*
X16838Y01864*
X16837Y01865*
X16837Y01865*
X16837Y01866*
Y01866*
X16837Y01866*
X16837Y01866*
X16837Y01866*
X16837Y01867*
X16836Y01867*
X16836Y01868*
Y01868*
X16836Y01868*
X16836Y01868*
X16836Y01869*
Y01869*
X16836Y0187*
X16836Y0187*
X16836Y0187*
X16836Y0187*
X16837Y01871*
X16837Y01871*
X16837*
X16837Y01871*
X16838Y0187*
X16838Y0187*
X16838*
X16839Y0187*
X16839Y0187*
X16839Y0187*
X16839Y01871*
X16839Y01871*
X16839Y01871*
X1684Y01872*
X1684*
X1684Y01872*
X1684*
X1684Y01872*
G37*
G36*
X17001Y01871D02*
X17002Y0187D01*
X17002Y0187*
X17002Y0187*
X17002Y0187*
X17002Y01869*
Y01869*
Y01869*
X17002Y01869*
X17002Y01869*
X17002Y01868*
X17001Y01868*
X17001Y01867*
X17Y01866*
X17Y01866*
X17Y01866*
X17Y01866*
X17Y01866*
X16999Y01865*
X16999Y01865*
X16999Y01865*
X16999Y01865*
X16999Y01864*
Y01864*
X16999Y01864*
Y01864*
X16999Y01863*
Y01863*
X16999Y01863*
Y01862*
Y01862*
Y01862*
X16999Y01862*
Y01861*
X16999Y01861*
X16999Y0186*
Y01859*
X16999Y01859*
Y01858*
Y01858*
X16999Y01858*
X16999Y01857*
X16999Y01856*
X16999Y01855*
X16999Y01854*
X17Y01853*
X17Y01852*
Y01852*
Y01852*
X17Y01852*
Y01851*
Y01851*
X17Y0185*
Y0185*
X17Y01849*
Y01849*
X17Y01848*
X17Y01846*
X17Y01845*
X17Y01843*
Y01843*
Y01842*
Y01842*
X17Y01841*
Y01841*
X17Y0184*
X17Y01839*
X17Y01838*
X17Y01836*
X17001Y01835*
X17001Y01834*
X17001Y01833*
X17001Y01832*
X17001Y01832*
X17001Y01831*
X17001Y01831*
X17002Y01831*
X17002Y01831*
X17002Y01831*
X17002Y0183*
X17002Y0183*
X17002Y01829*
X17002Y01828*
Y01828*
X17002Y01828*
X17002Y01827*
X17002Y01827*
X17002Y01826*
X17001Y01826*
X17001Y01826*
X17001*
X17Y01826*
X16999*
X16999Y01826*
X16998Y01826*
X16997Y01826*
X16996Y01826*
X16996Y01827*
X16995Y01827*
X16994Y01827*
X16993Y01828*
X16992Y01828*
X16991Y01829*
X16991Y01829*
X16991Y01829*
X16991Y01829*
X1699Y0183*
X1699Y0183*
X16989Y01831*
X16989Y01831*
X16989Y01831*
X16989Y01831*
X16989Y01831*
X16988Y01832*
X16988Y01833*
X16987Y01833*
X16986Y01834*
X16986Y01835*
X16985Y01836*
Y01836*
X16985Y01836*
X16985Y01837*
X16985Y01837*
X16985Y01837*
X16985Y01837*
X16985Y01838*
X16984Y01838*
X16984Y01839*
X16984Y01839*
X16984Y0184*
X16984Y01841*
X16984Y01841*
X16983Y01842*
X16983Y01844*
Y01844*
X16983Y01844*
X16983Y01845*
Y01845*
X16983Y01846*
X16983Y01847*
X16983Y01847*
Y01848*
Y0185*
X16983Y01851*
X16983Y01852*
X16983Y01853*
X16983Y01855*
X16983Y01856*
X16984Y01857*
X16984Y01859*
Y01859*
X16984Y01859*
X16984Y01859*
X16984Y01859*
X16984Y0186*
X16985Y0186*
X16985Y01861*
X16985Y01861*
X16985Y01862*
X16986Y01862*
X16986Y01863*
X16987Y01863*
X16987Y01864*
X16988Y01865*
X16989Y01865*
X16989Y01866*
X16989Y01866*
X1699Y01866*
X1699Y01867*
X1699Y01867*
X1699Y01867*
X16991Y01868*
X16992Y01868*
X16993Y01869*
X16993Y01869*
X16994Y0187*
X16995Y0187*
X16995Y0187*
X16996Y0187*
X16996Y0187*
X16996*
X16997Y0187*
X16998*
X16998Y0187*
X16998Y0187*
X16998*
X16998Y0187*
X16999Y0187*
X16999Y0187*
X16999Y0187*
X17Y01871*
X17001*
X17001Y01871*
G37*
G36*
X16832D02*
X16832Y0187D01*
X16833Y0187*
X16833Y0187*
X16833Y0187*
X16833Y01869*
Y01869*
Y01869*
X16833Y01869*
X16833Y01869*
X16832Y01868*
X16832Y01868*
X16832Y01867*
X16831Y01866*
X16831Y01866*
X16831Y01866*
X16831Y01866*
X1683Y01866*
X1683Y01865*
X1683Y01865*
X1683Y01865*
X1683Y01865*
X1683Y01864*
Y01864*
X1683Y01864*
Y01864*
X1683Y01863*
Y01863*
X1683Y01863*
Y01862*
Y01862*
Y01862*
X1683Y01862*
Y01861*
X1683Y01861*
X1683Y0186*
Y01859*
X1683Y01859*
Y01858*
Y01858*
X1683Y01858*
X1683Y01857*
X1683Y01856*
X1683Y01855*
X1683Y01854*
X1683Y01853*
X1683Y01852*
Y01852*
Y01852*
X1683Y01852*
Y01851*
Y01851*
X1683Y0185*
Y0185*
X16831Y01849*
Y01849*
X16831Y01848*
X16831Y01846*
X16831Y01845*
X16831Y01843*
Y01843*
Y01842*
Y01842*
X16831Y01841*
Y01841*
X16831Y0184*
X16831Y01839*
X16831Y01838*
X16831Y01836*
X16831Y01835*
X16831Y01834*
X16832Y01833*
X16832Y01832*
X16832Y01832*
X16832Y01831*
X16832Y01831*
X16832Y01831*
X16832Y01831*
X16833Y01831*
X16833Y0183*
X16833Y0183*
X16833Y01829*
X16833Y01828*
Y01828*
X16833Y01828*
X16833Y01827*
X16833Y01827*
X16833Y01826*
X16832Y01826*
X16832Y01826*
X16831*
X16831Y01826*
X1683*
X16829Y01826*
X16829Y01826*
X16828Y01826*
X16827Y01826*
X16826Y01827*
X16826Y01827*
X16825Y01827*
X16824Y01828*
X16823Y01828*
X16822Y01829*
X16822Y01829*
X16822Y01829*
X16822Y01829*
X16821Y0183*
X16821Y0183*
X1682Y01831*
X1682Y01831*
X1682Y01831*
X1682Y01831*
X1682Y01831*
X16819Y01832*
X16818Y01833*
X16818Y01833*
X16817Y01834*
X16816Y01835*
X16816Y01836*
Y01836*
X16816Y01836*
X16816Y01837*
X16816Y01837*
X16816Y01837*
X16815Y01837*
X16815Y01838*
X16815Y01838*
X16815Y01839*
X16815Y01839*
X16815Y0184*
X16815Y01841*
X16814Y01841*
X16814Y01842*
X16814Y01844*
Y01844*
X16814Y01844*
X16814Y01845*
Y01845*
X16814Y01846*
X16814Y01847*
X16814Y01847*
Y01848*
Y0185*
X16814Y01851*
X16814Y01852*
X16814Y01853*
X16814Y01855*
X16814Y01856*
X16815Y01857*
X16815Y01859*
Y01859*
X16815Y01859*
X16815Y01859*
X16815Y01859*
X16815Y0186*
X16815Y0186*
X16816Y01861*
X16816Y01861*
X16816Y01862*
X16817Y01862*
X16817Y01863*
X16817Y01863*
X16818Y01864*
X16819Y01865*
X16819Y01865*
X1682Y01866*
X1682Y01866*
X1682Y01866*
X16821Y01867*
X16821Y01867*
X16821Y01867*
X16822Y01868*
X16823Y01868*
X16824Y01869*
X16824Y01869*
X16825Y0187*
X16825Y0187*
X16826Y0187*
X16827Y0187*
X16827Y0187*
X16827*
X16827Y0187*
X16828*
X16829Y0187*
X16829Y0187*
X16829*
X16829Y0187*
X16829Y0187*
X1683Y0187*
X1683Y0187*
X16831Y01871*
X16832*
X16832Y01871*
G37*
G36*
X17158Y01873D02*
X17158Y01873D01*
X17159Y01872*
X17159Y01872*
X1716Y01872*
X17161Y01871*
X17162Y01871*
X17162Y01871*
X17164Y0187*
X17166Y01868*
X17167Y01868*
X17168Y01867*
X17168Y01867*
X17169Y01866*
X17169Y01866*
X17169Y01866*
X17169Y01866*
X17169Y01866*
X17169Y01866*
X17169Y01865*
X1717Y01865*
X1717Y01865*
X1717Y01864*
X1717Y01864*
X17171Y01863*
X17171Y01862*
X17171Y01861*
X17171Y0186*
Y01859*
Y01859*
Y01859*
Y01859*
X17171Y01859*
Y01858*
X17171Y01858*
X17171Y01857*
X17171Y01856*
X1717Y01855*
X1717Y01854*
X17169Y01853*
X17169Y01853*
X17169Y01852*
X17168Y01852*
X17168Y01852*
X17167Y01851*
X17166Y01851*
X17165Y01851*
X17164Y0185*
X17164Y0185*
X17163*
X17163Y0185*
X17163*
X17162Y0185*
X17162Y0185*
X17162Y0185*
X17162Y0185*
X17162Y0185*
X17161Y01849*
Y01849*
Y01849*
X17162Y01848*
X17162Y01848*
Y01848*
Y01848*
Y01848*
X17162Y01848*
X17162Y01848*
X17162Y01848*
X17162Y01848*
X17163Y01848*
X17163Y01848*
X17163Y01848*
X17163Y01848*
X17164Y01848*
X17164Y01849*
X17165Y01849*
X17165Y01849*
X17166Y01849*
X17166*
X17166Y01849*
X17166Y01848*
X17167Y01848*
X17167Y01848*
X17167Y01848*
X17168Y01847*
X17169Y01847*
X17169Y01847*
X17169Y01846*
X17169Y01846*
X1717Y01846*
X1717Y01845*
X1717Y01845*
X17171Y01844*
X17171Y01844*
Y01844*
X17171Y01843*
X17171Y01843*
X17171Y01843*
Y01842*
Y01841*
Y0184*
X17171Y01839*
Y01839*
Y01839*
Y01839*
X17171Y01839*
Y01838*
X17171Y01838*
Y01837*
Y01836*
X17171Y01836*
Y01836*
X17171Y01835*
X17171Y01835*
X17171Y01835*
X17171Y01835*
X17172Y01835*
X17172Y01835*
X17172Y01835*
X17173Y01835*
X17173*
X17173Y01835*
X17174Y01835*
X17174Y01835*
X17174Y01835*
X17175Y01834*
X17175Y01834*
X17175Y01834*
X17175Y01833*
X17175Y01833*
X17175Y01832*
X17175Y01831*
X17175Y01831*
X17174Y0183*
X17174Y01829*
X17173Y01828*
X17173Y01828*
X17173Y01828*
X17173Y01828*
X17172Y01827*
X17172Y01827*
X17171Y01827*
X17171Y01826*
X1717Y01826*
X1717*
X1717Y01826*
X1717Y01826*
X17169Y01826*
X17169Y01826*
X17168Y01826*
X17167Y01826*
X17164*
X17164Y01826*
X17163Y01826*
X17162Y01826*
X17161Y01826*
X17161Y01826*
X17161*
X17161Y01826*
X1716Y01826*
X1716Y01826*
X17159Y01827*
X17159Y01827*
X17158Y01827*
X17158Y01828*
X17158Y01828*
X17158Y01828*
X17157Y01828*
X17157Y01829*
X17157Y01829*
X17156Y0183*
X17156Y01831*
X17156Y01831*
Y01831*
X17156Y01831*
X17156Y01832*
X17156Y01832*
X17156Y01833*
Y01833*
X17156Y01834*
Y01834*
Y01835*
X17155Y01835*
Y01836*
Y01837*
Y01837*
Y01837*
Y01837*
Y01838*
Y01838*
Y01838*
X17155Y01839*
X17155Y0184*
X17155Y01841*
X17155Y01842*
X17155Y01843*
Y01843*
Y01843*
X17155Y01844*
X17155Y01844*
X17155Y01845*
X17154Y01845*
X17154Y01846*
X17154Y01846*
X17154Y01846*
Y01846*
X17154Y01846*
X17154Y01847*
X17154Y01847*
X17154Y01847*
X17154Y01847*
X17153Y01848*
X17154Y01848*
Y01848*
X17154Y01849*
X17154Y01849*
X17154Y01849*
X17154Y0185*
X17154Y0185*
X17155Y01851*
X17155Y01852*
Y01852*
X17155Y01852*
X17155Y01852*
X17156Y01853*
X17156Y01853*
X17156Y01854*
X17157Y01855*
X17157Y01856*
X17157Y01856*
X17157Y01857*
Y01857*
Y01857*
X17157Y01857*
X17156Y01858*
Y01858*
Y01859*
X17157Y01859*
X17157Y0186*
X17157Y0186*
X17157Y0186*
X17157Y0186*
X17157Y0186*
X17157Y0186*
X17157Y01861*
X17157Y01862*
X17158Y01862*
X17158Y01862*
X17158Y01863*
Y01863*
Y01863*
Y01864*
Y01864*
Y01864*
Y01864*
Y01865*
X17158Y01865*
X17158Y01865*
X17158Y01866*
X17158Y01866*
X17158Y01867*
X17157Y01867*
X17157Y01867*
X17157Y01867*
X17157Y01868*
X17157Y01868*
X17156Y01868*
X17156Y01868*
X17157Y01868*
X17157Y01867*
X17157Y01867*
X17157Y01867*
X17157Y01867*
X17157Y01867*
X17158Y01867*
Y01866*
X17158Y01866*
X17158Y01866*
Y01865*
Y01865*
X17158Y01865*
X17157Y01865*
X17157Y01865*
X17157Y01864*
X17157Y01864*
X17157Y01864*
X17156Y01864*
X17156Y01865*
X17155Y01865*
X17155Y01865*
X17155Y01865*
X17154Y01865*
X17154Y01866*
X17154Y01866*
X17154Y01866*
X17153Y01867*
X17153Y01867*
Y01867*
X17153Y01868*
X17153Y01868*
X17153Y01868*
X17154Y01868*
X17154Y01869*
X17154Y01869*
X17155Y01869*
X17155*
X17155Y01869*
X17156Y01869*
X17156Y01869*
X17156Y01868*
X17156Y01869*
X17156Y0187*
Y0187*
Y0187*
X17156Y0187*
X17156Y01871*
X17156Y01871*
X17157Y01872*
X17157Y01872*
X17157Y01873*
X17158Y01873*
X17158Y01873*
X17158Y01873*
G37*
G36*
X16964D02*
X16964Y01873D01*
X16965Y01872*
X16965Y01872*
X16966Y01872*
X16967Y01871*
X16967Y01871*
X16968Y01871*
X1697Y0187*
X16972Y01868*
X16973Y01868*
X16973Y01867*
X16974Y01867*
X16974Y01866*
X16974Y01866*
X16975Y01866*
X16975Y01866*
X16975Y01866*
X16975Y01866*
X16975Y01865*
X16975Y01865*
X16976Y01865*
X16976Y01864*
X16976Y01864*
X16976Y01863*
X16976Y01862*
X16977Y01861*
X16977Y0186*
Y01859*
Y01859*
Y01859*
Y01859*
X16977Y01859*
Y01858*
X16977Y01858*
X16977Y01857*
X16976Y01856*
X16976Y01855*
X16976Y01854*
X16975Y01853*
X16975Y01853*
X16974Y01852*
X16974Y01852*
X16973Y01852*
X16973Y01851*
X16972Y01851*
X16971Y01851*
X1697Y0185*
X16969Y0185*
X16969*
X16969Y0185*
X16969*
X16968Y0185*
X16968Y0185*
X16967Y0185*
X16967Y0185*
X16967Y0185*
X16967Y01849*
Y01849*
Y01849*
X16967Y01848*
X16967Y01848*
Y01848*
Y01848*
Y01848*
X16968Y01848*
X16968Y01848*
X16968Y01848*
X16968Y01848*
X16968Y01848*
X16969Y01848*
X16969Y01848*
X16969Y01848*
X16969Y01848*
X1697Y01849*
X16971Y01849*
X16971Y01849*
X16972Y01849*
X16972*
X16972Y01849*
X16972Y01848*
X16972Y01848*
X16973Y01848*
X16973Y01848*
X16974Y01847*
X16974Y01847*
X16974Y01847*
X16975Y01846*
X16975Y01846*
X16975Y01846*
X16976Y01845*
X16976Y01845*
X16976Y01844*
X16977Y01844*
Y01844*
X16977Y01843*
X16977Y01843*
X16977Y01843*
Y01842*
Y01841*
Y0184*
X16977Y01839*
Y01839*
Y01839*
Y01839*
X16977Y01839*
Y01838*
X16977Y01838*
Y01837*
Y01836*
X16977Y01836*
Y01836*
X16977Y01835*
X16977Y01835*
X16977Y01835*
X16977Y01835*
X16977Y01835*
X16978Y01835*
X16978Y01835*
X16979Y01835*
X16979*
X16979Y01835*
X16979Y01835*
X1698Y01835*
X1698Y01835*
X1698Y01834*
X16981Y01834*
X16981Y01834*
X16981Y01833*
X16981Y01833*
X16981Y01832*
X16981Y01831*
X1698Y01831*
X1698Y0183*
X16979Y01829*
X16979Y01828*
X16979Y01828*
X16979Y01828*
X16978Y01828*
X16978Y01827*
X16978Y01827*
X16977Y01827*
X16977Y01826*
X16976Y01826*
X16976*
X16976Y01826*
X16976Y01826*
X16975Y01826*
X16974Y01826*
X16974Y01826*
X16973Y01826*
X1697*
X16969Y01826*
X16969Y01826*
X16968Y01826*
X16967Y01826*
X16967Y01826*
X16966*
X16966Y01826*
X16966Y01826*
X16966Y01826*
X16965Y01827*
X16965Y01827*
X16964Y01827*
X16964Y01828*
X16964Y01828*
X16963Y01828*
X16963Y01828*
X16963Y01829*
X16962Y01829*
X16962Y0183*
X16962Y01831*
X16962Y01831*
Y01831*
X16961Y01831*
X16961Y01832*
X16961Y01832*
X16961Y01833*
Y01833*
X16961Y01834*
Y01834*
Y01835*
X16961Y01835*
Y01836*
Y01837*
Y01837*
Y01837*
Y01837*
Y01838*
Y01838*
Y01838*
X16961Y01839*
X16961Y0184*
X16961Y01841*
X16961Y01842*
X16961Y01843*
Y01843*
Y01843*
X16961Y01844*
X1696Y01844*
X1696Y01845*
X1696Y01845*
X1696Y01846*
X1696Y01846*
X1696Y01846*
Y01846*
X1696Y01846*
X16959Y01847*
X16959Y01847*
X16959Y01847*
X16959Y01847*
X16959Y01848*
X16959Y01848*
Y01848*
X16959Y01849*
X16959Y01849*
X1696Y01849*
X1696Y0185*
X1696Y0185*
X1696Y01851*
X16961Y01852*
Y01852*
X16961Y01852*
X16961Y01852*
X16961Y01853*
X16962Y01853*
X16962Y01854*
X16962Y01855*
X16962Y01856*
X16962Y01856*
X16962Y01857*
Y01857*
Y01857*
X16962Y01857*
X16962Y01858*
Y01858*
Y01859*
X16962Y01859*
X16962Y0186*
X16963Y0186*
X16963Y0186*
X16963Y0186*
X16963Y0186*
X16963Y0186*
X16963Y01861*
X16963Y01862*
X16963Y01862*
X16963Y01862*
X16963Y01863*
Y01863*
Y01863*
Y01864*
Y01864*
Y01864*
Y01864*
Y01865*
X16964Y01865*
X16964Y01865*
X16964Y01866*
X16963Y01866*
X16963Y01867*
X16963Y01867*
X16963Y01867*
X16963Y01867*
X16963Y01868*
X16962Y01868*
X16962Y01868*
X16962Y01868*
X16962Y01868*
X16963Y01867*
X16963Y01867*
X16963Y01867*
X16963Y01867*
X16963Y01867*
X16963Y01867*
Y01866*
X16963Y01866*
X16963Y01866*
Y01865*
Y01865*
X16963Y01865*
X16963Y01865*
X16963Y01865*
X16963Y01864*
X16963Y01864*
X16962Y01864*
X16962Y01864*
X16961Y01865*
X16961Y01865*
X16961Y01865*
X1696Y01865*
X1696Y01865*
X1696Y01866*
X1696Y01866*
X16959Y01866*
X16959Y01867*
X16959Y01867*
Y01867*
X16959Y01868*
X16959Y01868*
X16959Y01868*
X16959Y01868*
X1696Y01869*
X1696Y01869*
X16961Y01869*
X16961*
X16961Y01869*
X16961Y01869*
X16962Y01869*
X16962Y01868*
X16962Y01869*
X16962Y0187*
Y0187*
Y0187*
X16962Y0187*
X16962Y01871*
X16962Y01871*
X16962Y01872*
X16963Y01872*
X16963Y01873*
X16963Y01873*
X16964Y01873*
X16964Y01873*
G37*
G36*
X16676Y01873D02*
X16676Y01873D01*
X16677Y01873*
X16679Y01872*
X16679Y01872*
X1668Y01872*
X1668Y01872*
X16681Y01872*
X16681Y01871*
X16681Y01871*
Y01871*
X16681Y01871*
Y0187*
X16681Y0187*
X16681Y01869*
X16681Y01869*
X1668Y01868*
X1668Y01868*
X1668Y01867*
X16679Y01867*
X16679Y01866*
X16678Y01865*
X16678Y01865*
X16678Y01865*
X16677Y01865*
X16677Y01865*
X16676Y01864*
X16676Y01864*
X16674Y01863*
X16674Y01863*
X16673Y01863*
X16672Y01862*
X16672Y01862*
X16671Y01862*
X16671Y01863*
X16671Y01863*
X16671Y01863*
Y01864*
X16671Y01864*
X16671Y01864*
X16671Y01865*
Y01865*
Y01865*
Y01865*
X16671Y01865*
X16671Y01865*
X1667Y01866*
X1667Y01866*
X1667Y01866*
X16669Y01867*
X16669Y01867*
X16669Y01867*
X16669Y01867*
X16668Y01868*
X16668Y01868*
X16667Y01869*
X16667Y0187*
X16667Y0187*
X16667Y01871*
X16667Y01871*
X16667Y01871*
X16667Y01871*
X16667Y01871*
X16668Y01872*
X16668Y01872*
X16668Y01872*
X16669Y01872*
X16669Y01872*
X16669*
X16669Y01872*
X1667Y01873*
X1667Y01873*
X16671Y01873*
X16672Y01873*
X16673Y01873*
X16675*
X16676Y01873*
G37*
G36*
X16933Y01873D02*
X16933Y01873D01*
X16934Y01873*
X16935Y01872*
X16935Y01872*
X16935Y01872*
X16935Y01872*
X16936Y01872*
X16936Y01871*
X16936Y01871*
X16936Y0187*
X16937Y01869*
X16936Y01868*
X16936Y01868*
Y01867*
Y01867*
X16936Y01867*
Y01867*
X16936Y01866*
X16936Y01866*
X16936Y01865*
X16936Y01864*
X16935Y01864*
X16935Y01863*
X16935Y01863*
X16935Y01863*
X16935Y01863*
X16935Y01862*
X16935Y01862*
Y01862*
Y01862*
Y01862*
X16935Y01861*
X16935Y01861*
X16934Y0186*
X16934Y0186*
X16934Y01859*
X16933Y01859*
X16933Y01859*
X16933*
X16932Y01859*
X16932Y01859*
X16932Y0186*
X16931Y0186*
X16931Y0186*
X16931Y01861*
X16931Y01861*
X1693Y01862*
X1693Y01862*
X1693Y01862*
X1693Y01862*
X1693Y01863*
X1693Y01863*
X16929Y01864*
X16929Y01864*
X16928Y01865*
X16928Y01865*
X16928Y01865*
X16928Y01865*
X16928Y01866*
X16927Y01866*
X16927Y01867*
X16927Y01868*
X16927Y01869*
Y01869*
X16927Y01869*
Y01869*
Y0187*
X16927Y0187*
X16927Y01871*
X16927Y01871*
X16927Y01872*
X16927Y01872*
X16928Y01872*
X16928Y01872*
X16928Y01872*
X16929Y01872*
X16929Y01873*
X1693Y01873*
X16931Y01873*
X16932*
X16933Y01873*
G37*
G36*
X1712Y01872D02*
X17121Y01872D01*
X17121Y01872*
X17122Y01872*
X17122Y01871*
X17123Y01871*
X17123Y01871*
X17123Y01871*
X17123Y01871*
X17124Y01871*
X17124Y01871*
X17125Y0187*
X17125Y0187*
X17125*
X17126Y0187*
X17126Y0187*
X17127Y0187*
X17128Y01869*
X17128Y01869*
X17128Y01869*
X17128Y01869*
X17129Y01868*
X17129Y01868*
X17129Y01868*
X17129Y01867*
X17129Y01867*
X1713Y01866*
X1713Y01865*
X1713Y01865*
X1713Y01864*
X1713Y01864*
X17131Y01863*
X17131Y01862*
X17131Y01862*
X17131Y01861*
Y0186*
Y0186*
Y01859*
X17131Y01859*
X17131Y01859*
X17131Y01858*
X1713Y01858*
X1713Y01857*
X17129Y01857*
X17129Y01857*
X17129Y01857*
X17128*
X17128Y01857*
X17128Y01857*
X17127Y01857*
X17127Y01857*
X17127Y01858*
X17126Y01858*
X17126Y01858*
X17126Y01858*
X17126Y01858*
X17126Y01859*
X17125Y01859*
X17125Y0186*
X17125Y0186*
Y01861*
X17125Y01861*
X17124Y01861*
X17124Y01861*
X17124Y01862*
X17124Y01862*
X17123Y01863*
X17123Y01863*
X17123Y01863*
X17122Y01864*
X17122Y01864*
X17122Y01864*
X17121Y01865*
X1712Y01865*
X1712Y01866*
X17119Y01866*
X17119Y01866*
X17118Y01866*
X17118Y01866*
X17118Y01866*
X17117Y01867*
X17117Y01868*
X17116Y01868*
X17116Y01868*
X17116Y01869*
X17116Y01869*
X17116Y0187*
X17116Y0187*
X17116Y01871*
X17116Y01871*
X17116Y01871*
X17116Y01871*
X17117Y01871*
X17117Y01872*
X17117Y01872*
X17118Y01872*
X17119Y01872*
X1712Y01872*
X1712*
X1712Y01872*
G37*
G36*
X16732D02*
X16732Y01872D01*
X16733Y01872*
X16733Y01872*
X16734Y01871*
X16734Y01871*
X16734Y01871*
X16735Y01871*
X16735Y01871*
X16735Y01871*
X16736Y01871*
X16736Y0187*
X16737Y0187*
X16737*
X16737Y0187*
X16738Y0187*
X16738Y0187*
X16739Y01869*
X16739Y01869*
X1674Y01869*
X1674Y01869*
X1674Y01868*
X1674Y01868*
X1674Y01868*
X16741Y01867*
X16741Y01867*
X16741Y01866*
X16742Y01865*
X16742Y01865*
X16742Y01864*
X16742Y01864*
X16742Y01863*
X16742Y01862*
X16742Y01862*
X16742Y01861*
Y0186*
Y0186*
Y01859*
X16742Y01859*
X16742Y01859*
X16742Y01858*
X16742Y01858*
X16741Y01857*
X16741Y01857*
X1674Y01857*
X1674Y01857*
X1674*
X1674Y01857*
X16739Y01857*
X16739Y01857*
X16739Y01857*
X16738Y01858*
X16738Y01858*
X16738Y01858*
X16738Y01858*
X16737Y01858*
X16737Y01859*
X16737Y01859*
X16737Y0186*
X16736Y0186*
Y01861*
X16736Y01861*
X16736Y01861*
X16736Y01861*
X16735Y01862*
X16735Y01862*
X16735Y01863*
X16734Y01863*
X16734Y01863*
X16734Y01864*
X16734Y01864*
X16733Y01864*
X16732Y01865*
X16732Y01865*
X16731Y01866*
X1673Y01866*
X1673Y01866*
X1673Y01866*
X1673Y01866*
X16729Y01866*
X16729Y01867*
X16728Y01868*
X16728Y01868*
X16727Y01868*
X16727Y01869*
X16727Y01869*
X16727Y0187*
X16727Y0187*
X16727Y01871*
X16728Y01871*
X16728Y01871*
X16728Y01871*
X16728Y01871*
X16728Y01872*
X16729Y01872*
X1673Y01872*
X1673Y01872*
X16731Y01872*
X16731*
X16732Y01872*
G37*
G36*
X1689Y01872D02*
X16891Y01872D01*
X16891*
X16891Y01872*
X16892*
X16892Y01872*
X16892*
X16893Y01872*
X16894Y01872*
X16895Y01871*
X16896Y01871*
X16896Y01871*
X16897Y01871*
X16897Y01871*
X16897Y01871*
X16897Y01871*
X16897Y0187*
X16897Y0187*
X16897Y0187*
Y01869*
X16897Y01869*
X16897Y01868*
X16897Y01868*
X16897Y01868*
X16897Y01868*
X16896Y01868*
X16896Y01867*
X16895Y01867*
X16895Y01867*
X16895Y01866*
X16895Y01866*
X16894Y01866*
X16894Y01866*
X16894Y01865*
X16894Y01865*
X16893Y01864*
X16893Y01864*
X16893Y01864*
X16893Y01863*
X16893Y01863*
X16893Y01862*
X16892Y01862*
X16892Y01861*
X16892Y0186*
Y0186*
Y0186*
Y01859*
X16892Y01859*
X16892Y01859*
X16892Y01858*
X16892Y01857*
X16891Y01856*
X16891Y01856*
X16891Y01856*
X1689Y01856*
X1689Y01856*
X1689*
X1689Y01856*
X16889Y01856*
X16889Y01856*
X16889Y01856*
X16889Y01857*
X16888Y01857*
X16888Y01858*
X16888Y01858*
X16888Y01859*
X16888Y01859*
Y0186*
Y0186*
Y01861*
Y01861*
X16888Y01861*
X16888Y01862*
X16888Y01863*
X16887Y01863*
Y01863*
X16887Y01863*
X16887Y01864*
X16887Y01864*
X16887Y01864*
X16886Y01865*
X16886Y01865*
X16885Y01866*
X16882Y01871*
X16884Y01872*
X16885*
X16885Y01872*
X16885Y01872*
X16885Y01872*
X16886Y01872*
X16886*
X16887Y01872*
X16887Y01872*
X16889*
X1689Y01872*
G37*
G36*
X16903Y01871D02*
X16903D01*
X16903Y01871*
X16903Y01871*
X16904Y01871*
X16905Y0187*
X16905Y0187*
X16906Y0187*
X16906Y0187*
X16906Y0187*
X16906Y01869*
X16906Y01869*
X16906Y01869*
X16906Y01868*
Y01868*
X16906Y01867*
X16906Y01866*
Y01866*
X16906Y01866*
X16906Y01866*
X16906Y01865*
X16906Y01864*
X16905Y01864*
X16905Y01863*
X16905Y01862*
X16905Y01862*
X16905Y01861*
X16905Y01861*
X16904Y0186*
X16904Y0186*
X16904Y01859*
X16904Y01859*
X16904Y01858*
Y01858*
Y01858*
X16904Y01858*
X16904Y01857*
X16903Y01857*
X16903Y01856*
X16903Y01856*
X16902Y01855*
X16902Y01855*
X16901Y01855*
X16901*
X169Y01855*
X169Y01855*
X169Y01856*
X16899Y01856*
X16899Y01856*
X16899Y01857*
Y01857*
X16899Y01857*
X16899Y01857*
X16899Y01858*
X16899Y01859*
X16898Y0186*
Y0186*
X16898Y01861*
X16898Y01861*
Y01862*
Y01862*
Y01862*
Y01863*
X16898Y01863*
Y01864*
Y01864*
X16898Y01865*
Y01867*
X16898Y01868*
X16898Y01869*
X16898Y01869*
X16898Y01869*
X16899Y0187*
X16899Y0187*
X16899Y0187*
X16899Y0187*
X16899Y01871*
X169Y01871*
X16901Y01871*
X16902Y01871*
X16903Y01871*
G37*
G36*
X16612Y01873D02*
X16613D01*
X16613Y01873*
X16615Y01873*
X16616Y01873*
X16617Y01873*
X16617Y01873*
X16618Y01873*
X16618Y01873*
X16618Y01872*
X16619Y01872*
Y01872*
X16619Y01872*
X16619Y01872*
X16619Y01871*
X16618Y0187*
X16618Y0187*
X16618Y0187*
X16618Y01869*
X16617Y01869*
X16617Y01868*
X16617Y01868*
X16616Y01868*
X16616Y01868*
X16616Y01867*
X16615Y01867*
X16615Y01866*
X16615Y01866*
X16614Y01866*
X16614Y01865*
Y01865*
X16614Y01865*
X16614Y01865*
Y01864*
X16614Y01864*
X16614Y01863*
X16614Y01863*
Y01862*
Y01862*
Y01861*
Y01861*
Y01861*
Y0186*
Y0186*
X16614Y0186*
X16614Y01859*
X16614Y01858*
X16613Y01857*
X16613Y01856*
X16613Y01856*
X16613Y01855*
X16613Y01855*
X16612Y01855*
X16612Y01855*
X16612*
X16612Y01855*
X16612Y01855*
X16612Y01855*
X16611Y01856*
X16611Y01856*
X16611Y01856*
X16611Y01857*
X16611Y01857*
X1661Y01858*
X1661Y01859*
X1661Y0186*
X1661Y01861*
X16609Y01862*
Y01862*
X16609Y01862*
X16609Y01862*
X16609Y01863*
X16609Y01863*
X16609Y01864*
X16608Y01865*
Y01865*
X16608Y01865*
X16608Y01866*
X16608Y01866*
X16608Y01866*
X16607Y01867*
X16607Y01868*
X16606Y01868*
X16606Y01868*
X16606Y01868*
X16606Y01868*
X16606Y01869*
X16605Y0187*
X16605Y0187*
X16604Y01871*
X16604Y01871*
X16604Y01872*
Y01872*
X16604Y01872*
X16604Y01872*
X16604Y01873*
X16604Y01873*
X16605Y01873*
X16605Y01873*
X16605Y01873*
X16606Y01873*
X16606Y01873*
X16607Y01873*
X16607Y01873*
X16608Y01873*
X16609Y01874*
X16612*
X16612Y01873*
G37*
G36*
X16611Y01855D02*
X16611Y01855D01*
X16612Y01854*
X16612Y01854*
X16612Y01854*
X16612Y01853*
Y01853*
Y01853*
X16612Y01852*
X16612Y01852*
X16612Y01852*
X16612Y01851*
X16611Y01851*
X16611Y01851*
X1661*
X1661Y01851*
X1661Y01851*
X1661Y01851*
X16609Y01852*
X16609Y01852*
X16609Y01852*
X16609Y01853*
Y01853*
X16609Y01853*
X16609Y01854*
X16609Y01854*
X16609Y01854*
X16609Y01855*
X1661Y01855*
X1661Y01855*
X16611*
X16611Y01855*
G37*
G36*
X1689Y01853D02*
X1689Y01853D01*
X1689Y01853*
X16891Y01853*
X16891Y01852*
X16891Y01852*
Y01852*
Y01851*
Y01851*
X16891Y01851*
X16891Y0185*
X16891Y0185*
X1689Y0185*
X1689Y0185*
X1689*
X16889Y0185*
X16889Y0185*
X16889Y0185*
X16888Y0185*
X16888Y0185*
X16888Y01851*
X16888Y01851*
Y01852*
Y01852*
X16888Y01852*
X16888Y01852*
X16888Y01853*
X16889Y01853*
X16889Y01853*
X16889Y01853*
X1689*
X1689Y01853*
G37*
G36*
X17123Y01859D02*
X17124Y01859D01*
X17124Y01859*
X17124Y01859*
X17124Y01858*
X17124Y01858*
X17124Y01858*
X17124Y01858*
X17125Y01857*
X17125Y01857*
X17125Y01856*
X17125Y01855*
X17125Y01855*
X17125Y01854*
X17125Y01852*
X17125Y01851*
Y0185*
Y01849*
Y01849*
Y01849*
Y01848*
X17125Y01848*
Y01847*
X17125Y01846*
Y01845*
X17125Y01844*
X17125Y01843*
X17125Y01842*
X17124Y01842*
X17124Y01841*
X17124Y01841*
X17124Y0184*
X17124Y0184*
X17124Y0184*
X17123Y0184*
X17123Y0184*
X17122*
X17122Y0184*
X17121Y01841*
X17121Y01841*
X17121Y01841*
X17121Y01841*
X1712Y01841*
X1712Y01842*
X1712Y01842*
X1712Y01843*
X17119Y01844*
X17119Y01844*
X17119Y01845*
Y01845*
Y01846*
Y01846*
Y01846*
Y01847*
X17119Y01847*
Y01847*
X17119Y01847*
X17119Y01847*
X17119Y01847*
X17119Y01848*
X17119Y01848*
Y01848*
X17119Y01849*
Y01849*
X17119Y01849*
X17119Y0185*
X17119Y01851*
X17119Y01851*
X17119Y01852*
Y01852*
X17119Y01852*
X17119Y01852*
X17119Y01853*
X17119Y01853*
X17119Y01854*
X1712Y01854*
X1712Y01855*
X1712Y01856*
X17121Y01857*
X17121Y01858*
X17121Y01858*
X17121Y01858*
X17121Y01858*
X17122Y01858*
X17122Y01859*
X17122Y01859*
X17123Y01859*
X17123Y01859*
G37*
G36*
X16735D02*
X16735Y01859D01*
X16735Y01859*
X16735Y01859*
X16736Y01858*
X16736Y01858*
X16736Y01858*
X16736Y01858*
X16736Y01857*
X16736Y01857*
X16736Y01856*
X16736Y01855*
X16736Y01855*
X16736Y01854*
X16736Y01852*
X16737Y01851*
Y0185*
Y01849*
Y01849*
Y01849*
Y01848*
X16736Y01848*
Y01847*
X16736Y01846*
Y01845*
X16736Y01844*
X16736Y01843*
X16736Y01842*
X16736Y01842*
X16736Y01841*
X16736Y01841*
X16735Y0184*
X16735Y0184*
X16735Y0184*
X16735Y0184*
X16734Y0184*
X16734*
X16733Y0184*
X16733Y01841*
X16732Y01841*
X16732Y01841*
X16732Y01841*
X16732Y01841*
X16732Y01842*
X16731Y01842*
X16731Y01843*
X16731Y01844*
X16731Y01844*
X16731Y01845*
Y01845*
Y01846*
Y01846*
Y01846*
Y01847*
X16731Y01847*
Y01847*
X16731Y01847*
X1673Y01847*
X1673Y01847*
X1673Y01848*
X1673Y01848*
Y01848*
X1673Y01849*
Y01849*
X1673Y01849*
X1673Y0185*
X1673Y01851*
X1673Y01851*
X16731Y01852*
Y01852*
X16731Y01852*
X16731Y01852*
X16731Y01853*
X16731Y01853*
X16731Y01854*
X16731Y01854*
X16732Y01855*
X16732Y01856*
X16732Y01857*
X16732Y01858*
X16733Y01858*
X16733Y01858*
X16733Y01858*
X16733Y01858*
X16733Y01859*
X16734Y01859*
X16734Y01859*
X16735Y01859*
G37*
G36*
X17129Y01841D02*
X17129Y0184D01*
X1713Y0184*
X1713Y0184*
X1713Y01839*
X1713Y01838*
X17131Y01837*
Y01837*
X17131Y01837*
Y01837*
X17131Y01836*
Y01836*
X17131Y01835*
Y01835*
Y01834*
Y01827*
X17125Y01827*
X17125*
X17125Y01827*
X17122*
X17122Y01827*
X17121Y01827*
X17121*
X17121Y01827*
X17121Y01827*
X17121Y01827*
X1712Y01827*
X1712Y01827*
X1712Y01828*
X1712Y01828*
Y01828*
X17119Y01828*
X17119Y01829*
Y01829*
Y01829*
X17119Y01829*
X17119Y01829*
X17118Y01829*
X17118*
X17118Y01829*
X17117Y01829*
X17117Y01829*
X17117Y01829*
X17116Y01829*
X17116Y0183*
X17116Y0183*
Y0183*
X17116Y01831*
X17116Y01831*
X17116Y01831*
X17117Y01832*
X17117Y01832*
X17117Y01832*
X17118Y01832*
X17118*
X17119Y01832*
X17119Y01832*
X17119Y01832*
X1712Y01832*
X1712Y01831*
X1712Y01831*
X1712Y01831*
X1712Y01831*
X17121Y01832*
X17121Y01832*
X17121Y01832*
X17121Y01832*
X17121Y01832*
X17122Y01833*
X17122Y01833*
X17122Y01833*
X17123Y01834*
X17123Y01834*
X17123Y01834*
X17123Y01834*
X17123Y01835*
X17124Y01835*
X17124Y01836*
X17125Y01837*
X17125Y01838*
Y01838*
X17125Y01838*
X17125Y01838*
X17125Y01838*
X17126Y01839*
X17126Y01839*
X17126Y0184*
X17126Y0184*
X17127Y0184*
X17127Y0184*
X17127Y0184*
X17128Y01841*
X17128Y01841*
X17129*
X17129Y01841*
G37*
G36*
X1674D02*
X16741Y0184D01*
X16741Y0184*
X16741Y0184*
X16742Y01839*
X16742Y01838*
X16742Y01837*
Y01837*
X16742Y01837*
Y01837*
X16742Y01836*
Y01836*
X16742Y01835*
Y01835*
Y01834*
Y01827*
X16737Y01827*
X16737*
X16736Y01827*
X16734*
X16733Y01827*
X16733Y01827*
X16733*
X16732Y01827*
X16732Y01827*
X16732Y01827*
X16732Y01827*
X16731Y01827*
X16731Y01828*
X16731Y01828*
Y01828*
X16731Y01828*
X16731Y01829*
Y01829*
Y01829*
X16731Y01829*
X1673Y01829*
X16729Y01829*
X16729*
X16729Y01829*
X16729Y01829*
X16729Y01829*
X16728Y01829*
X16728Y01829*
X16728Y0183*
X16728Y0183*
Y0183*
X16728Y01831*
X16728Y01831*
X16728Y01831*
X16728Y01832*
X16728Y01832*
X16729Y01832*
X16729Y01832*
X1673*
X1673Y01832*
X1673Y01832*
X16731Y01832*
X16731Y01832*
X16731Y01831*
X16731Y01831*
X16731Y01831*
X16732Y01831*
X16732Y01832*
X16732Y01832*
X16732Y01832*
X16733Y01832*
X16733Y01832*
X16733Y01833*
X16733Y01833*
X16734Y01833*
X16734Y01834*
X16734Y01834*
X16734Y01834*
X16735Y01834*
X16735Y01835*
X16735Y01835*
X16736Y01836*
X16736Y01837*
X16736Y01838*
Y01838*
X16737Y01838*
X16737Y01838*
X16737Y01838*
X16737Y01839*
X16737Y01839*
X16738Y0184*
X16738Y0184*
X16738Y0184*
X16738Y0184*
X16738Y0184*
X16739Y01841*
X16739Y01841*
X1674*
X1674Y01841*
G37*
G36*
X16702Y01872D02*
X16703Y01872D01*
X16703Y01872*
X16704Y01872*
X16705Y01872*
X16705Y01872*
X16706Y01871*
X16706Y01871*
X16706Y01871*
X16706Y01871*
X16706Y01871*
X16706Y0187*
X16706Y0187*
Y01869*
Y01869*
Y01869*
X16706Y01869*
X16706Y01869*
X16706Y01868*
X16706Y01868*
X16706Y01868*
X16706Y01868*
X16706Y01868*
X16705Y01867*
X16705Y01867*
Y01867*
X16705Y01866*
X16705Y01866*
X16705Y01866*
X16704Y01866*
X16704Y01865*
Y01865*
X16704Y01865*
Y01864*
X16704Y01864*
X16704Y01863*
X16704Y01863*
X16704Y01862*
X16704Y01861*
X16704Y0186*
Y01859*
X16704Y01858*
Y01857*
Y01857*
X16704Y01856*
Y01855*
X16704Y01854*
Y01852*
Y01851*
X16704Y0185*
Y01849*
Y01847*
Y01847*
Y01847*
Y01847*
Y01847*
Y01846*
Y01846*
Y01845*
Y01845*
Y01844*
Y01842*
Y01841*
Y01839*
Y01838*
X16704Y01836*
Y01835*
X16704Y01834*
X16704Y01833*
Y01832*
Y01832*
X16704Y01831*
X16704Y01831*
Y01831*
X16704Y01831*
Y01831*
X16704Y0183*
X16704Y0183*
X16704Y01829*
X16704Y01829*
X16703Y01829*
X16703Y01828*
X16703Y01828*
X16702Y01828*
X16702Y01828*
X16701Y01828*
X16701*
X16701Y01828*
X167Y01828*
X16699*
X16698Y01828*
X16697Y01828*
X16695Y01828*
X16695*
X16695Y01828*
X16695Y01828*
X16694Y01828*
X16694Y01828*
X16694Y01829*
X16693Y01829*
X16693Y01828*
X16693Y01828*
Y01828*
X16693Y01828*
X16693Y01828*
X16693Y01827*
X16693Y01827*
X16692Y01827*
X16692Y01827*
X16691Y01826*
X16691Y01826*
X1669*
X1669Y01826*
X16689Y01826*
X16689Y01827*
X16688Y01827*
X16688Y01827*
X16687Y01828*
X16687Y01828*
X16687Y01828*
X16687Y01828*
X16687Y01827*
X16687Y01827*
X16686Y01827*
X16685Y01827*
X16685Y01827*
X16685Y01827*
X16685Y01827*
X16685Y01827*
X16684Y01827*
X16684Y01828*
X16684Y01828*
Y01829*
X16684Y0183*
X16685Y0183*
X16685Y0183*
X16685Y0183*
X16685Y01831*
X16685Y01831*
X16686Y01831*
X16686Y01831*
X16687*
X16687Y01831*
X16687Y01831*
X16688Y0183*
Y0183*
X16688Y0183*
X16688Y0183*
Y0183*
Y0183*
Y01829*
X16688Y01829*
X16687Y01829*
X16687Y01828*
X16687Y01828*
Y01828*
X16687Y01828*
X16687Y01828*
X16688Y01828*
X16688Y01828*
X16688Y01829*
X16688Y01829*
X16688Y01829*
X16689Y0183*
X16689Y0183*
X16689Y0183*
X1669Y0183*
X1669*
X16691Y0183*
X16692Y01829*
X16693Y01829*
X16693Y01829*
X16693Y01829*
X16693Y01829*
X16692Y0183*
X16692Y0183*
X16691Y0183*
X16691Y0183*
X1669*
X1669Y0183*
X1669Y01831*
X16689Y01831*
X16689Y01831*
X16689Y01831*
X16689Y01832*
X16689Y01833*
X16688Y01834*
X16688Y01834*
X16688Y01835*
X16688Y01835*
Y01836*
Y01836*
Y01836*
Y01837*
Y01837*
Y01837*
Y01838*
Y01839*
Y0184*
X16688Y01841*
Y01842*
X16688Y01843*
Y01845*
X16688Y01847*
X16688Y01848*
X16688Y01851*
X16688Y01853*
Y01853*
Y01853*
Y01853*
X16688Y01854*
Y01854*
X16687Y01855*
Y01856*
X16687Y01857*
X16687Y01858*
X16687Y0186*
X16687Y01861*
X16687Y01862*
X16687Y01863*
X16687Y01863*
X16687Y01864*
X16687Y01864*
Y01864*
X16687Y01865*
X16687Y01865*
X16687Y01865*
X16687Y01866*
X16687Y01866*
X16687Y01867*
X16687Y01867*
X16686Y01867*
X16686Y01867*
X16686Y01867*
X16685Y01868*
X16685Y01869*
X16685Y01869*
X16685Y0187*
X16685Y0187*
X16685Y0187*
X16685Y01871*
X16685Y01871*
X16686Y01871*
X16686Y01872*
X16686*
X16686Y01872*
X16687Y01872*
X16687Y01872*
X16688Y01872*
X16689Y01872*
X16689Y01872*
X1669Y01872*
X16691*
X16691Y01872*
X16692*
X16693Y01872*
X16693*
X16694Y01872*
X16695Y01872*
X16697Y01872*
X16698Y01873*
X16702*
X16702Y01872*
G37*
G36*
X16638D02*
X16639Y01872D01*
X16639Y01872*
X1664Y01872*
X16641Y01872*
X16641Y01872*
X16642Y01871*
X16642Y01871*
X16642Y01871*
X16642Y01871*
X16642Y01871*
X16642Y0187*
X16642Y0187*
Y01869*
Y01869*
Y01869*
X16642Y01869*
X16642Y01869*
X16642Y01868*
X16642Y01868*
X16642Y01868*
X16642Y01868*
X16641Y01868*
X16641Y01867*
X16641Y01867*
Y01867*
X16641Y01866*
X16641Y01866*
X16641Y01866*
X1664Y01866*
X1664Y01865*
Y01865*
X1664Y01865*
Y01864*
X1664Y01864*
X1664Y01863*
X1664Y01863*
X1664Y01862*
X1664Y01861*
X1664Y0186*
Y01859*
X1664Y01858*
Y01857*
Y01857*
X1664Y01856*
Y01855*
X1664Y01854*
Y01852*
Y01851*
X1664Y0185*
Y01849*
Y01847*
Y01847*
Y01847*
Y01847*
Y01847*
Y01846*
Y01846*
Y01845*
Y01845*
Y01844*
Y01842*
Y01841*
Y01839*
Y01838*
X1664Y01836*
Y01835*
X1664Y01834*
X1664Y01833*
Y01832*
Y01832*
X1664Y01831*
X1664Y01831*
Y01831*
X1664Y01831*
Y01831*
X1664Y0183*
X1664Y0183*
X1664Y01829*
X1664Y01829*
X16639Y01829*
X16639Y01828*
X16639Y01828*
X16638Y01828*
X16638Y01828*
X16637Y01828*
X16637*
X16637Y01828*
X16636Y01828*
X16635*
X16634Y01828*
X16632Y01828*
X16631Y01828*
X16631*
X16631Y01828*
X16631Y01828*
X1663Y01828*
X1663Y01828*
X1663Y01829*
X16629Y01829*
X16629Y01828*
X16629Y01828*
Y01828*
X16629Y01828*
X16629Y01828*
X16629Y01827*
X16628Y01827*
X16628Y01827*
X16628Y01827*
X16627Y01826*
X16627Y01826*
X16626*
X16626Y01826*
X16625Y01826*
X16625Y01827*
X16624Y01827*
X16624Y01827*
X16623Y01828*
X16623Y01828*
Y01828*
X16623Y01828*
X16623Y01827*
X16622Y01827*
X16622Y01827*
X16621Y01827*
X16621Y01827*
X16621Y01827*
X16621Y01827*
X1662Y01827*
X1662Y01827*
X1662Y01828*
X1662Y01828*
Y01829*
X1662Y0183*
X16621Y0183*
X16621Y0183*
X16621Y0183*
X16621Y01831*
X16621Y01831*
X16622Y01831*
X16622Y01831*
X16623*
X16623Y01831*
X16623Y01831*
X16624Y0183*
Y0183*
X16624Y0183*
X16624Y0183*
Y0183*
Y0183*
Y01829*
X16624Y01829*
X16623Y01829*
X16623Y01828*
X16623Y01828*
Y01828*
X16623Y01828*
X16623Y01828*
X16624Y01828*
X16624Y01828*
X16624Y01829*
X16624Y01829*
X16624Y01829*
X16624Y0183*
X16625Y0183*
X16625Y0183*
X16626Y0183*
X16626*
X16627Y0183*
X16628Y01829*
X16629Y01829*
X16629Y01829*
X16629Y01829*
X16629Y01829*
X16628Y0183*
X16628Y0183*
X16627Y0183*
X16627Y0183*
X16626*
X16626Y0183*
X16625Y01831*
X16625Y01831*
X16625Y01831*
X16625Y01831*
X16625Y01832*
X16624Y01833*
X16624Y01834*
X16624Y01834*
X16624Y01835*
X16624Y01835*
Y01836*
Y01836*
Y01836*
Y01837*
Y01837*
Y01837*
Y01838*
Y01839*
Y0184*
X16624Y01841*
Y01842*
X16624Y01843*
Y01845*
X16624Y01847*
X16624Y01848*
X16624Y01851*
X16624Y01853*
Y01853*
Y01853*
Y01853*
X16623Y01854*
Y01854*
X16623Y01855*
Y01856*
X16623Y01857*
X16623Y01858*
X16623Y0186*
X16623Y01861*
X16623Y01862*
X16623Y01863*
X16623Y01863*
X16623Y01864*
X16623Y01864*
Y01864*
X16623Y01865*
X16623Y01865*
X16623Y01865*
X16623Y01866*
X16623Y01866*
X16622Y01867*
X16622Y01867*
X16622Y01867*
X16622Y01867*
X16622Y01867*
X16621Y01868*
X16621Y01869*
X16621Y01869*
X16621Y0187*
X16621Y0187*
X16621Y0187*
X16621Y01871*
X16621Y01871*
X16621Y01871*
X16622Y01872*
X16622*
X16622Y01872*
X16623Y01872*
X16623Y01872*
X16624Y01872*
X16624Y01872*
X16625Y01872*
X16626Y01872*
X16627*
X16627Y01872*
X16628*
X16629Y01872*
X16629*
X1663Y01872*
X16631Y01872*
X16633Y01872*
X16634Y01873*
X16638*
X16638Y01872*
G37*
G36*
X17082Y01832D02*
X17083Y01832D01*
X17083Y01832*
X17084Y01832*
X17084Y01831*
X17084Y01831*
X17084Y01831*
Y0183*
X17084Y0183*
X17084Y01829*
X17083Y01829*
X17083Y01829*
X17083Y01829*
X17083Y01828*
X17082*
X17082Y01828*
X17081*
X17081Y01829*
X1708Y01829*
X1708Y01829*
X1708Y01829*
X1708Y01829*
X1708Y0183*
X1708Y0183*
X1708Y0183*
Y01831*
X1708Y01831*
X1708Y01831*
X1708Y01832*
X1708Y01832*
X17081Y01832*
X17081Y01832*
X17082Y01832*
X17082Y01832*
G37*
G36*
X17047D02*
X17047Y01832D01*
X17048Y01832*
X17048Y01832*
X17048Y01831*
X17048Y01831*
X17048Y01831*
Y0183*
X17048Y0183*
X17048Y01829*
X17048Y01829*
X17048Y01829*
X17047Y01829*
X17047Y01828*
X17047*
X17047Y01828*
X17046*
X17045Y01829*
X17045Y01829*
X17045Y01829*
X17044Y01829*
X17044Y01829*
X17044Y0183*
X17044Y0183*
X17044Y0183*
Y01831*
X17044Y01831*
X17045Y01831*
X17045Y01832*
X17045Y01832*
X17045Y01832*
X17046Y01832*
X17046Y01832*
X17047Y01832*
G37*
G36*
X16587Y01873D02*
X16596Y01873D01*
X166Y01867*
X166Y01867*
X166Y01867*
X166Y01867*
X166Y01866*
X166Y01866*
X16601Y01865*
X16601Y01864*
X16602Y01863*
X16602Y01862*
X16602Y01861*
X16603Y01861*
X16603Y0186*
X16603Y0186*
Y0186*
Y0186*
X16603Y0186*
X16603Y01859*
X16603Y01859*
X16603Y01858*
X16604Y01857*
X16604Y01856*
Y01856*
X16604Y01856*
X16604Y01856*
X16605Y01855*
X16605Y01855*
X16605Y01854*
X16606Y01854*
X16606Y01854*
X16606Y01853*
X16606Y01853*
X16606*
X16606Y01853*
X16607Y01853*
X16607Y01853*
X16607Y01853*
X16607Y01852*
X16608Y01852*
Y01851*
Y01851*
Y01851*
X16607Y01851*
Y0185*
X16607Y0185*
Y0185*
X16607Y0185*
Y0185*
X16607Y0185*
X16608Y0185*
X16608Y01849*
X16608Y01849*
X16608Y01849*
X16608Y01848*
X16609Y01847*
X16609Y01847*
X16609Y01846*
X16609Y01846*
X1661Y01849*
X16612Y01846*
X16612Y01846*
X16612Y01846*
X16613Y01845*
X16613Y01845*
X16613Y01844*
X16613Y01844*
X16613Y01843*
X16613Y01842*
Y01842*
X16614Y01842*
X16614Y01842*
X16614Y01841*
X16614Y01841*
X16614Y0184*
X16614Y0184*
Y0184*
X16614Y0184*
X16614Y01839*
X16614Y01839*
Y01839*
Y01838*
X16614Y01838*
X16614Y01838*
Y01838*
X16614Y01837*
X16614Y01837*
X16614Y01837*
X16613Y01837*
X16613Y01837*
X16613Y01837*
X16612Y01837*
X16612Y01837*
X16612Y01837*
Y01837*
X16612Y01836*
X16612Y01836*
X16612Y01836*
X16613Y01836*
X16613Y01835*
X16613Y01835*
Y01835*
X16613Y01834*
Y01834*
Y01834*
Y01833*
X16613Y01833*
X16613Y01832*
X16613Y01832*
Y01832*
X16612Y01831*
X16612Y01831*
X16612Y01831*
X16612Y0183*
X16611Y01829*
X16611Y01829*
X16611*
X16611Y01829*
X16611Y01829*
X1661Y01828*
X1661Y01828*
X16609Y01828*
X16609Y01828*
X16608Y01828*
X16608*
X16608Y01828*
X16607*
X16606Y01828*
X16605Y01828*
X16605Y01828*
X16605*
X16604Y01828*
X16604Y01828*
X16604Y01828*
X16604Y01828*
X16603Y01829*
X16603Y01829*
X16602Y01829*
X16602Y01829*
X16602Y01829*
X16602Y0183*
X16602Y0183*
X16601Y01831*
X16601Y01831*
X16601Y01832*
X166Y01832*
X166Y01832*
X166Y01832*
X166Y01833*
X166Y01833*
X166Y01833*
X166Y01834*
X16599Y01834*
X16599Y01835*
X16599Y01835*
X16598Y01836*
X16598Y01837*
X16598Y01837*
X16598Y01837*
X16598Y01837*
X16597Y01837*
X16597Y01838*
X16597Y01838*
X16597Y01839*
X16596Y0184*
X16595Y01841*
X16595Y01842*
X16594Y01844*
X16593Y01846*
Y01846*
X16593Y01846*
X16592Y01846*
X16592Y01846*
X16592Y01847*
X16591Y01848*
X16591Y01849*
X1659Y0185*
X1659Y0185*
X1659Y0185*
X1659Y0185*
X1659Y0185*
X16585Y01858*
Y01858*
X16585Y01859*
X16585Y01859*
X16585Y01859*
X16585Y01859*
X16585Y0186*
X16584Y01861*
X16583Y01862*
X16583Y01863*
X16582Y01864*
X16581Y01865*
Y01865*
X16581Y01865*
X16581Y01865*
X1658Y01866*
X1658Y01866*
X1658Y01867*
X16579Y01868*
X16578Y01868*
X16578Y01869*
X16577Y0187*
X16577Y0187*
X16577Y0187*
X16577Y0187*
X16577Y01871*
X16577Y01871*
X16577Y01871*
Y01872*
X16577Y01872*
X16577Y01872*
X16577Y01872*
X16577Y01872*
X16577Y01873*
X16578Y01873*
X16578Y01873*
X16579Y01873*
X16579Y01873*
X1658Y01873*
X16581Y01873*
X16582Y01873*
X16583Y01873*
X16586*
X16587Y01873*
G37*
G36*
X17073Y01872D02*
X17074D01*
X17075Y01872*
X17076Y01872*
X17077Y01872*
X17079Y01872*
X1708Y01872*
X17081Y01872*
X17081Y01871*
X17082Y01871*
X17083Y01871*
X17083Y01871*
X17083Y01871*
X17083Y01871*
Y0187*
X17083Y0187*
X17083Y01869*
X17083Y01869*
X17082Y01869*
X17082Y01868*
X17082Y01868*
X17081Y01868*
X17081Y01867*
X1708Y01867*
X1708Y01866*
X1708Y01853*
Y01852*
Y01852*
Y01852*
Y01852*
Y01852*
X17079Y01851*
Y0185*
X17079Y01849*
Y01848*
X17079Y01846*
X17079Y01844*
X17079Y01841*
X17079Y0184*
X17079Y01839*
X17079Y01838*
X17079Y01837*
Y01837*
Y01837*
X17079Y01836*
Y01836*
X17079Y01836*
X17079Y01835*
X17079Y01834*
X17078Y01833*
X17078Y01832*
X17078Y01831*
X17078Y0183*
X17077Y0183*
X17077Y0183*
X17077Y01829*
X17077Y01829*
X17077Y01829*
X17076Y01828*
X17076Y01828*
X17076Y01828*
X17076*
X17076Y01828*
X17075Y01828*
X17075Y01828*
X17073*
X17072Y01828*
X17072*
X17072Y01828*
X17072Y01828*
X17071Y01828*
X1707Y01828*
X1707Y01828*
X17069Y01828*
X17069Y01829*
X17069Y01829*
X17068Y01829*
X17068Y0183*
X17067Y0183*
X17067Y0183*
X17066Y0183*
X17066*
X17065Y0183*
X17065Y0183*
X17066Y0183*
X17066Y01829*
X17067Y01829*
X17067Y01829*
X17067Y01829*
X17069Y01829*
X17069Y01828*
X17069Y01828*
Y01828*
X17069Y01828*
X17069Y01828*
X17068Y01827*
X17068Y01827*
X17068Y01827*
X17067Y01826*
X17067Y01826*
X17066*
X17066Y01826*
X17065Y01826*
X17065Y01827*
X17064Y01827*
X17064Y01827*
X17064Y01828*
X17064Y01828*
X17063Y01828*
Y01828*
X17064Y01828*
X17064Y01829*
X17064Y01829*
X17064Y01829*
X17065Y0183*
X17065Y0183*
X17065Y0183*
X17065Y0183*
X17065Y0183*
X17065Y01831*
Y01831*
X17064Y01831*
X17064Y01831*
X17064Y01832*
X17064Y01833*
X17064Y01833*
X17064Y01834*
X17064Y01835*
X17064Y01835*
X17064Y01836*
X17064Y01837*
X17064Y01837*
X17064Y01838*
X17064Y01839*
X17064Y0184*
X17064Y01841*
X17063Y01843*
X17063Y01844*
X17063Y01845*
X17063Y01846*
X17063Y01848*
X17063Y0185*
Y0185*
Y0185*
Y0185*
Y0185*
Y01851*
X17063Y01851*
Y01852*
X17063Y01853*
Y01854*
X17063Y01855*
X17063Y01856*
Y01856*
Y01856*
Y01856*
Y01856*
X17063Y01857*
Y01857*
X17063Y01858*
X17063Y01859*
X17063Y01861*
X17063Y01862*
X17063Y01863*
X17063Y01863*
X17062Y01864*
X17062Y01864*
Y01864*
X17062Y01865*
X17062Y01865*
X17062Y01865*
X17062Y01866*
X17062Y01867*
X17061Y01867*
X17061Y01867*
X17061Y01867*
X17061Y01868*
X1706Y01868*
X1706Y01869*
X1706Y0187*
X1706Y0187*
X1706Y01871*
X1706Y01871*
X17061Y01871*
X17061Y01871*
X17061Y01871*
X17061Y01871*
X17061Y01871*
X17062Y01871*
X17062Y01872*
X17063Y01872*
X17064Y01872*
X17065Y01872*
X17066Y01872*
X17067Y01872*
X17068Y01872*
X17072*
X17073Y01872*
G37*
G36*
X17038D02*
X17038D01*
X17039Y01872*
X1704Y01872*
X17041Y01872*
X17043Y01872*
X17044Y01872*
X17045Y01872*
X17046Y01871*
X17047Y01871*
X17047Y01871*
X17047Y01871*
X17048Y01871*
X17048Y01871*
Y0187*
X17047Y0187*
X17047Y01869*
X17047Y01869*
X17047Y01869*
X17047Y01868*
X17046Y01868*
X17046Y01868*
X17045Y01867*
X17044Y01867*
X17044Y01866*
X17044Y01853*
Y01852*
Y01852*
Y01852*
Y01852*
Y01852*
X17044Y01851*
Y0185*
X17044Y01849*
Y01848*
X17044Y01846*
X17044Y01844*
X17044Y01841*
X17044Y0184*
X17044Y01839*
X17043Y01838*
X17043Y01837*
Y01837*
Y01837*
X17043Y01836*
Y01836*
X17043Y01836*
X17043Y01835*
X17043Y01834*
X17043Y01833*
X17043Y01832*
X17042Y01831*
X17042Y0183*
X17042Y0183*
X17042Y0183*
X17042Y01829*
X17041Y01829*
X17041Y01829*
X17041Y01828*
X17041Y01828*
X1704Y01828*
X1704*
X1704Y01828*
X1704Y01828*
X17039Y01828*
X17038*
X17037Y01828*
X17037*
X17036Y01828*
X17036Y01828*
X17036Y01828*
X17035Y01828*
X17034Y01828*
X17033Y01828*
X17033Y01829*
X17033Y01829*
X17033Y01829*
X17032Y0183*
X17032Y0183*
X17031Y0183*
X17031Y0183*
X1703*
X1703Y0183*
X1703Y0183*
X1703Y0183*
X17031Y01829*
X17031Y01829*
X17031Y01829*
X17031Y01829*
X17033Y01829*
Y01828*
X17033Y01828*
Y01828*
X17033Y01828*
X17033Y01828*
X17033Y01827*
X17033Y01827*
X17032Y01827*
X17031Y01826*
X17031Y01826*
X1703*
X1703Y01826*
X1703Y01826*
X17029Y01827*
X17029Y01827*
X17028Y01827*
X17028Y01828*
X17028Y01828*
X17028Y01828*
Y01828*
X17028Y01828*
X17028Y01829*
X17028Y01829*
X17029Y01829*
X17029Y0183*
X1703Y0183*
X1703Y0183*
X17029Y0183*
X17029Y0183*
X17029Y01831*
Y01831*
X17029Y01831*
X17029Y01831*
X17029Y01832*
X17029Y01833*
X17029Y01833*
X17029Y01834*
X17028Y01835*
X17028Y01835*
X17028Y01836*
X17028Y01837*
X17028Y01837*
X17028Y01838*
X17028Y01839*
X17028Y0184*
X17028Y01841*
X17028Y01843*
X17028Y01844*
X17028Y01845*
X17028Y01846*
X17028Y01848*
X17028Y0185*
Y0185*
Y0185*
Y0185*
Y0185*
Y01851*
X17028Y01851*
Y01852*
X17028Y01853*
Y01854*
X17027Y01855*
X17027Y01856*
Y01856*
Y01856*
Y01856*
Y01856*
X17027Y01857*
Y01857*
X17027Y01858*
X17027Y01859*
X17027Y01861*
X17027Y01862*
X17027Y01863*
X17027Y01863*
X17027Y01864*
X17027Y01864*
Y01864*
X17027Y01865*
X17027Y01865*
X17027Y01865*
X17026Y01866*
X17026Y01867*
X17026Y01867*
X17026Y01867*
X17025Y01867*
X17025Y01868*
X17025Y01868*
X17025Y01869*
X17025Y0187*
X17025Y0187*
X17025Y01871*
X17025Y01871*
X17025Y01871*
X17025Y01871*
X17025Y01871*
X17025Y01871*
X17026Y01871*
X17026Y01871*
X17027Y01872*
X17027Y01872*
X17028Y01872*
X17029Y01872*
X1703Y01872*
X17031Y01872*
X17033Y01872*
X17037*
X17038Y01872*
G37*
G36*
X16583Y01851D02*
X16584Y01851D01*
X16584Y01851*
X16584Y0185*
X16584Y0185*
X16585Y0185*
X16585Y01849*
X16585Y01849*
X16585Y01848*
X16585Y01848*
X16585Y01847*
Y01847*
X16586Y01847*
Y01847*
X16586Y01847*
X16586Y01846*
X16586Y01846*
X16586Y01845*
X16586Y01845*
X16586Y01843*
X16586Y01842*
X16586Y01841*
X16586Y01839*
Y01839*
Y01839*
Y01838*
X16586Y01838*
X16586Y01837*
X16586Y01837*
X16587Y01836*
Y01836*
X16587Y01836*
X16587Y01836*
X16587Y01836*
X16587Y01835*
X16588Y01835*
X16588Y01834*
X16588Y01834*
X16589Y01834*
X16589Y01834*
X16589Y01833*
X16589Y01833*
X16589Y01833*
X1659Y01832*
X1659Y01831*
X16591Y01831*
X16591Y0183*
X16591Y0183*
X16591Y01829*
X16591Y01829*
X16591Y01829*
X16591Y01829*
X16591Y01828*
X1659Y01828*
X1659Y01828*
X1659Y01828*
X1659Y01828*
X16589Y01828*
X16589Y01828*
X16588Y01827*
X16587Y01827*
X16587Y01827*
X16586Y01827*
X16585Y01827*
X16583*
X16582Y01827*
X16582Y01827*
X16581Y01827*
X1658Y01827*
X16579Y01828*
X16578Y01828*
X16578Y01828*
X16577Y01828*
X16577Y01829*
X16577Y01829*
X16577Y01829*
X16577Y01829*
Y0183*
X16577Y01831*
X16577Y01831*
X16577Y01831*
X16578Y01832*
X16578Y01833*
X16578Y01833*
X16579Y01834*
X16579Y01834*
X16579Y01834*
X16579Y01834*
X16579Y01834*
X1658Y01835*
X1658Y01835*
X1658Y01836*
X1658Y01836*
Y01836*
X1658Y01836*
X1658Y01837*
X1658Y01837*
X16581Y01837*
Y01838*
X16581Y01838*
X16581Y01839*
X16581Y01839*
X16581Y0184*
Y01841*
X16581Y01842*
X16581Y01843*
Y01843*
Y01843*
X16581Y01843*
Y01844*
X16581Y01845*
X16581Y01845*
X16581Y01847*
X16582Y01848*
X16582Y01849*
X16582Y0185*
X16582Y0185*
X16582Y01851*
X16583Y01851*
X16583Y01851*
X16583*
X16583Y01851*
G37*
G36*
X17103Y01872D02*
X17104D01*
X17105Y01872*
X17106Y01872*
X17107*
X17107Y01872*
X17107*
X17108Y01872*
X17108*
X17109Y01872*
X17111Y01872*
X17112Y01872*
X17112Y01872*
X17113Y01872*
X17113Y01872*
X17113Y01871*
X17113Y01871*
X17114Y01871*
X17114Y01871*
X17114Y0187*
X17114Y0187*
X17114Y0187*
X17114Y01869*
X17114Y01869*
X17114Y01868*
X17114Y01867*
Y01867*
X17114Y01866*
Y01865*
X17114Y01864*
Y01863*
Y01862*
Y0186*
X17114Y01859*
Y01857*
X17114Y01855*
X17114Y01854*
X17114Y01852*
X17114Y0185*
X17114Y01847*
X17114Y01845*
X17113Y01842*
Y01842*
Y01842*
Y01842*
X17113Y01841*
X17113Y01841*
X17113Y0184*
Y0184*
X17114Y0184*
X17114Y01839*
X17114Y01839*
X17114Y01839*
X17114Y01838*
X17114Y01838*
X17114Y01838*
X17114Y01838*
Y01837*
Y01837*
Y01837*
X17114Y01837*
X17114Y01836*
X17114Y01836*
X17113Y01836*
X17113Y01836*
X17113Y01835*
X17113Y01835*
X17113Y01835*
X17113Y01835*
X17112Y01835*
X17112Y01834*
X17112Y01833*
X17112Y01833*
Y01833*
Y01832*
Y01832*
X17112Y01832*
X17112Y01832*
X17112Y01832*
X17113*
X17113Y01832*
X17114Y01832*
X17114Y01831*
X17115Y01831*
X17115Y01831*
Y0183*
Y0183*
X17115Y0183*
X17115Y0183*
X17114Y01829*
X17114Y01829*
X17114Y01829*
X17113Y01829*
X17113Y01828*
X17112*
X17112Y01828*
X17112Y01828*
X17111Y01828*
X17111Y01828*
X1711Y01828*
X17109Y01828*
X17108*
X17108Y01828*
X17108Y01828*
X17107Y01828*
X17107Y01828*
X17106Y01827*
X17106Y01827*
X17106*
X17106Y01827*
X17105Y01827*
X17105Y01827*
X17104Y01827*
X17104*
X17104Y01827*
X17103*
X17102Y01827*
X17101Y01827*
X171Y01827*
X171*
X171Y01827*
X171Y01827*
X171Y01827*
X17099Y01828*
X17098Y01828*
X17098Y01828*
X17097Y01829*
X17097Y01829*
X17097Y01829*
X17097Y0183*
X17097Y0183*
X17097Y01831*
X17098Y01832*
X17098Y01832*
Y01832*
X17098Y01832*
X17098Y01832*
X17098Y01833*
X17098Y01833*
X17098Y01834*
X17098Y01835*
X17098Y01836*
Y01836*
X17098Y01837*
X17098Y01838*
Y01838*
X17099Y01839*
Y0184*
X17099Y01841*
X17099Y01842*
Y01843*
X17099Y01845*
Y01846*
X17099Y01847*
Y01849*
X17099Y01865*
X17097Y01866*
Y01866*
X17097Y01866*
X17097Y01867*
X17097Y01867*
X17096Y01868*
X17096Y01868*
X17096Y01869*
X17096Y0187*
Y0187*
Y0187*
Y0187*
X17096Y0187*
X17096Y01871*
X17096Y01871*
X17097Y01871*
X17097Y01872*
X17097Y01872*
X17098Y01872*
X17098Y01872*
X17099Y01872*
X17099*
X17099Y01872*
X17099*
X171Y01872*
X171*
X17101Y01872*
X17103*
X17103Y01872*
G37*
G36*
X16715D02*
X16716D01*
X16717Y01872*
X16718Y01872*
X16718*
X16718Y01872*
X16719*
X16719Y01872*
X1672*
X16721Y01872*
X16722Y01872*
X16723Y01872*
X16724Y01872*
X16724Y01872*
X16725Y01872*
X16725Y01871*
X16725Y01871*
X16725Y01871*
X16725Y01871*
X16725Y0187*
X16725Y0187*
X16725Y0187*
X16725Y01869*
X16725Y01869*
X16725Y01868*
X16726Y01867*
Y01867*
X16726Y01866*
Y01865*
X16726Y01864*
Y01863*
Y01862*
Y0186*
X16726Y01859*
Y01857*
X16726Y01855*
X16725Y01854*
X16725Y01852*
X16725Y0185*
X16725Y01847*
X16725Y01845*
X16725Y01842*
Y01842*
Y01842*
Y01842*
X16725Y01841*
X16725Y01841*
X16725Y0184*
Y0184*
X16725Y0184*
X16725Y01839*
X16725Y01839*
X16725Y01839*
X16725Y01838*
X16725Y01838*
X16725Y01838*
X16726Y01838*
Y01837*
Y01837*
Y01837*
X16725Y01837*
X16725Y01836*
X16725Y01836*
X16725Y01836*
X16724Y01836*
X16724Y01835*
X16724Y01835*
X16724Y01835*
X16724Y01835*
X16724Y01835*
X16724Y01834*
X16724Y01833*
X16724Y01833*
Y01833*
Y01832*
Y01832*
X16724Y01832*
X16724Y01832*
X16724Y01832*
X16724*
X16725Y01832*
X16725Y01832*
X16726Y01831*
X16726Y01831*
X16726Y01831*
Y0183*
Y0183*
X16726Y0183*
X16726Y0183*
X16726Y01829*
X16726Y01829*
X16725Y01829*
X16725Y01829*
X16724Y01828*
X16724*
X16724Y01828*
X16723Y01828*
X16723Y01828*
X16722Y01828*
X16721Y01828*
X1672Y01828*
X1672*
X1672Y01828*
X16719Y01828*
X16719Y01828*
X16718Y01828*
X16718Y01827*
X16717Y01827*
X16717*
X16717Y01827*
X16717Y01827*
X16716Y01827*
X16716Y01827*
X16716*
X16715Y01827*
X16714*
X16713Y01827*
X16713Y01827*
X16712Y01827*
X16712*
X16712Y01827*
X16711Y01827*
X16711Y01827*
X1671Y01828*
X1671Y01828*
X16709Y01828*
X16709Y01829*
X16709Y01829*
X16709Y01829*
X16709Y0183*
X16709Y0183*
X16709Y01831*
X16709Y01832*
X16709Y01832*
Y01832*
X16709Y01832*
X1671Y01832*
X1671Y01833*
X1671Y01833*
X1671Y01834*
X1671Y01835*
X1671Y01836*
Y01836*
X1671Y01837*
X1671Y01838*
Y01838*
X1671Y01839*
Y0184*
X1671Y01841*
X1671Y01842*
Y01843*
X1671Y01845*
Y01846*
X1671Y01847*
Y01849*
X1671Y01865*
X16709Y01866*
Y01866*
X16709Y01866*
X16709Y01867*
X16708Y01867*
X16708Y01868*
X16708Y01868*
X16707Y01869*
X16707Y0187*
Y0187*
Y0187*
Y0187*
X16707Y0187*
X16707Y01871*
X16708Y01871*
X16708Y01871*
X16709Y01872*
X16709Y01872*
X16709Y01872*
X1671Y01872*
X1671Y01872*
X1671*
X16711Y01872*
X16711*
X16711Y01872*
X16712*
X16712Y01872*
X16714*
X16715Y01872*
G37*
G36*
X17092Y01843D02*
X17093Y01843D01*
X17093Y01842*
X17094Y01842*
X17094Y01842*
X17094Y01842*
X17094Y01842*
X17094Y01841*
X17094Y01841*
X17094Y01841*
X17094Y0184*
X17095Y0184*
X17095Y01839*
X17095Y01839*
X17095Y01838*
X17095Y01837*
Y01836*
Y01835*
Y01835*
Y01835*
Y01834*
X17095Y01834*
Y01833*
X17095Y01833*
X17095Y01832*
X17094Y0183*
X17094Y01829*
X17094Y01829*
X17094Y01828*
X17094Y01828*
X17094Y01828*
X17093Y01827*
X17093Y01827*
X17093Y01827*
X17092Y01827*
X17092Y01827*
X17091Y01827*
X1709Y01827*
X17088*
X17088Y01827*
X17088*
X17087Y01827*
X17086Y01827*
X17085Y01827*
X17085Y01827*
X17085Y01827*
X17085Y01827*
X17085Y01828*
X17085Y01828*
X17084Y01828*
X17084Y01828*
X17084Y01829*
Y01829*
Y01829*
X17084Y0183*
X17084Y0183*
X17085Y0183*
X17085Y01831*
X17085Y01831*
X17085Y01832*
X17086Y01833*
X17086Y01833*
X17086Y01833*
X17086Y01833*
X17087Y01834*
X17087Y01834*
X17087Y01835*
X17087Y01835*
X17087Y01836*
Y01836*
Y01836*
X17087Y01836*
X17088Y01837*
X17088Y01837*
X17088Y01838*
X17088Y01838*
X17088Y01839*
X17088Y01839*
X17088Y01839*
X17089Y0184*
X17089Y0184*
X17089Y0184*
X17089Y01841*
X17089Y01841*
X17089Y01841*
Y01842*
X17089Y01842*
X1709Y01842*
X1709Y01842*
X1709Y01843*
X17091Y01843*
X17091Y01843*
X17092*
X17092Y01843*
G37*
G36*
X17057D02*
X17057Y01843D01*
X17058Y01842*
X17058Y01842*
X17058Y01842*
X17059Y01842*
X17059Y01842*
X17059Y01841*
X17059Y01841*
X17059Y01841*
X17059Y0184*
X17059Y0184*
X17059Y01839*
X17059Y01839*
X17059Y01838*
X17059Y01837*
Y01836*
Y01835*
Y01835*
Y01835*
Y01834*
X17059Y01834*
Y01833*
X17059Y01833*
X17059Y01832*
X17059Y0183*
X17059Y01829*
X17059Y01829*
X17058Y01828*
X17058Y01828*
X17058Y01828*
X17058Y01827*
X17058Y01827*
X17057Y01827*
X17057Y01827*
X17056Y01827*
X17055Y01827*
X17054Y01827*
X17053*
X17052Y01827*
X17052*
X17051Y01827*
X1705Y01827*
X1705Y01827*
X17049Y01827*
X17049Y01827*
X17049Y01827*
X17049Y01828*
X17049Y01828*
X17049Y01828*
X17049Y01828*
X17049Y01829*
Y01829*
Y01829*
X17049Y0183*
X17049Y0183*
X17049Y0183*
X17049Y01831*
X1705Y01831*
X1705Y01832*
X1705Y01833*
X1705Y01833*
X17051Y01833*
X17051Y01833*
X17051Y01834*
X17051Y01834*
X17052Y01835*
X17052Y01835*
X17052Y01836*
Y01836*
Y01836*
X17052Y01836*
X17052Y01837*
X17052Y01837*
X17052Y01838*
X17052Y01838*
X17053Y01839*
X17053Y01839*
X17053Y01839*
X17053Y0184*
X17053Y0184*
X17053Y0184*
X17054Y01841*
X17054Y01841*
X17054Y01841*
Y01842*
X17054Y01842*
X17054Y01842*
X17054Y01842*
X17055Y01843*
X17055Y01843*
X17056Y01843*
X17056*
X17057Y01843*
G37*
G36*
X16877Y01869D02*
Y01869D01*
X16877Y01869*
X16877Y01868*
X16877Y01868*
X16878Y01867*
X16878Y01867*
X16878Y01866*
X16879Y01866*
X16879Y01865*
Y01865*
X16879Y01865*
X16879Y01865*
X16879Y01865*
X16879Y01864*
X16879Y01864*
X16879Y01864*
X1688Y01863*
X1688Y01862*
X1688Y01862*
X1688Y01861*
X16881Y0186*
X16881Y01859*
X16882Y01858*
X16882Y01858*
X16882Y01858*
X16882Y01857*
X16882Y01857*
X16883Y01856*
X16883Y01856*
X16883Y01854*
X16884Y01853*
X16884Y01852*
X16885Y01852*
X16885Y01851*
X16885Y01851*
X16885Y01851*
X16885Y01851*
X16885Y0185*
X16886Y0185*
X16886Y0185*
X16886Y01849*
X16886Y01849*
X16887Y01848*
X16887Y01847*
X16887Y01846*
X16887Y01846*
X16887Y01846*
X16887Y01845*
X16887Y01845*
Y01845*
X16887Y01846*
X16888Y01846*
X16888Y01847*
X16888Y01847*
X16888Y01847*
X16888*
X16889Y01847*
X16889Y01847*
X16889Y01847*
X1689Y01846*
X1689Y01846*
X1689Y01846*
X1689Y01845*
X16891Y01845*
X16891Y01844*
Y01844*
X16891Y01844*
X16891Y01844*
X16891Y01844*
X16891Y01843*
X16892Y01843*
X16892Y01842*
X16892Y01841*
Y01839*
X16892Y01838*
Y01838*
Y01838*
X16892Y01837*
Y01837*
X16891Y01837*
X16891Y01836*
X16891Y01835*
X16891Y01834*
Y01834*
Y01834*
Y01834*
Y01834*
X16891Y01834*
X16891Y01833*
X16892Y01833*
X16892Y01833*
X16892Y01832*
X16892Y01832*
Y01831*
X16892Y0183*
Y0183*
X16892Y0183*
X16891Y01829*
X16891Y01829*
X16891Y01828*
X16891Y01828*
X1689Y01827*
X1689Y01827*
X1689*
X1689Y01827*
X1689Y01827*
X16889Y01827*
X16889Y01827*
X16888Y01827*
X16887Y01827*
X16886Y01827*
X16882Y01826*
X16878Y01832*
X16878Y01832*
X16878Y01833*
X16878Y01833*
X16878Y01833*
X16878Y01834*
X16877Y01834*
X16877Y01834*
X16877Y01835*
X16877Y01836*
X16876Y01836*
X16876Y01837*
X16875Y01838*
X16875Y01839*
X16874Y01839*
X16874Y0184*
X16874Y0184*
X16874Y0184*
X16874Y0184*
X16874Y01841*
X16873Y01841*
X16873Y01842*
X16872Y01843*
X16871Y01845*
X16871Y01845*
X16871Y01846*
X16871Y01846*
X1687Y01846*
Y01846*
X1687Y01846*
X1687Y01847*
X1687Y01847*
X1687Y01847*
X16869Y01848*
X16869Y01848*
X16869Y01849*
X16868Y0185*
X16867Y01851*
X16867Y01853*
X16866Y01854*
Y01854*
X16866Y01854*
X16865Y01854*
X16865Y01855*
X16865Y01855*
X16865Y01855*
X16864Y01856*
X16864Y01857*
X16863Y01858*
X16863Y01859*
X16862Y0186*
Y0186*
X16862Y0186*
X16862Y01861*
X16862Y01861*
X16861Y01862*
X16861Y01863*
X1686Y01864*
X16859Y01864*
X16858Y01865*
X16858Y01865*
X16858Y01866*
X16858Y01866*
X16858Y01866*
X16858Y01867*
X16857Y01867*
X16857Y01868*
X16857Y01868*
X16856Y01869*
X16856Y01869*
X16856Y0187*
X16856Y0187*
X16857Y01871*
X16857Y01871*
X16857Y01871*
X16857Y01871*
X16857*
X16858Y01871*
X16858Y01872*
X16858Y01872*
X16858Y01872*
X16859Y01872*
X16859Y01872*
X1686Y01872*
X16861Y01872*
X16862Y01872*
X16862Y01872*
X16863Y01872*
X16874*
X16877Y01869*
G37*
G36*
X16864Y0185D02*
X16864Y0185D01*
X16864Y0185*
X16864Y0185*
Y0185*
X16864Y01849*
Y01849*
Y01849*
X16864Y01848*
Y01847*
Y01847*
X16864Y01846*
Y01846*
Y01846*
Y01846*
Y01846*
Y01845*
Y01845*
X16864Y01844*
X16864Y01843*
X16865Y01842*
X16865Y0184*
X16865Y01839*
X16865Y01838*
X16865Y01837*
X16866Y01836*
X16866Y01834*
X16867Y01833*
X16867Y01832*
X16868Y01831*
X16868Y01831*
X16868Y01831*
X16868Y01831*
X16869Y0183*
X16869Y0183*
X16869Y01829*
X16869Y01828*
X16869Y01828*
X16869Y01828*
X16869Y01828*
X16869Y01827*
X16869Y01827*
X16869Y01827*
X16868Y01827*
X16868Y01827*
X16868Y01827*
X16867Y01827*
X16867Y01827*
X16866Y01827*
X16865Y01827*
X16864Y01826*
X16863Y01826*
X16862Y01826*
X16861*
X1686Y01826*
X16859Y01826*
X16858Y01827*
X16857Y01827*
X16857Y01827*
X16856Y01827*
X16856Y01827*
X16856Y01827*
X16855Y01828*
Y01828*
X16855Y01828*
Y01828*
X16855Y01829*
X16856Y01829*
X16856Y0183*
X16856Y01831*
X16857Y01831*
X16857Y01832*
X16857Y01832*
X16857Y01832*
X16858Y01832*
X16858Y01833*
X16858Y01833*
X16859Y01834*
X16859Y01834*
X16859Y01835*
X16859Y01835*
X16859Y01835*
Y01835*
Y01835*
Y01835*
Y01835*
Y01836*
Y01836*
Y01836*
Y01837*
Y01837*
Y01838*
Y01839*
Y0184*
Y01841*
Y01842*
Y01842*
Y01842*
Y01842*
Y01843*
X1686Y01843*
Y01844*
X1686Y01845*
X1686Y01847*
X1686Y01848*
X1686Y01848*
X1686Y01849*
X16861Y01849*
X16861Y0185*
X16861*
X16861Y0185*
X16861Y0185*
X16862Y0185*
X16862Y0185*
X16863Y0185*
X16863*
X16864Y0185*
G37*
G36*
X17151Y01872D02*
Y01866D01*
Y01866*
Y01866*
Y01866*
Y01865*
Y01865*
Y01864*
X1715Y01863*
Y01862*
X1715Y01861*
Y0186*
X1715Y01859*
X1715Y01858*
X1715Y01857*
X1715Y01856*
X1715Y01853*
Y01853*
Y01853*
X1715Y01852*
X1715Y01852*
X1715Y01851*
X1715Y01851*
X1715Y01849*
X17149Y01848*
X17149Y01847*
X17149Y01846*
X17149Y01846*
X17149Y01845*
X17149Y01845*
X17149Y01845*
X17149Y01845*
X17149Y01845*
X17149Y01845*
X17149Y01844*
X17149Y01844*
X1715Y01844*
X1715Y01844*
X1715Y01844*
X1715Y01843*
Y01843*
X1715Y01843*
X17149Y01842*
X17149Y01841*
X17149Y01841*
X17149Y01841*
X17149Y01841*
X17149Y01841*
X17149Y0184*
X17149Y01839*
Y01839*
Y01839*
Y01838*
Y01838*
Y01838*
Y01838*
Y01837*
X17149Y01837*
X17149*
X1715Y01837*
X1715*
X1715Y01837*
X1715Y01837*
X1715Y01837*
X17151Y01837*
X17151Y01837*
Y01837*
X17151Y01836*
X17151Y01836*
Y01836*
X17151Y01836*
Y01835*
Y01835*
Y01835*
Y01835*
X17151Y01835*
Y01834*
X17151Y01834*
X17151Y01833*
X17151Y01833*
Y01833*
Y01833*
X17151Y01833*
Y01832*
X17151Y01832*
X17151Y01831*
Y01831*
Y01831*
Y01831*
Y01831*
Y0183*
X1715Y0183*
Y0183*
X1715*
Y0183*
X17151Y0183*
Y0183*
X17151Y01831*
X17151Y01831*
X17151Y01831*
X17151Y01831*
X17151Y01831*
X17152Y01831*
X17152Y01831*
X17152Y01831*
X17153Y01831*
X17153Y01831*
X17153*
X17153Y01831*
X17153Y01831*
X17154Y0183*
X17154Y0183*
X17154Y0183*
X17154Y01829*
X17154Y01829*
Y01829*
Y01828*
X17154Y01828*
X17154Y01828*
X17154Y01827*
X17153Y01827*
X17153Y01826*
X17153*
X17153Y01826*
X17153Y01826*
X17153Y01826*
X17152Y01826*
X17152*
X17152Y01826*
X17151Y01826*
X17151*
X17151Y01826*
X17151Y01826*
X1715Y01826*
X1715*
X1715Y01826*
X17149Y01827*
X17149*
X17148Y01827*
X17148*
X17147Y01827*
X17143*
X17143Y01827*
X17141*
X17141Y01827*
X17139Y01826*
X17138Y01826*
X17137Y01826*
X17136Y01826*
X17136Y01826*
X17135Y01826*
X17135*
X17135Y01826*
X17135*
X17134Y01826*
X17133Y01826*
X17133Y01826*
X17132Y01827*
X17132Y01827*
X17132Y01827*
Y01827*
X17132Y01828*
X17132Y01828*
Y01829*
X17132Y01829*
X17132Y0183*
X17132Y0183*
X17133Y01831*
X17133Y01831*
X17133Y01831*
X17133Y01831*
X17133Y01832*
X17134Y01832*
X17134Y01833*
X17134Y01834*
X17134Y01835*
Y01835*
Y01835*
Y01835*
X17134Y01835*
Y01836*
X17134Y01836*
Y01837*
X17134Y01838*
Y01838*
Y01839*
X17134Y01841*
Y01842*
X17135Y01843*
Y01845*
Y01847*
Y01848*
Y01849*
Y01849*
Y01849*
Y01849*
Y0185*
Y0185*
Y01851*
Y01852*
Y01853*
Y01854*
X17134Y01856*
Y01858*
X17134Y01859*
Y0186*
X17134Y01861*
Y01862*
X17134Y01863*
X17134Y01863*
Y01864*
Y01864*
Y01864*
X17134Y01864*
X17134Y01864*
X17134Y01865*
X17134Y01865*
X17134Y01866*
X17134Y01866*
X17133Y01867*
Y01867*
X17133Y01867*
X17133Y01867*
X17133Y01868*
X17132Y01868*
X17132Y01869*
X17132Y0187*
X17132Y0187*
X17132Y01871*
X17132Y01871*
Y01871*
X17132Y01871*
X17132Y01871*
X17132Y01872*
X17133Y01872*
X17133Y01872*
X17134Y01872*
X17134Y01872*
X17134*
X17135Y01872*
X17135*
X17135Y01872*
X17136*
X17136Y01873*
X17141*
X17151Y01872*
G37*
G36*
X16956D02*
Y01866D01*
Y01866*
Y01866*
Y01866*
Y01865*
Y01865*
Y01864*
X16956Y01863*
Y01862*
X16956Y01861*
Y0186*
X16956Y01859*
X16956Y01858*
X16956Y01857*
X16956Y01856*
X16956Y01853*
Y01853*
Y01853*
X16956Y01852*
X16956Y01852*
X16956Y01851*
X16955Y01851*
X16955Y01849*
X16955Y01848*
X16955Y01847*
X16955Y01846*
X16955Y01846*
X16955Y01845*
X16955Y01845*
X16954Y01845*
X16955Y01845*
X16955Y01845*
X16955Y01845*
X16955Y01844*
X16955Y01844*
X16955Y01844*
X16955Y01844*
X16955Y01844*
X16955Y01843*
Y01843*
X16955Y01843*
X16955Y01842*
X16955Y01841*
X16955Y01841*
X16955Y01841*
X16955Y01841*
X16954Y01841*
X16954Y0184*
X16954Y01839*
Y01839*
Y01839*
Y01838*
Y01838*
Y01838*
Y01838*
Y01837*
X16954Y01837*
X16955*
X16955Y01837*
X16956*
X16956Y01837*
X16956Y01837*
X16956Y01837*
X16956Y01837*
X16956Y01837*
Y01837*
X16956Y01836*
X16957Y01836*
Y01836*
X16957Y01836*
Y01835*
Y01835*
Y01835*
Y01835*
X16957Y01835*
Y01834*
X16957Y01834*
X16956Y01833*
X16956Y01833*
Y01833*
Y01833*
X16956Y01833*
Y01832*
X16956Y01832*
X16956Y01831*
Y01831*
Y01831*
Y01831*
Y01831*
Y0183*
X16956Y0183*
Y0183*
X16956*
Y0183*
X16956Y0183*
Y0183*
X16956Y01831*
X16957Y01831*
X16957Y01831*
X16957Y01831*
X16957Y01831*
X16957Y01831*
X16958Y01831*
X16958Y01831*
X16959Y01831*
X16959Y01831*
X16959*
X16959Y01831*
X16959Y01831*
X16959Y0183*
X16959Y0183*
X1696Y0183*
X1696Y01829*
X1696Y01829*
Y01829*
Y01828*
X1696Y01828*
X1696Y01828*
X16959Y01827*
X16959Y01827*
X16959Y01826*
X16959*
X16959Y01826*
X16959Y01826*
X16958Y01826*
X16958Y01826*
X16958*
X16957Y01826*
X16957Y01826*
X16957*
X16957Y01826*
X16956Y01826*
X16956Y01826*
X16956*
X16956Y01826*
X16955Y01827*
X16955*
X16954Y01827*
X16953*
X16953Y01827*
X16949*
X16948Y01827*
X16947*
X16946Y01827*
X16945Y01826*
X16944Y01826*
X16943Y01826*
X16942Y01826*
X16942Y01826*
X16941Y01826*
X16941*
X16941Y01826*
X1694*
X1694Y01826*
X16939Y01826*
X16938Y01826*
X16938Y01827*
X16938Y01827*
X16938Y01827*
Y01827*
X16938Y01828*
X16938Y01828*
Y01829*
X16938Y01829*
X16938Y0183*
X16938Y0183*
X16939Y01831*
X16939Y01831*
X16939Y01831*
X16939Y01831*
X16939Y01832*
X16939Y01832*
X1694Y01833*
X1694Y01834*
X1694Y01835*
Y01835*
Y01835*
Y01835*
X1694Y01835*
Y01836*
X1694Y01836*
Y01837*
X1694Y01838*
Y01838*
Y01839*
X1694Y01841*
Y01842*
X1694Y01843*
Y01845*
Y01847*
Y01848*
Y01849*
Y01849*
Y01849*
Y01849*
Y0185*
Y0185*
Y01851*
Y01852*
Y01853*
Y01854*
X1694Y01856*
Y01858*
X1694Y01859*
Y0186*
X1694Y01861*
Y01862*
X1694Y01863*
X1694Y01863*
Y01864*
Y01864*
Y01864*
X1694Y01864*
X1694Y01864*
X1694Y01865*
X1694Y01865*
X16939Y01866*
X16939Y01866*
X16939Y01867*
Y01867*
X16939Y01867*
X16939Y01867*
X16938Y01868*
X16938Y01868*
X16938Y01869*
X16938Y0187*
X16937Y0187*
X16937Y01871*
X16938Y01871*
Y01871*
X16938Y01871*
X16938Y01871*
X16938Y01872*
X16938Y01872*
X16939Y01872*
X16939Y01872*
X1694Y01872*
X1694*
X1694Y01872*
X16941*
X16941Y01872*
X16942*
X16942Y01873*
X16947*
X16956Y01872*
G37*
G36*
X16918Y01873D02*
X16919D01*
X16919Y01873*
X16921Y01872*
X16922Y01872*
X16923Y01872*
X16923Y01872*
X16924Y01872*
X16924Y01872*
X16924Y01872*
X16925Y01871*
X16925Y01871*
Y01871*
X16925Y01871*
X16925Y01871*
X16925Y01871*
X16925Y0187*
X16925Y0187*
X16925Y01869*
X16925Y01868*
X16925Y01868*
Y01867*
X16925Y01866*
Y01865*
Y01863*
Y01862*
Y01862*
Y01861*
Y01861*
Y0186*
X16925Y01859*
Y01859*
X16925Y01858*
Y01857*
X16925Y01855*
X16925Y01853*
X16925Y01852*
X16925Y01851*
X16924Y0185*
X16924Y01849*
Y01849*
X16924Y01849*
Y01848*
X16924Y01848*
X16924Y01847*
Y01846*
Y01846*
Y01846*
X16924Y01846*
Y01845*
X16924Y01845*
X16924Y01845*
X16924Y01844*
X16925Y01844*
X16925Y01844*
X16925Y01844*
X16925Y01844*
X16925Y01844*
Y01843*
X16925Y01843*
Y01843*
Y01843*
Y01843*
X16925Y01843*
X16925Y01842*
X16925Y01842*
X16924Y01842*
X16924Y01842*
X16924Y01841*
X16924Y01841*
X16924Y01841*
X16924Y01841*
X16924Y0184*
X16924Y0184*
X16923Y01839*
Y01839*
X16923Y01839*
X16923Y01839*
X16923Y01838*
X16923Y01838*
X16923Y01837*
X16923Y01837*
X16924Y01838*
X16924*
X16924Y01837*
X16925Y01837*
X16925Y01837*
X16925Y01837*
X16925Y01836*
X16925Y01836*
X16926Y01836*
X16926Y01835*
X16926Y01835*
Y01834*
Y01833*
Y01833*
X16926Y01833*
Y01833*
X16926Y01832*
X16926Y01832*
Y01832*
X16925Y01831*
Y01831*
X16926*
X16926Y01831*
X16927*
X16928Y01831*
X16928Y01831*
X16928Y01831*
X16928Y01831*
X16928Y01831*
X16928Y01831*
X16929Y0183*
X16929Y0183*
X16929Y0183*
X16929Y01829*
Y01829*
Y01828*
Y01828*
X16929Y01828*
X16929Y01828*
X16929Y01827*
X16928Y01827*
X16928Y01826*
X16928*
X16928Y01826*
X16928Y01826*
X16928Y01826*
X16927Y01826*
X16927*
X16926Y01826*
X16926Y01826*
X16926*
X16926Y01826*
X16925Y01826*
X16925Y01826*
X16924Y01827*
X16924*
X16923Y01827*
X16923*
X16922Y01827*
X1692*
X16919Y01827*
X16918*
X16917Y01827*
X16916Y01826*
X16914Y01826*
X16913Y01826*
X16912*
X16912Y01826*
X16912*
X16911Y01826*
X16911Y01826*
X1691Y01826*
X16909Y01826*
X16908*
X16907Y01826*
X16907Y01826*
X16907Y01826*
X16907Y01826*
X16906Y01827*
X16906Y01827*
X16906Y01828*
Y01828*
X16906Y01828*
Y01828*
X16906Y01829*
X16906Y01829*
X16906Y0183*
X16907Y0183*
X16907Y01831*
X16907Y01831*
X16908Y01832*
X16909Y01833*
Y01851*
Y01851*
Y01852*
Y01852*
Y01852*
Y01853*
Y01853*
Y01854*
Y01855*
Y01855*
Y01856*
X16909Y01858*
Y0186*
Y01861*
X16909Y01863*
X1691Y01865*
X1691Y01867*
Y01868*
X1691Y01868*
Y01869*
X1691Y0187*
X1691Y0187*
Y01871*
X1691Y01871*
X1691Y01871*
X1691Y01872*
X1691Y01872*
X1691Y01872*
X1691Y01872*
X1691Y01872*
X16911Y01872*
X16911Y01872*
X16911Y01872*
X16912Y01872*
X16912Y01872*
X16913Y01872*
X16914Y01873*
X16914*
X16915Y01873*
X16918*
X16918Y01873*
G37*
G36*
X16811Y0184D02*
X16811Y0184D01*
X16811Y0184*
X16811Y0184*
X16812Y0184*
X16812Y01839*
X16812Y01839*
X16813Y01838*
X16813Y01837*
Y01837*
Y01837*
Y01837*
X16813Y01836*
X16812Y01835*
X16812Y01835*
X16812Y01834*
X16812Y01833*
X16812Y01833*
X16811Y01833*
X16811Y01832*
X16811Y01832*
X1681Y01831*
X16809Y0183*
X16808Y01829*
X16807Y01828*
X16807*
X16807Y01828*
X16807Y01828*
X16806Y01828*
X16806Y01827*
X16805Y01827*
X16804Y01827*
X16803Y01826*
X16803Y01826*
X16803Y01826*
X16802Y01826*
X16802Y01826*
X16802*
X16802Y01826*
X16801Y01826*
X16801Y01827*
X16801Y01827*
X16801Y01827*
X16801Y01827*
Y01828*
Y01828*
X16801Y01828*
X16801Y01828*
X16801Y01829*
X16801Y01829*
X16802Y0183*
X16802Y0183*
X16803Y01831*
X16803Y01831*
X16803Y01831*
X16803Y01831*
X16804Y01832*
X16804Y01833*
X16805Y01833*
X16805Y01834*
X16806Y01835*
Y01835*
X16806Y01835*
X16806Y01835*
X16806Y01836*
X16807Y01837*
X16807Y01837*
X16807Y01838*
X16808Y01839*
X16808Y01839*
X16808Y01839*
X16808Y01839*
X16809Y0184*
X16809Y0184*
X16809Y0184*
X1681Y0184*
X1681Y0184*
X16811Y0184*
G37*
G36*
X16654Y01838D02*
X16655Y01837D01*
X16655Y01837*
Y01837*
Y01837*
Y01836*
Y01836*
X16655Y01836*
X16654Y01835*
Y01835*
X16654Y01835*
X16654Y01835*
Y01834*
Y01834*
X16654Y01833*
X16655Y01833*
Y01833*
X16655Y01833*
X16655Y01832*
X16655Y01832*
X16655Y01832*
X16656Y01832*
X16656*
X16656Y01832*
X16657Y01831*
X16657Y01831*
X16657Y01831*
X16658Y01831*
X16658Y0183*
Y0183*
X16658Y0183*
X16658Y0183*
Y01829*
Y01829*
X16658Y01828*
X16658Y01828*
X16657Y01827*
X16657Y01827*
X16657Y01827*
X16657Y01827*
X16657Y01827*
X16656Y01827*
X16656Y01826*
X16656Y01826*
X16655Y01826*
X16654Y01826*
X16654Y01826*
X16653Y01826*
X16652Y01826*
X16649*
X16649Y01826*
X16648Y01826*
X16647Y01826*
X16646Y01826*
X16645Y01826*
X16645Y01826*
X16645*
X16645Y01826*
X16644Y01826*
X16644Y01827*
X16644Y01827*
X16643Y01827*
X16643Y01828*
X16643Y01828*
Y01828*
Y01829*
X16643Y01829*
X16643Y01829*
X16643Y0183*
X16644Y0183*
X16644Y01831*
X16645Y01831*
X16645Y01831*
X16645Y01831*
X16645Y01832*
X16646Y01832*
X16647Y01832*
X16647Y01833*
X16648Y01834*
X16649Y01835*
X16649Y01835*
X16649Y01835*
X16649Y01835*
X1665Y01835*
X1665Y01836*
X16651Y01836*
X16652Y01837*
X16652Y01837*
X16653Y01837*
X16653Y01838*
X16654Y01838*
X16654*
X16654Y01838*
G37*
G36*
X1679Y01871D02*
X16791Y01871D01*
X16791Y01871*
X16791Y0187*
X16791Y0187*
X16791Y0187*
X16792Y0187*
X16792Y01869*
X16792Y01869*
X16792Y01868*
X16792Y01868*
X16792Y01867*
X16792Y01866*
X16793Y01865*
X16793Y01864*
Y01863*
Y01862*
Y01862*
Y01862*
Y01861*
Y0186*
X16793Y0186*
Y01859*
Y01857*
X16793Y01856*
Y01855*
X16793Y01853*
X16793Y01852*
X16793Y0185*
X16793Y01848*
X16793Y01846*
X16793Y01844*
Y01844*
Y01844*
X16793Y01843*
Y01843*
Y01842*
X16793Y01841*
Y01841*
X16793Y0184*
X16793Y01838*
Y01837*
X16793Y01836*
X16794Y01836*
X16794Y01835*
X16794Y01835*
X16794Y01834*
Y01834*
X16794Y01834*
X16794Y01833*
X16794Y01833*
X16794Y01833*
X16795Y01832*
X16795Y01831*
X16795Y01831*
X16795Y01831*
X16796Y01831*
X16796Y0183*
X16796Y0183*
X16797Y01829*
X16797Y01829*
X16797Y01828*
Y01828*
X16797Y01827*
X16797Y01827*
X16797Y01827*
X16796Y01827*
X16796Y01826*
X16796Y01826*
X16795Y01826*
X16794Y01826*
X16794Y01825*
X16793Y01825*
X16792*
X16792Y01825*
X16791Y01826*
X1679Y01826*
X16789Y01826*
X16788Y01826*
X16787Y01826*
X16787Y01826*
X16787Y01827*
X16786Y01827*
X16786Y01827*
X16785Y01828*
X16784Y01828*
X16783Y01829*
X16783Y0183*
X16783Y0183*
X16782Y0183*
X16782Y0183*
X16782Y0183*
X16782Y01831*
X16781Y01831*
X1678Y01832*
X16779Y01833*
X16779Y01834*
X16778Y01835*
Y01835*
X16778Y01836*
X16778Y01836*
X16778Y01836*
X16778Y01836*
X16778Y01837*
X16778Y01837*
X16777Y01837*
X16777Y01838*
X16777Y01839*
X16777Y01839*
X16777Y0184*
X16777Y01841*
X16776Y01841*
X16776Y01842*
X16776Y01843*
Y01843*
X16776Y01844*
Y01844*
X16776Y01844*
X16776Y01845*
Y01845*
X16776Y01846*
Y01847*
X16776Y01848*
X16776Y01848*
X16776Y0185*
X16776Y01852*
X16777Y01854*
Y01854*
X16777Y01854*
X16777Y01855*
X16777Y01855*
X16777Y01855*
X16777Y01856*
X16777Y01856*
X16777Y01857*
X16778Y01858*
X16778Y0186*
X16779Y01861*
X16779Y01862*
Y01862*
X1678Y01862*
X1678Y01862*
X1678Y01863*
X1678Y01863*
X16781Y01864*
X16782Y01865*
X16783Y01866*
X16784Y01867*
X16786Y01867*
X16786*
X16786Y01868*
X16786Y01868*
X16786Y01868*
X16787Y01868*
X16787Y01868*
X16788Y01869*
X16788Y01869*
X16789Y0187*
X16789Y0187*
X16789Y0187*
X16789Y0187*
Y0187*
X16789Y01871*
X16789Y01871*
X16789Y01871*
X16789Y01871*
X1679Y01871*
X1679Y01871*
G37*
%LNnas-craftsman_nixie_v1-2*%
%LPC*%
G36*
X16525Y01881D02*
Y01881D01*
Y01881*
X16525Y01881*
X16525Y01881*
G37*
G36*
X16521Y01873D02*
X16521D01*
X16521Y01873*
X1652Y01873*
X16519Y01873*
X16519*
X16519Y01873*
X16519Y01872*
Y01872*
X16519*
X1652Y01872*
X16521*
Y01873*
G37*
G36*
X16511Y0187D02*
X1651D01*
X16509Y0187*
X16509Y01869*
X16509Y01869*
Y01868*
X1651Y01868*
X16511Y0187*
G37*
G36*
X16431Y01832D02*
Y01832D01*
X16431Y01832*
Y01832*
X16431Y01831*
X16431Y01831*
Y0183*
Y0183*
Y0183*
Y01829*
Y01828*
X16431Y01829*
X16432Y01829*
X16432Y0183*
X16432Y0183*
X16433Y01831*
X16432*
X16432Y01831*
X16432Y01831*
X16432Y01832*
X16431Y01832*
G37*
G36*
X16519Y01765D02*
X16519Y01764D01*
X16519Y01764*
X16519Y01763*
X16519Y01763*
X16519Y01764*
X16519Y01764*
X16519Y01765*
G37*
G36*
X17008Y0187D02*
X17008Y0187D01*
Y0187*
Y01869*
Y01869*
X17008Y01869*
X17008Y01869*
X17008*
X17008Y01869*
X17008Y01869*
X17009*
X17009Y01869*
Y01869*
X17009Y01869*
X17009Y01869*
X17008Y0187*
X17008Y0187*
X17008Y0187*
G37*
G36*
X16839D02*
X16839Y0187D01*
Y0187*
Y01869*
Y01869*
X16839Y01869*
X16839Y01869*
X16839*
X16839Y01869*
X16839Y01869*
X1684*
X1684Y01869*
Y01869*
X1684Y01869*
X1684Y01869*
X16839Y0187*
X16839Y0187*
X16839Y0187*
G37*
G36*
X1712Y01831D02*
X1712Y01831D01*
X1712Y0183*
Y0183*
X17119Y0183*
X17119Y0183*
Y01829*
X1712Y0183*
X1712Y0183*
X1712Y0183*
Y0183*
Y0183*
X1712Y01831*
G37*
G36*
X16731D02*
X16731Y01831D01*
X16731Y0183*
Y0183*
X16731Y0183*
X16731Y0183*
Y01829*
X16731Y0183*
X16731Y0183*
X16731Y0183*
Y0183*
Y0183*
X16731Y01831*
G37*
%LNnas-craftsman_nixie_v1-3*%
%LPD*%
G54D13*
X17543Y00065D02*
D01*
X17546Y00065*
X17549Y00065*
X17553Y00066*
X17556Y00066*
X1756Y00068*
X17563Y00069*
X17566Y0007*
X17569Y00072*
X17572Y00074*
X17575Y00076*
X17577Y00079*
X1758Y00081*
X17582Y00084*
X17584Y00087*
X17586Y0009*
X17587Y00093*
X17589Y00096*
X1759Y00099*
X17591Y00102*
X17592Y00106*
X17592Y00109*
X17592Y00113*
X17593Y00115*
X17593Y0259D02*
D01*
X17593Y02594*
X17592Y02597*
X17592Y02601*
X17591Y02604*
X1759Y02607*
X17588Y02611*
X17587Y02614*
X17585Y02617*
X17583Y0262*
X17581Y02622*
X17579Y02625*
X17576Y02627*
X17574Y0263*
X17571Y02632*
X17568Y02634*
X17565Y02635*
X17562Y02637*
X17558Y02638*
X17555Y02639*
X17552Y02639*
X17548Y0264*
X17545Y0264*
X17543Y0264*
X16352Y0264D02*
D01*
X16349Y0264*
X16345Y0264*
X16342Y02639*
X16338Y02638*
X16335Y02637*
X16332Y02636*
X16329Y02634*
X16326Y02632*
X16323Y02631*
X1632Y02628*
X16317Y02626*
X16315Y02624*
X16313Y02621*
X16311Y02618*
X16309Y02615*
X16307Y02612*
X16306Y02609*
X16305Y02606*
X16304Y02602*
X16303Y02599*
X16302Y02595*
X16302Y02592*
X16302Y0259*
X16302Y00114D02*
D01*
X16302Y00111*
X16302Y00107*
X16303Y00104*
X16304Y00101*
X16305Y00097*
X16306Y00094*
X16308Y00091*
X16309Y00088*
X16311Y00085*
X16313Y00082*
X16316Y0008*
X16318Y00077*
X16321Y00075*
X16324Y00073*
X16327Y00071*
X1633Y00069*
X16333Y00068*
X16336Y00067*
X1634Y00066*
X16343Y00065*
X16347Y00065*
X1635Y00064*
X16352Y00064*
X17593Y00115D02*
Y02591D01*
X16352Y02641D02*
X17546D01*
X16302Y00114D02*
Y0259D01*
X16345Y00065D02*
X17543D01*
G54D27*
X16574Y02429D03*
Y02481D03*
X16602D03*
Y02429D03*
G54D28*
X17169Y00841D03*
X17279D03*
X17168Y00761D03*
X17278D03*
G54D38*
X16818Y01107D03*
X16998D03*
G54D39*
X16908Y0136D03*
G54D40*
X17045Y02085D03*
Y02274D03*
X16867Y02085D03*
Y02274D03*
X17381Y02083D03*
Y02273D03*
X17203Y02083D03*
Y02273D03*
X16706Y02083D03*
Y02273D03*
X16529Y02083D03*
Y02273D03*
G54D41*
X17106Y02444D03*
X16806D03*
X16706D03*
X17206D03*
X16906D03*
X17006D03*
G54D42*
X16679Y00462D03*
Y00387D03*
X1658D03*
Y00425D03*
Y00462D03*
G54D43*
X16758Y01011D03*
Y00961D03*
Y00911D03*
Y00861D03*
X16971D03*
Y00911D03*
Y00961D03*
Y01011D03*
G54D44*
X16521Y00448D03*
X16358D03*
G54D45*
X17164Y00682D03*
X17286D03*
G54D46*
X17168Y00552D03*
Y00603D03*
X17028Y00957D03*
Y01008D03*
G54D47*
X16955Y00693D03*
Y00768D03*
X17034D03*
G54D48*
X17034Y00701D03*
G54D49*
X16427Y00675D03*
X16648D03*
G54D50*
X16657Y01331D03*
X16417D03*
G54D51*
X16843Y00583D03*
X17059D03*
X16941D03*
X16961D03*
X16921D03*
X16902D03*
X1698D03*
X17D03*
X16843Y00515D03*
X17059D03*
X16941D03*
X16961D03*
X16921D03*
X16902D03*
X1698D03*
X17D03*
G54D52*
X17117Y01445D03*
X17275D03*
G54D53*
X17282Y0111D03*
X17115D03*
X17283Y01265D03*
X17116D03*
X17282Y0096D03*
X17115D03*
G54D54*
X16419Y0037D03*
X16364D03*
G54D55*
X16424Y01008D03*
X16625D03*
G54D56*
X16902Y00696D03*
Y00759D03*
X17089Y00696D03*
Y00759D03*
G54D57*
X16826Y00728D03*
X16856D03*
Y00691D03*
X16826D03*
X16495Y00341D03*
X16526D03*
G54D58*
X16729Y00471D03*
Y00441D03*
X16708Y0095D03*
Y00981D03*
X17032Y00863D03*
Y00893D03*
G54D59*
X16495Y00376D03*
X16526D03*
X16562Y00341D03*
X16593D03*
G54D60*
X16729Y00386D03*
Y00417D03*
X16708Y00895D03*
Y00864D03*
X1664Y02449D03*
Y0248D03*
X16532Y02451D03*
Y02482D03*
G54D61*
X16803Y00549D03*
X17098D03*
G54D62*
X16856Y00634D03*
Y00464D03*
X17045Y00634D03*
Y00464D03*
G54D63*
X16408Y00165D03*
X17496Y00165D03*
X17496Y02537D03*
X16408Y02537D03*
M02*