%FSTAX23Y23*%
%MOIN*%
%SFA1B1*%

%IPPOS*%
%ADD13C,0.010000*%
%ADD64C,0.006690*%
%ADD88C,0.011810*%
%ADD93C,0.035430*%
%ADD94C,0.023620*%
%ADD95C,0.039370*%
%LNnas-craftsman_nixie_v1-1*%
%LPD*%
G36*
X1732Y02584D02*
Y01976D01*
X17319Y01972*
Y01934*
X17314Y01933*
X17308Y01937*
X173Y01938*
X17292Y01937*
X17288Y01934*
X17284Y01937*
X17276Y01938*
X17268Y01937*
X17261Y01932*
X17257Y01925*
X17255Y01917*
X17257Y01909*
X17261Y01903*
X17268Y01898*
X17276Y01896*
X17284Y01898*
X17288Y01901*
X17292Y01898*
X173Y01896*
X17308Y01898*
X17314Y01902*
X17319Y01901*
Y0179*
X17264Y01723*
X16381*
X16317Y01775*
Y02319*
X16318Y02319*
Y02411*
X16319Y02416*
X1632Y02424*
X16324Y02432*
X16329Y0244*
X16335Y02446*
X16342Y02451*
X1635Y02454*
X16359Y02456*
X16364Y02456*
X16423*
X16437Y02459*
X1645Y02464*
X16461Y02472*
X16471Y02482*
X16479Y02494*
X16484Y02507*
X16487Y0252*
Y02527*
Y02566*
X16487Y02572*
X16489Y02584*
X16494Y02594*
X165Y02604*
X16509Y02612*
X16518Y02619*
X16529Y02623*
X1654Y02625*
X16546Y02626*
Y02626*
X17279*
X1732Y02584*
G37*
G36*
X17132Y01147D02*
X17188Y01091D01*
Y00699*
X17186Y00698*
X17183Y00698*
X1716Y00721*
X17152Y00726*
X17144Y00728*
X16995*
X16992Y00733*
X16993Y00737*
X16991Y00744*
X16988Y00749*
X16982Y00753*
X16976Y00754*
X16969Y00753*
X16964Y00749*
X16962Y00747*
X16956*
X16954Y00749*
X16949Y00753*
X16942Y00754*
X16936Y00753*
X1693Y00749*
X16927Y00744*
X16925Y00737*
X16926Y00733*
X16923Y00728*
X1688*
X16871Y00726*
X16864Y00721*
X16834Y00691*
X16682*
X16665Y00707*
Y0084*
X1667Y00843*
X16676Y00842*
X16684Y00844*
X16691Y00848*
X16695Y00855*
X16697Y00863*
X16695Y00871*
X16691Y00878*
X16692Y00884*
X16694Y00887*
X16696Y00895*
X16694Y00903*
X16693Y00904*
X16694Y00905*
X16699Y00911*
X16701Y00918*
X16702Y00925*
X16701Y00932*
X16699Y00939*
X16694Y00945*
X16689Y00949*
X16682Y00952*
X16675Y00953*
X16667Y00952*
X16661Y00949*
X16659Y00947*
X16652Y00946*
X16645Y00941*
X16628Y00924*
X16623Y00917*
X16621Y00908*
Y00698*
X16623Y0069*
X16628Y00683*
X16657Y00654*
X16664Y00649*
X16672Y00647*
X16823*
X16825Y00643*
X16825Y00641*
X16824Y00634*
X16825Y00627*
X16827Y0062*
X16829Y00618*
X16829Y00618*
X16826Y00614*
X1682Y00614*
X16813Y00613*
X16811Y00612*
X16805*
X16803Y00613*
X16796Y00614*
X16789Y00613*
X16782Y00611*
X16776Y00606*
X16772Y006*
X16772Y006*
X16772*
X16769Y00596*
X16768Y00595*
X16768Y00592*
X16767Y00589*
Y00573*
X16767Y0057*
X16768Y00567*
X16768Y00567*
X16768Y00566*
X1677Y00564*
X16771Y00562*
X16771Y00562*
X16772Y00561*
X16774Y0056*
X16776Y00558*
X16778Y00557*
X16778Y00556*
X16777Y00549*
X16778Y00542*
X16778Y00541*
X16776Y0054*
X16774Y00538*
X16772Y00537*
X16771Y00537*
X16771Y00536*
X1677Y00534*
X16768Y00532*
X16768Y00531*
X16768Y00531*
X16767Y00528*
X16767Y00526*
Y00511*
X16767Y0051*
X16767Y00509*
X16768Y00507*
X16768Y00505*
X16769Y00504*
X16769Y00503*
X1677Y00501*
X16772Y005*
X16772Y00499*
X16773Y00498*
X16786Y00488*
X16788Y00487*
X1679Y00486*
X16791Y00485*
X16792Y00485*
X16794Y00485*
X16796Y00484*
X16826*
X16828Y00479*
X16827Y00478*
X16825Y00472*
X16824Y00464*
X16825Y00457*
X16827Y00451*
X16832Y00445*
X16837Y0044*
X16844Y00438*
X16851Y00437*
X16861*
X16868Y00438*
X16875Y0044*
X16881Y00445*
X16885Y00451*
X16888Y00457*
X16889Y00464*
X16888Y00472*
X16885Y00478*
X16885Y00479*
X16887Y00484*
X16917*
X1692Y00481*
X1692Y00479*
X16921Y00472*
X16925Y00467*
X1693Y00463*
X16937Y00462*
X16943Y00463*
X16949Y00467*
X16953Y00472*
X16954Y00479*
X16954Y00481*
X16957Y00484*
X17015*
X17017Y00479*
X17016Y00478*
X17014Y00472*
X17013Y00464*
X17014Y00457*
X17016Y00451*
X17021Y00445*
X17026Y0044*
X17033Y00438*
X1704Y00437*
X1705*
X17057Y00438*
X17064Y0044*
X1707Y00445*
X17074Y00451*
X17077Y00457*
X17078Y00464*
X17077Y00472*
X17074Y00478*
X17074Y00479*
X17076Y00484*
X17079*
X17079Y00484*
X17087Y00483*
X17094Y00484*
X17094Y00484*
X17103*
X17104Y00484*
X17111Y00483*
X17118Y00484*
X17119Y00485*
X1712Y00484*
X17122Y00485*
X17124Y00486*
X17125Y00486*
X17126Y00486*
X17128Y00488*
X1713Y00489*
X1713Y0049*
X17131Y0049*
X17135Y00496*
X17136Y00498*
X17137Y005*
X17137Y005*
X17138Y00501*
X17138Y00503*
X17139Y00506*
X17139Y0051*
X17139Y00511*
X17139Y00512*
X17139Y0053*
X17139Y0053*
X17139Y00531*
X17138Y00533*
X17137Y00536*
X17137Y00536*
X17137Y00537*
X17135Y00539*
X17134Y00541*
X17133Y00541*
X17133Y00542*
X17131Y00543*
X17129Y00544*
X17128Y00545*
X17128Y00545*
X17124Y00546*
X17125Y00549*
X17124Y00552*
X17128Y00553*
X17128Y00553*
X17129Y00554*
X17131Y00555*
X17133Y00556*
X17134Y00557*
X17134Y00557*
X17135Y00559*
X17137Y00561*
X17137Y00562*
X17137Y00562*
X17138Y00565*
X17139Y00567*
X17139Y00568*
X17139Y00568*
X17139Y00588*
X17139Y00589*
X17139Y00589*
X17138Y00592*
X17138Y00595*
X17138Y00595*
X17138Y00595*
X17136Y00597*
X17136Y00598*
X17135Y006*
X1713Y00606*
X17124Y0061*
X17118Y00613*
X17111Y00614*
X17103Y00613*
X17102Y00612*
X17094*
X17093Y00613*
X17086Y00614*
X17079Y00613*
X17078Y00612*
X17075*
X17072Y00617*
X17074Y0062*
X17077Y00627*
X17078Y00634*
X17077Y00641*
X17074Y00648*
X1707Y00653*
X17064Y00658*
X17057Y00661*
X1705Y00662*
X1704*
X17033Y00661*
X17026Y00658*
X17021Y00653*
X17016Y00648*
X17014Y00641*
X17013Y00634*
X17014Y00627*
X17016Y0062*
X17018Y00617*
X17016Y00612*
X16987*
X16984Y00616*
X16984Y00618*
X16983Y00622*
X16984Y00623*
X16992Y00625*
X16999Y00629*
X17004Y00636*
X17005Y00644*
X17004Y00652*
X17004Y00653*
X17005Y00654*
X1701Y00661*
X17011Y00669*
X1701Y00677*
X17008Y00679*
X17011Y00684*
X17135*
X17146Y00673*
Y00645*
X17144Y00642*
X17141Y00636*
X1714Y00628*
X17141Y00621*
X17144Y00615*
X17148Y00609*
X17154Y00604*
X17161Y00602*
X17168Y00601*
X17175Y00602*
X17182Y00604*
X17183Y00605*
X17188Y00603*
Y00465*
X17147Y00424*
X16781Y00425*
X16748Y00394*
Y00301*
X16712Y00265*
X16345Y00267*
X16317Y00298*
Y011*
X16363Y01147*
X16645*
X17132*
G37*
G36*
X17174Y00645D02*
X17174Y00642D01*
X17174Y00641*
X17174Y0064*
X17175Y00639*
X17175Y00639*
X17175Y00638*
X17176Y00637*
X17176Y00637*
X1716*
X1716Y00637*
X17161Y00638*
X17161Y00639*
X17161Y00639*
X17161Y0064*
X17162Y00641*
X17162Y00642*
X17162Y00643*
X17162Y00646*
X17174*
X17174Y00645*
G37*
G36*
X17123Y00589D02*
X17123Y00568D01*
X17118Y00567*
X17117Y00568*
X17112Y00572*
X17105Y00574*
X17098Y00575*
X17092Y00574*
X17085Y00572*
X1708Y00568*
X17076Y00562*
X17073Y00556*
X17072Y00549*
X17073Y00542*
X17076Y00536*
X1708Y00531*
X17085Y00526*
X17092Y00524*
X17098Y00523*
X17105Y00524*
X17112Y00526*
X17117Y00531*
X17118Y00531*
X17123Y0053*
X17122Y00506*
X17118Y005*
X16796*
X16783Y00511*
Y00526*
X16788Y00528*
X1679Y00526*
X16796Y00524*
X16803Y00523*
X1681Y00524*
X16816Y00526*
X16822Y00531*
X16826Y00536*
X16828Y00542*
X16829Y00549*
X16828Y00556*
X16826Y00562*
X16822Y00568*
X16816Y00572*
X1681Y00574*
X16803Y00575*
X16796Y00574*
X1679Y00572*
X16788Y0057*
X16783Y00573*
Y00589*
X16791Y00596*
X17115*
X17123Y00589*
G37*
%LNnas-craftsman_nixie_v1-2*%
%LPC*%
G36*
X16602Y02528D02*
X16594Y02527D01*
X16587Y02522*
X16581Y02526*
X16573Y02528*
X16565Y02526*
X16558Y02522*
X16554Y02515*
X16552Y02507*
X16554Y02499*
X16558Y02492*
X16565Y02488*
X16573Y02486*
X16581Y02488*
X16588Y02492*
X16594Y02488*
X16602Y02486*
X1661Y02488*
X16617Y02492*
X16621Y02499*
X16623Y02507*
X16621Y02515*
X16617Y02522*
X1661Y02527*
X16602Y02528*
G37*
G36*
X16833Y02514D02*
X16825Y02512D01*
X16819Y02508*
X16814Y02501*
X16812Y02493*
X16814Y02485*
X16819Y02478*
X16825Y02473*
X16833Y02472*
X16841Y02473*
X16848Y02478*
X16853Y02485*
X16855Y02493*
X16853Y02501*
X16848Y02508*
X16841Y02512*
X16833Y02514*
G37*
G36*
X16707D02*
X16699Y02512D01*
X16692Y02508*
X16688Y02501*
X16686Y02493*
X16688Y02485*
X16692Y02478*
X16699Y02473*
X16707Y02472*
X16715Y02473*
X16722Y02478*
X16727Y02485*
X16728Y02493*
X16727Y02501*
X16722Y02508*
X16715Y02512*
X16707Y02514*
G37*
G36*
X1699Y02521D02*
X16982Y0252D01*
X16976Y02517*
X1697Y02513*
X16966Y02507*
X16963Y025*
X16962Y02493*
X16963Y02486*
X16966Y02479*
X1697Y02473*
X16972Y02472*
Y02467*
X16967Y02465*
X1696Y0247*
X16952Y02471*
X16944Y0247*
X16937Y02465*
X16933Y02458*
X16932Y02455*
X16927Y02454*
X16926Y02454*
Y02469*
X16931Y02473*
X16936Y02479*
X16939Y02486*
X16939Y02493*
X16939Y025*
X16936Y02507*
X16931Y02513*
X16926Y02517*
X16919Y0252*
X16912Y02521*
X16904Y0252*
X16898Y02517*
X16892Y02513*
X16888Y02507*
X16885Y025*
X16884Y02493*
X16885Y02486*
X16887Y02479*
Y02435*
X16889Y02428*
X16893Y02422*
X16917Y02398*
X16923Y02394*
X1693Y02392*
X17034*
X17052Y02375*
Y02185*
X17053Y02177*
X17057Y02171*
X17086Y02142*
X17085Y02137*
X17084Y02137*
X17079Y02133*
X17075Y02127*
X17074Y02121*
X17075Y02114*
X17079Y02109*
X17081Y02107*
X17081Y02102*
X17074Y02097*
X17069Y0209*
X17068Y02082*
X17069Y02074*
X17073Y02069*
X17069Y02064*
X17068Y02056*
X17069Y02048*
X17074Y02041*
X17081Y02036*
X17089Y02035*
X17097Y02036*
X171Y02039*
X17105Y02036*
Y01964*
X1708Y01938*
X1708Y01938*
X17073Y01935*
X17067Y01931*
X17063Y01925*
X1706Y01919*
X17059Y01911*
X1706Y01904*
X17063Y01897*
X17067Y01892*
X17073Y01887*
X1708Y01884*
X17087Y01884*
X17094Y01884*
X17101Y01887*
X17107Y01892*
X17109Y01894*
X17115*
X17117Y01892*
X17123Y01887*
X1713Y01884*
X17137Y01884*
X17144Y01884*
X17151Y01887*
X17156Y01892*
X17161Y01897*
X17164Y01904*
X17169Y01904*
X17169Y01903*
X17173Y01896*
X1718Y01892*
X17188Y0189*
X17196Y01892*
X17203Y01896*
X17208Y01903*
X17209Y01911*
X17208Y01919*
X17203Y01926*
X17196Y01931*
X17188Y01932*
X1718Y01931*
X17173Y01926*
X17169Y01919*
X17169Y01919*
X17164Y01919*
X17161Y01925*
X1716Y01927*
X17159Y01928*
X17158Y0193*
X17158Y0193*
X17158Y0193*
Y02136*
X17156Y02144*
X17152Y0215*
X17104Y02198*
Y02251*
X17109Y02254*
X17112Y02252*
X1712Y02251*
X17128Y02252*
X17135Y02257*
X17139Y02264*
X17141Y02272*
X17139Y0228*
X17135Y02287*
X17128Y02291*
X1712Y02293*
X17112Y02291*
X17109Y0229*
X17104Y02292*
Y02388*
X17103Y02395*
X17099Y02402*
X1707Y0243*
X1707Y02435*
X17071Y02435*
X17076Y02442*
X17077Y0245*
X17076Y02458*
X17071Y02465*
X17064Y0247*
X17056Y02471*
X17048Y0247*
X17041Y02465*
X17037Y02458*
X17035Y0245*
X17035Y02448*
X17032Y02445*
X17017*
X17011Y02451*
Y02476*
X17014Y02479*
X17017Y02486*
X17017Y02493*
X17017Y025*
X17014Y02507*
X17009Y02513*
X17004Y02517*
X16997Y0252*
X1699Y02521*
G37*
G36*
X1686Y02471D02*
X16852Y0247D01*
X16845Y02465*
X16841Y02458*
X16839Y0245*
X16841Y02442*
X16845Y02435*
X16852Y02431*
X1686Y02429*
X16868Y02431*
X16875Y02435*
X1688Y02442*
X16881Y0245*
X1688Y02458*
X16875Y02465*
X16868Y0247*
X1686Y02471*
G37*
G36*
X16754Y02483D02*
X16746Y02482D01*
X16739Y02477*
X16734Y0247*
X16733Y02462*
X16734Y02454*
X16739Y02447*
Y02444*
X16734Y02437*
X16733Y02429*
X16734Y02421*
X16739Y02414*
X16746Y0241*
X16754Y02408*
X16762Y0241*
X16769Y02414*
X16773Y02421*
X16775Y02429*
X16773Y02437*
X16769Y02444*
Y02447*
X16773Y02454*
X16775Y02462*
X16773Y0247*
X16769Y02477*
X16762Y02482*
X16754Y02483*
G37*
G36*
X1715Y02393D02*
X17142Y02392D01*
X17135Y02387*
X17131Y0238*
X17129Y02372*
X17131Y02364*
X17134Y0236*
X17131Y02355*
X17129Y02347*
X17131Y02339*
X17133Y02335*
X17131Y02332*
X17129Y02324*
X17131Y02316*
X17135Y02309*
X17142Y02304*
X1715Y02303*
X17158Y02304*
X17165Y02309*
X1717Y02316*
X17171Y02324*
X1717Y02332*
X17167Y02335*
X1717Y02339*
X17171Y02347*
X1717Y02355*
X17167Y0236*
X1717Y02364*
X17171Y02372*
X1717Y0238*
X17165Y02387*
X17158Y02392*
X1715Y02393*
G37*
G36*
X16632Y02288D02*
X16624Y02286D01*
X16618Y02281*
X16613Y02274*
X16611Y02266*
X16613Y02258*
X16618Y02252*
X16624Y02247*
X16632Y02245*
X16641Y02247*
X16647Y02252*
X16652Y02258*
X16654Y02266*
X16652Y02274*
X16647Y02281*
X16641Y02286*
X16632Y02288*
G37*
G36*
X16481D02*
X16473Y02286D01*
X16466Y02281*
X16462Y02274*
X1646Y02266*
X16462Y02258*
X16466Y02252*
X16473Y02247*
X16481Y02245*
X16489Y02247*
X16496Y02252*
X16501Y02258*
X16502Y02266*
X16501Y02274*
X16496Y02281*
X16489Y02286*
X16481Y02288*
G37*
G36*
X16382D02*
X16374Y02286D01*
X16367Y02281*
X16362Y02274*
X16361Y02266*
X16362Y02258*
X16367Y02252*
X16374Y02247*
X16382Y02245*
X1639Y02247*
X16397Y02252*
X16401Y02258*
X16403Y02266*
X16401Y02274*
X16397Y02281*
X1639Y02286*
X16382Y02288*
G37*
G36*
X16995Y02378D02*
X16987Y02377D01*
X16981Y02375*
X16975Y0237*
X1697Y02365*
X16968Y02358*
X16967Y02351*
X16968Y02343*
X1697Y02337*
X16973Y02333*
Y0225*
X16962Y02239*
X16928*
X16926Y02244*
X16927Y02244*
X16931Y02251*
X16933Y02258*
Y02331*
X16933Y02331*
X16934Y02332*
X16937Y02337*
X1694Y02343*
X16941Y02351*
X1694Y02358*
X16937Y02365*
X16933Y0237*
X16927Y02375*
X1692Y02377*
X16913Y02378*
X16906Y02377*
X16899Y02375*
X16894Y0237*
X16889Y02365*
X16886Y02358*
X16885Y02351*
X16886Y02343*
X16889Y02337*
X16893Y02332*
X16893Y02331*
X16894Y02331*
Y02266*
X1688Y02253*
X16852*
Y02331*
X16853Y02331*
X16853Y02332*
X16857Y02337*
X1686Y02343*
X16861Y02351*
X1686Y02358*
X16857Y02365*
X16853Y0237*
X16847Y02375*
X1684Y02377*
X16833Y02378*
X16826Y02377*
X16819Y02375*
X16813Y0237*
X16809Y02365*
X16806Y02358*
X16805Y02351*
X16806Y02343*
X16809Y02337*
X16813Y02332*
X16813Y02331*
X16814Y02331*
Y02245*
X16808Y02239*
X16802*
X16799Y02244*
X16803Y02249*
X16804Y02257*
X16803Y02265*
X168Y02269*
X16803Y02272*
X16804Y02281*
X16803Y02289*
X16798Y02295*
X16791Y023*
X16783Y02302*
X16775Y023*
X1677Y02297*
X16765Y023*
X16757Y02302*
X16749Y023*
X16742Y02295*
X16738Y02289*
X16736Y0228*
X16738Y02272*
X1674Y02269*
X16738Y02265*
X16736Y02257*
X16738Y02249*
X16741Y02244*
X16738Y02239*
X16522*
X16514Y02238*
X16508Y02234*
X16483Y02209*
X16483Y02209*
X16482Y02209*
X16476Y02208*
X16469Y02205*
X16463Y02201*
X16459Y02195*
X16456Y02188*
X16455Y02181*
X16456Y02174*
X16459Y02167*
X16463Y02162*
X16469Y02157*
X16476Y02154*
X16483Y02153*
X1649Y02154*
X16497Y02157*
X16502Y02162*
X16507Y02167*
X1651Y02174*
X1651Y0218*
X16511Y02181*
X16511Y02181*
X1653Y02201*
X16558*
X1656Y02196*
X1656Y02195*
X16557Y02188*
X16556Y02181*
X16557Y02174*
X1656Y02167*
X16564Y02162*
X1657Y02157*
X16577Y02154*
X16584Y02153*
X16591Y02154*
X16598Y02157*
X16603Y02162*
X16608Y02167*
X16611Y02174*
X16611Y0218*
X16612Y02181*
X16612Y02181*
X16617Y02187*
X16652*
X16655Y02183*
X16655Y02181*
X16656Y02174*
X16659Y02167*
X16663Y02162*
X16669Y02157*
X16676Y02154*
X16683Y02153*
X1669Y02154*
X16697Y02157*
X16703Y02162*
X16707Y02167*
X1671Y02173*
X16831*
X16838Y02175*
X16844Y02179*
X16855Y0219*
X16859Y02189*
X1686Y02188*
X16865Y02181*
X16871Y02177*
X16879Y02175*
X16887Y02177*
X16894Y02181*
X16899Y02188*
X169Y02196*
X16904Y022*
X1697*
X16977Y02201*
X16984Y02206*
X17006Y02228*
X1701Y02235*
X17012Y02242*
Y02329*
X17014Y02331*
X17019Y02337*
X17021Y02343*
X17022Y02351*
X17021Y02358*
X17019Y02365*
X17014Y0237*
X17008Y02375*
X17002Y02377*
X16995Y02378*
G37*
G36*
X17232Y02185D02*
X17224Y02183D01*
X17218Y02178*
X17217Y02178*
X17212Y02182*
X17204Y02184*
X17196Y02182*
X1719Y02179*
X17185Y02182*
X17177Y02184*
X17169Y02182*
X17162Y02178*
X17157Y02171*
X17156Y02163*
X17157Y02155*
X17162Y02148*
X17169Y02143*
X17177Y02142*
X17185Y02143*
X1719Y02147*
X17196Y02143*
X17204Y02142*
X17212Y02143*
X17219Y02148*
X17219Y02148*
X17224Y02144*
X17232Y02142*
X1724Y02144*
X17247Y02149*
X17252Y02155*
X17253Y02163*
X17252Y02172*
X17247Y02178*
X1724Y02183*
X17232Y02185*
G37*
G36*
X17022Y02197D02*
X17014Y02196D01*
X17008Y02191*
X17003Y02184*
X17001Y02176*
X17003Y02168*
X17008Y02161*
X17014Y02157*
X17022Y02155*
X17031Y02157*
X17037Y02161*
X17042Y02168*
X17044Y02176*
X17042Y02184*
X17037Y02191*
X17031Y02196*
X17022Y02197*
G37*
G36*
X16382Y02172D02*
X16374Y0217D01*
X16367Y02166*
X16362Y02159*
X16361Y02151*
X16362Y02143*
X16367Y02136*
X16374Y02131*
X16382Y0213*
X1639Y02131*
X16397Y02136*
X16401Y02143*
X16403Y02151*
X16401Y02159*
X16397Y02166*
X1639Y0217*
X16382Y02172*
G37*
G36*
X16954Y02149D02*
X16946Y02148D01*
X16939Y02143*
X16934Y02136*
X16933Y02128*
X16934Y0212*
X16939Y02113*
X16946Y02109*
X16954Y02107*
X16962Y02109*
X16969Y02113*
X16973Y0212*
X16975Y02128*
X16973Y02136*
X16969Y02143*
X16962Y02148*
X16954Y02149*
G37*
G36*
X16995Y0211D02*
X16989Y02108D01*
X16983Y02105*
X1698Y02099*
X16978Y02092*
X1698Y02086*
X16982Y02082*
X16982Y02076*
X16981Y02075*
X16976Y02068*
X16974Y0206*
X16976Y02052*
X16981Y02045*
X16987Y0204*
X16995Y02039*
X17003Y0204*
X1701Y02045*
X17015Y02052*
X17016Y0206*
X17015Y02068*
X1701Y02075*
X17009Y02076*
X17009Y02082*
X17011Y02086*
X17012Y02092*
X17011Y02099*
X17007Y02105*
X17002Y02108*
X16995Y0211*
G37*
G36*
X16431Y02063D02*
X16423Y02061D01*
X16416Y02056*
X16412Y0205*
X1641Y02042*
X16412Y02033*
X16416Y02027*
X16423Y02022*
X16431Y0202*
X16439Y02022*
X16446Y02027*
X16451Y02033*
X16452Y02042*
X16451Y0205*
X16446Y02056*
X16439Y02061*
X16431Y02063*
G37*
G36*
X17281Y0206D02*
X17273Y02058D01*
X17266Y02054*
X17262Y02047*
X1726Y02039*
X17262Y02031*
X17266Y02024*
X17273Y0202*
X17281Y02018*
X17289Y0202*
X17296Y02024*
X17301Y02031*
X17302Y02039*
X17301Y02047*
X17296Y02054*
X17289Y02058*
X17281Y0206*
G37*
G36*
X17069Y02032D02*
X17061Y02031D01*
X17054Y02026*
X1705Y02019*
X17048Y02011*
X1705Y02003*
X17054Y01996*
X17061Y01992*
X17069Y0199*
X17077Y01992*
X17084Y01996*
X17089Y02003*
X1709Y02011*
X17089Y02019*
X17084Y02026*
X17077Y02031*
X17069Y02032*
G37*
G36*
X17007Y02032D02*
X16999Y02031D01*
X16992Y02026*
X16987Y02019*
X16986Y02011*
X16987Y02003*
X16992Y01996*
X16999Y01992*
X17007Y0199*
X17015Y01992*
X17022Y01996*
X17026Y02003*
X17028Y02011*
X17026Y02019*
X17022Y02026*
X17015Y02031*
X17007Y02032*
G37*
G36*
X16637Y01938D02*
X16629Y01937D01*
X16622Y01932*
X16618Y01925*
X16616Y01917*
X16618Y01909*
X16622Y01903*
X16629Y01898*
X16637Y01896*
X16645Y01898*
X16652Y01903*
X16657Y01909*
X16658Y01917*
X16657Y01925*
X16652Y01932*
X16645Y01937*
X16637Y01938*
G37*
G36*
X16539D02*
X16531Y01937D01*
X16524Y01932*
X16519Y01925*
X16518Y01917*
X16519Y01909*
X16524Y01903*
X16531Y01898*
X16539Y01896*
X16547Y01898*
X16554Y01903*
X16558Y01909*
X1656Y01917*
X16558Y01925*
X16554Y01932*
X16547Y01937*
X16539Y01938*
G37*
G36*
X16979Y0193D02*
X16971Y01928D01*
X16964Y01924*
X1696Y01917*
X16958Y01909*
X1696Y01901*
X16964Y01894*
X16971Y01889*
X16979Y01888*
X16987Y01889*
X16994Y01894*
X16999Y01901*
X17Y01909*
X16999Y01917*
X16994Y01924*
X16987Y01928*
X16979Y0193*
G37*
G36*
X17087Y0185D02*
X17079Y01848D01*
X17074Y01845*
X17069Y01848*
X17061Y0185*
X17053Y01848*
X1705Y01846*
X17046Y01848*
X17038Y0185*
X1703Y01848*
X17023Y01844*
X17019Y01837*
X17017Y01829*
X17019Y01821*
X17022Y01815*
X17019Y0181*
X17017Y01802*
X17019Y01794*
X17023Y01787*
X1703Y01782*
X17038Y01781*
X17046Y01782*
X1705Y01785*
X17053Y01782*
X17061Y01781*
X17069Y01782*
X17074Y01785*
X17079Y01782*
X17087Y01781*
X17095Y01782*
X17102Y01787*
X17106Y01794*
X17108Y01802*
X17106Y0181*
X17102Y01815*
X17106Y01821*
X17108Y01829*
X17106Y01837*
X17102Y01844*
X17095Y01848*
X17087Y0185*
G37*
G36*
X17166Y01807D02*
X17158Y01805D01*
X17151Y01801*
X17147Y01794*
X17145Y01786*
X17147Y01778*
X17151Y01771*
X17158Y01766*
X17166Y01765*
X17174Y01766*
X17181Y01771*
X17185Y01778*
X17187Y01786*
X17185Y01794*
X17181Y01801*
X17174Y01805*
X17166Y01807*
G37*
G36*
X16849Y00847D02*
X16841Y00845D01*
X16836Y00842*
X16831Y00845*
X16823Y00847*
X16815Y00845*
X16808Y0084*
X16804Y00834*
X16802Y00826*
X16804Y00817*
X16807Y00813*
X16804Y00808*
X16802Y008*
X16804Y00792*
X16806Y00789*
X16804Y00785*
X16802Y00777*
X16804Y00769*
X16808Y00762*
X16815Y00757*
X16823Y00756*
X16831Y00757*
X16836Y00761*
X16841Y00758*
X16849Y00756*
X16857Y00758*
X16864Y00762*
X16869Y00769*
X1687Y00777*
X16869Y00785*
X16866Y00789*
X16869Y00792*
X1687Y008*
X16869Y00808*
X16866Y00813*
X16869Y00818*
X1687Y00826*
X16869Y00834*
X16864Y0084*
X16857Y00845*
X16849Y00847*
G37*
G36*
X16682Y00378D02*
X16674Y00376D01*
X16668Y00372*
X16663Y00365*
X16661Y00357*
X16663Y00349*
X16668Y00342*
X16674Y00337*
X16682Y00336*
X1669Y00337*
X16697Y00342*
X16702Y00349*
X16704Y00357*
X16702Y00365*
X16697Y00372*
X1669Y00376*
X16682Y00378*
G37*
G36*
X17022Y00571D02*
X17014Y0057D01*
X1701Y00566*
X17006Y00569*
X16998Y00571*
X1699Y00569*
X16983Y00564*
X16978Y00558*
X16977Y0055*
X16978Y00541*
X16983Y00535*
X1699Y0053*
X16998Y00528*
X17006Y0053*
X1701Y00533*
X17014Y00531*
X17022Y00529*
X1703Y00531*
X17037Y00535*
X17042Y00542*
X17043Y0055*
X17042Y00558*
X17037Y00565*
X1703Y0057*
X17022Y00571*
G37*
G36*
X16886Y00571D02*
X16878Y00569D01*
X16871Y00565*
X16867Y00558*
X16865Y0055*
X16867Y00542*
X16871Y00535*
X16878Y00531*
X16886Y00529*
X16894Y00531*
X16896Y00532*
X169Y0053*
X16908Y00528*
X16916Y0053*
X16923Y00534*
X16927Y00541*
X16929Y00549*
X16927Y00557*
X16923Y00564*
X16916Y00569*
X16908Y0057*
X169Y00569*
X16898Y00567*
X16894Y00569*
X16886Y00571*
G37*
%LNnas-craftsman_nixie_v1-3*%
%LPD*%
G36*
X17142Y01929D02*
X17142Y01928D01*
X17142Y01927*
X17142Y01926*
X17142Y01925*
X17143Y01924*
X17143Y01923*
X17144Y01922*
X17145Y01921*
X17146Y01919*
X1713Y01921*
X17131Y01922*
X17132Y01922*
X17132Y01923*
X17133Y01924*
X17134Y01925*
X17134Y01926*
X17135Y01927*
X17135Y01928*
X17135Y01929*
X17135Y0193*
X17142Y01929*
G37*
G36*
X16921Y02341D02*
X1692Y0234D01*
X16919Y02339*
X16918Y02338*
X16918Y02337*
X16917Y02336*
X16917Y02335*
X16917Y02334*
X16917Y02333*
X16917Y02332*
X1691*
X1691Y02333*
X1691Y02334*
X16909Y02335*
X16909Y02336*
X16909Y02337*
X16908Y02338*
X16907Y02339*
X16907Y0234*
X16906Y02341*
X16905Y02342*
X16921*
X16921Y02341*
G37*
G36*
X1684D02*
X16839Y0234D01*
X16839Y02339*
X16838Y02338*
X16838Y02337*
X16837Y02336*
X16837Y02335*
X16837Y02334*
X16836Y02333*
X16836Y02332*
X1683*
X1683Y02333*
X16829Y02334*
X16829Y02335*
X16829Y02336*
X16828Y02337*
X16828Y02338*
X16827Y02339*
X16826Y0234*
X16826Y02341*
X16825Y02342*
X16841*
X1684Y02341*
G37*
G36*
X16699Y02189D02*
X16699Y02189D01*
X16698Y02188*
X16698Y02187*
X16697Y02186*
X16697Y02185*
X16696Y02184*
X16695Y02181*
X16695Y0218*
X16695Y02179*
X16686Y02193*
X16687Y02192*
X16688Y02192*
X16689Y02192*
X1669Y02192*
X16691Y02193*
X16692Y02193*
X16693Y02193*
X16694Y02194*
X16695Y02194*
X16696Y02195*
X16699Y02189*
G37*
G36*
X16599Y02192D02*
X16598Y02191D01*
X16598Y0219*
X16597Y02189*
X16597Y02188*
X16596Y02187*
X16596Y02186*
X16596Y02185*
X16596Y02184*
X16596Y02183*
X16596Y02181*
X16584Y02193*
X16585Y02193*
X16587Y02193*
X16588Y02193*
X16589Y02194*
X1659Y02194*
X16591Y02194*
X16592Y02195*
X16593Y02195*
X16594Y02196*
X16594Y02197*
X16599Y02192*
G37*
G36*
X16498D02*
X16498Y02191D01*
X16497Y0219*
X16496Y02189*
X16496Y02188*
X16495Y02187*
X16495Y02186*
X16495Y02185*
X16495Y02184*
X16495Y02183*
X16495Y02181*
X16483Y02193*
X16484Y02193*
X16486Y02193*
X16487Y02193*
X16488Y02194*
X16489Y02194*
X1649Y02194*
X16491Y02195*
X16492Y02195*
X16493Y02196*
X16493Y02197*
X16498Y02192*
G37*
G54D13*
X17543Y00065D02*
D01*
X17546Y00065*
X17549Y00065*
X17553Y00066*
X17556Y00066*
X1756Y00068*
X17563Y00069*
X17566Y0007*
X17569Y00072*
X17572Y00074*
X17575Y00076*
X17577Y00079*
X1758Y00081*
X17582Y00084*
X17584Y00087*
X17586Y0009*
X17587Y00093*
X17589Y00096*
X1759Y00099*
X17591Y00102*
X17592Y00106*
X17592Y00109*
X17592Y00113*
X17593Y00115*
X17593Y0259D02*
D01*
X17593Y02594*
X17592Y02597*
X17592Y02601*
X17591Y02604*
X1759Y02607*
X17588Y02611*
X17587Y02614*
X17585Y02617*
X17583Y0262*
X17581Y02622*
X17579Y02625*
X17576Y02627*
X17574Y0263*
X17571Y02632*
X17568Y02634*
X17565Y02635*
X17562Y02637*
X17558Y02638*
X17555Y02639*
X17552Y02639*
X17548Y0264*
X17545Y0264*
X17543Y0264*
X16352Y0264D02*
D01*
X16349Y0264*
X16345Y0264*
X16342Y02639*
X16338Y02638*
X16335Y02637*
X16332Y02636*
X16329Y02634*
X16326Y02632*
X16323Y02631*
X1632Y02628*
X16317Y02626*
X16315Y02624*
X16313Y02621*
X16311Y02618*
X16309Y02615*
X16307Y02612*
X16306Y02609*
X16305Y02606*
X16304Y02602*
X16303Y02599*
X16302Y02595*
X16302Y02592*
X16302Y0259*
X16302Y00114D02*
D01*
X16302Y00111*
X16302Y00107*
X16303Y00104*
X16304Y00101*
X16305Y00097*
X16306Y00094*
X16308Y00091*
X16309Y00088*
X16311Y00085*
X16313Y00082*
X16316Y0008*
X16318Y00077*
X16321Y00075*
X16324Y00073*
X16327Y00071*
X1633Y00069*
X16333Y00068*
X16336Y00067*
X1634Y00066*
X16343Y00065*
X16347Y00065*
X1635Y00064*
X16352Y00064*
X17593Y00115D02*
Y02591D01*
X16352Y02641D02*
X17546D01*
X16302Y00114D02*
Y0259D01*
X16345Y00065D02*
X17543D01*
G54D64*
X16816Y0222D02*
X16833Y02237D01*
X16483Y02181D02*
X16522Y0222D01*
X16816*
X16833Y02237D02*
Y02351D01*
X16823Y02206D02*
X1685Y02233D01*
X16888*
X16913Y02258*
Y02351*
X16992Y02349D02*
X16995Y02351D01*
X16992Y02242D02*
Y02349D01*
X16857Y02219D02*
X1697D01*
X16992Y02242*
X16831Y02193D02*
X16857Y02219D01*
X16698Y02193D02*
X16831D01*
X1699Y02351D02*
X16995D01*
X16609Y02206D02*
X16823D01*
X1699Y02493D02*
X16992Y02491D01*
Y02443D02*
Y02491D01*
Y02443D02*
X17009Y02425D01*
X17047*
X17085Y0219D02*
Y02388D01*
X17047Y02425D02*
X17085Y02388D01*
X17071Y02185D02*
Y02383D01*
X1693Y02412D02*
X17042D01*
X17071Y02383*
X16907Y02435D02*
Y02493D01*
Y02435D02*
X1693Y02412D01*
X16907Y02493D02*
X16908Y02493D01*
X17125Y01956D02*
Y02131D01*
X17087Y01918D02*
X17089D01*
X17092Y01921*
Y01923*
X17125Y01956*
X17137Y01911D02*
X17138Y01913D01*
X17071Y02185D02*
X17125Y02131D01*
X17085Y0219D02*
X17138Y02136D01*
Y01913D02*
Y02136D01*
X16687Y02181D02*
X16698Y02193D01*
X16683Y02181D02*
X16687D01*
X16584D02*
X16609Y02206D01*
G54D88*
X16672Y00669D02*
X16843D01*
X16643Y00698D02*
X16672Y00669D01*
X16643Y00698D02*
Y00908D01*
X16843Y00669D02*
X1688Y00706D01*
X17168Y00628D02*
Y00682D01*
X17144Y00706D02*
X17168Y00682D01*
X1688Y00706D02*
X17144D01*
X16674Y00926D02*
X16675Y00925D01*
X16672Y00926D02*
X16674D01*
X16672Y00926D02*
X16672Y00926D01*
X16661Y00926D02*
X16672D01*
X16643Y00908D02*
X16661Y00926D01*
G54D93*
X1663Y00309D03*
Y00463D03*
Y00348D03*
Y00385D03*
Y00423D03*
G54D94*
X16519Y02502D03*
X17152Y02473D03*
X1725Y02272D03*
X16833Y02351D03*
X1699Y02493D03*
X16912D03*
X16913Y02351D03*
X16995D03*
X16683Y02181D03*
X16584D03*
X16584Y02375D03*
X16483Y02181D03*
X16601Y01085D03*
X16649D03*
X16601Y01059D03*
X16626D03*
X1665D03*
X16626Y01085D03*
X17137Y01911D03*
X17087D03*
X17168Y00522D03*
X171Y00867D03*
X17078Y00867D03*
Y00842D03*
X171Y00841D03*
X171Y00815D03*
X17078Y00816D03*
Y0079D03*
X171Y0079D03*
X16353Y00337D03*
X16376D03*
X16334Y00381D03*
Y00358D03*
X16768Y00701D03*
Y00726D03*
X16793Y00726D03*
Y00701D03*
X16833Y00878D03*
X16855Y00951D03*
Y00926D03*
Y00903D03*
Y00878D03*
X16833Y00952D03*
Y00927D03*
Y00903D03*
X16901Y00878D03*
X1688Y00879D03*
Y00904D03*
Y00927D03*
Y00952D03*
X16901Y00904D03*
Y00927D03*
Y00952D03*
X16675Y00925D03*
X16913Y02035D03*
X17168Y00628D03*
X1664Y02502D03*
X17133Y022D03*
X17107Y022D03*
X16617Y0204D03*
X16461Y02042D03*
X1679Y02116D03*
Y02093D03*
X16765Y02116D03*
Y02093D03*
X17219Y01741D03*
Y01764D03*
X17245Y01741D03*
Y01764D03*
X17087Y00511D03*
X17111D03*
X17086Y00586D03*
X17111D03*
X16796Y00586D03*
X1682D03*
X16823Y00514D03*
X16799D03*
G54D95*
X16543Y00622D03*
Y00707D03*
Y00751D03*
Y00579D03*
Y00664D03*
Y00795D03*
X16502Y00622D03*
X16582D03*
X16502Y00707D03*
X16582D03*
X16502Y00751D03*
X16582D03*
X16502Y00579D03*
X16582D03*
X16502Y00664D03*
X16582D03*
X16502Y00795D03*
X16582D03*
M02*