M48
;Layer_Color=9474304
;FILE_FORMAT=4:4
METRIC,LZ
;TYPE=PLATED
T1F00S00C0.2500
T2F00S00C0.4000
T3F00S00C0.4500
;TYPE=NON_PLATED
T5F00S00C0.5200
T6F00S00C3.0000
%
T01
X04315596Y00043889
Y00050334
X0429515Y00049899
X04295137Y00043424
X04276025Y00043544
X04275965Y00049975
X04237464Y00090718
X04266963Y0013068
X04273161
X04272493Y00149084
X04266295
X04265557Y00178112
Y00184557
X04259096Y00184535
Y0017809
X04273242Y00197473
Y00203362
Y00209807
X04279812Y00209827
Y00203382
Y00197493
X04281288Y00223115
X04275816Y00223166
Y00229611
X04281288Y0022956
Y00235449
X04275816Y002355
Y00241833
X04281288Y00241782
X04287521Y00241958
X04292994Y00241907
Y00235573
X04287521Y00235624
Y00229735
X04292994Y00229684
Y0022324
X04287521Y00223291
X04303462Y001874
X04311958
X04315645Y00169944
X04314137Y00163752
X043098Y0015704
X0430213
X04297151Y00163558
X04294113Y00169209
X04294685Y001396
X04289206Y00139824
X04317556Y0013971
X04323794Y00139845
X04340007Y00148989
X04346205
X043463Y00129917
X04340102
X0436078Y00132794
Y00159755
X04343423Y00200775
X04337951Y00200826
Y00207271
X04343423Y0020722
X04343517Y00213825
X04338044Y00213876
Y00220321
X04343517Y0022027
X04235786Y00219428
X04235453Y00227499
X04235485Y00235063
X04229115Y00269048
X04223226
X04216781
X04216761Y00275614
X04223206
X04229095
X0417853Y00359843
Y00366941
Y00373755
Y00381653
X04149009Y00096959
Y0009107
X04153795Y00085672
X04159685
X04302102Y00121794
X04373673Y00442346
Y00448235
X0438024Y00448255
Y00442366
X04388232Y0048715
X04394309
X04365949Y004856
X04389526Y00518032
X0437716Y00549644
X04369841Y00549448
X04381689Y00577308
X04348554Y00577149
X04356277Y0059038
Y0059627
Y0060272
X0435674Y00628205
X04332364Y0062252
X04306018
X04315507Y0063331
X0429569
X04275817
X04282648Y0062252
X0425563Y00625551
Y00617177
X04243712Y0063331
X04226616Y0063558
X04217018Y00637002
X0420972Y00636899
X04195965Y0063558
X04212399Y00603251
X04224771Y005758
X04212406Y0055414
X04237609
X04258311Y00537603
Y00531714
X04264877Y00531734
Y00537623
X04263054Y00573492
Y00579381
X04256487Y00579361
Y00573472
X042757Y0059718
X04296084
X0431674
X04323841Y00552892
X04345367Y00558955
X04351934Y00558974
X0436302Y00549448
X0434115Y00538844
X0434066Y00529058
Y00522307
X04335726Y00510948
X04319842Y0051093
X0431696Y00523333
Y00531618
X04306363Y00540721
X0429615Y0051701
X04312864Y00484982
X04340193Y004856
X04352869
X0434016Y0046469
X0433372
X0432783
Y00457753
X0433372
X0434016Y0045775
X04360295Y00453734
X0422594Y0048715
X04200981
X04220825Y00518246
X04181315Y0051867
X04173692
X0416109Y00546428
Y005758
X04186336
X04186759Y0055414
X04287497Y00557965
T02
X0422421Y00078527
Y00088424
Y00097843
Y00107611
Y0011779
T03
X04212013Y00147215
X04201967
X04191697
Y00158185
X04201967
X04212013
Y00168835
X04201967
X04191697
Y00179705
X04201967
X04212013
Y00190775
X04201967
X04191697
Y00201955
X04201967
X04212013
T05
X0434313Y00139605
X0426813
T06
X0416774Y0004193
X04443988Y00041926
X0444399Y00644552
X04167742Y0064455
M30
